G04 EAGLE Gerber RS-274X export*
G75*
%MOMM*%
%FSLAX34Y34*%
%LPD*%
%INBottom Copper*%
%IPPOS*%
%AMOC8*
5,1,8,0,0,1.08239X$1,22.5*%
G01*
%ADD10C,1.524000*%
%ADD11R,0.600000X1.200000*%
%ADD12C,0.152400*%
%ADD13C,0.756400*%


D10*
X936500Y32380D02*
X936500Y47620D01*
X961900Y47620D02*
X961900Y32380D01*
X987300Y32380D02*
X987300Y47620D01*
X1012700Y47620D02*
X1012700Y32380D01*
X1038100Y32380D02*
X1038100Y47620D01*
X1063500Y47620D02*
X1063500Y32380D01*
X587300Y222380D02*
X587300Y237620D01*
X612700Y237620D02*
X612700Y222380D01*
X587300Y262380D02*
X587300Y277620D01*
X612700Y277620D02*
X612700Y262380D01*
X336500Y47620D02*
X336500Y32380D01*
X361900Y32380D02*
X361900Y47620D01*
X387300Y47620D02*
X387300Y32380D01*
X412700Y32380D02*
X412700Y47620D01*
X438100Y47620D02*
X438100Y32380D01*
X463500Y32380D02*
X463500Y47620D01*
X136500Y47620D02*
X136500Y32380D01*
X161900Y32380D02*
X161900Y47620D01*
X187300Y47620D02*
X187300Y32380D01*
X212700Y32380D02*
X212700Y47620D01*
X238100Y47620D02*
X238100Y32380D01*
X263500Y32380D02*
X263500Y47620D01*
X736500Y47620D02*
X736500Y32380D01*
X761900Y32380D02*
X761900Y47620D01*
X787300Y47620D02*
X787300Y32380D01*
X812700Y32380D02*
X812700Y47620D01*
X838100Y47620D02*
X838100Y32380D01*
X863500Y32380D02*
X863500Y47620D01*
D11*
X155550Y158000D03*
X168250Y158000D03*
X180950Y158000D03*
X193650Y158000D03*
X206350Y158000D03*
X219050Y158000D03*
X231750Y158000D03*
X244450Y158000D03*
X244450Y102000D03*
X231750Y102000D03*
X219050Y102000D03*
X206350Y102000D03*
X193650Y102000D03*
X180950Y102000D03*
X168250Y102000D03*
X155550Y102000D03*
X355550Y158000D03*
X368250Y158000D03*
X380950Y158000D03*
X393650Y158000D03*
X406350Y158000D03*
X419050Y158000D03*
X431750Y158000D03*
X444450Y158000D03*
X444450Y102000D03*
X431750Y102000D03*
X419050Y102000D03*
X406350Y102000D03*
X393650Y102000D03*
X380950Y102000D03*
X368250Y102000D03*
X355550Y102000D03*
X555550Y158000D03*
X568250Y158000D03*
X580950Y158000D03*
X593650Y158000D03*
X606350Y158000D03*
X619050Y158000D03*
X631750Y158000D03*
X644450Y158000D03*
X644450Y102000D03*
X631750Y102000D03*
X619050Y102000D03*
X606350Y102000D03*
X593650Y102000D03*
X580950Y102000D03*
X568250Y102000D03*
X555550Y102000D03*
X755550Y158000D03*
X768250Y158000D03*
X780950Y158000D03*
X793650Y158000D03*
X806350Y158000D03*
X819050Y158000D03*
X831750Y158000D03*
X844450Y158000D03*
X844450Y102000D03*
X831750Y102000D03*
X819050Y102000D03*
X806350Y102000D03*
X793650Y102000D03*
X780950Y102000D03*
X768250Y102000D03*
X755550Y102000D03*
X955550Y158000D03*
X968250Y158000D03*
X980950Y158000D03*
X993650Y158000D03*
X1006350Y158000D03*
X1019050Y158000D03*
X1031750Y158000D03*
X1044450Y158000D03*
X1044450Y102000D03*
X1031750Y102000D03*
X1019050Y102000D03*
X1006350Y102000D03*
X993650Y102000D03*
X980950Y102000D03*
X968250Y102000D03*
X955550Y102000D03*
D12*
X830000Y77500D02*
X807500Y100000D01*
X830000Y77500D02*
X840000Y77500D01*
X807500Y100000D02*
X806350Y102000D01*
X1007500Y100000D02*
X1025000Y82500D01*
X1055000Y82500D01*
X1062500Y75000D01*
X1007500Y100000D02*
X1006350Y102000D01*
X222500Y85000D02*
X207500Y100000D01*
X222500Y85000D02*
X260000Y85000D01*
X265000Y80000D01*
X207500Y100000D02*
X206350Y102000D01*
X407500Y102500D02*
X407500Y117500D01*
X467500Y117500D01*
X407500Y102500D02*
X406350Y102000D01*
X607500Y100000D02*
X622500Y85000D01*
X650000Y85000D01*
X657500Y77500D01*
X647500Y35000D02*
X602500Y35000D01*
X600000Y32500D01*
X472500Y32500D01*
X465000Y40000D01*
X606350Y102000D02*
X607500Y100000D01*
X465000Y40000D02*
X463500Y40000D01*
D13*
X840000Y77500D03*
X1062500Y75000D03*
X265000Y80000D03*
X467500Y117500D03*
X657500Y77500D03*
X647500Y35000D03*
D12*
X820000Y100000D02*
X835000Y85000D01*
X870000Y85000D01*
X820000Y100000D02*
X819050Y102000D01*
X1020000Y102500D02*
X1030000Y112500D01*
X1035000Y112500D01*
X1037500Y110000D01*
X1037500Y92500D01*
X1060000Y92500D01*
X1075000Y77500D01*
X1075000Y60000D01*
X1060000Y60000D01*
X1040000Y40000D01*
X1019050Y102000D02*
X1020000Y102500D01*
X1038100Y40000D02*
X1040000Y40000D01*
X837500Y40000D02*
X827500Y50000D01*
X825000Y50000D01*
X815000Y60000D01*
X810000Y60000D01*
X802500Y52500D01*
X802500Y15000D01*
X1012500Y15000D01*
X1037500Y40000D01*
X838100Y40000D02*
X837500Y40000D01*
X1037500Y40000D02*
X1038100Y40000D01*
X230000Y90000D02*
X220000Y100000D01*
X230000Y90000D02*
X265000Y90000D01*
X272500Y82500D01*
X272500Y72500D01*
X257500Y72500D01*
X220000Y100000D02*
X219050Y102000D01*
X420000Y100000D02*
X435000Y85000D01*
X455000Y85000D01*
X460000Y80000D01*
X460000Y60000D01*
X440000Y40000D01*
X420000Y100000D02*
X419050Y102000D01*
X620000Y100000D02*
X630000Y90000D01*
X655000Y90000D01*
X665000Y80000D01*
X665000Y42500D01*
X605000Y42500D01*
X600000Y37500D01*
X490000Y37500D01*
X467500Y60000D01*
X460000Y60000D01*
X619050Y102000D02*
X620000Y100000D01*
X800000Y12500D02*
X802500Y15000D01*
X800000Y12500D02*
X452500Y12500D01*
X440000Y25000D01*
X440000Y40000D01*
X438100Y40000D01*
D13*
X870000Y85000D03*
X257500Y72500D03*
D12*
X392500Y102500D02*
X392500Y117500D01*
X357500Y117500D02*
X335000Y117500D01*
X357500Y117500D02*
X392500Y117500D01*
X335000Y117500D02*
X295000Y157500D01*
X255000Y157500D02*
X245000Y157500D01*
X255000Y157500D02*
X295000Y157500D01*
X392500Y102500D02*
X393650Y102000D01*
X202500Y145000D02*
X202500Y147500D01*
X200000Y150000D01*
X200000Y167500D01*
X222500Y167500D01*
X225000Y165000D01*
X225000Y147500D01*
X235000Y147500D01*
X245000Y157500D01*
X244450Y158000D01*
X195000Y100000D02*
X215000Y80000D01*
X232500Y80000D01*
X237500Y75000D01*
X237500Y65000D02*
X237500Y60000D01*
X237500Y65000D02*
X237500Y75000D01*
X237500Y60000D02*
X207500Y60000D01*
X187500Y40000D01*
X195000Y100000D02*
X193650Y102000D01*
X187500Y40000D02*
X187300Y40000D01*
X180000Y117500D02*
X157500Y117500D01*
X180000Y117500D02*
X195000Y102500D01*
X193650Y102000D01*
X365000Y60000D02*
X385000Y40000D01*
X365000Y60000D02*
X237500Y60000D01*
X385000Y40000D02*
X387300Y40000D01*
X157500Y117500D02*
X20000Y117500D01*
X255000Y155000D02*
X255000Y157500D01*
X445000Y157500D02*
X447500Y155000D01*
X457500Y155000D01*
X445000Y157500D02*
X444450Y158000D01*
X457500Y155000D02*
X477500Y175000D01*
X535000Y175000D01*
X645000Y157500D02*
X647500Y155000D01*
X657500Y155000D01*
X645000Y157500D02*
X644450Y158000D01*
X592500Y112500D02*
X592500Y102500D01*
X592500Y112500D02*
X587500Y112500D01*
X592500Y102500D02*
X593650Y102000D01*
X632500Y140000D02*
X647500Y155000D01*
X632500Y140000D02*
X620000Y140000D01*
X657500Y155000D02*
X742500Y155000D01*
X565000Y87500D02*
X555000Y77500D01*
X565000Y87500D02*
X580000Y87500D01*
X592500Y100000D01*
X593650Y102000D01*
X1045000Y157500D02*
X1052500Y150000D01*
X1055000Y150000D01*
X1045000Y157500D02*
X1044450Y158000D01*
X1060000Y160000D02*
X1060000Y182500D01*
X1060000Y160000D02*
X1045000Y160000D01*
X1044450Y158000D01*
X850000Y152500D02*
X845000Y157500D01*
X857500Y152500D02*
X902500Y152500D01*
X857500Y152500D02*
X850000Y152500D01*
X902500Y152500D02*
X937500Y117500D01*
X985000Y117500D01*
X992500Y110000D01*
X992500Y102500D01*
X845000Y157500D02*
X844450Y158000D01*
X992500Y102500D02*
X993650Y102000D01*
X985000Y117500D02*
X1010000Y117500D01*
X1042500Y117500D01*
X825000Y70000D02*
X815000Y80000D01*
X795000Y100000D01*
X825000Y70000D02*
X847500Y70000D01*
X850000Y72500D01*
X947500Y72500D01*
X960000Y60000D01*
X965000Y60000D01*
X985000Y40000D01*
X795000Y100000D02*
X793650Y102000D01*
X985000Y40000D02*
X987300Y40000D01*
X815000Y80000D02*
X812500Y77500D01*
X785000Y40000D02*
X755000Y70000D01*
X785000Y40000D02*
X787300Y40000D01*
X410000Y85000D02*
X395000Y100000D01*
X410000Y85000D02*
X430000Y85000D01*
X437500Y77500D01*
X442500Y77500D01*
X395000Y100000D02*
X393650Y102000D01*
D13*
X202500Y145000D03*
X357500Y117500D03*
X157500Y117500D03*
X237500Y65000D03*
X20000Y117500D03*
X255000Y155000D03*
X457500Y155000D03*
X535000Y175000D03*
X657500Y155000D03*
X587500Y112500D03*
X620000Y140000D03*
X742500Y155000D03*
X555000Y77500D03*
X1055000Y150000D03*
X1060000Y182500D03*
X1042500Y117500D03*
X857500Y152500D03*
X812500Y77500D03*
X1010000Y117500D03*
X755000Y70000D03*
X442500Y77500D03*
D12*
X250000Y95000D02*
X245000Y100000D01*
X250000Y95000D02*
X350000Y95000D01*
X352500Y92500D01*
X372500Y92500D01*
X380000Y100000D01*
X245000Y100000D02*
X244450Y102000D01*
X380000Y100000D02*
X380950Y102000D01*
X445000Y100000D02*
X452500Y92500D01*
X572500Y92500D01*
X580000Y100000D01*
X445000Y100000D02*
X444450Y102000D01*
X580000Y100000D02*
X580950Y102000D01*
X645000Y102500D02*
X647500Y105000D01*
X665000Y105000D01*
X680000Y122500D02*
X762500Y122500D01*
X767500Y117500D01*
X770000Y117500D01*
X780000Y107500D01*
X780000Y102500D01*
X645000Y102500D02*
X644450Y102000D01*
X780000Y102500D02*
X780950Y102000D01*
D13*
X665000Y105000D03*
X680000Y122500D03*
D12*
X192500Y77500D02*
X172500Y97500D01*
X170000Y100000D01*
X192500Y77500D02*
X195000Y77500D01*
X170000Y100000D02*
X168250Y102000D01*
X172500Y97500D02*
X162500Y87500D01*
X112500Y87500D01*
X110000Y90000D01*
D13*
X195000Y77500D03*
X110000Y90000D03*
D12*
X157500Y142500D02*
X157500Y157500D01*
X157500Y142500D02*
X187500Y142500D01*
X157500Y157500D02*
X155550Y158000D01*
X107500Y160000D02*
X102500Y165000D01*
X107500Y160000D02*
X155000Y160000D01*
X155550Y158000D01*
X232500Y137500D02*
X250000Y120000D01*
X232500Y137500D02*
X192500Y137500D01*
X187500Y142500D01*
D13*
X187500Y142500D03*
X102500Y165000D03*
X250000Y120000D03*
D12*
X167500Y160000D02*
X160000Y167500D01*
X120000Y167500D01*
X167500Y160000D02*
X168250Y158000D01*
X180000Y77500D02*
X172500Y70000D01*
X112500Y70000D01*
X227500Y70000D02*
X230000Y72500D01*
X227500Y70000D02*
X172500Y70000D01*
D13*
X120000Y167500D03*
X180000Y77500D03*
X112500Y70000D03*
X230000Y72500D03*
D12*
X180000Y160000D02*
X165000Y175000D01*
X102500Y175000D01*
X92500Y165000D01*
X92500Y160000D01*
X180000Y160000D02*
X180950Y158000D01*
D13*
X92500Y160000D03*
X180000Y135000D03*
X235000Y125000D03*
D12*
X192500Y160000D02*
X192500Y187500D01*
X110000Y187500D01*
X82500Y160000D01*
X192500Y160000D02*
X193650Y158000D01*
X165000Y130000D02*
X162500Y132500D01*
X110000Y132500D01*
X82500Y160000D01*
D13*
X82500Y160000D03*
X165000Y130000D03*
X220000Y117500D03*
D12*
X207500Y150000D02*
X207500Y157500D01*
X207500Y150000D02*
X212500Y145000D01*
X207500Y157500D02*
X206350Y158000D01*
X115000Y137500D02*
X102500Y150000D01*
X115000Y137500D02*
X167500Y137500D01*
X177500Y127500D01*
X195000Y127500D01*
X197500Y130000D01*
X157500Y82500D02*
X162500Y77500D01*
X157500Y82500D02*
X107500Y82500D01*
X100000Y90000D01*
D13*
X212500Y145000D03*
X197500Y130000D03*
X102500Y150000D03*
X162500Y77500D03*
X100000Y90000D03*
D12*
X220000Y142500D02*
X220000Y157500D01*
X220000Y142500D02*
X252500Y142500D01*
X282500Y112500D01*
X220000Y157500D02*
X219050Y158000D01*
D13*
X282500Y112500D03*
D12*
X230000Y160000D02*
X230000Y195000D01*
X137500Y195000D01*
X230000Y160000D02*
X231750Y158000D01*
X195000Y62500D02*
X127500Y62500D01*
D13*
X137500Y195000D03*
X195000Y62500D03*
X127500Y62500D03*
D12*
X370000Y102500D02*
X370000Y112500D01*
X385000Y112500D01*
X387500Y110000D01*
X387500Y77500D01*
X395000Y77500D01*
X370000Y102500D02*
X368250Y102000D01*
X445000Y70000D02*
X452500Y77500D01*
X445000Y70000D02*
X402500Y70000D01*
X395000Y77500D01*
D13*
X395000Y77500D03*
X452500Y77500D03*
D12*
X357500Y142500D02*
X357500Y157500D01*
X357500Y142500D02*
X380000Y142500D01*
X357500Y157500D02*
X355550Y158000D01*
D13*
X380000Y142500D03*
X450000Y125000D03*
D12*
X367500Y160000D02*
X367500Y172500D01*
X352500Y172500D01*
X340000Y160000D01*
X340000Y127500D01*
X368250Y158000D02*
X367500Y160000D01*
X380000Y62500D02*
X435000Y62500D01*
D13*
X340000Y127500D03*
X380000Y62500D03*
X435000Y62500D03*
D12*
X370000Y147500D02*
X380000Y157500D01*
X370000Y147500D02*
X365000Y147500D01*
X362500Y150000D01*
X362500Y167500D01*
X352500Y167500D01*
X350000Y165000D01*
X350000Y132500D01*
X380000Y132500D01*
X380000Y157500D02*
X380950Y158000D01*
D13*
X380000Y132500D03*
X425000Y55000D03*
D12*
X395000Y147500D02*
X395000Y157500D01*
X395000Y147500D02*
X410000Y147500D01*
X412500Y150000D01*
X412500Y167500D01*
X435000Y167500D01*
X437500Y165000D01*
X437500Y152500D01*
X442500Y147500D01*
X442500Y127500D01*
X420000Y127500D01*
X395000Y157500D02*
X393650Y158000D01*
D13*
X420000Y127500D03*
X365000Y75000D03*
D12*
X405000Y160000D02*
X390000Y175000D01*
X370000Y175000D01*
X367500Y177500D01*
X335000Y177500D01*
X405000Y160000D02*
X406350Y158000D01*
D13*
X335000Y177500D03*
X417500Y77500D03*
D12*
X420000Y142500D02*
X420000Y157500D01*
X419050Y158000D01*
X402500Y125000D02*
X350000Y125000D01*
X402500Y125000D02*
X405000Y127500D01*
D13*
X420000Y142500D03*
X405000Y127500D03*
X350000Y125000D03*
D12*
X430000Y150000D02*
X430000Y157500D01*
X430000Y150000D02*
X427500Y147500D01*
X427500Y135000D01*
X397500Y135000D01*
X430000Y157500D02*
X431750Y158000D01*
D13*
X397500Y135000D03*
X347500Y77500D03*
D12*
X570000Y102500D02*
X570000Y117500D01*
X582500Y117500D01*
X585000Y120000D01*
X595000Y120000D01*
X570000Y102500D02*
X568250Y102000D01*
X595000Y120000D02*
X652500Y120000D01*
D13*
X595000Y120000D03*
X652500Y120000D03*
D12*
X555000Y145000D02*
X555000Y157500D01*
X555000Y145000D02*
X550000Y145000D01*
X555000Y157500D02*
X555550Y158000D01*
X592500Y77500D02*
X647500Y77500D01*
D13*
X550000Y145000D03*
X592500Y77500D03*
X647500Y77500D03*
D12*
X567500Y160000D02*
X567500Y182500D01*
X547500Y182500D01*
X567500Y160000D02*
X568250Y158000D01*
X580000Y132500D02*
X635000Y132500D01*
D13*
X547500Y182500D03*
X580000Y132500D03*
X635000Y132500D03*
D12*
X582500Y147500D02*
X582500Y157500D01*
X582500Y147500D02*
X600000Y147500D01*
X582500Y157500D02*
X580950Y158000D01*
X585000Y70000D02*
X637500Y70000D01*
D13*
X600000Y147500D03*
X585000Y70000D03*
X637500Y70000D03*
D12*
X592500Y160000D02*
X585000Y167500D01*
X577500Y167500D01*
X575000Y165000D01*
X575000Y147500D01*
X565000Y147500D01*
X562500Y150000D01*
X562500Y167500D01*
X517500Y167500D01*
X512500Y162500D01*
X512500Y130000D01*
X565000Y130000D01*
X593650Y158000D02*
X592500Y160000D01*
D13*
X565000Y130000D03*
X622500Y50000D03*
X622500Y27500D03*
D12*
X607500Y147500D02*
X607500Y157500D01*
X607500Y147500D02*
X635000Y147500D01*
X637500Y150000D01*
X637500Y167500D01*
X682500Y167500D01*
X687500Y162500D01*
X745000Y162500D01*
X750000Y157500D01*
X750000Y130000D01*
X677500Y130000D01*
X670000Y122500D01*
X607500Y157500D02*
X606350Y158000D01*
X560000Y67500D02*
X560000Y57500D01*
X615000Y57500D01*
D13*
X670000Y122500D03*
X615000Y57500D03*
X560000Y67500D03*
D12*
X617500Y160000D02*
X602500Y175000D01*
X580000Y175000D01*
X565000Y190000D01*
X540000Y190000D01*
X617500Y160000D02*
X619050Y158000D01*
X605000Y52500D02*
X607500Y50000D01*
X605000Y52500D02*
X535000Y52500D01*
D13*
X540000Y190000D03*
X607500Y50000D03*
X535000Y52500D03*
D12*
X632500Y160000D02*
X632500Y172500D01*
X687500Y172500D01*
X632500Y160000D02*
X631750Y158000D01*
X597500Y45000D02*
X575000Y45000D01*
D13*
X687500Y172500D03*
X575000Y45000D03*
X597500Y45000D03*
D12*
X770000Y75000D02*
X770000Y100000D01*
X770000Y75000D02*
X782500Y75000D01*
X792500Y65000D01*
X852500Y65000D01*
X770000Y100000D02*
X768250Y102000D01*
D13*
X852500Y65000D03*
X795000Y135000D03*
D12*
X757500Y140000D02*
X757500Y157500D01*
X757500Y140000D02*
X767500Y140000D01*
X785000Y122500D01*
X757500Y157500D02*
X755550Y158000D01*
X847500Y127500D02*
X855000Y120000D01*
X847500Y127500D02*
X822500Y127500D01*
X817500Y122500D01*
X785000Y122500D01*
X787500Y120000D01*
D13*
X787500Y120000D03*
X855000Y120000D03*
D12*
X770000Y145000D02*
X770000Y157500D01*
X770000Y145000D02*
X780000Y145000D01*
X770000Y157500D02*
X768250Y158000D01*
X850000Y145000D02*
X865000Y145000D01*
X870000Y140000D01*
X870000Y130000D01*
X855000Y130000D01*
X852500Y132500D01*
X822500Y132500D01*
X820000Y130000D01*
X810000Y130000D01*
X795000Y145000D01*
X780000Y145000D01*
D13*
X780000Y145000D03*
X850000Y145000D03*
D12*
X795000Y172500D02*
X782500Y160000D01*
X795000Y172500D02*
X860000Y172500D01*
X862500Y175000D01*
X870000Y175000D01*
X885000Y160000D01*
X782500Y160000D02*
X780950Y158000D01*
D13*
X885000Y160000D03*
X827500Y57500D03*
X780000Y67500D03*
D12*
X795000Y160000D02*
X802500Y167500D01*
X865000Y167500D01*
X795000Y160000D02*
X793650Y158000D01*
D13*
X865000Y167500D03*
X825000Y120000D03*
X767500Y127500D03*
D12*
X807500Y137500D02*
X807500Y157500D01*
X807500Y137500D02*
X817500Y137500D01*
X807500Y157500D02*
X806350Y158000D01*
D13*
X817500Y137500D03*
X762500Y77500D03*
D12*
X832500Y145000D02*
X820000Y157500D01*
X832500Y145000D02*
X835000Y145000D01*
X820000Y157500D02*
X819050Y158000D01*
X752500Y112500D02*
X750000Y115000D01*
X752500Y112500D02*
X770000Y112500D01*
X775000Y107500D01*
X775000Y92500D01*
X785000Y92500D01*
X787500Y95000D01*
X787500Y112500D01*
X802500Y112500D01*
X805000Y115000D01*
D13*
X835000Y145000D03*
X805000Y115000D03*
X750000Y115000D03*
D12*
X832500Y157500D02*
X842500Y147500D01*
X842500Y137500D01*
X862500Y137500D01*
X832500Y157500D02*
X831750Y158000D01*
D13*
X862500Y137500D03*
X755000Y60000D03*
X802500Y77500D03*
D12*
X180000Y102500D02*
X170000Y112500D01*
X165000Y112500D01*
X162500Y110000D01*
X162500Y92500D01*
X117500Y92500D01*
X112500Y97500D01*
X92500Y97500D01*
X87500Y92500D01*
X87500Y20000D01*
X192500Y20000D01*
X212500Y40000D01*
X180950Y102000D02*
X180000Y102500D01*
X212500Y40000D02*
X212700Y40000D01*
X392500Y20000D02*
X412500Y40000D01*
X392500Y20000D02*
X192500Y20000D01*
X412500Y40000D02*
X412700Y40000D01*
X845000Y102500D02*
X845000Y112500D01*
X957500Y112500D01*
X962500Y107500D01*
X962500Y92500D01*
X972500Y92500D01*
X980000Y100000D01*
X845000Y102500D02*
X844450Y102000D01*
X980000Y100000D02*
X980950Y102000D01*
X1045000Y102500D02*
X1047500Y105000D01*
X1055000Y105000D01*
X1045000Y102500D02*
X1044450Y102000D01*
X835000Y20000D02*
X815000Y40000D01*
X835000Y20000D02*
X992500Y20000D01*
X1012500Y40000D01*
X815000Y40000D02*
X812700Y40000D01*
X1012500Y40000D02*
X1012700Y40000D01*
D13*
X1055000Y105000D03*
D12*
X1030000Y142500D02*
X1030000Y157500D01*
X1030000Y142500D02*
X1005000Y142500D01*
X1030000Y157500D02*
X1031750Y158000D01*
X1000000Y125000D02*
X947500Y125000D01*
D13*
X1005000Y142500D03*
X947500Y125000D03*
X1000000Y125000D03*
D12*
X1020000Y160000D02*
X1042500Y182500D01*
X1045000Y182500D01*
X1020000Y160000D02*
X1019050Y158000D01*
X952500Y77500D02*
X960000Y70000D01*
X1007500Y70000D01*
D13*
X1045000Y182500D03*
X1007500Y70000D03*
X952500Y77500D03*
D12*
X1005000Y150000D02*
X1005000Y157500D01*
X1005000Y150000D02*
X1000000Y150000D01*
X992500Y142500D01*
X965000Y142500D01*
X1005000Y157500D02*
X1006350Y158000D01*
D13*
X965000Y142500D03*
X1020000Y125000D03*
D12*
X992500Y160000D02*
X975000Y177500D01*
X937500Y177500D01*
X935000Y180000D01*
X992500Y160000D02*
X993650Y158000D01*
D13*
X935000Y180000D03*
X970000Y132500D03*
D12*
X980000Y160000D02*
X967500Y172500D01*
X927500Y172500D01*
X980000Y160000D02*
X980950Y158000D01*
X977500Y62500D02*
X1032500Y62500D01*
D13*
X927500Y172500D03*
X977500Y62500D03*
X1032500Y62500D03*
D12*
X937500Y127500D02*
X967500Y157500D01*
X968250Y158000D01*
D13*
X937500Y127500D03*
X985000Y77500D03*
X1040000Y70000D03*
D12*
X955000Y160000D02*
X950000Y165000D01*
X925000Y165000D01*
X920000Y170000D01*
X920000Y187500D01*
X967500Y187500D01*
X972500Y182500D01*
X1035000Y182500D01*
X1045000Y192500D01*
X1067500Y192500D01*
X955000Y160000D02*
X955550Y158000D01*
X992500Y135000D02*
X1050000Y135000D01*
X1067500Y152500D01*
X1067500Y192500D01*
X1070000Y192500D01*
D13*
X1070000Y192500D03*
X992500Y135000D03*
D12*
X970000Y112500D02*
X970000Y102500D01*
X970000Y112500D02*
X985000Y112500D01*
X987500Y110000D01*
X987500Y85000D01*
X995000Y77500D01*
X970000Y102500D02*
X968250Y102000D01*
X1050000Y77500D02*
X1052500Y75000D01*
X1050000Y77500D02*
X995000Y77500D01*
D13*
X995000Y77500D03*
X1052500Y75000D03*
D12*
X805000Y237500D02*
X802500Y235000D01*
X642500Y235000D01*
X637500Y230000D01*
D13*
X805000Y237500D03*
X637500Y230000D03*
X597500Y182500D03*
D12*
X785000Y240000D02*
X795000Y250000D01*
X785000Y240000D02*
X637500Y240000D01*
X630000Y232500D01*
X630000Y212500D01*
D13*
X795000Y250000D03*
X630000Y212500D03*
D12*
X775000Y282500D02*
X787500Y270000D01*
X775000Y282500D02*
X645000Y282500D01*
X627500Y265000D01*
D13*
X787500Y270000D03*
X627500Y265000D03*
X582500Y182500D03*
D12*
X767500Y277500D02*
X775000Y270000D01*
X767500Y277500D02*
X650000Y277500D01*
X622500Y250000D01*
X605000Y250000D01*
D13*
X775000Y270000D03*
X605000Y250000D03*
X805000Y227500D03*
X575000Y255000D03*
D12*
X772500Y247500D02*
X775000Y250000D01*
X772500Y247500D02*
X740000Y247500D01*
X730000Y257500D01*
X650000Y257500D01*
X625000Y232500D01*
X625000Y217500D01*
X622500Y217500D01*
X615000Y210000D01*
X610000Y210000D01*
X597500Y222500D01*
X597500Y250000D01*
X580000Y250000D01*
X567500Y237500D01*
X557500Y237500D01*
D13*
X775000Y250000D03*
X557500Y237500D03*
X765000Y270000D03*
X567500Y265000D03*
X745000Y192500D03*
X545000Y155000D03*
D12*
X812500Y287500D02*
X872500Y227500D01*
X812500Y287500D02*
X632500Y287500D01*
X615000Y270000D01*
X612700Y270000D01*
D13*
X872500Y227500D03*
X142500Y107500D03*
X330000Y112500D03*
X492500Y45000D03*
X472500Y132500D03*
X657500Y145000D03*
X855000Y105000D03*
X1062500Y112500D03*
D12*
X1025000Y192500D02*
X1027500Y195000D01*
X1025000Y192500D02*
X977500Y192500D01*
X975000Y190000D01*
X647500Y20000D02*
X640000Y27500D01*
X647500Y20000D02*
X740000Y20000D01*
X760000Y40000D01*
X761900Y40000D01*
X647500Y20000D02*
X455000Y20000D01*
D13*
X1027500Y195000D03*
X975000Y190000D03*
X640000Y27500D03*
X455000Y20000D03*
D12*
X155000Y100000D02*
X135000Y100000D01*
X155000Y100000D02*
X155550Y102000D01*
X240000Y110000D02*
X242500Y112500D01*
X240000Y110000D02*
X232500Y102500D01*
X242500Y112500D02*
X252500Y112500D01*
X262500Y102500D01*
X335000Y102500D02*
X355000Y102500D01*
X335000Y102500D02*
X262500Y102500D01*
X232500Y102500D02*
X231750Y102000D01*
X355000Y102500D02*
X355550Y102000D01*
X135000Y100000D02*
X125000Y110000D01*
X17500Y110000D01*
X12500Y115000D01*
X12500Y125000D01*
X160000Y125000D01*
X162500Y122500D01*
X215000Y122500D01*
X217500Y125000D01*
X225000Y125000D01*
X240000Y110000D01*
X832500Y100000D02*
X840000Y92500D01*
X935000Y92500D02*
X947500Y92500D01*
X935000Y92500D02*
X840000Y92500D01*
X947500Y92500D02*
X955000Y100000D01*
X832500Y100000D02*
X831750Y102000D01*
X955000Y100000D02*
X955550Y102000D01*
X1032500Y100000D02*
X1032500Y87500D01*
X1060000Y87500D01*
X1070000Y77500D01*
X1070000Y65000D01*
X1055000Y65000D01*
X1032500Y100000D02*
X1031750Y102000D01*
X935000Y92500D02*
X935000Y90000D01*
X442500Y112500D02*
X432500Y102500D01*
X460000Y112500D02*
X462500Y112500D01*
X460000Y112500D02*
X442500Y112500D01*
X462500Y112500D02*
X472500Y102500D01*
X555000Y102500D01*
X432500Y102500D02*
X431750Y102000D01*
X555000Y102500D02*
X555550Y102000D01*
X632500Y102500D02*
X642500Y112500D01*
X737500Y112500D02*
X742500Y112500D01*
X737500Y112500D02*
X670000Y112500D01*
X642500Y112500D01*
X742500Y112500D02*
X752500Y102500D01*
X755000Y102500D01*
X632500Y102500D02*
X631750Y102000D01*
X755000Y102500D02*
X755550Y102000D01*
X737500Y112500D02*
X737500Y40000D01*
X736500Y40000D01*
X557500Y102500D02*
X557500Y122500D01*
X582500Y122500D01*
X587500Y127500D01*
X630000Y127500D01*
X632500Y125000D01*
X647500Y125000D01*
X650000Y127500D01*
X655000Y127500D01*
X670000Y112500D01*
X557500Y102500D02*
X555550Y102000D01*
X460000Y110000D02*
X460000Y112500D01*
D13*
X135000Y100000D03*
X335000Y102500D03*
X1055000Y65000D03*
X935000Y90000D03*
X460000Y110000D03*
D12*
X255000Y182500D02*
X245000Y192500D01*
X255000Y182500D02*
X257500Y182500D01*
D13*
X245000Y192500D03*
X257500Y182500D03*
X170000Y250000D03*
X450000Y145000D03*
X160000Y250000D03*
X440000Y182500D03*
X165000Y222500D03*
X435000Y145000D03*
D12*
X172500Y205000D02*
X152500Y225000D01*
X172500Y205000D02*
X385000Y205000D01*
X397500Y192500D01*
X425000Y192500D01*
X427500Y195000D01*
D13*
X152500Y225000D03*
X427500Y195000D03*
D12*
X497500Y182500D02*
X497500Y212500D01*
X497500Y182500D02*
X455000Y182500D01*
D13*
X497500Y212500D03*
X455000Y182500D03*
X487500Y250000D03*
X412500Y210000D03*
X482500Y197500D03*
X402500Y210000D03*
D12*
X480000Y215000D02*
X482500Y212500D01*
X480000Y215000D02*
X427500Y215000D01*
X412500Y200000D01*
X400000Y200000D01*
D13*
X482500Y212500D03*
X400000Y200000D03*
D12*
X395000Y250000D02*
X477500Y250000D01*
D13*
X477500Y250000D03*
X395000Y250000D03*
D12*
X470000Y257500D02*
X490000Y257500D01*
X495000Y252500D01*
X495000Y242500D01*
X382500Y242500D01*
D13*
X470000Y257500D03*
X382500Y242500D03*
X467500Y202500D03*
X382500Y182500D03*
D12*
X467500Y190000D02*
X470000Y192500D01*
X467500Y190000D02*
X432500Y190000D01*
X430000Y187500D01*
X387500Y187500D01*
X385000Y190000D01*
X375000Y190000D01*
D13*
X470000Y192500D03*
X375000Y190000D03*
D12*
X460000Y265000D02*
X445000Y280000D01*
X400000Y280000D01*
X372500Y252500D01*
D13*
X460000Y265000D03*
X372500Y252500D03*
X452500Y257500D03*
X367500Y212500D03*
D12*
X395000Y265000D02*
X445000Y265000D01*
X395000Y265000D02*
X375000Y245000D01*
X375000Y235000D01*
X367500Y235000D01*
D13*
X445000Y265000D03*
X367500Y235000D03*
D12*
X512500Y212500D02*
X522500Y202500D01*
X582500Y202500D01*
X595000Y190000D01*
X652500Y190000D01*
D13*
X512500Y212500D03*
X652500Y190000D03*
X497500Y265000D03*
X637500Y220000D03*
X467500Y175000D03*
X640000Y182500D03*
X427500Y272500D03*
X630000Y182500D03*
D12*
X422500Y220000D02*
X420000Y217500D01*
X422500Y220000D02*
X570000Y220000D01*
X592500Y197500D01*
X630000Y197500D01*
D13*
X420000Y217500D03*
X630000Y197500D03*
D12*
X570000Y225000D02*
X410000Y225000D01*
X570000Y225000D02*
X590000Y205000D01*
X622500Y205000D01*
D13*
X410000Y225000D03*
X622500Y205000D03*
X415000Y257500D03*
X607500Y182500D03*
D12*
X542500Y137500D02*
X520000Y160000D01*
X542500Y137500D02*
X575000Y137500D01*
X577500Y140000D01*
X607500Y140000D01*
D13*
X520000Y160000D03*
X607500Y140000D03*
D12*
X757500Y262500D02*
X820000Y262500D01*
X845000Y237500D01*
D13*
X757500Y262500D03*
X845000Y237500D03*
D12*
X770000Y255000D02*
X750000Y255000D01*
X770000Y255000D02*
X772500Y257500D01*
X815000Y257500D01*
X845000Y227500D01*
D13*
X750000Y255000D03*
X845000Y227500D03*
D12*
X752500Y200000D02*
X750000Y202500D01*
X752500Y200000D02*
X790000Y200000D01*
X792500Y202500D01*
X817500Y202500D01*
X822500Y197500D01*
X825000Y197500D01*
D13*
X750000Y202500D03*
X825000Y197500D03*
X735000Y175000D03*
X822500Y207500D03*
X740000Y265000D03*
X787500Y280000D03*
X727500Y250000D03*
X797500Y215000D03*
X730000Y222500D03*
X787500Y215000D03*
X717500Y250000D03*
X795000Y195000D03*
X720000Y222500D03*
X790000Y185000D03*
D12*
X777500Y215000D02*
X707500Y215000D01*
D13*
X707500Y215000D03*
X777500Y215000D03*
D12*
X745000Y207500D02*
X700000Y207500D01*
X745000Y207500D02*
X747500Y210000D01*
X767500Y210000D01*
X770000Y207500D01*
D13*
X700000Y207500D03*
X770000Y207500D03*
D12*
X1047500Y207500D02*
X1047500Y225000D01*
X1047500Y207500D02*
X1022500Y207500D01*
X1020000Y210000D01*
X847500Y210000D01*
X815000Y177500D01*
X775000Y177500D01*
X770000Y182500D01*
D13*
X1047500Y225000D03*
X770000Y182500D03*
X1042500Y250000D03*
X757500Y132500D03*
X1032500Y250000D03*
X762500Y190000D03*
D12*
X1027500Y220000D02*
X1032500Y215000D01*
X1027500Y220000D02*
X802500Y220000D01*
X792500Y230000D01*
X712500Y230000D01*
X692500Y210000D01*
X692500Y182500D01*
X742500Y182500D01*
D13*
X1032500Y215000D03*
X742500Y182500D03*
X1017500Y202500D03*
X1040000Y145000D03*
M02*
