G04 EAGLE Gerber RS-274X export*
G75*
%MOMM*%
%FSLAX34Y34*%
%LPD*%
%INCopper Layer 15*%
%IPPOS*%
%AMOC8*
5,1,8,0,0,1.08239X$1,22.5*%
G01*
%ADD10C,1.524000*%
%ADD11C,0.152400*%
%ADD12C,0.756400*%


D10*
X936500Y40000D03*
X961900Y40000D03*
X987300Y40000D03*
X1012700Y40000D03*
X1038100Y40000D03*
X1063500Y40000D03*
X587300Y230000D03*
X612700Y230000D03*
X587300Y270000D03*
X612700Y270000D03*
X336500Y40000D03*
X361900Y40000D03*
X387300Y40000D03*
X412700Y40000D03*
X438100Y40000D03*
X463500Y40000D03*
X136500Y40000D03*
X161900Y40000D03*
X187300Y40000D03*
X212700Y40000D03*
X238100Y40000D03*
X263500Y40000D03*
X736500Y40000D03*
X761900Y40000D03*
X787300Y40000D03*
X812700Y40000D03*
X838100Y40000D03*
X863500Y40000D03*
D11*
X865000Y40000D02*
X880000Y25000D01*
X1047500Y25000D01*
X1062500Y40000D01*
X865000Y40000D02*
X863500Y40000D01*
X1062500Y40000D02*
X1063500Y40000D01*
X302500Y40000D02*
X263500Y40000D01*
X302500Y40000D02*
X317500Y25000D01*
X447500Y25000D01*
X462500Y40000D01*
X463500Y40000D01*
D12*
X840000Y77500D03*
X1062500Y75000D03*
X265000Y80000D03*
X467500Y117500D03*
X657500Y77500D03*
X647500Y35000D03*
D11*
X275000Y72500D02*
X257500Y72500D01*
X275000Y72500D02*
X317500Y30000D01*
X427500Y30000D01*
X437500Y40000D01*
X438100Y40000D01*
D12*
X870000Y85000D03*
X257500Y72500D03*
X202500Y145000D03*
X357500Y117500D03*
X157500Y117500D03*
X237500Y65000D03*
X20000Y117500D03*
X255000Y155000D03*
X457500Y155000D03*
X535000Y175000D03*
X657500Y155000D03*
X587500Y112500D03*
X620000Y140000D03*
X742500Y155000D03*
X555000Y77500D03*
X1055000Y150000D03*
X1060000Y182500D03*
X1042500Y117500D03*
X857500Y152500D03*
X812500Y77500D03*
X1010000Y117500D03*
X755000Y70000D03*
X442500Y77500D03*
X665000Y105000D03*
X680000Y122500D03*
X195000Y77500D03*
X110000Y90000D03*
X187500Y142500D03*
X102500Y165000D03*
X250000Y120000D03*
X120000Y167500D03*
X180000Y77500D03*
X112500Y70000D03*
X230000Y72500D03*
X92500Y160000D03*
X180000Y135000D03*
X235000Y125000D03*
X82500Y160000D03*
X165000Y130000D03*
X220000Y117500D03*
X212500Y145000D03*
X197500Y130000D03*
X102500Y150000D03*
X162500Y77500D03*
X100000Y90000D03*
X282500Y112500D03*
X137500Y195000D03*
X195000Y62500D03*
X127500Y62500D03*
X395000Y77500D03*
X452500Y77500D03*
X380000Y142500D03*
X450000Y125000D03*
X340000Y127500D03*
X380000Y62500D03*
X435000Y62500D03*
X380000Y132500D03*
X425000Y55000D03*
D11*
X365000Y75000D02*
X417500Y127500D01*
X420000Y127500D01*
D12*
X420000Y127500D03*
X365000Y75000D03*
X335000Y177500D03*
X417500Y77500D03*
D11*
X405000Y127500D02*
X420000Y142500D01*
D12*
X420000Y142500D03*
X405000Y127500D03*
X350000Y125000D03*
D11*
X347500Y85000D02*
X347500Y77500D01*
X347500Y85000D02*
X397500Y135000D01*
D12*
X397500Y135000D03*
X347500Y77500D03*
X595000Y120000D03*
X652500Y120000D03*
X550000Y145000D03*
X592500Y77500D03*
X647500Y77500D03*
D11*
X547500Y165000D02*
X547500Y182500D01*
X547500Y165000D02*
X580000Y132500D01*
D12*
X547500Y182500D03*
X580000Y132500D03*
X635000Y132500D03*
X600000Y147500D03*
X585000Y70000D03*
X637500Y70000D03*
X565000Y130000D03*
X622500Y50000D03*
X622500Y27500D03*
X670000Y122500D03*
X615000Y57500D03*
X560000Y67500D03*
X540000Y190000D03*
X607500Y50000D03*
X535000Y52500D03*
X687500Y172500D03*
X575000Y45000D03*
X597500Y45000D03*
X852500Y65000D03*
X795000Y135000D03*
X787500Y120000D03*
X855000Y120000D03*
X780000Y145000D03*
X850000Y145000D03*
X885000Y160000D03*
X827500Y57500D03*
X780000Y67500D03*
X865000Y167500D03*
X825000Y120000D03*
X767500Y127500D03*
D11*
X762500Y112500D02*
X762500Y77500D01*
X762500Y112500D02*
X735000Y140000D01*
X735000Y157500D01*
X740000Y162500D01*
X792500Y162500D01*
X817500Y137500D01*
D12*
X817500Y137500D03*
X762500Y77500D03*
X835000Y145000D03*
X805000Y115000D03*
X750000Y115000D03*
D11*
X800000Y75000D02*
X802500Y77500D01*
X862500Y137500D01*
X800000Y75000D02*
X800000Y72500D01*
X787500Y60000D01*
X755000Y60000D01*
D12*
X862500Y137500D03*
X755000Y60000D03*
X802500Y77500D03*
X1055000Y105000D03*
X1005000Y142500D03*
X947500Y125000D03*
X1000000Y125000D03*
X1045000Y182500D03*
X1007500Y70000D03*
X952500Y77500D03*
X965000Y142500D03*
X1020000Y125000D03*
X935000Y180000D03*
X970000Y132500D03*
X927500Y172500D03*
X977500Y62500D03*
X1032500Y62500D03*
D11*
X1040000Y70000D02*
X1017500Y70000D01*
X1002500Y85000D01*
X992500Y85000D01*
X985000Y77500D01*
D12*
X937500Y127500D03*
X985000Y77500D03*
X1040000Y70000D03*
X1070000Y192500D03*
X992500Y135000D03*
X995000Y77500D03*
X1052500Y75000D03*
X805000Y237500D03*
X637500Y230000D03*
X597500Y182500D03*
X795000Y250000D03*
X630000Y212500D03*
X787500Y270000D03*
X627500Y265000D03*
X582500Y182500D03*
X775000Y270000D03*
X605000Y250000D03*
D11*
X760000Y227500D02*
X805000Y227500D01*
X760000Y227500D02*
X730000Y257500D01*
X577500Y257500D01*
X575000Y255000D01*
D12*
X805000Y227500D03*
X575000Y255000D03*
X775000Y250000D03*
X557500Y237500D03*
D11*
X745000Y270000D02*
X765000Y270000D01*
X745000Y270000D02*
X735000Y280000D01*
X582500Y280000D01*
X567500Y265000D01*
D12*
X765000Y270000D03*
X567500Y265000D03*
X745000Y192500D03*
X545000Y155000D03*
X872500Y227500D03*
X142500Y107500D03*
X330000Y112500D03*
X492500Y45000D03*
D11*
X657500Y145000D02*
X587500Y215000D01*
X587500Y230000D01*
X587300Y230000D01*
X1047500Y112500D02*
X1062500Y112500D01*
X1047500Y112500D02*
X1040000Y105000D01*
X855000Y105000D01*
D12*
X472500Y132500D03*
X657500Y145000D03*
X855000Y105000D03*
X1062500Y112500D03*
D11*
X961900Y40000D02*
X952500Y40000D01*
X942500Y50000D01*
X772500Y50000D01*
X762500Y40000D01*
X761900Y40000D01*
D12*
X1027500Y195000D03*
X975000Y190000D03*
X640000Y27500D03*
X455000Y20000D03*
D11*
X347500Y40000D02*
X336500Y40000D01*
X347500Y40000D02*
X417500Y110000D01*
X460000Y110000D01*
D12*
X135000Y100000D03*
X335000Y102500D03*
X1055000Y65000D03*
X935000Y90000D03*
X460000Y110000D03*
X245000Y192500D03*
X257500Y182500D03*
D11*
X230000Y250000D02*
X170000Y250000D01*
X230000Y250000D02*
X325000Y155000D01*
X440000Y155000D01*
X450000Y145000D01*
D12*
X170000Y250000D03*
X450000Y145000D03*
X160000Y250000D03*
X440000Y182500D03*
X165000Y222500D03*
X435000Y145000D03*
X152500Y225000D03*
X427500Y195000D03*
X497500Y212500D03*
X455000Y182500D03*
X487500Y250000D03*
X412500Y210000D03*
X482500Y197500D03*
X402500Y210000D03*
X482500Y212500D03*
X400000Y200000D03*
X477500Y250000D03*
X395000Y250000D03*
X470000Y257500D03*
X382500Y242500D03*
X467500Y202500D03*
X382500Y182500D03*
X470000Y192500D03*
X375000Y190000D03*
X460000Y265000D03*
X372500Y252500D03*
X452500Y257500D03*
X367500Y212500D03*
X445000Y265000D03*
X367500Y235000D03*
X512500Y212500D03*
X652500Y190000D03*
D11*
X532500Y230000D02*
X497500Y265000D01*
X532500Y230000D02*
X572500Y230000D01*
X582500Y240000D01*
X617500Y240000D01*
X637500Y220000D01*
D12*
X497500Y265000D03*
X637500Y220000D03*
D11*
X495000Y175000D02*
X467500Y175000D01*
X495000Y175000D02*
X565000Y105000D01*
X627500Y105000D01*
X665000Y142500D01*
X665000Y157500D01*
X640000Y182500D01*
D12*
X467500Y175000D03*
X640000Y182500D03*
X427500Y272500D03*
X630000Y182500D03*
X420000Y217500D03*
X630000Y197500D03*
X410000Y225000D03*
X622500Y205000D03*
D11*
X427500Y257500D02*
X415000Y257500D01*
X427500Y257500D02*
X480000Y205000D01*
X585000Y205000D01*
X607500Y182500D01*
D12*
X415000Y257500D03*
X607500Y182500D03*
X520000Y160000D03*
X607500Y140000D03*
X757500Y262500D03*
X845000Y237500D03*
X750000Y255000D03*
X845000Y227500D03*
X750000Y202500D03*
X825000Y197500D03*
X735000Y175000D03*
X822500Y207500D03*
X740000Y265000D03*
X787500Y280000D03*
X727500Y250000D03*
X797500Y215000D03*
D11*
X780000Y222500D02*
X730000Y222500D01*
X780000Y222500D02*
X787500Y215000D01*
D12*
X730000Y222500D03*
X787500Y215000D03*
X717500Y250000D03*
X795000Y195000D03*
X720000Y222500D03*
X790000Y185000D03*
X707500Y215000D03*
X777500Y215000D03*
X700000Y207500D03*
X770000Y207500D03*
X1047500Y225000D03*
X770000Y182500D03*
X1042500Y250000D03*
X757500Y132500D03*
D11*
X1017500Y250000D02*
X1032500Y250000D01*
X1017500Y250000D02*
X982500Y215000D01*
X807500Y215000D01*
X795000Y202500D01*
X775000Y202500D01*
X762500Y190000D01*
D12*
X1032500Y250000D03*
X762500Y190000D03*
X1032500Y215000D03*
X742500Y182500D03*
X1017500Y202500D03*
X1040000Y145000D03*
M02*
