G04 EAGLE Gerber RS-274X export*
G75*
%MOMM*%
%FSLAX34Y34*%
%LPD*%
%INSilkscreen Top*%
%IPPOS*%
%AMOC8*
5,1,8,0,0,1.08239X$1,22.5*%
G01*
%ADD10C,0.025400*%
%ADD11C,0.076200*%
%ADD12C,0.152400*%
%ADD13R,0.300000X0.150000*%
%ADD14R,0.300000X0.300000*%
%ADD15C,0.150000*%
%ADD16C,0.250000*%
%ADD17C,0.600000*%
%ADD18C,0.203200*%
%ADD19R,20.320000X0.050800*%
%ADD20R,0.762000X0.050800*%
%ADD21R,1.727200X0.050800*%
%ADD22R,0.660400X0.050800*%
%ADD23R,1.574800X0.050800*%
%ADD24R,0.609600X0.050800*%
%ADD25R,1.524000X0.050800*%
%ADD26R,0.558800X0.050800*%
%ADD27R,1.473200X0.050800*%
%ADD28R,0.508000X0.050800*%
%ADD29R,0.101600X0.050800*%
%ADD30R,0.050800X0.050800*%
%ADD31R,0.304800X0.050800*%
%ADD32R,1.422400X0.050800*%
%ADD33R,0.203200X0.050800*%
%ADD34R,0.152400X0.050800*%
%ADD35R,1.219200X0.050800*%
%ADD36R,0.254000X0.050800*%
%ADD37R,0.355600X0.050800*%
%ADD38R,0.711200X0.050800*%
%ADD39R,1.066800X0.050800*%
%ADD40R,0.406400X0.050800*%
%ADD41R,1.117600X0.050800*%
%ADD42R,0.457200X0.050800*%
%ADD43R,1.168400X0.050800*%
%ADD44R,0.812800X0.050800*%
%ADD45R,1.625600X0.050800*%
%ADD46R,1.930400X0.050800*%
%ADD47R,17.627600X0.050800*%
%ADD48R,17.424400X0.050800*%
%ADD49R,17.272000X0.050800*%
%ADD50R,17.170400X0.050800*%
%ADD51R,1.371600X0.050800*%
%ADD52R,17.068800X0.050800*%
%ADD53R,1.270000X0.050800*%
%ADD54R,16.967200X0.050800*%
%ADD55R,13.665200X0.050800*%
%ADD56R,2.946400X0.050800*%
%ADD57R,13.462000X0.050800*%
%ADD58R,2.844800X0.050800*%
%ADD59R,13.411200X0.050800*%
%ADD60R,2.794000X0.050800*%
%ADD61R,1.016000X0.050800*%
%ADD62R,13.360400X0.050800*%
%ADD63R,2.743200X0.050800*%
%ADD64R,0.965200X0.050800*%
%ADD65R,13.258800X0.050800*%
%ADD66R,2.692400X0.050800*%
%ADD67R,0.914400X0.050800*%
%ADD68R,13.157200X0.050800*%
%ADD69R,0.863600X0.050800*%
%ADD70R,2.641600X0.050800*%
%ADD71R,4.165600X0.050800*%
%ADD72R,1.676400X0.050800*%
%ADD73R,1.778000X0.050800*%
%ADD74R,2.590800X0.050800*%
%ADD75R,1.879600X0.050800*%
%ADD76R,1.981200X0.050800*%
%ADD77R,2.540000X0.050800*%
%ADD78R,2.082800X0.050800*%
%ADD79R,2.184400X0.050800*%
%ADD80R,2.489200X0.050800*%
%ADD81R,2.336800X0.050800*%
%ADD82R,2.438400X0.050800*%
%ADD83R,2.387600X0.050800*%
%ADD84R,2.286000X0.050800*%
%ADD85R,2.235200X0.050800*%
%ADD86R,4.521200X0.050800*%
%ADD87R,5.892800X0.050800*%
%ADD88R,2.032000X0.050800*%
%ADD89R,4.622800X0.050800*%
%ADD90R,10.668000X0.050800*%
%ADD91R,2.133600X0.050800*%
%ADD92R,15.595600X0.050800*%
%ADD93R,15.544800X0.050800*%
%ADD94R,15.494000X0.050800*%
%ADD95R,1.320800X0.050800*%
%ADD96R,1.828800X0.050800*%
%ADD97R,12.395200X0.050800*%
%ADD98R,12.446000X0.050800*%
%ADD99R,12.344400X0.050800*%
%ADD100R,12.293600X0.050800*%
%ADD101R,12.242800X0.050800*%
%ADD102R,14.630400X0.050800*%
%ADD103R,16.103600X0.050800*%
%ADD104R,15.443200X0.050800*%
%ADD105R,15.392400X0.050800*%
%ADD106R,15.341600X0.050800*%
%ADD107R,15.240000X0.050800*%
%ADD108R,5.080000X0.050800*%
%ADD109R,8.280400X0.050800*%
%ADD110R,8.991600X0.050800*%
%ADD111R,4.318000X0.050800*%
%ADD112R,9.042400X0.050800*%
%ADD113R,9.144000X0.050800*%
%ADD114R,16.662400X0.050800*%
%ADD115R,16.713200X0.050800*%
%ADD116R,16.764000X0.050800*%
%ADD117R,17.221200X0.050800*%
%ADD118R,16.916400X0.050800*%
%ADD119R,2.895600X0.050800*%
%ADD120R,16.865600X0.050800*%
%ADD121R,2.997200X0.050800*%
%ADD122R,3.048000X0.050800*%
%ADD123R,3.149600X0.050800*%

G36*
X1049508Y290986D02*
X1049508Y290986D01*
X1049517Y290985D01*
X1049649Y291006D01*
X1049782Y291025D01*
X1049789Y291028D01*
X1049798Y291029D01*
X1049919Y291086D01*
X1050041Y291141D01*
X1050047Y291146D01*
X1050055Y291150D01*
X1050156Y291238D01*
X1050258Y291325D01*
X1050263Y291332D01*
X1050269Y291337D01*
X1050341Y291450D01*
X1050416Y291561D01*
X1050418Y291569D01*
X1050423Y291576D01*
X1050461Y291705D01*
X1050501Y291832D01*
X1050502Y291841D01*
X1050504Y291849D01*
X1050505Y291983D01*
X1050509Y292116D01*
X1050506Y292125D01*
X1050507Y292133D01*
X1050491Y292184D01*
X1050437Y292391D01*
X1050417Y292424D01*
X1050408Y292454D01*
X1048408Y296454D01*
X1048351Y296536D01*
X1048302Y296623D01*
X1048271Y296653D01*
X1048247Y296688D01*
X1048169Y296751D01*
X1048098Y296821D01*
X1048060Y296841D01*
X1048027Y296868D01*
X1047935Y296907D01*
X1047847Y296954D01*
X1047805Y296963D01*
X1047765Y296980D01*
X1047666Y296992D01*
X1047569Y297013D01*
X1047526Y297010D01*
X1047483Y297015D01*
X1047385Y297000D01*
X1047285Y296992D01*
X1047245Y296977D01*
X1047202Y296971D01*
X1047112Y296928D01*
X1047019Y296894D01*
X1046984Y296868D01*
X1046945Y296850D01*
X1046870Y296784D01*
X1046790Y296725D01*
X1046767Y296694D01*
X1046731Y296663D01*
X1046634Y296511D01*
X1046592Y296454D01*
X1044592Y292454D01*
X1044589Y292446D01*
X1044585Y292439D01*
X1044544Y292311D01*
X1044502Y292184D01*
X1044501Y292176D01*
X1044499Y292168D01*
X1044495Y292033D01*
X1044490Y291900D01*
X1044492Y291892D01*
X1044491Y291884D01*
X1044525Y291754D01*
X1044557Y291624D01*
X1044561Y291617D01*
X1044563Y291609D01*
X1044631Y291494D01*
X1044698Y291377D01*
X1044704Y291372D01*
X1044709Y291364D01*
X1044806Y291272D01*
X1044902Y291180D01*
X1044910Y291176D01*
X1044916Y291170D01*
X1045035Y291109D01*
X1045153Y291046D01*
X1045161Y291044D01*
X1045169Y291040D01*
X1045221Y291032D01*
X1045431Y290987D01*
X1045469Y290990D01*
X1045500Y290985D01*
X1049500Y290985D01*
X1049508Y290986D01*
G37*
G36*
X799508Y290986D02*
X799508Y290986D01*
X799517Y290985D01*
X799649Y291006D01*
X799782Y291025D01*
X799789Y291028D01*
X799798Y291029D01*
X799919Y291086D01*
X800041Y291141D01*
X800047Y291146D01*
X800055Y291150D01*
X800156Y291238D01*
X800258Y291325D01*
X800263Y291332D01*
X800269Y291337D01*
X800341Y291450D01*
X800416Y291561D01*
X800418Y291569D01*
X800423Y291576D01*
X800461Y291705D01*
X800501Y291832D01*
X800502Y291841D01*
X800504Y291849D01*
X800505Y291983D01*
X800509Y292116D01*
X800506Y292125D01*
X800507Y292133D01*
X800491Y292184D01*
X800437Y292391D01*
X800417Y292424D01*
X800408Y292454D01*
X798408Y296454D01*
X798351Y296536D01*
X798302Y296623D01*
X798271Y296653D01*
X798247Y296688D01*
X798169Y296751D01*
X798098Y296821D01*
X798060Y296841D01*
X798027Y296868D01*
X797935Y296907D01*
X797847Y296954D01*
X797805Y296963D01*
X797765Y296980D01*
X797666Y296992D01*
X797569Y297013D01*
X797526Y297010D01*
X797483Y297015D01*
X797385Y297000D01*
X797285Y296992D01*
X797245Y296977D01*
X797202Y296971D01*
X797112Y296928D01*
X797019Y296894D01*
X796984Y296868D01*
X796945Y296850D01*
X796870Y296784D01*
X796790Y296725D01*
X796767Y296694D01*
X796731Y296663D01*
X796634Y296511D01*
X796592Y296454D01*
X794592Y292454D01*
X794589Y292446D01*
X794585Y292439D01*
X794544Y292311D01*
X794502Y292184D01*
X794501Y292176D01*
X794499Y292168D01*
X794495Y292033D01*
X794490Y291900D01*
X794492Y291892D01*
X794491Y291884D01*
X794525Y291754D01*
X794557Y291624D01*
X794561Y291617D01*
X794563Y291609D01*
X794631Y291494D01*
X794698Y291377D01*
X794704Y291372D01*
X794709Y291364D01*
X794806Y291272D01*
X794902Y291180D01*
X794910Y291176D01*
X794916Y291170D01*
X795035Y291109D01*
X795153Y291046D01*
X795161Y291044D01*
X795169Y291040D01*
X795221Y291032D01*
X795431Y290987D01*
X795469Y290990D01*
X795500Y290985D01*
X799500Y290985D01*
X799508Y290986D01*
G37*
G36*
X499508Y290986D02*
X499508Y290986D01*
X499517Y290985D01*
X499649Y291006D01*
X499782Y291025D01*
X499789Y291028D01*
X499798Y291029D01*
X499919Y291086D01*
X500041Y291141D01*
X500047Y291146D01*
X500055Y291150D01*
X500156Y291238D01*
X500258Y291325D01*
X500263Y291332D01*
X500269Y291337D01*
X500341Y291450D01*
X500416Y291561D01*
X500418Y291569D01*
X500423Y291576D01*
X500461Y291705D01*
X500501Y291832D01*
X500502Y291841D01*
X500504Y291849D01*
X500505Y291983D01*
X500509Y292116D01*
X500506Y292125D01*
X500507Y292133D01*
X500491Y292184D01*
X500437Y292391D01*
X500417Y292424D01*
X500408Y292454D01*
X498408Y296454D01*
X498351Y296536D01*
X498302Y296623D01*
X498271Y296653D01*
X498247Y296688D01*
X498169Y296751D01*
X498098Y296821D01*
X498060Y296841D01*
X498027Y296868D01*
X497935Y296907D01*
X497847Y296954D01*
X497805Y296963D01*
X497765Y296980D01*
X497666Y296992D01*
X497569Y297013D01*
X497526Y297010D01*
X497483Y297015D01*
X497385Y297000D01*
X497285Y296992D01*
X497245Y296977D01*
X497202Y296971D01*
X497112Y296928D01*
X497019Y296894D01*
X496984Y296868D01*
X496945Y296850D01*
X496870Y296784D01*
X496790Y296725D01*
X496767Y296694D01*
X496731Y296663D01*
X496634Y296511D01*
X496592Y296454D01*
X494592Y292454D01*
X494589Y292446D01*
X494585Y292439D01*
X494544Y292311D01*
X494502Y292184D01*
X494501Y292176D01*
X494499Y292168D01*
X494495Y292033D01*
X494490Y291900D01*
X494492Y291892D01*
X494491Y291884D01*
X494525Y291754D01*
X494557Y291624D01*
X494561Y291617D01*
X494563Y291609D01*
X494631Y291494D01*
X494698Y291377D01*
X494704Y291372D01*
X494709Y291364D01*
X494806Y291272D01*
X494902Y291180D01*
X494910Y291176D01*
X494916Y291170D01*
X495035Y291109D01*
X495153Y291046D01*
X495161Y291044D01*
X495169Y291040D01*
X495221Y291032D01*
X495431Y290987D01*
X495469Y290990D01*
X495500Y290985D01*
X499500Y290985D01*
X499508Y290986D01*
G37*
G36*
X249508Y290986D02*
X249508Y290986D01*
X249517Y290985D01*
X249649Y291006D01*
X249782Y291025D01*
X249789Y291028D01*
X249798Y291029D01*
X249919Y291086D01*
X250041Y291141D01*
X250047Y291146D01*
X250055Y291150D01*
X250156Y291238D01*
X250258Y291325D01*
X250263Y291332D01*
X250269Y291337D01*
X250341Y291450D01*
X250416Y291561D01*
X250418Y291569D01*
X250423Y291576D01*
X250461Y291705D01*
X250501Y291832D01*
X250502Y291841D01*
X250504Y291849D01*
X250505Y291983D01*
X250509Y292116D01*
X250506Y292125D01*
X250507Y292133D01*
X250491Y292184D01*
X250437Y292391D01*
X250417Y292424D01*
X250408Y292454D01*
X248408Y296454D01*
X248351Y296536D01*
X248302Y296623D01*
X248271Y296653D01*
X248247Y296688D01*
X248169Y296751D01*
X248098Y296821D01*
X248060Y296841D01*
X248027Y296868D01*
X247935Y296907D01*
X247847Y296954D01*
X247805Y296963D01*
X247765Y296980D01*
X247666Y296992D01*
X247569Y297013D01*
X247526Y297010D01*
X247483Y297015D01*
X247385Y297000D01*
X247285Y296992D01*
X247245Y296977D01*
X247202Y296971D01*
X247112Y296928D01*
X247019Y296894D01*
X246984Y296868D01*
X246945Y296850D01*
X246870Y296784D01*
X246790Y296725D01*
X246767Y296694D01*
X246731Y296663D01*
X246634Y296511D01*
X246592Y296454D01*
X244592Y292454D01*
X244589Y292446D01*
X244585Y292439D01*
X244544Y292311D01*
X244502Y292184D01*
X244501Y292176D01*
X244499Y292168D01*
X244495Y292033D01*
X244490Y291900D01*
X244492Y291892D01*
X244491Y291884D01*
X244525Y291754D01*
X244557Y291624D01*
X244561Y291617D01*
X244563Y291609D01*
X244631Y291494D01*
X244698Y291377D01*
X244704Y291372D01*
X244709Y291364D01*
X244806Y291272D01*
X244902Y291180D01*
X244910Y291176D01*
X244916Y291170D01*
X245035Y291109D01*
X245153Y291046D01*
X245161Y291044D01*
X245169Y291040D01*
X245221Y291032D01*
X245431Y290987D01*
X245469Y290990D01*
X245500Y290985D01*
X249500Y290985D01*
X249508Y290986D01*
G37*
D10*
X137127Y127D02*
X139873Y1042D01*
X137127Y1958D01*
X139873Y3582D02*
X139873Y4192D01*
X139873Y3582D02*
X139871Y3534D01*
X139865Y3487D01*
X139856Y3440D01*
X139843Y3394D01*
X139827Y3349D01*
X139807Y3305D01*
X139783Y3263D01*
X139757Y3223D01*
X139727Y3186D01*
X139694Y3151D01*
X139659Y3118D01*
X139622Y3089D01*
X139582Y3062D01*
X139540Y3038D01*
X139496Y3018D01*
X139452Y3002D01*
X139405Y2989D01*
X139358Y2980D01*
X139311Y2974D01*
X139263Y2972D01*
X139263Y2971D02*
X137737Y2971D01*
X137737Y2972D02*
X137689Y2974D01*
X137642Y2980D01*
X137595Y2989D01*
X137549Y3002D01*
X137504Y3018D01*
X137460Y3038D01*
X137418Y3062D01*
X137378Y3088D01*
X137341Y3118D01*
X137306Y3151D01*
X137273Y3186D01*
X137244Y3223D01*
X137217Y3263D01*
X137193Y3305D01*
X137173Y3349D01*
X137157Y3393D01*
X137144Y3440D01*
X137135Y3487D01*
X137129Y3534D01*
X137127Y3582D01*
X137127Y4192D01*
X139873Y5832D02*
X139873Y6442D01*
X139873Y5832D02*
X139871Y5784D01*
X139865Y5737D01*
X139856Y5690D01*
X139843Y5644D01*
X139827Y5599D01*
X139807Y5555D01*
X139783Y5513D01*
X139757Y5473D01*
X139727Y5436D01*
X139694Y5401D01*
X139659Y5368D01*
X139622Y5339D01*
X139582Y5312D01*
X139540Y5288D01*
X139496Y5268D01*
X139452Y5252D01*
X139405Y5239D01*
X139358Y5230D01*
X139311Y5224D01*
X139263Y5222D01*
X139263Y5221D02*
X137737Y5221D01*
X137737Y5222D02*
X137689Y5224D01*
X137642Y5230D01*
X137595Y5239D01*
X137549Y5252D01*
X137504Y5268D01*
X137460Y5288D01*
X137418Y5312D01*
X137378Y5338D01*
X137341Y5368D01*
X137306Y5401D01*
X137273Y5436D01*
X137244Y5473D01*
X137217Y5513D01*
X137193Y5555D01*
X137173Y5599D01*
X137157Y5643D01*
X137144Y5690D01*
X137135Y5737D01*
X137129Y5784D01*
X137127Y5832D01*
X137127Y6442D01*
X140178Y7362D02*
X140178Y8582D01*
X139873Y10465D02*
X139871Y10513D01*
X139865Y10560D01*
X139856Y10607D01*
X139843Y10654D01*
X139827Y10698D01*
X139807Y10742D01*
X139783Y10784D01*
X139757Y10824D01*
X139727Y10861D01*
X139694Y10896D01*
X139659Y10929D01*
X139622Y10959D01*
X139582Y10985D01*
X139540Y11009D01*
X139496Y11029D01*
X139452Y11045D01*
X139405Y11058D01*
X139358Y11067D01*
X139311Y11073D01*
X139263Y11075D01*
X139873Y10465D02*
X139871Y10397D01*
X139866Y10330D01*
X139857Y10262D01*
X139845Y10196D01*
X139829Y10130D01*
X139809Y10065D01*
X139786Y10001D01*
X139760Y9938D01*
X139731Y9877D01*
X139699Y9817D01*
X139663Y9760D01*
X139624Y9704D01*
X139583Y9650D01*
X139539Y9599D01*
X139492Y9550D01*
X137737Y9626D02*
X137689Y9628D01*
X137642Y9634D01*
X137595Y9643D01*
X137548Y9656D01*
X137504Y9672D01*
X137460Y9692D01*
X137418Y9716D01*
X137378Y9742D01*
X137341Y9772D01*
X137306Y9805D01*
X137273Y9840D01*
X137243Y9877D01*
X137217Y9917D01*
X137193Y9959D01*
X137173Y10003D01*
X137157Y10047D01*
X137144Y10094D01*
X137135Y10141D01*
X137129Y10188D01*
X137127Y10236D01*
X137129Y10303D01*
X137135Y10370D01*
X137145Y10436D01*
X137158Y10501D01*
X137176Y10566D01*
X137197Y10629D01*
X137222Y10692D01*
X137250Y10752D01*
X137282Y10811D01*
X137317Y10868D01*
X137356Y10922D01*
X138271Y9930D02*
X138246Y9892D01*
X138219Y9855D01*
X138189Y9820D01*
X138156Y9788D01*
X138121Y9758D01*
X138084Y9731D01*
X138045Y9707D01*
X138004Y9685D01*
X137962Y9667D01*
X137918Y9652D01*
X137874Y9640D01*
X137829Y9632D01*
X137783Y9627D01*
X137737Y9625D01*
X138729Y10770D02*
X138754Y10809D01*
X138781Y10845D01*
X138811Y10880D01*
X138844Y10912D01*
X138879Y10942D01*
X138916Y10969D01*
X138955Y10993D01*
X138996Y11015D01*
X139038Y11033D01*
X139082Y11048D01*
X139126Y11060D01*
X139171Y11068D01*
X139217Y11073D01*
X139263Y11075D01*
X138729Y10770D02*
X138271Y9931D01*
X137127Y12267D02*
X139873Y12267D01*
X137127Y12267D02*
X137127Y13030D01*
X137129Y13084D01*
X137135Y13139D01*
X137144Y13192D01*
X137158Y13245D01*
X137175Y13297D01*
X137196Y13347D01*
X137220Y13396D01*
X137248Y13443D01*
X137279Y13487D01*
X137313Y13530D01*
X137350Y13570D01*
X137390Y13607D01*
X137433Y13641D01*
X137477Y13672D01*
X137524Y13700D01*
X137573Y13724D01*
X137623Y13745D01*
X137675Y13762D01*
X137728Y13776D01*
X137781Y13785D01*
X137836Y13791D01*
X137890Y13793D01*
X137944Y13791D01*
X137999Y13785D01*
X138052Y13776D01*
X138105Y13762D01*
X138157Y13745D01*
X138207Y13724D01*
X138256Y13700D01*
X138303Y13672D01*
X138347Y13641D01*
X138390Y13607D01*
X138430Y13570D01*
X138467Y13530D01*
X138501Y13487D01*
X138532Y13443D01*
X138560Y13396D01*
X138584Y13347D01*
X138605Y13297D01*
X138622Y13245D01*
X138636Y13192D01*
X138645Y13139D01*
X138651Y13084D01*
X138653Y13030D01*
X138653Y12267D01*
X138653Y13183D02*
X139873Y13793D01*
X162127Y127D02*
X164873Y1042D01*
X162127Y1958D01*
X164873Y3582D02*
X164873Y4192D01*
X164873Y3582D02*
X164871Y3534D01*
X164865Y3487D01*
X164856Y3440D01*
X164843Y3394D01*
X164827Y3349D01*
X164807Y3305D01*
X164783Y3263D01*
X164757Y3223D01*
X164727Y3186D01*
X164694Y3151D01*
X164659Y3118D01*
X164622Y3089D01*
X164582Y3062D01*
X164540Y3038D01*
X164496Y3018D01*
X164452Y3002D01*
X164405Y2989D01*
X164358Y2980D01*
X164311Y2974D01*
X164263Y2972D01*
X164263Y2971D02*
X162737Y2971D01*
X162737Y2972D02*
X162689Y2974D01*
X162642Y2980D01*
X162595Y2989D01*
X162549Y3002D01*
X162504Y3018D01*
X162460Y3038D01*
X162418Y3062D01*
X162378Y3088D01*
X162341Y3118D01*
X162306Y3151D01*
X162273Y3186D01*
X162244Y3223D01*
X162217Y3263D01*
X162193Y3305D01*
X162173Y3349D01*
X162157Y3393D01*
X162144Y3440D01*
X162135Y3487D01*
X162129Y3534D01*
X162127Y3582D01*
X162127Y4192D01*
X164873Y5832D02*
X164873Y6442D01*
X164873Y5832D02*
X164871Y5784D01*
X164865Y5737D01*
X164856Y5690D01*
X164843Y5644D01*
X164827Y5599D01*
X164807Y5555D01*
X164783Y5513D01*
X164757Y5473D01*
X164727Y5436D01*
X164694Y5401D01*
X164659Y5368D01*
X164622Y5339D01*
X164582Y5312D01*
X164540Y5288D01*
X164496Y5268D01*
X164452Y5252D01*
X164405Y5239D01*
X164358Y5230D01*
X164311Y5224D01*
X164263Y5222D01*
X164263Y5221D02*
X162737Y5221D01*
X162737Y5222D02*
X162689Y5224D01*
X162642Y5230D01*
X162595Y5239D01*
X162549Y5252D01*
X162504Y5268D01*
X162460Y5288D01*
X162418Y5312D01*
X162378Y5338D01*
X162341Y5368D01*
X162306Y5401D01*
X162273Y5436D01*
X162244Y5473D01*
X162217Y5513D01*
X162193Y5555D01*
X162173Y5599D01*
X162157Y5643D01*
X162144Y5690D01*
X162135Y5737D01*
X162129Y5784D01*
X162127Y5832D01*
X162127Y6442D01*
X165178Y7362D02*
X165178Y8582D01*
X164873Y9735D02*
X162127Y9735D01*
X164873Y9735D02*
X164873Y10955D01*
X164873Y11827D02*
X162127Y12742D01*
X164873Y13658D01*
X164187Y13429D02*
X164187Y12056D01*
X164873Y15262D02*
X162127Y15262D01*
X162127Y14499D02*
X162127Y16025D01*
X164873Y17622D02*
X164873Y18232D01*
X164873Y17622D02*
X164871Y17574D01*
X164865Y17527D01*
X164856Y17480D01*
X164843Y17434D01*
X164827Y17389D01*
X164807Y17345D01*
X164783Y17303D01*
X164757Y17263D01*
X164727Y17226D01*
X164694Y17191D01*
X164659Y17158D01*
X164622Y17129D01*
X164582Y17102D01*
X164540Y17078D01*
X164496Y17058D01*
X164452Y17042D01*
X164405Y17029D01*
X164358Y17020D01*
X164311Y17014D01*
X164263Y17012D01*
X164263Y17011D02*
X162737Y17011D01*
X162737Y17012D02*
X162689Y17014D01*
X162642Y17020D01*
X162595Y17029D01*
X162549Y17042D01*
X162504Y17058D01*
X162460Y17078D01*
X162418Y17102D01*
X162378Y17128D01*
X162341Y17158D01*
X162306Y17191D01*
X162273Y17226D01*
X162244Y17263D01*
X162217Y17303D01*
X162193Y17345D01*
X162173Y17389D01*
X162157Y17433D01*
X162144Y17480D01*
X162135Y17527D01*
X162129Y17574D01*
X162127Y17622D01*
X162127Y18232D01*
X162127Y19359D02*
X164873Y19359D01*
X163347Y19359D02*
X163347Y20885D01*
X162127Y20885D02*
X164873Y20885D01*
X188347Y1653D02*
X188347Y1195D01*
X188347Y1653D02*
X189873Y1653D01*
X189873Y737D01*
X189871Y689D01*
X189865Y642D01*
X189856Y595D01*
X189843Y549D01*
X189827Y504D01*
X189807Y460D01*
X189783Y418D01*
X189757Y378D01*
X189727Y341D01*
X189694Y306D01*
X189659Y273D01*
X189622Y244D01*
X189582Y217D01*
X189540Y193D01*
X189496Y173D01*
X189452Y157D01*
X189405Y144D01*
X189358Y135D01*
X189311Y129D01*
X189263Y127D01*
X187737Y127D01*
X187689Y129D01*
X187642Y135D01*
X187595Y144D01*
X187549Y157D01*
X187504Y173D01*
X187460Y193D01*
X187418Y217D01*
X187378Y243D01*
X187341Y273D01*
X187306Y306D01*
X187273Y341D01*
X187244Y378D01*
X187217Y418D01*
X187193Y460D01*
X187173Y504D01*
X187157Y548D01*
X187144Y595D01*
X187135Y642D01*
X187129Y689D01*
X187127Y737D01*
X187127Y1653D01*
X187127Y3007D02*
X189873Y3007D01*
X189873Y4533D02*
X187127Y3007D01*
X187127Y4533D02*
X189873Y4533D01*
X189873Y5887D02*
X187127Y5887D01*
X187127Y6650D01*
X187129Y6704D01*
X187135Y6759D01*
X187144Y6812D01*
X187158Y6865D01*
X187175Y6917D01*
X187196Y6967D01*
X187220Y7016D01*
X187248Y7063D01*
X187279Y7107D01*
X187313Y7150D01*
X187350Y7190D01*
X187390Y7227D01*
X187433Y7261D01*
X187478Y7292D01*
X187524Y7320D01*
X187573Y7344D01*
X187623Y7365D01*
X187675Y7382D01*
X187728Y7396D01*
X187781Y7405D01*
X187836Y7411D01*
X187890Y7413D01*
X187890Y7412D02*
X189110Y7412D01*
X189110Y7413D02*
X189164Y7411D01*
X189219Y7405D01*
X189272Y7396D01*
X189325Y7382D01*
X189377Y7365D01*
X189427Y7344D01*
X189476Y7320D01*
X189523Y7292D01*
X189567Y7261D01*
X189610Y7227D01*
X189650Y7190D01*
X189687Y7150D01*
X189721Y7107D01*
X189752Y7063D01*
X189780Y7016D01*
X189804Y6967D01*
X189825Y6917D01*
X189842Y6865D01*
X189856Y6812D01*
X189865Y6759D01*
X189871Y6704D01*
X189873Y6650D01*
X189873Y5887D01*
X212127Y127D02*
X214873Y127D01*
X212127Y127D02*
X212127Y890D01*
X212129Y944D01*
X212135Y999D01*
X212144Y1052D01*
X212158Y1105D01*
X212175Y1157D01*
X212196Y1207D01*
X212220Y1256D01*
X212248Y1303D01*
X212279Y1347D01*
X212313Y1390D01*
X212350Y1430D01*
X212390Y1467D01*
X212433Y1501D01*
X212478Y1532D01*
X212524Y1560D01*
X212573Y1584D01*
X212623Y1605D01*
X212675Y1622D01*
X212728Y1636D01*
X212781Y1645D01*
X212836Y1651D01*
X212890Y1653D01*
X214110Y1653D01*
X214164Y1651D01*
X214219Y1645D01*
X214272Y1636D01*
X214325Y1622D01*
X214377Y1605D01*
X214427Y1584D01*
X214476Y1560D01*
X214523Y1532D01*
X214567Y1501D01*
X214610Y1467D01*
X214650Y1430D01*
X214687Y1390D01*
X214721Y1347D01*
X214752Y1303D01*
X214780Y1256D01*
X214804Y1207D01*
X214825Y1157D01*
X214842Y1105D01*
X214856Y1052D01*
X214865Y999D01*
X214871Y944D01*
X214873Y890D01*
X214873Y127D01*
X214873Y2764D02*
X212127Y3680D01*
X214873Y4595D01*
X214187Y4366D02*
X214187Y2993D01*
X214873Y6200D02*
X212127Y6200D01*
X212127Y6962D02*
X212127Y5437D01*
X212127Y8720D02*
X214873Y7804D01*
X214873Y9635D02*
X212127Y8720D01*
X214187Y9406D02*
X214187Y8033D01*
X215178Y10539D02*
X215178Y11760D01*
X214873Y13040D02*
X212127Y13040D01*
X214873Y12735D02*
X214873Y13345D01*
X212127Y13345D02*
X212127Y12735D01*
X212127Y14527D02*
X214873Y14527D01*
X214873Y16052D02*
X212127Y14527D01*
X212127Y16052D02*
X214873Y16052D01*
X239873Y1347D02*
X239873Y737D01*
X239871Y689D01*
X239865Y642D01*
X239856Y595D01*
X239843Y549D01*
X239827Y504D01*
X239807Y460D01*
X239783Y418D01*
X239757Y378D01*
X239727Y341D01*
X239694Y306D01*
X239659Y273D01*
X239622Y244D01*
X239582Y217D01*
X239540Y193D01*
X239496Y173D01*
X239452Y157D01*
X239405Y144D01*
X239358Y135D01*
X239311Y129D01*
X239263Y127D01*
X237737Y127D01*
X237689Y129D01*
X237642Y135D01*
X237595Y144D01*
X237549Y157D01*
X237504Y173D01*
X237460Y193D01*
X237418Y217D01*
X237378Y243D01*
X237341Y273D01*
X237306Y306D01*
X237273Y341D01*
X237244Y378D01*
X237217Y418D01*
X237193Y460D01*
X237173Y504D01*
X237157Y548D01*
X237144Y595D01*
X237135Y642D01*
X237129Y689D01*
X237127Y737D01*
X237127Y1347D01*
X237127Y2481D02*
X239873Y2481D01*
X239873Y3701D01*
X239873Y4856D02*
X237127Y4856D01*
X237127Y6382D02*
X238805Y4856D01*
X238195Y5466D02*
X239873Y6382D01*
X262127Y127D02*
X264873Y127D01*
X264873Y1347D01*
X264873Y2219D02*
X262127Y3134D01*
X264873Y4050D01*
X264187Y3821D02*
X264187Y2448D01*
X264873Y5654D02*
X262127Y5654D01*
X262127Y4891D02*
X262127Y6417D01*
X264873Y8014D02*
X264873Y8624D01*
X264873Y8014D02*
X264871Y7966D01*
X264865Y7919D01*
X264856Y7872D01*
X264843Y7826D01*
X264827Y7781D01*
X264807Y7737D01*
X264783Y7695D01*
X264757Y7655D01*
X264727Y7618D01*
X264694Y7583D01*
X264659Y7550D01*
X264622Y7521D01*
X264582Y7494D01*
X264540Y7470D01*
X264496Y7450D01*
X264452Y7434D01*
X264405Y7421D01*
X264358Y7412D01*
X264311Y7406D01*
X264263Y7404D01*
X264263Y7403D02*
X262737Y7403D01*
X262737Y7404D02*
X262689Y7406D01*
X262642Y7412D01*
X262595Y7421D01*
X262549Y7434D01*
X262504Y7450D01*
X262460Y7470D01*
X262418Y7494D01*
X262378Y7520D01*
X262341Y7550D01*
X262306Y7583D01*
X262273Y7618D01*
X262244Y7655D01*
X262217Y7695D01*
X262193Y7737D01*
X262173Y7781D01*
X262157Y7825D01*
X262144Y7872D01*
X262135Y7919D01*
X262129Y7966D01*
X262127Y8014D01*
X262127Y8624D01*
X262127Y9751D02*
X264873Y9751D01*
X263347Y9751D02*
X263347Y11277D01*
X262127Y11277D02*
X264873Y11277D01*
X265178Y12424D02*
X265178Y13644D01*
X264873Y15304D02*
X264873Y15914D01*
X264873Y15304D02*
X264871Y15256D01*
X264865Y15209D01*
X264856Y15162D01*
X264843Y15116D01*
X264827Y15071D01*
X264807Y15027D01*
X264783Y14985D01*
X264757Y14945D01*
X264727Y14908D01*
X264694Y14873D01*
X264659Y14840D01*
X264622Y14811D01*
X264582Y14784D01*
X264540Y14760D01*
X264496Y14740D01*
X264452Y14724D01*
X264405Y14711D01*
X264358Y14702D01*
X264311Y14696D01*
X264263Y14694D01*
X264263Y14693D02*
X262737Y14693D01*
X262737Y14694D02*
X262689Y14696D01*
X262642Y14702D01*
X262595Y14711D01*
X262549Y14724D01*
X262504Y14740D01*
X262460Y14760D01*
X262418Y14784D01*
X262378Y14810D01*
X262341Y14840D01*
X262306Y14873D01*
X262273Y14908D01*
X262244Y14945D01*
X262217Y14985D01*
X262193Y15027D01*
X262173Y15071D01*
X262157Y15115D01*
X262144Y15162D01*
X262135Y15209D01*
X262129Y15256D01*
X262127Y15304D01*
X262127Y15914D01*
X262127Y17047D02*
X264873Y17047D01*
X264873Y18267D01*
X264873Y19422D02*
X262127Y19422D01*
X262127Y20948D02*
X263805Y19422D01*
X263195Y20033D02*
X264873Y20948D01*
X337127Y127D02*
X339873Y1042D01*
X337127Y1958D01*
X339873Y3582D02*
X339873Y4192D01*
X339873Y3582D02*
X339871Y3534D01*
X339865Y3487D01*
X339856Y3440D01*
X339843Y3394D01*
X339827Y3349D01*
X339807Y3305D01*
X339783Y3263D01*
X339757Y3223D01*
X339727Y3186D01*
X339694Y3151D01*
X339659Y3118D01*
X339622Y3089D01*
X339582Y3062D01*
X339540Y3038D01*
X339496Y3018D01*
X339452Y3002D01*
X339405Y2989D01*
X339358Y2980D01*
X339311Y2974D01*
X339263Y2972D01*
X339263Y2971D02*
X337737Y2971D01*
X337737Y2972D02*
X337689Y2974D01*
X337642Y2980D01*
X337595Y2989D01*
X337549Y3002D01*
X337504Y3018D01*
X337460Y3038D01*
X337418Y3062D01*
X337378Y3088D01*
X337341Y3118D01*
X337306Y3151D01*
X337273Y3186D01*
X337244Y3223D01*
X337217Y3263D01*
X337193Y3305D01*
X337173Y3349D01*
X337157Y3393D01*
X337144Y3440D01*
X337135Y3487D01*
X337129Y3534D01*
X337127Y3582D01*
X337127Y4192D01*
X339873Y5832D02*
X339873Y6442D01*
X339873Y5832D02*
X339871Y5784D01*
X339865Y5737D01*
X339856Y5690D01*
X339843Y5644D01*
X339827Y5599D01*
X339807Y5555D01*
X339783Y5513D01*
X339757Y5473D01*
X339727Y5436D01*
X339694Y5401D01*
X339659Y5368D01*
X339622Y5339D01*
X339582Y5312D01*
X339540Y5288D01*
X339496Y5268D01*
X339452Y5252D01*
X339405Y5239D01*
X339358Y5230D01*
X339311Y5224D01*
X339263Y5222D01*
X339263Y5221D02*
X337737Y5221D01*
X337737Y5222D02*
X337689Y5224D01*
X337642Y5230D01*
X337595Y5239D01*
X337549Y5252D01*
X337504Y5268D01*
X337460Y5288D01*
X337418Y5312D01*
X337378Y5338D01*
X337341Y5368D01*
X337306Y5401D01*
X337273Y5436D01*
X337244Y5473D01*
X337217Y5513D01*
X337193Y5555D01*
X337173Y5599D01*
X337157Y5643D01*
X337144Y5690D01*
X337135Y5737D01*
X337129Y5784D01*
X337127Y5832D01*
X337127Y6442D01*
X340178Y7362D02*
X340178Y8582D01*
X339873Y10465D02*
X339871Y10513D01*
X339865Y10560D01*
X339856Y10607D01*
X339843Y10654D01*
X339827Y10698D01*
X339807Y10742D01*
X339783Y10784D01*
X339757Y10824D01*
X339727Y10861D01*
X339694Y10896D01*
X339659Y10929D01*
X339622Y10959D01*
X339582Y10985D01*
X339540Y11009D01*
X339496Y11029D01*
X339452Y11045D01*
X339405Y11058D01*
X339358Y11067D01*
X339311Y11073D01*
X339263Y11075D01*
X339873Y10465D02*
X339871Y10397D01*
X339866Y10330D01*
X339857Y10262D01*
X339845Y10196D01*
X339829Y10130D01*
X339809Y10065D01*
X339786Y10001D01*
X339760Y9938D01*
X339731Y9877D01*
X339699Y9817D01*
X339663Y9760D01*
X339624Y9704D01*
X339583Y9650D01*
X339539Y9599D01*
X339492Y9550D01*
X337737Y9626D02*
X337689Y9628D01*
X337642Y9634D01*
X337595Y9643D01*
X337548Y9656D01*
X337504Y9672D01*
X337460Y9692D01*
X337418Y9716D01*
X337378Y9742D01*
X337341Y9772D01*
X337306Y9805D01*
X337273Y9840D01*
X337243Y9877D01*
X337217Y9917D01*
X337193Y9959D01*
X337173Y10003D01*
X337157Y10047D01*
X337144Y10094D01*
X337135Y10141D01*
X337129Y10188D01*
X337127Y10236D01*
X337129Y10303D01*
X337135Y10370D01*
X337145Y10436D01*
X337158Y10501D01*
X337176Y10566D01*
X337197Y10629D01*
X337222Y10692D01*
X337250Y10752D01*
X337282Y10811D01*
X337317Y10868D01*
X337356Y10922D01*
X338271Y9930D02*
X338246Y9892D01*
X338219Y9855D01*
X338189Y9820D01*
X338156Y9788D01*
X338121Y9758D01*
X338084Y9731D01*
X338045Y9707D01*
X338004Y9685D01*
X337962Y9667D01*
X337918Y9652D01*
X337874Y9640D01*
X337829Y9632D01*
X337783Y9627D01*
X337737Y9625D01*
X338729Y10770D02*
X338754Y10809D01*
X338781Y10845D01*
X338811Y10880D01*
X338844Y10912D01*
X338879Y10942D01*
X338916Y10969D01*
X338955Y10993D01*
X338996Y11015D01*
X339038Y11033D01*
X339082Y11048D01*
X339126Y11060D01*
X339171Y11068D01*
X339217Y11073D01*
X339263Y11075D01*
X338729Y10770D02*
X338271Y9931D01*
X337127Y12267D02*
X339873Y12267D01*
X337127Y12267D02*
X337127Y13030D01*
X337129Y13084D01*
X337135Y13139D01*
X337144Y13192D01*
X337158Y13245D01*
X337175Y13297D01*
X337196Y13347D01*
X337220Y13396D01*
X337248Y13443D01*
X337279Y13487D01*
X337313Y13530D01*
X337350Y13570D01*
X337390Y13607D01*
X337433Y13641D01*
X337477Y13672D01*
X337524Y13700D01*
X337573Y13724D01*
X337623Y13745D01*
X337675Y13762D01*
X337728Y13776D01*
X337781Y13785D01*
X337836Y13791D01*
X337890Y13793D01*
X337944Y13791D01*
X337999Y13785D01*
X338052Y13776D01*
X338105Y13762D01*
X338157Y13745D01*
X338207Y13724D01*
X338256Y13700D01*
X338303Y13672D01*
X338347Y13641D01*
X338390Y13607D01*
X338430Y13570D01*
X338467Y13530D01*
X338501Y13487D01*
X338532Y13443D01*
X338560Y13396D01*
X338584Y13347D01*
X338605Y13297D01*
X338622Y13245D01*
X338636Y13192D01*
X338645Y13139D01*
X338651Y13084D01*
X338653Y13030D01*
X338653Y12267D01*
X338653Y13183D02*
X339873Y13793D01*
X362127Y127D02*
X364873Y1042D01*
X362127Y1958D01*
X364873Y3582D02*
X364873Y4192D01*
X364873Y3582D02*
X364871Y3534D01*
X364865Y3487D01*
X364856Y3440D01*
X364843Y3394D01*
X364827Y3349D01*
X364807Y3305D01*
X364783Y3263D01*
X364757Y3223D01*
X364727Y3186D01*
X364694Y3151D01*
X364659Y3118D01*
X364622Y3089D01*
X364582Y3062D01*
X364540Y3038D01*
X364496Y3018D01*
X364452Y3002D01*
X364405Y2989D01*
X364358Y2980D01*
X364311Y2974D01*
X364263Y2972D01*
X364263Y2971D02*
X362737Y2971D01*
X362737Y2972D02*
X362689Y2974D01*
X362642Y2980D01*
X362595Y2989D01*
X362549Y3002D01*
X362504Y3018D01*
X362460Y3038D01*
X362418Y3062D01*
X362378Y3088D01*
X362341Y3118D01*
X362306Y3151D01*
X362273Y3186D01*
X362244Y3223D01*
X362217Y3263D01*
X362193Y3305D01*
X362173Y3349D01*
X362157Y3393D01*
X362144Y3440D01*
X362135Y3487D01*
X362129Y3534D01*
X362127Y3582D01*
X362127Y4192D01*
X364873Y5832D02*
X364873Y6442D01*
X364873Y5832D02*
X364871Y5784D01*
X364865Y5737D01*
X364856Y5690D01*
X364843Y5644D01*
X364827Y5599D01*
X364807Y5555D01*
X364783Y5513D01*
X364757Y5473D01*
X364727Y5436D01*
X364694Y5401D01*
X364659Y5368D01*
X364622Y5339D01*
X364582Y5312D01*
X364540Y5288D01*
X364496Y5268D01*
X364452Y5252D01*
X364405Y5239D01*
X364358Y5230D01*
X364311Y5224D01*
X364263Y5222D01*
X364263Y5221D02*
X362737Y5221D01*
X362737Y5222D02*
X362689Y5224D01*
X362642Y5230D01*
X362595Y5239D01*
X362549Y5252D01*
X362504Y5268D01*
X362460Y5288D01*
X362418Y5312D01*
X362378Y5338D01*
X362341Y5368D01*
X362306Y5401D01*
X362273Y5436D01*
X362244Y5473D01*
X362217Y5513D01*
X362193Y5555D01*
X362173Y5599D01*
X362157Y5643D01*
X362144Y5690D01*
X362135Y5737D01*
X362129Y5784D01*
X362127Y5832D01*
X362127Y6442D01*
X365178Y7362D02*
X365178Y8582D01*
X364873Y9735D02*
X362127Y9735D01*
X364873Y9735D02*
X364873Y10955D01*
X364873Y11827D02*
X362127Y12742D01*
X364873Y13658D01*
X364187Y13429D02*
X364187Y12056D01*
X364873Y15262D02*
X362127Y15262D01*
X362127Y14499D02*
X362127Y16025D01*
X364873Y17622D02*
X364873Y18232D01*
X364873Y17622D02*
X364871Y17574D01*
X364865Y17527D01*
X364856Y17480D01*
X364843Y17434D01*
X364827Y17389D01*
X364807Y17345D01*
X364783Y17303D01*
X364757Y17263D01*
X364727Y17226D01*
X364694Y17191D01*
X364659Y17158D01*
X364622Y17129D01*
X364582Y17102D01*
X364540Y17078D01*
X364496Y17058D01*
X364452Y17042D01*
X364405Y17029D01*
X364358Y17020D01*
X364311Y17014D01*
X364263Y17012D01*
X364263Y17011D02*
X362737Y17011D01*
X362737Y17012D02*
X362689Y17014D01*
X362642Y17020D01*
X362595Y17029D01*
X362549Y17042D01*
X362504Y17058D01*
X362460Y17078D01*
X362418Y17102D01*
X362378Y17128D01*
X362341Y17158D01*
X362306Y17191D01*
X362273Y17226D01*
X362244Y17263D01*
X362217Y17303D01*
X362193Y17345D01*
X362173Y17389D01*
X362157Y17433D01*
X362144Y17480D01*
X362135Y17527D01*
X362129Y17574D01*
X362127Y17622D01*
X362127Y18232D01*
X362127Y19359D02*
X364873Y19359D01*
X363347Y19359D02*
X363347Y20885D01*
X362127Y20885D02*
X364873Y20885D01*
X388347Y1653D02*
X388347Y1195D01*
X388347Y1653D02*
X389873Y1653D01*
X389873Y737D01*
X389871Y689D01*
X389865Y642D01*
X389856Y595D01*
X389843Y549D01*
X389827Y504D01*
X389807Y460D01*
X389783Y418D01*
X389757Y378D01*
X389727Y341D01*
X389694Y306D01*
X389659Y273D01*
X389622Y244D01*
X389582Y217D01*
X389540Y193D01*
X389496Y173D01*
X389452Y157D01*
X389405Y144D01*
X389358Y135D01*
X389311Y129D01*
X389263Y127D01*
X387737Y127D01*
X387689Y129D01*
X387642Y135D01*
X387595Y144D01*
X387549Y157D01*
X387504Y173D01*
X387460Y193D01*
X387418Y217D01*
X387378Y243D01*
X387341Y273D01*
X387306Y306D01*
X387273Y341D01*
X387244Y378D01*
X387217Y418D01*
X387193Y460D01*
X387173Y504D01*
X387157Y548D01*
X387144Y595D01*
X387135Y642D01*
X387129Y689D01*
X387127Y737D01*
X387127Y1653D01*
X387127Y3007D02*
X389873Y3007D01*
X389873Y4533D02*
X387127Y3007D01*
X387127Y4533D02*
X389873Y4533D01*
X389873Y5887D02*
X387127Y5887D01*
X387127Y6650D01*
X387129Y6704D01*
X387135Y6759D01*
X387144Y6812D01*
X387158Y6865D01*
X387175Y6917D01*
X387196Y6967D01*
X387220Y7016D01*
X387248Y7063D01*
X387279Y7107D01*
X387313Y7150D01*
X387350Y7190D01*
X387390Y7227D01*
X387433Y7261D01*
X387478Y7292D01*
X387524Y7320D01*
X387573Y7344D01*
X387623Y7365D01*
X387675Y7382D01*
X387728Y7396D01*
X387781Y7405D01*
X387836Y7411D01*
X387890Y7413D01*
X387890Y7412D02*
X389110Y7412D01*
X389110Y7413D02*
X389164Y7411D01*
X389219Y7405D01*
X389272Y7396D01*
X389325Y7382D01*
X389377Y7365D01*
X389427Y7344D01*
X389476Y7320D01*
X389523Y7292D01*
X389567Y7261D01*
X389610Y7227D01*
X389650Y7190D01*
X389687Y7150D01*
X389721Y7107D01*
X389752Y7063D01*
X389780Y7016D01*
X389804Y6967D01*
X389825Y6917D01*
X389842Y6865D01*
X389856Y6812D01*
X389865Y6759D01*
X389871Y6704D01*
X389873Y6650D01*
X389873Y5887D01*
X412127Y127D02*
X414873Y127D01*
X412127Y127D02*
X412127Y890D01*
X412129Y944D01*
X412135Y999D01*
X412144Y1052D01*
X412158Y1105D01*
X412175Y1157D01*
X412196Y1207D01*
X412220Y1256D01*
X412248Y1303D01*
X412279Y1347D01*
X412313Y1390D01*
X412350Y1430D01*
X412390Y1467D01*
X412433Y1501D01*
X412478Y1532D01*
X412524Y1560D01*
X412573Y1584D01*
X412623Y1605D01*
X412675Y1622D01*
X412728Y1636D01*
X412781Y1645D01*
X412836Y1651D01*
X412890Y1653D01*
X414110Y1653D01*
X414164Y1651D01*
X414219Y1645D01*
X414272Y1636D01*
X414325Y1622D01*
X414377Y1605D01*
X414427Y1584D01*
X414476Y1560D01*
X414523Y1532D01*
X414567Y1501D01*
X414610Y1467D01*
X414650Y1430D01*
X414687Y1390D01*
X414721Y1347D01*
X414752Y1303D01*
X414780Y1256D01*
X414804Y1207D01*
X414825Y1157D01*
X414842Y1105D01*
X414856Y1052D01*
X414865Y999D01*
X414871Y944D01*
X414873Y890D01*
X414873Y127D01*
X414873Y2764D02*
X412127Y3680D01*
X414873Y4595D01*
X414187Y4366D02*
X414187Y2993D01*
X414873Y6200D02*
X412127Y6200D01*
X412127Y6962D02*
X412127Y5437D01*
X412127Y8720D02*
X414873Y7804D01*
X414873Y9635D02*
X412127Y8720D01*
X414187Y9406D02*
X414187Y8033D01*
X415178Y10539D02*
X415178Y11760D01*
X414873Y13040D02*
X412127Y13040D01*
X414873Y12735D02*
X414873Y13345D01*
X412127Y13345D02*
X412127Y12735D01*
X412127Y14527D02*
X414873Y14527D01*
X414873Y16052D02*
X412127Y14527D01*
X412127Y16052D02*
X414873Y16052D01*
X439873Y1347D02*
X439873Y737D01*
X439871Y689D01*
X439865Y642D01*
X439856Y595D01*
X439843Y549D01*
X439827Y504D01*
X439807Y460D01*
X439783Y418D01*
X439757Y378D01*
X439727Y341D01*
X439694Y306D01*
X439659Y273D01*
X439622Y244D01*
X439582Y217D01*
X439540Y193D01*
X439496Y173D01*
X439452Y157D01*
X439405Y144D01*
X439358Y135D01*
X439311Y129D01*
X439263Y127D01*
X437737Y127D01*
X437689Y129D01*
X437642Y135D01*
X437595Y144D01*
X437549Y157D01*
X437504Y173D01*
X437460Y193D01*
X437418Y217D01*
X437378Y243D01*
X437341Y273D01*
X437306Y306D01*
X437273Y341D01*
X437244Y378D01*
X437217Y418D01*
X437193Y460D01*
X437173Y504D01*
X437157Y548D01*
X437144Y595D01*
X437135Y642D01*
X437129Y689D01*
X437127Y737D01*
X437127Y1347D01*
X437127Y2481D02*
X439873Y2481D01*
X439873Y3701D01*
X439873Y4856D02*
X437127Y4856D01*
X437127Y6382D02*
X438805Y4856D01*
X438195Y5466D02*
X439873Y6382D01*
X462127Y127D02*
X464873Y127D01*
X464873Y1347D01*
X464873Y2219D02*
X462127Y3134D01*
X464873Y4050D01*
X464187Y3821D02*
X464187Y2448D01*
X464873Y5654D02*
X462127Y5654D01*
X462127Y4891D02*
X462127Y6417D01*
X464873Y8014D02*
X464873Y8624D01*
X464873Y8014D02*
X464871Y7966D01*
X464865Y7919D01*
X464856Y7872D01*
X464843Y7826D01*
X464827Y7781D01*
X464807Y7737D01*
X464783Y7695D01*
X464757Y7655D01*
X464727Y7618D01*
X464694Y7583D01*
X464659Y7550D01*
X464622Y7521D01*
X464582Y7494D01*
X464540Y7470D01*
X464496Y7450D01*
X464452Y7434D01*
X464405Y7421D01*
X464358Y7412D01*
X464311Y7406D01*
X464263Y7404D01*
X464263Y7403D02*
X462737Y7403D01*
X462737Y7404D02*
X462689Y7406D01*
X462642Y7412D01*
X462595Y7421D01*
X462549Y7434D01*
X462504Y7450D01*
X462460Y7470D01*
X462418Y7494D01*
X462378Y7520D01*
X462341Y7550D01*
X462306Y7583D01*
X462273Y7618D01*
X462244Y7655D01*
X462217Y7695D01*
X462193Y7737D01*
X462173Y7781D01*
X462157Y7825D01*
X462144Y7872D01*
X462135Y7919D01*
X462129Y7966D01*
X462127Y8014D01*
X462127Y8624D01*
X462127Y9751D02*
X464873Y9751D01*
X463347Y9751D02*
X463347Y11277D01*
X462127Y11277D02*
X464873Y11277D01*
X465178Y12424D02*
X465178Y13644D01*
X464873Y15304D02*
X464873Y15914D01*
X464873Y15304D02*
X464871Y15256D01*
X464865Y15209D01*
X464856Y15162D01*
X464843Y15116D01*
X464827Y15071D01*
X464807Y15027D01*
X464783Y14985D01*
X464757Y14945D01*
X464727Y14908D01*
X464694Y14873D01*
X464659Y14840D01*
X464622Y14811D01*
X464582Y14784D01*
X464540Y14760D01*
X464496Y14740D01*
X464452Y14724D01*
X464405Y14711D01*
X464358Y14702D01*
X464311Y14696D01*
X464263Y14694D01*
X464263Y14693D02*
X462737Y14693D01*
X462737Y14694D02*
X462689Y14696D01*
X462642Y14702D01*
X462595Y14711D01*
X462549Y14724D01*
X462504Y14740D01*
X462460Y14760D01*
X462418Y14784D01*
X462378Y14810D01*
X462341Y14840D01*
X462306Y14873D01*
X462273Y14908D01*
X462244Y14945D01*
X462217Y14985D01*
X462193Y15027D01*
X462173Y15071D01*
X462157Y15115D01*
X462144Y15162D01*
X462135Y15209D01*
X462129Y15256D01*
X462127Y15304D01*
X462127Y15914D01*
X462127Y17047D02*
X464873Y17047D01*
X464873Y18267D01*
X464873Y19422D02*
X462127Y19422D01*
X462127Y20948D02*
X463805Y19422D01*
X463195Y20033D02*
X464873Y20948D01*
X737127Y127D02*
X739873Y1042D01*
X737127Y1958D01*
X739873Y3582D02*
X739873Y4192D01*
X739873Y3582D02*
X739871Y3534D01*
X739865Y3487D01*
X739856Y3440D01*
X739843Y3394D01*
X739827Y3349D01*
X739807Y3305D01*
X739783Y3263D01*
X739757Y3223D01*
X739727Y3186D01*
X739694Y3151D01*
X739659Y3118D01*
X739622Y3089D01*
X739582Y3062D01*
X739540Y3038D01*
X739496Y3018D01*
X739452Y3002D01*
X739405Y2989D01*
X739358Y2980D01*
X739311Y2974D01*
X739263Y2972D01*
X739263Y2971D02*
X737737Y2971D01*
X737737Y2972D02*
X737689Y2974D01*
X737642Y2980D01*
X737595Y2989D01*
X737549Y3002D01*
X737504Y3018D01*
X737460Y3038D01*
X737418Y3062D01*
X737378Y3088D01*
X737341Y3118D01*
X737306Y3151D01*
X737273Y3186D01*
X737244Y3223D01*
X737217Y3263D01*
X737193Y3305D01*
X737173Y3349D01*
X737157Y3393D01*
X737144Y3440D01*
X737135Y3487D01*
X737129Y3534D01*
X737127Y3582D01*
X737127Y4192D01*
X739873Y5832D02*
X739873Y6442D01*
X739873Y5832D02*
X739871Y5784D01*
X739865Y5737D01*
X739856Y5690D01*
X739843Y5644D01*
X739827Y5599D01*
X739807Y5555D01*
X739783Y5513D01*
X739757Y5473D01*
X739727Y5436D01*
X739694Y5401D01*
X739659Y5368D01*
X739622Y5339D01*
X739582Y5312D01*
X739540Y5288D01*
X739496Y5268D01*
X739452Y5252D01*
X739405Y5239D01*
X739358Y5230D01*
X739311Y5224D01*
X739263Y5222D01*
X739263Y5221D02*
X737737Y5221D01*
X737737Y5222D02*
X737689Y5224D01*
X737642Y5230D01*
X737595Y5239D01*
X737549Y5252D01*
X737504Y5268D01*
X737460Y5288D01*
X737418Y5312D01*
X737378Y5338D01*
X737341Y5368D01*
X737306Y5401D01*
X737273Y5436D01*
X737244Y5473D01*
X737217Y5513D01*
X737193Y5555D01*
X737173Y5599D01*
X737157Y5643D01*
X737144Y5690D01*
X737135Y5737D01*
X737129Y5784D01*
X737127Y5832D01*
X737127Y6442D01*
X740178Y7362D02*
X740178Y8582D01*
X739873Y10465D02*
X739871Y10513D01*
X739865Y10560D01*
X739856Y10607D01*
X739843Y10654D01*
X739827Y10698D01*
X739807Y10742D01*
X739783Y10784D01*
X739757Y10824D01*
X739727Y10861D01*
X739694Y10896D01*
X739659Y10929D01*
X739622Y10959D01*
X739582Y10985D01*
X739540Y11009D01*
X739496Y11029D01*
X739452Y11045D01*
X739405Y11058D01*
X739358Y11067D01*
X739311Y11073D01*
X739263Y11075D01*
X739873Y10465D02*
X739871Y10397D01*
X739866Y10330D01*
X739857Y10262D01*
X739845Y10196D01*
X739829Y10130D01*
X739809Y10065D01*
X739786Y10001D01*
X739760Y9938D01*
X739731Y9877D01*
X739699Y9817D01*
X739663Y9760D01*
X739624Y9704D01*
X739583Y9650D01*
X739539Y9599D01*
X739492Y9550D01*
X737737Y9626D02*
X737689Y9628D01*
X737642Y9634D01*
X737595Y9643D01*
X737548Y9656D01*
X737504Y9672D01*
X737460Y9692D01*
X737418Y9716D01*
X737378Y9742D01*
X737341Y9772D01*
X737306Y9805D01*
X737273Y9840D01*
X737243Y9877D01*
X737217Y9917D01*
X737193Y9959D01*
X737173Y10003D01*
X737157Y10047D01*
X737144Y10094D01*
X737135Y10141D01*
X737129Y10188D01*
X737127Y10236D01*
X737129Y10303D01*
X737135Y10370D01*
X737145Y10436D01*
X737158Y10501D01*
X737176Y10566D01*
X737197Y10629D01*
X737222Y10692D01*
X737250Y10752D01*
X737282Y10811D01*
X737317Y10868D01*
X737356Y10922D01*
X738271Y9930D02*
X738246Y9892D01*
X738219Y9855D01*
X738189Y9820D01*
X738156Y9788D01*
X738121Y9758D01*
X738084Y9731D01*
X738045Y9707D01*
X738004Y9685D01*
X737962Y9667D01*
X737918Y9652D01*
X737874Y9640D01*
X737829Y9632D01*
X737783Y9627D01*
X737737Y9625D01*
X738729Y10770D02*
X738754Y10809D01*
X738781Y10845D01*
X738811Y10880D01*
X738844Y10912D01*
X738879Y10942D01*
X738916Y10969D01*
X738955Y10993D01*
X738996Y11015D01*
X739038Y11033D01*
X739082Y11048D01*
X739126Y11060D01*
X739171Y11068D01*
X739217Y11073D01*
X739263Y11075D01*
X738729Y10770D02*
X738271Y9931D01*
X737127Y12267D02*
X739873Y12267D01*
X737127Y12267D02*
X737127Y13030D01*
X737129Y13084D01*
X737135Y13139D01*
X737144Y13192D01*
X737158Y13245D01*
X737175Y13297D01*
X737196Y13347D01*
X737220Y13396D01*
X737248Y13443D01*
X737279Y13487D01*
X737313Y13530D01*
X737350Y13570D01*
X737390Y13607D01*
X737433Y13641D01*
X737477Y13672D01*
X737524Y13700D01*
X737573Y13724D01*
X737623Y13745D01*
X737675Y13762D01*
X737728Y13776D01*
X737781Y13785D01*
X737836Y13791D01*
X737890Y13793D01*
X737944Y13791D01*
X737999Y13785D01*
X738052Y13776D01*
X738105Y13762D01*
X738157Y13745D01*
X738207Y13724D01*
X738256Y13700D01*
X738303Y13672D01*
X738347Y13641D01*
X738390Y13607D01*
X738430Y13570D01*
X738467Y13530D01*
X738501Y13487D01*
X738532Y13443D01*
X738560Y13396D01*
X738584Y13347D01*
X738605Y13297D01*
X738622Y13245D01*
X738636Y13192D01*
X738645Y13139D01*
X738651Y13084D01*
X738653Y13030D01*
X738653Y12267D01*
X738653Y13183D02*
X739873Y13793D01*
X762127Y127D02*
X764873Y1042D01*
X762127Y1958D01*
X764873Y3582D02*
X764873Y4192D01*
X764873Y3582D02*
X764871Y3534D01*
X764865Y3487D01*
X764856Y3440D01*
X764843Y3394D01*
X764827Y3349D01*
X764807Y3305D01*
X764783Y3263D01*
X764757Y3223D01*
X764727Y3186D01*
X764694Y3151D01*
X764659Y3118D01*
X764622Y3089D01*
X764582Y3062D01*
X764540Y3038D01*
X764496Y3018D01*
X764452Y3002D01*
X764405Y2989D01*
X764358Y2980D01*
X764311Y2974D01*
X764263Y2972D01*
X764263Y2971D02*
X762737Y2971D01*
X762737Y2972D02*
X762689Y2974D01*
X762642Y2980D01*
X762595Y2989D01*
X762549Y3002D01*
X762504Y3018D01*
X762460Y3038D01*
X762418Y3062D01*
X762378Y3088D01*
X762341Y3118D01*
X762306Y3151D01*
X762273Y3186D01*
X762244Y3223D01*
X762217Y3263D01*
X762193Y3305D01*
X762173Y3349D01*
X762157Y3393D01*
X762144Y3440D01*
X762135Y3487D01*
X762129Y3534D01*
X762127Y3582D01*
X762127Y4192D01*
X764873Y5832D02*
X764873Y6442D01*
X764873Y5832D02*
X764871Y5784D01*
X764865Y5737D01*
X764856Y5690D01*
X764843Y5644D01*
X764827Y5599D01*
X764807Y5555D01*
X764783Y5513D01*
X764757Y5473D01*
X764727Y5436D01*
X764694Y5401D01*
X764659Y5368D01*
X764622Y5339D01*
X764582Y5312D01*
X764540Y5288D01*
X764496Y5268D01*
X764452Y5252D01*
X764405Y5239D01*
X764358Y5230D01*
X764311Y5224D01*
X764263Y5222D01*
X764263Y5221D02*
X762737Y5221D01*
X762737Y5222D02*
X762689Y5224D01*
X762642Y5230D01*
X762595Y5239D01*
X762549Y5252D01*
X762504Y5268D01*
X762460Y5288D01*
X762418Y5312D01*
X762378Y5338D01*
X762341Y5368D01*
X762306Y5401D01*
X762273Y5436D01*
X762244Y5473D01*
X762217Y5513D01*
X762193Y5555D01*
X762173Y5599D01*
X762157Y5643D01*
X762144Y5690D01*
X762135Y5737D01*
X762129Y5784D01*
X762127Y5832D01*
X762127Y6442D01*
X765178Y7362D02*
X765178Y8582D01*
X764873Y9735D02*
X762127Y9735D01*
X764873Y9735D02*
X764873Y10955D01*
X764873Y11827D02*
X762127Y12742D01*
X764873Y13658D01*
X764187Y13429D02*
X764187Y12056D01*
X764873Y15262D02*
X762127Y15262D01*
X762127Y14499D02*
X762127Y16025D01*
X764873Y17622D02*
X764873Y18232D01*
X764873Y17622D02*
X764871Y17574D01*
X764865Y17527D01*
X764856Y17480D01*
X764843Y17434D01*
X764827Y17389D01*
X764807Y17345D01*
X764783Y17303D01*
X764757Y17263D01*
X764727Y17226D01*
X764694Y17191D01*
X764659Y17158D01*
X764622Y17129D01*
X764582Y17102D01*
X764540Y17078D01*
X764496Y17058D01*
X764452Y17042D01*
X764405Y17029D01*
X764358Y17020D01*
X764311Y17014D01*
X764263Y17012D01*
X764263Y17011D02*
X762737Y17011D01*
X762737Y17012D02*
X762689Y17014D01*
X762642Y17020D01*
X762595Y17029D01*
X762549Y17042D01*
X762504Y17058D01*
X762460Y17078D01*
X762418Y17102D01*
X762378Y17128D01*
X762341Y17158D01*
X762306Y17191D01*
X762273Y17226D01*
X762244Y17263D01*
X762217Y17303D01*
X762193Y17345D01*
X762173Y17389D01*
X762157Y17433D01*
X762144Y17480D01*
X762135Y17527D01*
X762129Y17574D01*
X762127Y17622D01*
X762127Y18232D01*
X762127Y19359D02*
X764873Y19359D01*
X763347Y19359D02*
X763347Y20885D01*
X762127Y20885D02*
X764873Y20885D01*
X788347Y1653D02*
X788347Y1195D01*
X788347Y1653D02*
X789873Y1653D01*
X789873Y737D01*
X789871Y689D01*
X789865Y642D01*
X789856Y595D01*
X789843Y549D01*
X789827Y504D01*
X789807Y460D01*
X789783Y418D01*
X789757Y378D01*
X789727Y341D01*
X789694Y306D01*
X789659Y273D01*
X789622Y244D01*
X789582Y217D01*
X789540Y193D01*
X789496Y173D01*
X789452Y157D01*
X789405Y144D01*
X789358Y135D01*
X789311Y129D01*
X789263Y127D01*
X787737Y127D01*
X787689Y129D01*
X787642Y135D01*
X787595Y144D01*
X787549Y157D01*
X787504Y173D01*
X787460Y193D01*
X787418Y217D01*
X787378Y243D01*
X787341Y273D01*
X787306Y306D01*
X787273Y341D01*
X787244Y378D01*
X787217Y418D01*
X787193Y460D01*
X787173Y504D01*
X787157Y548D01*
X787144Y595D01*
X787135Y642D01*
X787129Y689D01*
X787127Y737D01*
X787127Y1653D01*
X787127Y3007D02*
X789873Y3007D01*
X789873Y4533D02*
X787127Y3007D01*
X787127Y4533D02*
X789873Y4533D01*
X789873Y5887D02*
X787127Y5887D01*
X787127Y6650D01*
X787129Y6704D01*
X787135Y6759D01*
X787144Y6812D01*
X787158Y6865D01*
X787175Y6917D01*
X787196Y6967D01*
X787220Y7016D01*
X787248Y7063D01*
X787279Y7107D01*
X787313Y7150D01*
X787350Y7190D01*
X787390Y7227D01*
X787433Y7261D01*
X787478Y7292D01*
X787524Y7320D01*
X787573Y7344D01*
X787623Y7365D01*
X787675Y7382D01*
X787728Y7396D01*
X787781Y7405D01*
X787836Y7411D01*
X787890Y7413D01*
X787890Y7412D02*
X789110Y7412D01*
X789110Y7413D02*
X789164Y7411D01*
X789219Y7405D01*
X789272Y7396D01*
X789325Y7382D01*
X789377Y7365D01*
X789427Y7344D01*
X789476Y7320D01*
X789523Y7292D01*
X789567Y7261D01*
X789610Y7227D01*
X789650Y7190D01*
X789687Y7150D01*
X789721Y7107D01*
X789752Y7063D01*
X789780Y7016D01*
X789804Y6967D01*
X789825Y6917D01*
X789842Y6865D01*
X789856Y6812D01*
X789865Y6759D01*
X789871Y6704D01*
X789873Y6650D01*
X789873Y5887D01*
X812127Y127D02*
X814873Y127D01*
X812127Y127D02*
X812127Y890D01*
X812129Y944D01*
X812135Y999D01*
X812144Y1052D01*
X812158Y1105D01*
X812175Y1157D01*
X812196Y1207D01*
X812220Y1256D01*
X812248Y1303D01*
X812279Y1347D01*
X812313Y1390D01*
X812350Y1430D01*
X812390Y1467D01*
X812433Y1501D01*
X812478Y1532D01*
X812524Y1560D01*
X812573Y1584D01*
X812623Y1605D01*
X812675Y1622D01*
X812728Y1636D01*
X812781Y1645D01*
X812836Y1651D01*
X812890Y1653D01*
X814110Y1653D01*
X814164Y1651D01*
X814219Y1645D01*
X814272Y1636D01*
X814325Y1622D01*
X814377Y1605D01*
X814427Y1584D01*
X814476Y1560D01*
X814523Y1532D01*
X814567Y1501D01*
X814610Y1467D01*
X814650Y1430D01*
X814687Y1390D01*
X814721Y1347D01*
X814752Y1303D01*
X814780Y1256D01*
X814804Y1207D01*
X814825Y1157D01*
X814842Y1105D01*
X814856Y1052D01*
X814865Y999D01*
X814871Y944D01*
X814873Y890D01*
X814873Y127D01*
X814873Y2764D02*
X812127Y3680D01*
X814873Y4595D01*
X814187Y4366D02*
X814187Y2993D01*
X814873Y6200D02*
X812127Y6200D01*
X812127Y6962D02*
X812127Y5437D01*
X812127Y8720D02*
X814873Y7804D01*
X814873Y9635D02*
X812127Y8720D01*
X814187Y9406D02*
X814187Y8033D01*
X815178Y10539D02*
X815178Y11760D01*
X814110Y12817D02*
X812890Y12817D01*
X812836Y12819D01*
X812781Y12825D01*
X812728Y12834D01*
X812675Y12848D01*
X812623Y12865D01*
X812573Y12886D01*
X812524Y12910D01*
X812477Y12938D01*
X812433Y12969D01*
X812390Y13003D01*
X812350Y13040D01*
X812313Y13080D01*
X812279Y13123D01*
X812248Y13167D01*
X812220Y13214D01*
X812196Y13263D01*
X812175Y13313D01*
X812158Y13365D01*
X812144Y13418D01*
X812135Y13471D01*
X812129Y13526D01*
X812127Y13580D01*
X812129Y13634D01*
X812135Y13689D01*
X812144Y13742D01*
X812158Y13795D01*
X812175Y13847D01*
X812196Y13897D01*
X812220Y13946D01*
X812248Y13993D01*
X812279Y14037D01*
X812313Y14080D01*
X812350Y14120D01*
X812390Y14157D01*
X812433Y14191D01*
X812477Y14222D01*
X812524Y14250D01*
X812573Y14274D01*
X812623Y14295D01*
X812675Y14312D01*
X812728Y14326D01*
X812781Y14335D01*
X812836Y14341D01*
X812890Y14343D01*
X812890Y14342D02*
X814110Y14342D01*
X814110Y14343D02*
X814164Y14341D01*
X814219Y14335D01*
X814272Y14326D01*
X814325Y14312D01*
X814377Y14295D01*
X814427Y14274D01*
X814476Y14250D01*
X814523Y14222D01*
X814567Y14191D01*
X814610Y14157D01*
X814650Y14120D01*
X814687Y14080D01*
X814721Y14037D01*
X814752Y13993D01*
X814780Y13946D01*
X814804Y13897D01*
X814825Y13847D01*
X814842Y13795D01*
X814856Y13742D01*
X814865Y13689D01*
X814871Y13634D01*
X814873Y13580D01*
X814871Y13526D01*
X814865Y13471D01*
X814856Y13418D01*
X814842Y13365D01*
X814825Y13313D01*
X814804Y13263D01*
X814780Y13214D01*
X814752Y13167D01*
X814721Y13123D01*
X814687Y13080D01*
X814650Y13040D01*
X814610Y13003D01*
X814567Y12969D01*
X814523Y12938D01*
X814476Y12910D01*
X814427Y12886D01*
X814377Y12865D01*
X814325Y12848D01*
X814272Y12834D01*
X814219Y12825D01*
X814164Y12819D01*
X814110Y12817D01*
X814110Y15607D02*
X812127Y15607D01*
X814110Y15607D02*
X814164Y15609D01*
X814219Y15615D01*
X814272Y15624D01*
X814325Y15638D01*
X814377Y15655D01*
X814427Y15676D01*
X814476Y15700D01*
X814523Y15728D01*
X814567Y15759D01*
X814610Y15793D01*
X814650Y15830D01*
X814687Y15870D01*
X814721Y15913D01*
X814752Y15957D01*
X814780Y16004D01*
X814804Y16053D01*
X814825Y16103D01*
X814842Y16155D01*
X814856Y16208D01*
X814865Y16261D01*
X814871Y16316D01*
X814873Y16370D01*
X814871Y16424D01*
X814865Y16479D01*
X814856Y16532D01*
X814842Y16585D01*
X814825Y16637D01*
X814804Y16687D01*
X814780Y16736D01*
X814752Y16783D01*
X814721Y16827D01*
X814687Y16870D01*
X814650Y16910D01*
X814610Y16947D01*
X814567Y16981D01*
X814523Y17012D01*
X814476Y17040D01*
X814427Y17064D01*
X814377Y17085D01*
X814325Y17102D01*
X814272Y17116D01*
X814219Y17125D01*
X814164Y17131D01*
X814110Y17133D01*
X814110Y17132D02*
X812127Y17132D01*
X812127Y18980D02*
X814873Y18980D01*
X812127Y19742D02*
X812127Y18217D01*
X839873Y1347D02*
X839873Y737D01*
X839871Y689D01*
X839865Y642D01*
X839856Y595D01*
X839843Y549D01*
X839827Y504D01*
X839807Y460D01*
X839783Y418D01*
X839757Y378D01*
X839727Y341D01*
X839694Y306D01*
X839659Y273D01*
X839622Y244D01*
X839582Y217D01*
X839540Y193D01*
X839496Y173D01*
X839452Y157D01*
X839405Y144D01*
X839358Y135D01*
X839311Y129D01*
X839263Y127D01*
X837737Y127D01*
X837689Y129D01*
X837642Y135D01*
X837595Y144D01*
X837549Y157D01*
X837504Y173D01*
X837460Y193D01*
X837418Y217D01*
X837378Y243D01*
X837341Y273D01*
X837306Y306D01*
X837273Y341D01*
X837244Y378D01*
X837217Y418D01*
X837193Y460D01*
X837173Y504D01*
X837157Y548D01*
X837144Y595D01*
X837135Y642D01*
X837129Y689D01*
X837127Y737D01*
X837127Y1347D01*
X837127Y2481D02*
X839873Y2481D01*
X839873Y3701D01*
X839873Y4856D02*
X837127Y4856D01*
X837127Y6382D02*
X838805Y4856D01*
X838195Y5466D02*
X839873Y6382D01*
X862127Y127D02*
X864873Y127D01*
X864873Y1347D01*
X864873Y2219D02*
X862127Y3134D01*
X864873Y4050D01*
X864187Y3821D02*
X864187Y2448D01*
X864873Y5654D02*
X862127Y5654D01*
X862127Y4891D02*
X862127Y6417D01*
X864873Y8014D02*
X864873Y8624D01*
X864873Y8014D02*
X864871Y7966D01*
X864865Y7919D01*
X864856Y7872D01*
X864843Y7826D01*
X864827Y7781D01*
X864807Y7737D01*
X864783Y7695D01*
X864757Y7655D01*
X864727Y7618D01*
X864694Y7583D01*
X864659Y7550D01*
X864622Y7521D01*
X864582Y7494D01*
X864540Y7470D01*
X864496Y7450D01*
X864452Y7434D01*
X864405Y7421D01*
X864358Y7412D01*
X864311Y7406D01*
X864263Y7404D01*
X864263Y7403D02*
X862737Y7403D01*
X862737Y7404D02*
X862689Y7406D01*
X862642Y7412D01*
X862595Y7421D01*
X862549Y7434D01*
X862504Y7450D01*
X862460Y7470D01*
X862418Y7494D01*
X862378Y7520D01*
X862341Y7550D01*
X862306Y7583D01*
X862273Y7618D01*
X862244Y7655D01*
X862217Y7695D01*
X862193Y7737D01*
X862173Y7781D01*
X862157Y7825D01*
X862144Y7872D01*
X862135Y7919D01*
X862129Y7966D01*
X862127Y8014D01*
X862127Y8624D01*
X862127Y9751D02*
X864873Y9751D01*
X863347Y9751D02*
X863347Y11277D01*
X862127Y11277D02*
X864873Y11277D01*
X865178Y12424D02*
X865178Y13644D01*
X864873Y15304D02*
X864873Y15914D01*
X864873Y15304D02*
X864871Y15256D01*
X864865Y15209D01*
X864856Y15162D01*
X864843Y15116D01*
X864827Y15071D01*
X864807Y15027D01*
X864783Y14985D01*
X864757Y14945D01*
X864727Y14908D01*
X864694Y14873D01*
X864659Y14840D01*
X864622Y14811D01*
X864582Y14784D01*
X864540Y14760D01*
X864496Y14740D01*
X864452Y14724D01*
X864405Y14711D01*
X864358Y14702D01*
X864311Y14696D01*
X864263Y14694D01*
X864263Y14693D02*
X862737Y14693D01*
X862737Y14694D02*
X862689Y14696D01*
X862642Y14702D01*
X862595Y14711D01*
X862549Y14724D01*
X862504Y14740D01*
X862460Y14760D01*
X862418Y14784D01*
X862378Y14810D01*
X862341Y14840D01*
X862306Y14873D01*
X862273Y14908D01*
X862244Y14945D01*
X862217Y14985D01*
X862193Y15027D01*
X862173Y15071D01*
X862157Y15115D01*
X862144Y15162D01*
X862135Y15209D01*
X862129Y15256D01*
X862127Y15304D01*
X862127Y15914D01*
X862127Y17047D02*
X864873Y17047D01*
X864873Y18267D01*
X864873Y19422D02*
X862127Y19422D01*
X862127Y20948D02*
X863805Y19422D01*
X863195Y20033D02*
X864873Y20948D01*
X937127Y127D02*
X939873Y1042D01*
X937127Y1958D01*
X939873Y3582D02*
X939873Y4192D01*
X939873Y3582D02*
X939871Y3534D01*
X939865Y3487D01*
X939856Y3440D01*
X939843Y3394D01*
X939827Y3349D01*
X939807Y3305D01*
X939783Y3263D01*
X939757Y3223D01*
X939727Y3186D01*
X939694Y3151D01*
X939659Y3118D01*
X939622Y3089D01*
X939582Y3062D01*
X939540Y3038D01*
X939496Y3018D01*
X939452Y3002D01*
X939405Y2989D01*
X939358Y2980D01*
X939311Y2974D01*
X939263Y2972D01*
X939263Y2971D02*
X937737Y2971D01*
X937737Y2972D02*
X937689Y2974D01*
X937642Y2980D01*
X937595Y2989D01*
X937549Y3002D01*
X937504Y3018D01*
X937460Y3038D01*
X937418Y3062D01*
X937378Y3088D01*
X937341Y3118D01*
X937306Y3151D01*
X937273Y3186D01*
X937244Y3223D01*
X937217Y3263D01*
X937193Y3305D01*
X937173Y3349D01*
X937157Y3393D01*
X937144Y3440D01*
X937135Y3487D01*
X937129Y3534D01*
X937127Y3582D01*
X937127Y4192D01*
X939873Y5832D02*
X939873Y6442D01*
X939873Y5832D02*
X939871Y5784D01*
X939865Y5737D01*
X939856Y5690D01*
X939843Y5644D01*
X939827Y5599D01*
X939807Y5555D01*
X939783Y5513D01*
X939757Y5473D01*
X939727Y5436D01*
X939694Y5401D01*
X939659Y5368D01*
X939622Y5339D01*
X939582Y5312D01*
X939540Y5288D01*
X939496Y5268D01*
X939452Y5252D01*
X939405Y5239D01*
X939358Y5230D01*
X939311Y5224D01*
X939263Y5222D01*
X939263Y5221D02*
X937737Y5221D01*
X937737Y5222D02*
X937689Y5224D01*
X937642Y5230D01*
X937595Y5239D01*
X937549Y5252D01*
X937504Y5268D01*
X937460Y5288D01*
X937418Y5312D01*
X937378Y5338D01*
X937341Y5368D01*
X937306Y5401D01*
X937273Y5436D01*
X937244Y5473D01*
X937217Y5513D01*
X937193Y5555D01*
X937173Y5599D01*
X937157Y5643D01*
X937144Y5690D01*
X937135Y5737D01*
X937129Y5784D01*
X937127Y5832D01*
X937127Y6442D01*
X940178Y7362D02*
X940178Y8582D01*
X939873Y10465D02*
X939871Y10513D01*
X939865Y10560D01*
X939856Y10607D01*
X939843Y10654D01*
X939827Y10698D01*
X939807Y10742D01*
X939783Y10784D01*
X939757Y10824D01*
X939727Y10861D01*
X939694Y10896D01*
X939659Y10929D01*
X939622Y10959D01*
X939582Y10985D01*
X939540Y11009D01*
X939496Y11029D01*
X939452Y11045D01*
X939405Y11058D01*
X939358Y11067D01*
X939311Y11073D01*
X939263Y11075D01*
X939873Y10465D02*
X939871Y10397D01*
X939866Y10330D01*
X939857Y10262D01*
X939845Y10196D01*
X939829Y10130D01*
X939809Y10065D01*
X939786Y10001D01*
X939760Y9938D01*
X939731Y9877D01*
X939699Y9817D01*
X939663Y9760D01*
X939624Y9704D01*
X939583Y9650D01*
X939539Y9599D01*
X939492Y9550D01*
X937737Y9626D02*
X937689Y9628D01*
X937642Y9634D01*
X937595Y9643D01*
X937548Y9656D01*
X937504Y9672D01*
X937460Y9692D01*
X937418Y9716D01*
X937378Y9742D01*
X937341Y9772D01*
X937306Y9805D01*
X937273Y9840D01*
X937243Y9877D01*
X937217Y9917D01*
X937193Y9959D01*
X937173Y10003D01*
X937157Y10047D01*
X937144Y10094D01*
X937135Y10141D01*
X937129Y10188D01*
X937127Y10236D01*
X937129Y10303D01*
X937135Y10370D01*
X937145Y10436D01*
X937158Y10501D01*
X937176Y10566D01*
X937197Y10629D01*
X937222Y10692D01*
X937250Y10752D01*
X937282Y10811D01*
X937317Y10868D01*
X937356Y10922D01*
X938271Y9930D02*
X938246Y9892D01*
X938219Y9855D01*
X938189Y9820D01*
X938156Y9788D01*
X938121Y9758D01*
X938084Y9731D01*
X938045Y9707D01*
X938004Y9685D01*
X937962Y9667D01*
X937918Y9652D01*
X937874Y9640D01*
X937829Y9632D01*
X937783Y9627D01*
X937737Y9625D01*
X938729Y10770D02*
X938754Y10809D01*
X938781Y10845D01*
X938811Y10880D01*
X938844Y10912D01*
X938879Y10942D01*
X938916Y10969D01*
X938955Y10993D01*
X938996Y11015D01*
X939038Y11033D01*
X939082Y11048D01*
X939126Y11060D01*
X939171Y11068D01*
X939217Y11073D01*
X939263Y11075D01*
X938729Y10770D02*
X938271Y9931D01*
X937127Y12267D02*
X939873Y12267D01*
X937127Y12267D02*
X937127Y13030D01*
X937129Y13084D01*
X937135Y13139D01*
X937144Y13192D01*
X937158Y13245D01*
X937175Y13297D01*
X937196Y13347D01*
X937220Y13396D01*
X937248Y13443D01*
X937279Y13487D01*
X937313Y13530D01*
X937350Y13570D01*
X937390Y13607D01*
X937433Y13641D01*
X937477Y13672D01*
X937524Y13700D01*
X937573Y13724D01*
X937623Y13745D01*
X937675Y13762D01*
X937728Y13776D01*
X937781Y13785D01*
X937836Y13791D01*
X937890Y13793D01*
X937944Y13791D01*
X937999Y13785D01*
X938052Y13776D01*
X938105Y13762D01*
X938157Y13745D01*
X938207Y13724D01*
X938256Y13700D01*
X938303Y13672D01*
X938347Y13641D01*
X938390Y13607D01*
X938430Y13570D01*
X938467Y13530D01*
X938501Y13487D01*
X938532Y13443D01*
X938560Y13396D01*
X938584Y13347D01*
X938605Y13297D01*
X938622Y13245D01*
X938636Y13192D01*
X938645Y13139D01*
X938651Y13084D01*
X938653Y13030D01*
X938653Y12267D01*
X938653Y13183D02*
X939873Y13793D01*
X962127Y127D02*
X964873Y1042D01*
X962127Y1958D01*
X964873Y3582D02*
X964873Y4192D01*
X964873Y3582D02*
X964871Y3534D01*
X964865Y3487D01*
X964856Y3440D01*
X964843Y3394D01*
X964827Y3349D01*
X964807Y3305D01*
X964783Y3263D01*
X964757Y3223D01*
X964727Y3186D01*
X964694Y3151D01*
X964659Y3118D01*
X964622Y3089D01*
X964582Y3062D01*
X964540Y3038D01*
X964496Y3018D01*
X964452Y3002D01*
X964405Y2989D01*
X964358Y2980D01*
X964311Y2974D01*
X964263Y2972D01*
X964263Y2971D02*
X962737Y2971D01*
X962737Y2972D02*
X962689Y2974D01*
X962642Y2980D01*
X962595Y2989D01*
X962549Y3002D01*
X962504Y3018D01*
X962460Y3038D01*
X962418Y3062D01*
X962378Y3088D01*
X962341Y3118D01*
X962306Y3151D01*
X962273Y3186D01*
X962244Y3223D01*
X962217Y3263D01*
X962193Y3305D01*
X962173Y3349D01*
X962157Y3393D01*
X962144Y3440D01*
X962135Y3487D01*
X962129Y3534D01*
X962127Y3582D01*
X962127Y4192D01*
X964873Y5832D02*
X964873Y6442D01*
X964873Y5832D02*
X964871Y5784D01*
X964865Y5737D01*
X964856Y5690D01*
X964843Y5644D01*
X964827Y5599D01*
X964807Y5555D01*
X964783Y5513D01*
X964757Y5473D01*
X964727Y5436D01*
X964694Y5401D01*
X964659Y5368D01*
X964622Y5339D01*
X964582Y5312D01*
X964540Y5288D01*
X964496Y5268D01*
X964452Y5252D01*
X964405Y5239D01*
X964358Y5230D01*
X964311Y5224D01*
X964263Y5222D01*
X964263Y5221D02*
X962737Y5221D01*
X962737Y5222D02*
X962689Y5224D01*
X962642Y5230D01*
X962595Y5239D01*
X962549Y5252D01*
X962504Y5268D01*
X962460Y5288D01*
X962418Y5312D01*
X962378Y5338D01*
X962341Y5368D01*
X962306Y5401D01*
X962273Y5436D01*
X962244Y5473D01*
X962217Y5513D01*
X962193Y5555D01*
X962173Y5599D01*
X962157Y5643D01*
X962144Y5690D01*
X962135Y5737D01*
X962129Y5784D01*
X962127Y5832D01*
X962127Y6442D01*
X965178Y7362D02*
X965178Y8582D01*
X964873Y9735D02*
X962127Y9735D01*
X964873Y9735D02*
X964873Y10955D01*
X964873Y11827D02*
X962127Y12742D01*
X964873Y13658D01*
X964187Y13429D02*
X964187Y12056D01*
X964873Y15262D02*
X962127Y15262D01*
X962127Y14499D02*
X962127Y16025D01*
X964873Y17622D02*
X964873Y18232D01*
X964873Y17622D02*
X964871Y17574D01*
X964865Y17527D01*
X964856Y17480D01*
X964843Y17434D01*
X964827Y17389D01*
X964807Y17345D01*
X964783Y17303D01*
X964757Y17263D01*
X964727Y17226D01*
X964694Y17191D01*
X964659Y17158D01*
X964622Y17129D01*
X964582Y17102D01*
X964540Y17078D01*
X964496Y17058D01*
X964452Y17042D01*
X964405Y17029D01*
X964358Y17020D01*
X964311Y17014D01*
X964263Y17012D01*
X964263Y17011D02*
X962737Y17011D01*
X962737Y17012D02*
X962689Y17014D01*
X962642Y17020D01*
X962595Y17029D01*
X962549Y17042D01*
X962504Y17058D01*
X962460Y17078D01*
X962418Y17102D01*
X962378Y17128D01*
X962341Y17158D01*
X962306Y17191D01*
X962273Y17226D01*
X962244Y17263D01*
X962217Y17303D01*
X962193Y17345D01*
X962173Y17389D01*
X962157Y17433D01*
X962144Y17480D01*
X962135Y17527D01*
X962129Y17574D01*
X962127Y17622D01*
X962127Y18232D01*
X962127Y19359D02*
X964873Y19359D01*
X963347Y19359D02*
X963347Y20885D01*
X962127Y20885D02*
X964873Y20885D01*
X988347Y1653D02*
X988347Y1195D01*
X988347Y1653D02*
X989873Y1653D01*
X989873Y737D01*
X989871Y689D01*
X989865Y642D01*
X989856Y595D01*
X989843Y549D01*
X989827Y504D01*
X989807Y460D01*
X989783Y418D01*
X989757Y378D01*
X989727Y341D01*
X989694Y306D01*
X989659Y273D01*
X989622Y244D01*
X989582Y217D01*
X989540Y193D01*
X989496Y173D01*
X989452Y157D01*
X989405Y144D01*
X989358Y135D01*
X989311Y129D01*
X989263Y127D01*
X987737Y127D01*
X987689Y129D01*
X987642Y135D01*
X987595Y144D01*
X987549Y157D01*
X987504Y173D01*
X987460Y193D01*
X987418Y217D01*
X987378Y243D01*
X987341Y273D01*
X987306Y306D01*
X987273Y341D01*
X987244Y378D01*
X987217Y418D01*
X987193Y460D01*
X987173Y504D01*
X987157Y548D01*
X987144Y595D01*
X987135Y642D01*
X987129Y689D01*
X987127Y737D01*
X987127Y1653D01*
X987127Y3007D02*
X989873Y3007D01*
X989873Y4533D02*
X987127Y3007D01*
X987127Y4533D02*
X989873Y4533D01*
X989873Y5887D02*
X987127Y5887D01*
X987127Y6650D01*
X987129Y6704D01*
X987135Y6759D01*
X987144Y6812D01*
X987158Y6865D01*
X987175Y6917D01*
X987196Y6967D01*
X987220Y7016D01*
X987248Y7063D01*
X987279Y7107D01*
X987313Y7150D01*
X987350Y7190D01*
X987390Y7227D01*
X987433Y7261D01*
X987478Y7292D01*
X987524Y7320D01*
X987573Y7344D01*
X987623Y7365D01*
X987675Y7382D01*
X987728Y7396D01*
X987781Y7405D01*
X987836Y7411D01*
X987890Y7413D01*
X987890Y7412D02*
X989110Y7412D01*
X989110Y7413D02*
X989164Y7411D01*
X989219Y7405D01*
X989272Y7396D01*
X989325Y7382D01*
X989377Y7365D01*
X989427Y7344D01*
X989476Y7320D01*
X989523Y7292D01*
X989567Y7261D01*
X989610Y7227D01*
X989650Y7190D01*
X989687Y7150D01*
X989721Y7107D01*
X989752Y7063D01*
X989780Y7016D01*
X989804Y6967D01*
X989825Y6917D01*
X989842Y6865D01*
X989856Y6812D01*
X989865Y6759D01*
X989871Y6704D01*
X989873Y6650D01*
X989873Y5887D01*
X1012127Y127D02*
X1014873Y127D01*
X1012127Y127D02*
X1012127Y890D01*
X1012129Y944D01*
X1012135Y999D01*
X1012144Y1052D01*
X1012158Y1105D01*
X1012175Y1157D01*
X1012196Y1207D01*
X1012220Y1256D01*
X1012248Y1303D01*
X1012279Y1347D01*
X1012313Y1390D01*
X1012350Y1430D01*
X1012390Y1467D01*
X1012433Y1501D01*
X1012478Y1532D01*
X1012524Y1560D01*
X1012573Y1584D01*
X1012623Y1605D01*
X1012675Y1622D01*
X1012728Y1636D01*
X1012781Y1645D01*
X1012836Y1651D01*
X1012890Y1653D01*
X1014110Y1653D01*
X1014164Y1651D01*
X1014219Y1645D01*
X1014272Y1636D01*
X1014325Y1622D01*
X1014377Y1605D01*
X1014427Y1584D01*
X1014476Y1560D01*
X1014523Y1532D01*
X1014567Y1501D01*
X1014610Y1467D01*
X1014650Y1430D01*
X1014687Y1390D01*
X1014721Y1347D01*
X1014752Y1303D01*
X1014780Y1256D01*
X1014804Y1207D01*
X1014825Y1157D01*
X1014842Y1105D01*
X1014856Y1052D01*
X1014865Y999D01*
X1014871Y944D01*
X1014873Y890D01*
X1014873Y127D01*
X1014873Y2764D02*
X1012127Y3680D01*
X1014873Y4595D01*
X1014187Y4366D02*
X1014187Y2993D01*
X1014873Y6200D02*
X1012127Y6200D01*
X1012127Y6962D02*
X1012127Y5437D01*
X1012127Y8720D02*
X1014873Y7804D01*
X1014873Y9635D02*
X1012127Y8720D01*
X1014187Y9406D02*
X1014187Y8033D01*
X1015178Y10539D02*
X1015178Y11760D01*
X1014110Y12817D02*
X1012890Y12817D01*
X1012836Y12819D01*
X1012781Y12825D01*
X1012728Y12834D01*
X1012675Y12848D01*
X1012623Y12865D01*
X1012573Y12886D01*
X1012524Y12910D01*
X1012477Y12938D01*
X1012433Y12969D01*
X1012390Y13003D01*
X1012350Y13040D01*
X1012313Y13080D01*
X1012279Y13123D01*
X1012248Y13167D01*
X1012220Y13214D01*
X1012196Y13263D01*
X1012175Y13313D01*
X1012158Y13365D01*
X1012144Y13418D01*
X1012135Y13471D01*
X1012129Y13526D01*
X1012127Y13580D01*
X1012129Y13634D01*
X1012135Y13689D01*
X1012144Y13742D01*
X1012158Y13795D01*
X1012175Y13847D01*
X1012196Y13897D01*
X1012220Y13946D01*
X1012248Y13993D01*
X1012279Y14037D01*
X1012313Y14080D01*
X1012350Y14120D01*
X1012390Y14157D01*
X1012433Y14191D01*
X1012477Y14222D01*
X1012524Y14250D01*
X1012573Y14274D01*
X1012623Y14295D01*
X1012675Y14312D01*
X1012728Y14326D01*
X1012781Y14335D01*
X1012836Y14341D01*
X1012890Y14343D01*
X1012890Y14342D02*
X1014110Y14342D01*
X1014110Y14343D02*
X1014164Y14341D01*
X1014219Y14335D01*
X1014272Y14326D01*
X1014325Y14312D01*
X1014377Y14295D01*
X1014427Y14274D01*
X1014476Y14250D01*
X1014523Y14222D01*
X1014567Y14191D01*
X1014610Y14157D01*
X1014650Y14120D01*
X1014687Y14080D01*
X1014721Y14037D01*
X1014752Y13993D01*
X1014780Y13946D01*
X1014804Y13897D01*
X1014825Y13847D01*
X1014842Y13795D01*
X1014856Y13742D01*
X1014865Y13689D01*
X1014871Y13634D01*
X1014873Y13580D01*
X1014871Y13526D01*
X1014865Y13471D01*
X1014856Y13418D01*
X1014842Y13365D01*
X1014825Y13313D01*
X1014804Y13263D01*
X1014780Y13214D01*
X1014752Y13167D01*
X1014721Y13123D01*
X1014687Y13080D01*
X1014650Y13040D01*
X1014610Y13003D01*
X1014567Y12969D01*
X1014523Y12938D01*
X1014476Y12910D01*
X1014427Y12886D01*
X1014377Y12865D01*
X1014325Y12848D01*
X1014272Y12834D01*
X1014219Y12825D01*
X1014164Y12819D01*
X1014110Y12817D01*
X1014110Y15607D02*
X1012127Y15607D01*
X1014110Y15607D02*
X1014164Y15609D01*
X1014219Y15615D01*
X1014272Y15624D01*
X1014325Y15638D01*
X1014377Y15655D01*
X1014427Y15676D01*
X1014476Y15700D01*
X1014523Y15728D01*
X1014567Y15759D01*
X1014610Y15793D01*
X1014650Y15830D01*
X1014687Y15870D01*
X1014721Y15913D01*
X1014752Y15957D01*
X1014780Y16004D01*
X1014804Y16053D01*
X1014825Y16103D01*
X1014842Y16155D01*
X1014856Y16208D01*
X1014865Y16261D01*
X1014871Y16316D01*
X1014873Y16370D01*
X1014871Y16424D01*
X1014865Y16479D01*
X1014856Y16532D01*
X1014842Y16585D01*
X1014825Y16637D01*
X1014804Y16687D01*
X1014780Y16736D01*
X1014752Y16783D01*
X1014721Y16827D01*
X1014687Y16870D01*
X1014650Y16910D01*
X1014610Y16947D01*
X1014567Y16981D01*
X1014523Y17012D01*
X1014476Y17040D01*
X1014427Y17064D01*
X1014377Y17085D01*
X1014325Y17102D01*
X1014272Y17116D01*
X1014219Y17125D01*
X1014164Y17131D01*
X1014110Y17133D01*
X1014110Y17132D02*
X1012127Y17132D01*
X1012127Y18980D02*
X1014873Y18980D01*
X1012127Y19742D02*
X1012127Y18217D01*
X1039873Y1347D02*
X1039873Y737D01*
X1039871Y689D01*
X1039865Y642D01*
X1039856Y595D01*
X1039843Y549D01*
X1039827Y504D01*
X1039807Y460D01*
X1039783Y418D01*
X1039757Y378D01*
X1039727Y341D01*
X1039694Y306D01*
X1039659Y273D01*
X1039622Y244D01*
X1039582Y217D01*
X1039540Y193D01*
X1039496Y173D01*
X1039452Y157D01*
X1039405Y144D01*
X1039358Y135D01*
X1039311Y129D01*
X1039263Y127D01*
X1037737Y127D01*
X1037689Y129D01*
X1037642Y135D01*
X1037595Y144D01*
X1037549Y157D01*
X1037504Y173D01*
X1037460Y193D01*
X1037418Y217D01*
X1037378Y243D01*
X1037341Y273D01*
X1037306Y306D01*
X1037273Y341D01*
X1037244Y378D01*
X1037217Y418D01*
X1037193Y460D01*
X1037173Y504D01*
X1037157Y548D01*
X1037144Y595D01*
X1037135Y642D01*
X1037129Y689D01*
X1037127Y737D01*
X1037127Y1347D01*
X1037127Y2481D02*
X1039873Y2481D01*
X1039873Y3701D01*
X1039873Y4856D02*
X1037127Y4856D01*
X1037127Y6382D02*
X1038805Y4856D01*
X1038195Y5466D02*
X1039873Y6382D01*
X1062127Y127D02*
X1064873Y127D01*
X1064873Y1347D01*
X1064873Y2219D02*
X1062127Y3134D01*
X1064873Y4050D01*
X1064187Y3821D02*
X1064187Y2448D01*
X1064873Y5654D02*
X1062127Y5654D01*
X1062127Y4891D02*
X1062127Y6417D01*
X1064873Y8014D02*
X1064873Y8624D01*
X1064873Y8014D02*
X1064871Y7966D01*
X1064865Y7919D01*
X1064856Y7872D01*
X1064843Y7826D01*
X1064827Y7781D01*
X1064807Y7737D01*
X1064783Y7695D01*
X1064757Y7655D01*
X1064727Y7618D01*
X1064694Y7583D01*
X1064659Y7550D01*
X1064622Y7521D01*
X1064582Y7494D01*
X1064540Y7470D01*
X1064496Y7450D01*
X1064452Y7434D01*
X1064405Y7421D01*
X1064358Y7412D01*
X1064311Y7406D01*
X1064263Y7404D01*
X1064263Y7403D02*
X1062737Y7403D01*
X1062737Y7404D02*
X1062689Y7406D01*
X1062642Y7412D01*
X1062595Y7421D01*
X1062549Y7434D01*
X1062504Y7450D01*
X1062460Y7470D01*
X1062418Y7494D01*
X1062378Y7520D01*
X1062341Y7550D01*
X1062306Y7583D01*
X1062273Y7618D01*
X1062244Y7655D01*
X1062217Y7695D01*
X1062193Y7737D01*
X1062173Y7781D01*
X1062157Y7825D01*
X1062144Y7872D01*
X1062135Y7919D01*
X1062129Y7966D01*
X1062127Y8014D01*
X1062127Y8624D01*
X1062127Y9751D02*
X1064873Y9751D01*
X1063347Y9751D02*
X1063347Y11277D01*
X1062127Y11277D02*
X1064873Y11277D01*
X1065178Y12424D02*
X1065178Y13644D01*
X1064873Y15304D02*
X1064873Y15914D01*
X1064873Y15304D02*
X1064871Y15256D01*
X1064865Y15209D01*
X1064856Y15162D01*
X1064843Y15116D01*
X1064827Y15071D01*
X1064807Y15027D01*
X1064783Y14985D01*
X1064757Y14945D01*
X1064727Y14908D01*
X1064694Y14873D01*
X1064659Y14840D01*
X1064622Y14811D01*
X1064582Y14784D01*
X1064540Y14760D01*
X1064496Y14740D01*
X1064452Y14724D01*
X1064405Y14711D01*
X1064358Y14702D01*
X1064311Y14696D01*
X1064263Y14694D01*
X1064263Y14693D02*
X1062737Y14693D01*
X1062737Y14694D02*
X1062689Y14696D01*
X1062642Y14702D01*
X1062595Y14711D01*
X1062549Y14724D01*
X1062504Y14740D01*
X1062460Y14760D01*
X1062418Y14784D01*
X1062378Y14810D01*
X1062341Y14840D01*
X1062306Y14873D01*
X1062273Y14908D01*
X1062244Y14945D01*
X1062217Y14985D01*
X1062193Y15027D01*
X1062173Y15071D01*
X1062157Y15115D01*
X1062144Y15162D01*
X1062135Y15209D01*
X1062129Y15256D01*
X1062127Y15304D01*
X1062127Y15914D01*
X1062127Y17047D02*
X1064873Y17047D01*
X1064873Y18267D01*
X1064873Y19422D02*
X1062127Y19422D01*
X1062127Y20948D02*
X1063805Y19422D01*
X1063195Y20033D02*
X1064873Y20948D01*
D11*
X634619Y245381D02*
X634619Y248598D01*
X634619Y245381D02*
X627381Y245381D01*
X627381Y248598D01*
X630598Y247794D02*
X630598Y245381D01*
X627381Y251605D02*
X634619Y251605D01*
X634619Y255627D02*
X627381Y251605D01*
X627381Y255627D02*
X634619Y255627D01*
X627381Y261257D02*
X627383Y261341D01*
X627389Y261424D01*
X627398Y261507D01*
X627412Y261590D01*
X627429Y261671D01*
X627450Y261752D01*
X627475Y261832D01*
X627503Y261911D01*
X627535Y261988D01*
X627571Y262064D01*
X627610Y262138D01*
X627652Y262210D01*
X627698Y262280D01*
X627747Y262348D01*
X627799Y262413D01*
X627853Y262476D01*
X627911Y262537D01*
X627972Y262595D01*
X628035Y262649D01*
X628100Y262701D01*
X628168Y262750D01*
X628238Y262796D01*
X628310Y262838D01*
X628384Y262877D01*
X628460Y262913D01*
X628537Y262945D01*
X628616Y262973D01*
X628696Y262998D01*
X628777Y263019D01*
X628858Y263036D01*
X628941Y263050D01*
X629024Y263059D01*
X629107Y263065D01*
X629191Y263067D01*
X627381Y261257D02*
X627383Y261163D01*
X627389Y261069D01*
X627398Y260975D01*
X627412Y260881D01*
X627429Y260789D01*
X627450Y260697D01*
X627474Y260606D01*
X627502Y260516D01*
X627534Y260427D01*
X627570Y260339D01*
X627609Y260254D01*
X627651Y260169D01*
X627697Y260087D01*
X627746Y260006D01*
X627798Y259928D01*
X627854Y259852D01*
X627912Y259778D01*
X627974Y259706D01*
X628038Y259637D01*
X628105Y259571D01*
X628175Y259507D01*
X628247Y259447D01*
X628322Y259389D01*
X628399Y259334D01*
X628478Y259283D01*
X628559Y259235D01*
X628642Y259190D01*
X628726Y259148D01*
X628813Y259110D01*
X628901Y259076D01*
X628990Y259045D01*
X630599Y262464D02*
X630537Y262526D01*
X630473Y262585D01*
X630406Y262641D01*
X630336Y262694D01*
X630264Y262744D01*
X630190Y262791D01*
X630114Y262834D01*
X630036Y262874D01*
X629957Y262910D01*
X629876Y262942D01*
X629793Y262971D01*
X629709Y262997D01*
X629625Y263018D01*
X629539Y263036D01*
X629453Y263049D01*
X629366Y263059D01*
X629278Y263065D01*
X629191Y263067D01*
X630598Y262463D02*
X634619Y259045D01*
X634619Y263066D01*
X569619Y248598D02*
X569619Y245381D01*
X562381Y245381D01*
X562381Y248598D01*
X565598Y247794D02*
X565598Y245381D01*
X562381Y251605D02*
X569619Y251605D01*
X569619Y255627D02*
X562381Y251605D01*
X562381Y255627D02*
X569619Y255627D01*
X563989Y259045D02*
X562381Y261056D01*
X569619Y261056D01*
X569619Y263066D02*
X569619Y259045D01*
D12*
X5000Y295000D02*
X5000Y10000D01*
X100000Y10000D01*
X100000Y295000D01*
X5000Y295000D01*
D11*
X14402Y11989D02*
X14400Y11910D01*
X14394Y11831D01*
X14385Y11753D01*
X14371Y11675D01*
X14354Y11598D01*
X14333Y11522D01*
X14308Y11447D01*
X14280Y11374D01*
X14248Y11301D01*
X14212Y11231D01*
X14173Y11162D01*
X14131Y11096D01*
X14086Y11031D01*
X14037Y10969D01*
X13985Y10909D01*
X13931Y10852D01*
X13874Y10798D01*
X13814Y10746D01*
X13752Y10697D01*
X13687Y10652D01*
X13621Y10610D01*
X13552Y10571D01*
X13482Y10535D01*
X13409Y10503D01*
X13336Y10475D01*
X13261Y10450D01*
X13185Y10429D01*
X13108Y10412D01*
X13030Y10398D01*
X12952Y10389D01*
X12873Y10383D01*
X12794Y10381D01*
X12682Y10383D01*
X12571Y10388D01*
X12459Y10398D01*
X12348Y10410D01*
X12238Y10427D01*
X12128Y10447D01*
X12018Y10471D01*
X11910Y10498D01*
X11803Y10529D01*
X11696Y10563D01*
X11591Y10601D01*
X11487Y10642D01*
X11385Y10687D01*
X11284Y10735D01*
X11184Y10786D01*
X11087Y10841D01*
X10991Y10899D01*
X10897Y10960D01*
X10806Y11023D01*
X10716Y11090D01*
X10629Y11160D01*
X10544Y11233D01*
X10461Y11308D01*
X10381Y11386D01*
X10582Y16011D02*
X10584Y16090D01*
X10590Y16169D01*
X10599Y16247D01*
X10613Y16325D01*
X10630Y16402D01*
X10651Y16478D01*
X10676Y16553D01*
X10704Y16626D01*
X10736Y16699D01*
X10772Y16769D01*
X10811Y16838D01*
X10853Y16904D01*
X10898Y16969D01*
X10947Y17031D01*
X10999Y17091D01*
X11053Y17148D01*
X11110Y17202D01*
X11170Y17254D01*
X11232Y17303D01*
X11297Y17348D01*
X11363Y17390D01*
X11432Y17429D01*
X11503Y17465D01*
X11575Y17497D01*
X11648Y17525D01*
X11723Y17550D01*
X11799Y17571D01*
X11876Y17588D01*
X11954Y17602D01*
X12032Y17611D01*
X12111Y17617D01*
X12190Y17619D01*
X12298Y17617D01*
X12406Y17611D01*
X12513Y17602D01*
X12620Y17588D01*
X12726Y17571D01*
X12832Y17550D01*
X12937Y17525D01*
X13041Y17496D01*
X13144Y17464D01*
X13245Y17428D01*
X13346Y17389D01*
X13445Y17346D01*
X13542Y17299D01*
X13637Y17249D01*
X13731Y17196D01*
X13823Y17139D01*
X13912Y17079D01*
X14000Y17016D01*
X11386Y14603D02*
X11321Y14644D01*
X11257Y14688D01*
X11196Y14734D01*
X11137Y14784D01*
X11080Y14836D01*
X11026Y14891D01*
X10975Y14948D01*
X10926Y15008D01*
X10880Y15070D01*
X10837Y15134D01*
X10797Y15200D01*
X10761Y15268D01*
X10727Y15338D01*
X10697Y15409D01*
X10670Y15481D01*
X10647Y15554D01*
X10627Y15629D01*
X10611Y15704D01*
X10598Y15780D01*
X10589Y15857D01*
X10584Y15934D01*
X10582Y16011D01*
X13599Y13397D02*
X13664Y13356D01*
X13728Y13312D01*
X13789Y13266D01*
X13848Y13216D01*
X13905Y13164D01*
X13959Y13109D01*
X14010Y13052D01*
X14059Y12992D01*
X14105Y12930D01*
X14148Y12866D01*
X14188Y12800D01*
X14224Y12732D01*
X14258Y12662D01*
X14288Y12591D01*
X14315Y12519D01*
X14338Y12446D01*
X14358Y12371D01*
X14374Y12296D01*
X14387Y12220D01*
X14396Y12143D01*
X14401Y12066D01*
X14403Y11989D01*
X13598Y13397D02*
X11386Y14603D01*
X17632Y17619D02*
X17632Y10381D01*
X17632Y17619D02*
X19642Y17619D01*
X19731Y17617D01*
X19820Y17611D01*
X19908Y17601D01*
X19996Y17588D01*
X20083Y17570D01*
X20170Y17549D01*
X20255Y17523D01*
X20339Y17494D01*
X20422Y17462D01*
X20503Y17425D01*
X20583Y17385D01*
X20660Y17342D01*
X20736Y17295D01*
X20810Y17245D01*
X20881Y17192D01*
X20950Y17136D01*
X21016Y17076D01*
X21080Y17014D01*
X21140Y16949D01*
X21198Y16882D01*
X21253Y16812D01*
X21305Y16739D01*
X21353Y16664D01*
X21398Y16588D01*
X21440Y16509D01*
X21478Y16429D01*
X21512Y16347D01*
X21543Y16263D01*
X21570Y16178D01*
X21594Y16093D01*
X21613Y16006D01*
X21629Y15918D01*
X21641Y15830D01*
X21649Y15741D01*
X21653Y15652D01*
X21653Y15564D01*
X21649Y15475D01*
X21641Y15386D01*
X21629Y15298D01*
X21613Y15210D01*
X21594Y15123D01*
X21570Y15038D01*
X21543Y14953D01*
X21512Y14869D01*
X21478Y14787D01*
X21440Y14707D01*
X21398Y14628D01*
X21353Y14552D01*
X21305Y14477D01*
X21253Y14404D01*
X21198Y14334D01*
X21140Y14267D01*
X21080Y14202D01*
X21016Y14140D01*
X20950Y14080D01*
X20881Y14024D01*
X20810Y13971D01*
X20736Y13921D01*
X20660Y13874D01*
X20583Y13831D01*
X20503Y13791D01*
X20422Y13754D01*
X20339Y13722D01*
X20255Y13693D01*
X20170Y13667D01*
X20083Y13646D01*
X19996Y13628D01*
X19908Y13615D01*
X19820Y13605D01*
X19731Y13599D01*
X19642Y13597D01*
X19642Y13598D02*
X17632Y13598D01*
X20044Y13598D02*
X21653Y10381D01*
X24781Y16011D02*
X26791Y17619D01*
X26791Y10381D01*
X24781Y10381D02*
X28802Y10381D01*
X31663Y9577D02*
X34880Y9577D01*
X37741Y12392D02*
X37741Y15608D01*
X37740Y15608D02*
X37742Y15697D01*
X37748Y15786D01*
X37758Y15874D01*
X37771Y15962D01*
X37789Y16049D01*
X37810Y16136D01*
X37836Y16221D01*
X37865Y16305D01*
X37897Y16388D01*
X37934Y16469D01*
X37974Y16549D01*
X38017Y16626D01*
X38064Y16702D01*
X38114Y16776D01*
X38167Y16847D01*
X38223Y16916D01*
X38283Y16982D01*
X38345Y17046D01*
X38410Y17106D01*
X38477Y17164D01*
X38547Y17219D01*
X38620Y17271D01*
X38695Y17319D01*
X38771Y17364D01*
X38850Y17406D01*
X38930Y17444D01*
X39012Y17478D01*
X39096Y17509D01*
X39181Y17536D01*
X39266Y17560D01*
X39353Y17579D01*
X39441Y17595D01*
X39529Y17607D01*
X39618Y17615D01*
X39707Y17619D01*
X39795Y17619D01*
X39884Y17615D01*
X39973Y17607D01*
X40061Y17595D01*
X40149Y17579D01*
X40236Y17560D01*
X40321Y17536D01*
X40406Y17509D01*
X40490Y17478D01*
X40572Y17444D01*
X40652Y17406D01*
X40731Y17364D01*
X40807Y17319D01*
X40882Y17271D01*
X40955Y17219D01*
X41025Y17164D01*
X41092Y17106D01*
X41157Y17046D01*
X41219Y16982D01*
X41279Y16916D01*
X41335Y16847D01*
X41388Y16776D01*
X41438Y16702D01*
X41485Y16626D01*
X41528Y16549D01*
X41568Y16469D01*
X41605Y16388D01*
X41637Y16305D01*
X41666Y16221D01*
X41692Y16136D01*
X41713Y16049D01*
X41731Y15962D01*
X41744Y15874D01*
X41754Y15786D01*
X41760Y15697D01*
X41762Y15608D01*
X41762Y12392D01*
X41760Y12303D01*
X41754Y12214D01*
X41744Y12126D01*
X41731Y12038D01*
X41713Y11951D01*
X41692Y11864D01*
X41666Y11779D01*
X41637Y11695D01*
X41605Y11612D01*
X41568Y11531D01*
X41528Y11451D01*
X41485Y11374D01*
X41438Y11298D01*
X41388Y11224D01*
X41335Y11153D01*
X41279Y11084D01*
X41219Y11018D01*
X41157Y10954D01*
X41092Y10894D01*
X41025Y10836D01*
X40955Y10781D01*
X40882Y10729D01*
X40807Y10681D01*
X40731Y10636D01*
X40652Y10594D01*
X40572Y10556D01*
X40490Y10522D01*
X40406Y10491D01*
X40321Y10464D01*
X40236Y10440D01*
X40149Y10421D01*
X40061Y10405D01*
X39973Y10393D01*
X39884Y10385D01*
X39795Y10381D01*
X39707Y10381D01*
X39618Y10385D01*
X39529Y10393D01*
X39441Y10405D01*
X39353Y10421D01*
X39266Y10440D01*
X39181Y10464D01*
X39096Y10491D01*
X39012Y10522D01*
X38930Y10556D01*
X38850Y10594D01*
X38771Y10636D01*
X38695Y10681D01*
X38620Y10729D01*
X38547Y10781D01*
X38477Y10836D01*
X38410Y10894D01*
X38345Y10954D01*
X38283Y11018D01*
X38223Y11084D01*
X38167Y11153D01*
X38114Y11224D01*
X38064Y11298D01*
X38017Y11374D01*
X37974Y11451D01*
X37934Y11531D01*
X37897Y11612D01*
X37865Y11695D01*
X37836Y11779D01*
X37810Y11864D01*
X37789Y11951D01*
X37771Y12038D01*
X37758Y12126D01*
X37748Y12214D01*
X37742Y12303D01*
X37740Y12392D01*
X45103Y11587D02*
X45103Y15206D01*
X45103Y11587D02*
X45105Y11519D01*
X45111Y11452D01*
X45120Y11385D01*
X45133Y11319D01*
X45150Y11253D01*
X45171Y11189D01*
X45195Y11125D01*
X45222Y11064D01*
X45253Y11004D01*
X45288Y10945D01*
X45325Y10889D01*
X45366Y10835D01*
X45410Y10783D01*
X45456Y10734D01*
X45505Y10688D01*
X45557Y10644D01*
X45611Y10603D01*
X45667Y10566D01*
X45726Y10531D01*
X45786Y10500D01*
X45847Y10473D01*
X45911Y10449D01*
X45975Y10428D01*
X46041Y10411D01*
X46107Y10398D01*
X46174Y10389D01*
X46241Y10383D01*
X46309Y10381D01*
X48320Y10381D01*
X48320Y15206D01*
X50961Y15206D02*
X53374Y15206D01*
X51766Y17619D02*
X51766Y11587D01*
X51768Y11519D01*
X51774Y11452D01*
X51783Y11385D01*
X51796Y11319D01*
X51813Y11253D01*
X51834Y11189D01*
X51858Y11125D01*
X51885Y11064D01*
X51916Y11004D01*
X51951Y10945D01*
X51988Y10889D01*
X52029Y10835D01*
X52073Y10783D01*
X52119Y10734D01*
X52168Y10688D01*
X52220Y10644D01*
X52274Y10603D01*
X52330Y10566D01*
X52389Y10531D01*
X52449Y10500D01*
X52510Y10473D01*
X52574Y10449D01*
X52638Y10428D01*
X52704Y10411D01*
X52770Y10398D01*
X52837Y10389D01*
X52904Y10383D01*
X52972Y10381D01*
X53374Y10381D01*
X56424Y7968D02*
X56424Y15206D01*
X58434Y15206D01*
X58502Y15204D01*
X58569Y15198D01*
X58636Y15189D01*
X58702Y15176D01*
X58768Y15159D01*
X58832Y15138D01*
X58896Y15114D01*
X58957Y15087D01*
X59017Y15056D01*
X59076Y15021D01*
X59132Y14984D01*
X59186Y14943D01*
X59238Y14899D01*
X59287Y14853D01*
X59333Y14804D01*
X59377Y14752D01*
X59418Y14698D01*
X59455Y14642D01*
X59490Y14583D01*
X59521Y14523D01*
X59548Y14462D01*
X59572Y14398D01*
X59593Y14334D01*
X59610Y14268D01*
X59623Y14202D01*
X59632Y14135D01*
X59638Y14068D01*
X59640Y14000D01*
X59640Y11587D01*
X59638Y11519D01*
X59632Y11452D01*
X59623Y11385D01*
X59610Y11319D01*
X59593Y11253D01*
X59572Y11189D01*
X59548Y11125D01*
X59521Y11064D01*
X59490Y11004D01*
X59455Y10945D01*
X59418Y10889D01*
X59377Y10835D01*
X59333Y10783D01*
X59287Y10734D01*
X59238Y10688D01*
X59186Y10644D01*
X59132Y10603D01*
X59076Y10566D01*
X59017Y10531D01*
X58957Y10500D01*
X58896Y10473D01*
X58832Y10449D01*
X58768Y10428D01*
X58702Y10411D01*
X58636Y10398D01*
X58569Y10389D01*
X58502Y10383D01*
X58434Y10381D01*
X56424Y10381D01*
X62863Y11587D02*
X62863Y15206D01*
X62863Y11587D02*
X62865Y11519D01*
X62871Y11452D01*
X62880Y11385D01*
X62893Y11319D01*
X62910Y11253D01*
X62931Y11189D01*
X62955Y11125D01*
X62982Y11064D01*
X63013Y11004D01*
X63048Y10945D01*
X63085Y10889D01*
X63126Y10835D01*
X63170Y10783D01*
X63216Y10734D01*
X63265Y10688D01*
X63317Y10644D01*
X63371Y10603D01*
X63427Y10566D01*
X63486Y10531D01*
X63546Y10500D01*
X63607Y10473D01*
X63671Y10449D01*
X63735Y10428D01*
X63801Y10411D01*
X63867Y10398D01*
X63934Y10389D01*
X64001Y10383D01*
X64069Y10381D01*
X66080Y10381D01*
X66080Y15206D01*
X68721Y15206D02*
X71134Y15206D01*
X69526Y17619D02*
X69526Y11587D01*
X69528Y11519D01*
X69534Y11452D01*
X69543Y11385D01*
X69556Y11319D01*
X69573Y11253D01*
X69594Y11189D01*
X69618Y11125D01*
X69645Y11064D01*
X69676Y11004D01*
X69711Y10945D01*
X69748Y10889D01*
X69789Y10835D01*
X69833Y10783D01*
X69879Y10734D01*
X69928Y10688D01*
X69980Y10644D01*
X70034Y10603D01*
X70090Y10566D01*
X70149Y10531D01*
X70209Y10500D01*
X70270Y10473D01*
X70334Y10449D01*
X70398Y10428D01*
X70464Y10411D01*
X70530Y10398D01*
X70597Y10389D01*
X70664Y10383D01*
X70732Y10381D01*
X71134Y10381D01*
X73981Y16011D02*
X75991Y17619D01*
X75991Y10381D01*
X73981Y10381D02*
X78002Y10381D01*
X81259Y13196D02*
X86084Y13196D01*
X89340Y12392D02*
X89342Y12481D01*
X89348Y12570D01*
X89358Y12658D01*
X89371Y12746D01*
X89389Y12833D01*
X89410Y12920D01*
X89436Y13005D01*
X89465Y13089D01*
X89497Y13172D01*
X89534Y13253D01*
X89574Y13333D01*
X89617Y13410D01*
X89664Y13486D01*
X89714Y13560D01*
X89767Y13631D01*
X89823Y13700D01*
X89883Y13766D01*
X89945Y13830D01*
X90010Y13890D01*
X90077Y13948D01*
X90147Y14003D01*
X90220Y14055D01*
X90295Y14103D01*
X90371Y14148D01*
X90450Y14190D01*
X90530Y14228D01*
X90612Y14262D01*
X90696Y14293D01*
X90781Y14320D01*
X90866Y14344D01*
X90953Y14363D01*
X91041Y14379D01*
X91129Y14391D01*
X91218Y14399D01*
X91307Y14403D01*
X91395Y14403D01*
X91484Y14399D01*
X91573Y14391D01*
X91661Y14379D01*
X91749Y14363D01*
X91836Y14344D01*
X91921Y14320D01*
X92006Y14293D01*
X92090Y14262D01*
X92172Y14228D01*
X92252Y14190D01*
X92331Y14148D01*
X92407Y14103D01*
X92482Y14055D01*
X92555Y14003D01*
X92625Y13948D01*
X92692Y13890D01*
X92757Y13830D01*
X92819Y13766D01*
X92879Y13700D01*
X92935Y13631D01*
X92988Y13560D01*
X93038Y13486D01*
X93085Y13410D01*
X93128Y13333D01*
X93168Y13253D01*
X93205Y13172D01*
X93237Y13089D01*
X93266Y13005D01*
X93292Y12920D01*
X93313Y12833D01*
X93331Y12746D01*
X93344Y12658D01*
X93354Y12570D01*
X93360Y12481D01*
X93362Y12392D01*
X93360Y12303D01*
X93354Y12214D01*
X93344Y12126D01*
X93331Y12038D01*
X93313Y11951D01*
X93292Y11864D01*
X93266Y11779D01*
X93237Y11695D01*
X93205Y11612D01*
X93168Y11531D01*
X93128Y11451D01*
X93085Y11374D01*
X93038Y11298D01*
X92988Y11224D01*
X92935Y11153D01*
X92879Y11084D01*
X92819Y11018D01*
X92757Y10954D01*
X92692Y10894D01*
X92625Y10836D01*
X92555Y10781D01*
X92482Y10729D01*
X92407Y10681D01*
X92331Y10636D01*
X92252Y10594D01*
X92172Y10556D01*
X92090Y10522D01*
X92006Y10491D01*
X91921Y10464D01*
X91836Y10440D01*
X91749Y10421D01*
X91661Y10405D01*
X91573Y10393D01*
X91484Y10385D01*
X91395Y10381D01*
X91307Y10381D01*
X91218Y10385D01*
X91129Y10393D01*
X91041Y10405D01*
X90953Y10421D01*
X90866Y10440D01*
X90781Y10464D01*
X90696Y10491D01*
X90612Y10522D01*
X90530Y10556D01*
X90450Y10594D01*
X90371Y10636D01*
X90295Y10681D01*
X90220Y10729D01*
X90147Y10781D01*
X90077Y10836D01*
X90010Y10894D01*
X89945Y10954D01*
X89883Y11018D01*
X89823Y11084D01*
X89767Y11153D01*
X89714Y11224D01*
X89664Y11298D01*
X89617Y11374D01*
X89574Y11451D01*
X89534Y11531D01*
X89497Y11612D01*
X89465Y11695D01*
X89436Y11779D01*
X89410Y11864D01*
X89389Y11951D01*
X89371Y12038D01*
X89358Y12126D01*
X89348Y12214D01*
X89342Y12303D01*
X89340Y12392D01*
X89743Y16011D02*
X89745Y16090D01*
X89751Y16169D01*
X89760Y16247D01*
X89774Y16325D01*
X89791Y16402D01*
X89812Y16478D01*
X89837Y16553D01*
X89865Y16626D01*
X89897Y16699D01*
X89933Y16769D01*
X89972Y16838D01*
X90014Y16904D01*
X90059Y16969D01*
X90108Y17031D01*
X90160Y17091D01*
X90214Y17148D01*
X90271Y17202D01*
X90331Y17254D01*
X90393Y17303D01*
X90458Y17348D01*
X90524Y17390D01*
X90593Y17429D01*
X90663Y17465D01*
X90736Y17497D01*
X90809Y17525D01*
X90884Y17550D01*
X90960Y17571D01*
X91037Y17588D01*
X91115Y17602D01*
X91193Y17611D01*
X91272Y17617D01*
X91351Y17619D01*
X91430Y17617D01*
X91509Y17611D01*
X91587Y17602D01*
X91665Y17588D01*
X91742Y17571D01*
X91818Y17550D01*
X91893Y17525D01*
X91966Y17497D01*
X92039Y17465D01*
X92109Y17429D01*
X92178Y17390D01*
X92244Y17348D01*
X92309Y17303D01*
X92371Y17254D01*
X92431Y17202D01*
X92488Y17148D01*
X92542Y17091D01*
X92594Y17031D01*
X92643Y16969D01*
X92688Y16904D01*
X92730Y16838D01*
X92769Y16769D01*
X92805Y16699D01*
X92837Y16626D01*
X92865Y16553D01*
X92890Y16478D01*
X92911Y16402D01*
X92928Y16325D01*
X92942Y16247D01*
X92951Y16169D01*
X92957Y16090D01*
X92959Y16011D01*
X92957Y15932D01*
X92951Y15853D01*
X92942Y15775D01*
X92928Y15697D01*
X92911Y15620D01*
X92890Y15544D01*
X92865Y15469D01*
X92837Y15396D01*
X92805Y15323D01*
X92769Y15253D01*
X92730Y15184D01*
X92688Y15118D01*
X92643Y15053D01*
X92594Y14991D01*
X92542Y14931D01*
X92488Y14874D01*
X92431Y14820D01*
X92371Y14768D01*
X92309Y14719D01*
X92244Y14674D01*
X92178Y14632D01*
X92109Y14593D01*
X92039Y14557D01*
X91966Y14525D01*
X91893Y14497D01*
X91818Y14472D01*
X91742Y14451D01*
X91665Y14434D01*
X91587Y14420D01*
X91509Y14411D01*
X91430Y14405D01*
X91351Y14403D01*
X91272Y14405D01*
X91193Y14411D01*
X91115Y14420D01*
X91037Y14434D01*
X90960Y14451D01*
X90884Y14472D01*
X90809Y14497D01*
X90736Y14525D01*
X90663Y14557D01*
X90593Y14593D01*
X90524Y14632D01*
X90458Y14674D01*
X90393Y14719D01*
X90331Y14768D01*
X90271Y14820D01*
X90214Y14874D01*
X90160Y14931D01*
X90108Y14991D01*
X90059Y15053D01*
X90014Y15118D01*
X89972Y15184D01*
X89933Y15253D01*
X89897Y15323D01*
X89865Y15396D01*
X89837Y15469D01*
X89812Y15544D01*
X89791Y15620D01*
X89774Y15697D01*
X89760Y15775D01*
X89751Y15853D01*
X89745Y15932D01*
X89743Y16011D01*
D12*
X1006350Y52700D02*
X1019050Y52700D01*
X1025400Y46350D01*
X1025400Y33650D01*
X1019050Y27300D01*
X1025400Y46350D02*
X1031750Y52700D01*
X1044450Y52700D01*
X1050800Y46350D01*
X1050800Y33650D01*
X1044450Y27300D01*
X1031750Y27300D01*
X1025400Y33650D01*
X980950Y52700D02*
X974600Y46350D01*
X980950Y52700D02*
X993650Y52700D01*
X1000000Y46350D01*
X1000000Y33650D01*
X993650Y27300D01*
X980950Y27300D01*
X974600Y33650D01*
X1000000Y46350D02*
X1006350Y52700D01*
X1000000Y33650D02*
X1006350Y27300D01*
X1019050Y27300D01*
X942850Y52700D02*
X930150Y52700D01*
X942850Y52700D02*
X949200Y46350D01*
X949200Y33650D01*
X942850Y27300D01*
X949200Y46350D02*
X955550Y52700D01*
X968250Y52700D01*
X974600Y46350D01*
X974600Y33650D01*
X968250Y27300D01*
X955550Y27300D01*
X949200Y33650D01*
X923800Y33650D02*
X923800Y46350D01*
X930150Y52700D01*
X923800Y33650D02*
X930150Y27300D01*
X942850Y27300D01*
X1057150Y52700D02*
X1069850Y52700D01*
X1076200Y46350D01*
X1076200Y33650D01*
X1069850Y27300D01*
X1050800Y46350D02*
X1057150Y52700D01*
X1050800Y33650D02*
X1057150Y27300D01*
X1069850Y27300D01*
X593650Y242700D02*
X580950Y242700D01*
X593650Y242700D02*
X600000Y236350D01*
X600000Y223650D01*
X593650Y217300D01*
X574600Y223650D02*
X574600Y236350D01*
X580950Y242700D01*
X574600Y223650D02*
X580950Y217300D01*
X593650Y217300D01*
X600000Y236350D02*
X606350Y242700D01*
X619050Y242700D01*
X625400Y236350D01*
X625400Y223650D01*
X619050Y217300D01*
X606350Y217300D01*
X600000Y223650D01*
X593650Y282700D02*
X580950Y282700D01*
X593650Y282700D02*
X600000Y276350D01*
X600000Y263650D01*
X593650Y257300D01*
X574600Y263650D02*
X574600Y276350D01*
X580950Y282700D01*
X574600Y263650D02*
X580950Y257300D01*
X593650Y257300D01*
X600000Y276350D02*
X606350Y282700D01*
X619050Y282700D01*
X625400Y276350D01*
X625400Y263650D01*
X619050Y257300D01*
X606350Y257300D01*
X600000Y263650D01*
X419050Y52700D02*
X406350Y52700D01*
X419050Y52700D02*
X425400Y46350D01*
X425400Y33650D01*
X419050Y27300D01*
X425400Y46350D02*
X431750Y52700D01*
X444450Y52700D01*
X450800Y46350D01*
X450800Y33650D01*
X444450Y27300D01*
X431750Y27300D01*
X425400Y33650D01*
X380950Y52700D02*
X374600Y46350D01*
X380950Y52700D02*
X393650Y52700D01*
X400000Y46350D01*
X400000Y33650D01*
X393650Y27300D01*
X380950Y27300D01*
X374600Y33650D01*
X400000Y46350D02*
X406350Y52700D01*
X400000Y33650D02*
X406350Y27300D01*
X419050Y27300D01*
X342850Y52700D02*
X330150Y52700D01*
X342850Y52700D02*
X349200Y46350D01*
X349200Y33650D01*
X342850Y27300D01*
X349200Y46350D02*
X355550Y52700D01*
X368250Y52700D01*
X374600Y46350D01*
X374600Y33650D01*
X368250Y27300D01*
X355550Y27300D01*
X349200Y33650D01*
X323800Y33650D02*
X323800Y46350D01*
X330150Y52700D01*
X323800Y33650D02*
X330150Y27300D01*
X342850Y27300D01*
X457150Y52700D02*
X469850Y52700D01*
X476200Y46350D01*
X476200Y33650D01*
X469850Y27300D01*
X450800Y46350D02*
X457150Y52700D01*
X450800Y33650D02*
X457150Y27300D01*
X469850Y27300D01*
X219050Y52700D02*
X206350Y52700D01*
X219050Y52700D02*
X225400Y46350D01*
X225400Y33650D01*
X219050Y27300D01*
X225400Y46350D02*
X231750Y52700D01*
X244450Y52700D01*
X250800Y46350D01*
X250800Y33650D01*
X244450Y27300D01*
X231750Y27300D01*
X225400Y33650D01*
X180950Y52700D02*
X174600Y46350D01*
X180950Y52700D02*
X193650Y52700D01*
X200000Y46350D01*
X200000Y33650D01*
X193650Y27300D01*
X180950Y27300D01*
X174600Y33650D01*
X200000Y46350D02*
X206350Y52700D01*
X200000Y33650D02*
X206350Y27300D01*
X219050Y27300D01*
X142850Y52700D02*
X130150Y52700D01*
X142850Y52700D02*
X149200Y46350D01*
X149200Y33650D01*
X142850Y27300D01*
X149200Y46350D02*
X155550Y52700D01*
X168250Y52700D01*
X174600Y46350D01*
X174600Y33650D01*
X168250Y27300D01*
X155550Y27300D01*
X149200Y33650D01*
X123800Y33650D02*
X123800Y46350D01*
X130150Y52700D01*
X123800Y33650D02*
X130150Y27300D01*
X142850Y27300D01*
X257150Y52700D02*
X269850Y52700D01*
X276200Y46350D01*
X276200Y33650D01*
X269850Y27300D01*
X250800Y46350D02*
X257150Y52700D01*
X250800Y33650D02*
X257150Y27300D01*
X269850Y27300D01*
X806350Y52700D02*
X819050Y52700D01*
X825400Y46350D01*
X825400Y33650D01*
X819050Y27300D01*
X825400Y46350D02*
X831750Y52700D01*
X844450Y52700D01*
X850800Y46350D01*
X850800Y33650D01*
X844450Y27300D01*
X831750Y27300D01*
X825400Y33650D01*
X780950Y52700D02*
X774600Y46350D01*
X780950Y52700D02*
X793650Y52700D01*
X800000Y46350D01*
X800000Y33650D01*
X793650Y27300D01*
X780950Y27300D01*
X774600Y33650D01*
X800000Y46350D02*
X806350Y52700D01*
X800000Y33650D02*
X806350Y27300D01*
X819050Y27300D01*
X742850Y52700D02*
X730150Y52700D01*
X742850Y52700D02*
X749200Y46350D01*
X749200Y33650D01*
X742850Y27300D01*
X749200Y46350D02*
X755550Y52700D01*
X768250Y52700D01*
X774600Y46350D01*
X774600Y33650D01*
X768250Y27300D01*
X755550Y27300D01*
X749200Y33650D01*
X723800Y33650D02*
X723800Y46350D01*
X730150Y52700D01*
X723800Y33650D02*
X730150Y27300D01*
X742850Y27300D01*
X857150Y52700D02*
X869850Y52700D01*
X876200Y46350D01*
X876200Y33650D01*
X869850Y27300D01*
X850800Y46350D02*
X857150Y52700D01*
X850800Y33650D02*
X857150Y27300D01*
X869850Y27300D01*
D13*
X25500Y274000D03*
X25500Y286000D03*
D14*
X25500Y280000D03*
D13*
X25500Y239000D03*
X25500Y251000D03*
D14*
X25500Y245000D03*
D13*
X25500Y204000D03*
X25500Y216000D03*
D14*
X25500Y210000D03*
D13*
X25500Y169000D03*
X25500Y181000D03*
D14*
X25500Y175000D03*
D13*
X25500Y134000D03*
X25500Y146000D03*
D14*
X25500Y140000D03*
D13*
X25500Y99000D03*
X25500Y111000D03*
D14*
X25500Y105000D03*
D13*
X25500Y64000D03*
X25500Y76000D03*
D14*
X25500Y70000D03*
D13*
X25500Y29000D03*
X25500Y41000D03*
D14*
X25500Y35000D03*
D15*
X137000Y157000D02*
X263000Y157000D01*
X263000Y103000D02*
X137000Y103000D01*
X263000Y103000D02*
X263000Y157000D01*
X137000Y157000D02*
X137000Y103000D01*
D16*
X263500Y169000D02*
X263502Y169070D01*
X263508Y169140D01*
X263518Y169209D01*
X263531Y169278D01*
X263549Y169346D01*
X263570Y169413D01*
X263595Y169478D01*
X263624Y169542D01*
X263656Y169605D01*
X263692Y169665D01*
X263731Y169723D01*
X263773Y169779D01*
X263818Y169833D01*
X263866Y169884D01*
X263917Y169932D01*
X263971Y169977D01*
X264027Y170019D01*
X264085Y170058D01*
X264145Y170094D01*
X264208Y170126D01*
X264272Y170155D01*
X264337Y170180D01*
X264404Y170201D01*
X264472Y170219D01*
X264541Y170232D01*
X264610Y170242D01*
X264680Y170248D01*
X264750Y170250D01*
X264820Y170248D01*
X264890Y170242D01*
X264959Y170232D01*
X265028Y170219D01*
X265096Y170201D01*
X265163Y170180D01*
X265228Y170155D01*
X265292Y170126D01*
X265355Y170094D01*
X265415Y170058D01*
X265473Y170019D01*
X265529Y169977D01*
X265583Y169932D01*
X265634Y169884D01*
X265682Y169833D01*
X265727Y169779D01*
X265769Y169723D01*
X265808Y169665D01*
X265844Y169605D01*
X265876Y169542D01*
X265905Y169478D01*
X265930Y169413D01*
X265951Y169346D01*
X265969Y169278D01*
X265982Y169209D01*
X265992Y169140D01*
X265998Y169070D01*
X266000Y169000D01*
X265998Y168930D01*
X265992Y168860D01*
X265982Y168791D01*
X265969Y168722D01*
X265951Y168654D01*
X265930Y168587D01*
X265905Y168522D01*
X265876Y168458D01*
X265844Y168395D01*
X265808Y168335D01*
X265769Y168277D01*
X265727Y168221D01*
X265682Y168167D01*
X265634Y168116D01*
X265583Y168068D01*
X265529Y168023D01*
X265473Y167981D01*
X265415Y167942D01*
X265355Y167906D01*
X265292Y167874D01*
X265228Y167845D01*
X265163Y167820D01*
X265096Y167799D01*
X265028Y167781D01*
X264959Y167768D01*
X264890Y167758D01*
X264820Y167752D01*
X264750Y167750D01*
X264680Y167752D01*
X264610Y167758D01*
X264541Y167768D01*
X264472Y167781D01*
X264404Y167799D01*
X264337Y167820D01*
X264272Y167845D01*
X264208Y167874D01*
X264145Y167906D01*
X264085Y167942D01*
X264027Y167981D01*
X263971Y168023D01*
X263917Y168068D01*
X263866Y168116D01*
X263818Y168167D01*
X263773Y168221D01*
X263731Y168277D01*
X263692Y168335D01*
X263656Y168395D01*
X263624Y168458D01*
X263595Y168522D01*
X263570Y168587D01*
X263549Y168654D01*
X263531Y168722D01*
X263518Y168791D01*
X263508Y168860D01*
X263502Y168930D01*
X263500Y169000D01*
D17*
X250000Y147000D02*
X250002Y147109D01*
X250008Y147218D01*
X250018Y147326D01*
X250032Y147434D01*
X250049Y147542D01*
X250071Y147649D01*
X250096Y147755D01*
X250126Y147859D01*
X250159Y147963D01*
X250196Y148066D01*
X250236Y148167D01*
X250280Y148266D01*
X250328Y148364D01*
X250380Y148461D01*
X250434Y148555D01*
X250492Y148647D01*
X250554Y148737D01*
X250619Y148824D01*
X250686Y148910D01*
X250757Y148993D01*
X250831Y149073D01*
X250908Y149150D01*
X250987Y149225D01*
X251069Y149296D01*
X251154Y149365D01*
X251241Y149430D01*
X251330Y149493D01*
X251422Y149551D01*
X251516Y149607D01*
X251611Y149659D01*
X251709Y149708D01*
X251808Y149753D01*
X251909Y149795D01*
X252011Y149832D01*
X252114Y149866D01*
X252219Y149897D01*
X252325Y149923D01*
X252431Y149946D01*
X252539Y149964D01*
X252647Y149979D01*
X252755Y149990D01*
X252864Y149997D01*
X252973Y150000D01*
X253082Y149999D01*
X253191Y149994D01*
X253299Y149985D01*
X253407Y149972D01*
X253515Y149955D01*
X253622Y149935D01*
X253728Y149910D01*
X253833Y149882D01*
X253937Y149850D01*
X254040Y149814D01*
X254142Y149774D01*
X254242Y149731D01*
X254340Y149684D01*
X254437Y149634D01*
X254531Y149580D01*
X254624Y149522D01*
X254715Y149462D01*
X254803Y149398D01*
X254889Y149331D01*
X254972Y149261D01*
X255053Y149188D01*
X255131Y149112D01*
X255206Y149033D01*
X255279Y148951D01*
X255348Y148867D01*
X255414Y148781D01*
X255477Y148692D01*
X255537Y148601D01*
X255594Y148508D01*
X255647Y148413D01*
X255696Y148316D01*
X255742Y148217D01*
X255784Y148117D01*
X255823Y148015D01*
X255858Y147911D01*
X255889Y147807D01*
X255917Y147702D01*
X255940Y147595D01*
X255960Y147488D01*
X255976Y147380D01*
X255988Y147272D01*
X255996Y147163D01*
X256000Y147054D01*
X256000Y146946D01*
X255996Y146837D01*
X255988Y146728D01*
X255976Y146620D01*
X255960Y146512D01*
X255940Y146405D01*
X255917Y146298D01*
X255889Y146193D01*
X255858Y146089D01*
X255823Y145985D01*
X255784Y145883D01*
X255742Y145783D01*
X255696Y145684D01*
X255647Y145587D01*
X255594Y145492D01*
X255537Y145399D01*
X255477Y145308D01*
X255414Y145219D01*
X255348Y145133D01*
X255279Y145049D01*
X255206Y144967D01*
X255131Y144888D01*
X255053Y144812D01*
X254972Y144739D01*
X254889Y144669D01*
X254803Y144602D01*
X254715Y144538D01*
X254624Y144478D01*
X254531Y144420D01*
X254437Y144366D01*
X254340Y144316D01*
X254242Y144269D01*
X254142Y144226D01*
X254040Y144186D01*
X253937Y144150D01*
X253833Y144118D01*
X253728Y144090D01*
X253622Y144065D01*
X253515Y144045D01*
X253407Y144028D01*
X253299Y144015D01*
X253191Y144006D01*
X253082Y144001D01*
X252973Y144000D01*
X252864Y144003D01*
X252755Y144010D01*
X252647Y144021D01*
X252539Y144036D01*
X252431Y144054D01*
X252325Y144077D01*
X252219Y144103D01*
X252114Y144134D01*
X252011Y144168D01*
X251909Y144205D01*
X251808Y144247D01*
X251709Y144292D01*
X251611Y144341D01*
X251516Y144393D01*
X251422Y144449D01*
X251330Y144507D01*
X251241Y144570D01*
X251154Y144635D01*
X251069Y144704D01*
X250987Y144775D01*
X250908Y144850D01*
X250831Y144927D01*
X250757Y145007D01*
X250686Y145090D01*
X250619Y145176D01*
X250554Y145263D01*
X250492Y145353D01*
X250434Y145445D01*
X250380Y145539D01*
X250328Y145636D01*
X250280Y145734D01*
X250236Y145833D01*
X250196Y145934D01*
X250159Y146037D01*
X250126Y146141D01*
X250096Y146245D01*
X250071Y146351D01*
X250049Y146458D01*
X250032Y146566D01*
X250018Y146674D01*
X250008Y146782D01*
X250002Y146891D01*
X250000Y147000D01*
D15*
X337000Y157000D02*
X463000Y157000D01*
X463000Y103000D02*
X337000Y103000D01*
X463000Y103000D02*
X463000Y157000D01*
X337000Y157000D02*
X337000Y103000D01*
D16*
X463500Y169000D02*
X463502Y169070D01*
X463508Y169140D01*
X463518Y169209D01*
X463531Y169278D01*
X463549Y169346D01*
X463570Y169413D01*
X463595Y169478D01*
X463624Y169542D01*
X463656Y169605D01*
X463692Y169665D01*
X463731Y169723D01*
X463773Y169779D01*
X463818Y169833D01*
X463866Y169884D01*
X463917Y169932D01*
X463971Y169977D01*
X464027Y170019D01*
X464085Y170058D01*
X464145Y170094D01*
X464208Y170126D01*
X464272Y170155D01*
X464337Y170180D01*
X464404Y170201D01*
X464472Y170219D01*
X464541Y170232D01*
X464610Y170242D01*
X464680Y170248D01*
X464750Y170250D01*
X464820Y170248D01*
X464890Y170242D01*
X464959Y170232D01*
X465028Y170219D01*
X465096Y170201D01*
X465163Y170180D01*
X465228Y170155D01*
X465292Y170126D01*
X465355Y170094D01*
X465415Y170058D01*
X465473Y170019D01*
X465529Y169977D01*
X465583Y169932D01*
X465634Y169884D01*
X465682Y169833D01*
X465727Y169779D01*
X465769Y169723D01*
X465808Y169665D01*
X465844Y169605D01*
X465876Y169542D01*
X465905Y169478D01*
X465930Y169413D01*
X465951Y169346D01*
X465969Y169278D01*
X465982Y169209D01*
X465992Y169140D01*
X465998Y169070D01*
X466000Y169000D01*
X465998Y168930D01*
X465992Y168860D01*
X465982Y168791D01*
X465969Y168722D01*
X465951Y168654D01*
X465930Y168587D01*
X465905Y168522D01*
X465876Y168458D01*
X465844Y168395D01*
X465808Y168335D01*
X465769Y168277D01*
X465727Y168221D01*
X465682Y168167D01*
X465634Y168116D01*
X465583Y168068D01*
X465529Y168023D01*
X465473Y167981D01*
X465415Y167942D01*
X465355Y167906D01*
X465292Y167874D01*
X465228Y167845D01*
X465163Y167820D01*
X465096Y167799D01*
X465028Y167781D01*
X464959Y167768D01*
X464890Y167758D01*
X464820Y167752D01*
X464750Y167750D01*
X464680Y167752D01*
X464610Y167758D01*
X464541Y167768D01*
X464472Y167781D01*
X464404Y167799D01*
X464337Y167820D01*
X464272Y167845D01*
X464208Y167874D01*
X464145Y167906D01*
X464085Y167942D01*
X464027Y167981D01*
X463971Y168023D01*
X463917Y168068D01*
X463866Y168116D01*
X463818Y168167D01*
X463773Y168221D01*
X463731Y168277D01*
X463692Y168335D01*
X463656Y168395D01*
X463624Y168458D01*
X463595Y168522D01*
X463570Y168587D01*
X463549Y168654D01*
X463531Y168722D01*
X463518Y168791D01*
X463508Y168860D01*
X463502Y168930D01*
X463500Y169000D01*
D17*
X450000Y147000D02*
X450002Y147109D01*
X450008Y147218D01*
X450018Y147326D01*
X450032Y147434D01*
X450049Y147542D01*
X450071Y147649D01*
X450096Y147755D01*
X450126Y147859D01*
X450159Y147963D01*
X450196Y148066D01*
X450236Y148167D01*
X450280Y148266D01*
X450328Y148364D01*
X450380Y148461D01*
X450434Y148555D01*
X450492Y148647D01*
X450554Y148737D01*
X450619Y148824D01*
X450686Y148910D01*
X450757Y148993D01*
X450831Y149073D01*
X450908Y149150D01*
X450987Y149225D01*
X451069Y149296D01*
X451154Y149365D01*
X451241Y149430D01*
X451330Y149493D01*
X451422Y149551D01*
X451516Y149607D01*
X451611Y149659D01*
X451709Y149708D01*
X451808Y149753D01*
X451909Y149795D01*
X452011Y149832D01*
X452114Y149866D01*
X452219Y149897D01*
X452325Y149923D01*
X452431Y149946D01*
X452539Y149964D01*
X452647Y149979D01*
X452755Y149990D01*
X452864Y149997D01*
X452973Y150000D01*
X453082Y149999D01*
X453191Y149994D01*
X453299Y149985D01*
X453407Y149972D01*
X453515Y149955D01*
X453622Y149935D01*
X453728Y149910D01*
X453833Y149882D01*
X453937Y149850D01*
X454040Y149814D01*
X454142Y149774D01*
X454242Y149731D01*
X454340Y149684D01*
X454437Y149634D01*
X454531Y149580D01*
X454624Y149522D01*
X454715Y149462D01*
X454803Y149398D01*
X454889Y149331D01*
X454972Y149261D01*
X455053Y149188D01*
X455131Y149112D01*
X455206Y149033D01*
X455279Y148951D01*
X455348Y148867D01*
X455414Y148781D01*
X455477Y148692D01*
X455537Y148601D01*
X455594Y148508D01*
X455647Y148413D01*
X455696Y148316D01*
X455742Y148217D01*
X455784Y148117D01*
X455823Y148015D01*
X455858Y147911D01*
X455889Y147807D01*
X455917Y147702D01*
X455940Y147595D01*
X455960Y147488D01*
X455976Y147380D01*
X455988Y147272D01*
X455996Y147163D01*
X456000Y147054D01*
X456000Y146946D01*
X455996Y146837D01*
X455988Y146728D01*
X455976Y146620D01*
X455960Y146512D01*
X455940Y146405D01*
X455917Y146298D01*
X455889Y146193D01*
X455858Y146089D01*
X455823Y145985D01*
X455784Y145883D01*
X455742Y145783D01*
X455696Y145684D01*
X455647Y145587D01*
X455594Y145492D01*
X455537Y145399D01*
X455477Y145308D01*
X455414Y145219D01*
X455348Y145133D01*
X455279Y145049D01*
X455206Y144967D01*
X455131Y144888D01*
X455053Y144812D01*
X454972Y144739D01*
X454889Y144669D01*
X454803Y144602D01*
X454715Y144538D01*
X454624Y144478D01*
X454531Y144420D01*
X454437Y144366D01*
X454340Y144316D01*
X454242Y144269D01*
X454142Y144226D01*
X454040Y144186D01*
X453937Y144150D01*
X453833Y144118D01*
X453728Y144090D01*
X453622Y144065D01*
X453515Y144045D01*
X453407Y144028D01*
X453299Y144015D01*
X453191Y144006D01*
X453082Y144001D01*
X452973Y144000D01*
X452864Y144003D01*
X452755Y144010D01*
X452647Y144021D01*
X452539Y144036D01*
X452431Y144054D01*
X452325Y144077D01*
X452219Y144103D01*
X452114Y144134D01*
X452011Y144168D01*
X451909Y144205D01*
X451808Y144247D01*
X451709Y144292D01*
X451611Y144341D01*
X451516Y144393D01*
X451422Y144449D01*
X451330Y144507D01*
X451241Y144570D01*
X451154Y144635D01*
X451069Y144704D01*
X450987Y144775D01*
X450908Y144850D01*
X450831Y144927D01*
X450757Y145007D01*
X450686Y145090D01*
X450619Y145176D01*
X450554Y145263D01*
X450492Y145353D01*
X450434Y145445D01*
X450380Y145539D01*
X450328Y145636D01*
X450280Y145734D01*
X450236Y145833D01*
X450196Y145934D01*
X450159Y146037D01*
X450126Y146141D01*
X450096Y146245D01*
X450071Y146351D01*
X450049Y146458D01*
X450032Y146566D01*
X450018Y146674D01*
X450008Y146782D01*
X450002Y146891D01*
X450000Y147000D01*
D15*
X537000Y157000D02*
X663000Y157000D01*
X663000Y103000D02*
X537000Y103000D01*
X663000Y103000D02*
X663000Y157000D01*
X537000Y157000D02*
X537000Y103000D01*
D16*
X663500Y169000D02*
X663502Y169070D01*
X663508Y169140D01*
X663518Y169209D01*
X663531Y169278D01*
X663549Y169346D01*
X663570Y169413D01*
X663595Y169478D01*
X663624Y169542D01*
X663656Y169605D01*
X663692Y169665D01*
X663731Y169723D01*
X663773Y169779D01*
X663818Y169833D01*
X663866Y169884D01*
X663917Y169932D01*
X663971Y169977D01*
X664027Y170019D01*
X664085Y170058D01*
X664145Y170094D01*
X664208Y170126D01*
X664272Y170155D01*
X664337Y170180D01*
X664404Y170201D01*
X664472Y170219D01*
X664541Y170232D01*
X664610Y170242D01*
X664680Y170248D01*
X664750Y170250D01*
X664820Y170248D01*
X664890Y170242D01*
X664959Y170232D01*
X665028Y170219D01*
X665096Y170201D01*
X665163Y170180D01*
X665228Y170155D01*
X665292Y170126D01*
X665355Y170094D01*
X665415Y170058D01*
X665473Y170019D01*
X665529Y169977D01*
X665583Y169932D01*
X665634Y169884D01*
X665682Y169833D01*
X665727Y169779D01*
X665769Y169723D01*
X665808Y169665D01*
X665844Y169605D01*
X665876Y169542D01*
X665905Y169478D01*
X665930Y169413D01*
X665951Y169346D01*
X665969Y169278D01*
X665982Y169209D01*
X665992Y169140D01*
X665998Y169070D01*
X666000Y169000D01*
X665998Y168930D01*
X665992Y168860D01*
X665982Y168791D01*
X665969Y168722D01*
X665951Y168654D01*
X665930Y168587D01*
X665905Y168522D01*
X665876Y168458D01*
X665844Y168395D01*
X665808Y168335D01*
X665769Y168277D01*
X665727Y168221D01*
X665682Y168167D01*
X665634Y168116D01*
X665583Y168068D01*
X665529Y168023D01*
X665473Y167981D01*
X665415Y167942D01*
X665355Y167906D01*
X665292Y167874D01*
X665228Y167845D01*
X665163Y167820D01*
X665096Y167799D01*
X665028Y167781D01*
X664959Y167768D01*
X664890Y167758D01*
X664820Y167752D01*
X664750Y167750D01*
X664680Y167752D01*
X664610Y167758D01*
X664541Y167768D01*
X664472Y167781D01*
X664404Y167799D01*
X664337Y167820D01*
X664272Y167845D01*
X664208Y167874D01*
X664145Y167906D01*
X664085Y167942D01*
X664027Y167981D01*
X663971Y168023D01*
X663917Y168068D01*
X663866Y168116D01*
X663818Y168167D01*
X663773Y168221D01*
X663731Y168277D01*
X663692Y168335D01*
X663656Y168395D01*
X663624Y168458D01*
X663595Y168522D01*
X663570Y168587D01*
X663549Y168654D01*
X663531Y168722D01*
X663518Y168791D01*
X663508Y168860D01*
X663502Y168930D01*
X663500Y169000D01*
D17*
X650000Y147000D02*
X650002Y147109D01*
X650008Y147218D01*
X650018Y147326D01*
X650032Y147434D01*
X650049Y147542D01*
X650071Y147649D01*
X650096Y147755D01*
X650126Y147859D01*
X650159Y147963D01*
X650196Y148066D01*
X650236Y148167D01*
X650280Y148266D01*
X650328Y148364D01*
X650380Y148461D01*
X650434Y148555D01*
X650492Y148647D01*
X650554Y148737D01*
X650619Y148824D01*
X650686Y148910D01*
X650757Y148993D01*
X650831Y149073D01*
X650908Y149150D01*
X650987Y149225D01*
X651069Y149296D01*
X651154Y149365D01*
X651241Y149430D01*
X651330Y149493D01*
X651422Y149551D01*
X651516Y149607D01*
X651611Y149659D01*
X651709Y149708D01*
X651808Y149753D01*
X651909Y149795D01*
X652011Y149832D01*
X652114Y149866D01*
X652219Y149897D01*
X652325Y149923D01*
X652431Y149946D01*
X652539Y149964D01*
X652647Y149979D01*
X652755Y149990D01*
X652864Y149997D01*
X652973Y150000D01*
X653082Y149999D01*
X653191Y149994D01*
X653299Y149985D01*
X653407Y149972D01*
X653515Y149955D01*
X653622Y149935D01*
X653728Y149910D01*
X653833Y149882D01*
X653937Y149850D01*
X654040Y149814D01*
X654142Y149774D01*
X654242Y149731D01*
X654340Y149684D01*
X654437Y149634D01*
X654531Y149580D01*
X654624Y149522D01*
X654715Y149462D01*
X654803Y149398D01*
X654889Y149331D01*
X654972Y149261D01*
X655053Y149188D01*
X655131Y149112D01*
X655206Y149033D01*
X655279Y148951D01*
X655348Y148867D01*
X655414Y148781D01*
X655477Y148692D01*
X655537Y148601D01*
X655594Y148508D01*
X655647Y148413D01*
X655696Y148316D01*
X655742Y148217D01*
X655784Y148117D01*
X655823Y148015D01*
X655858Y147911D01*
X655889Y147807D01*
X655917Y147702D01*
X655940Y147595D01*
X655960Y147488D01*
X655976Y147380D01*
X655988Y147272D01*
X655996Y147163D01*
X656000Y147054D01*
X656000Y146946D01*
X655996Y146837D01*
X655988Y146728D01*
X655976Y146620D01*
X655960Y146512D01*
X655940Y146405D01*
X655917Y146298D01*
X655889Y146193D01*
X655858Y146089D01*
X655823Y145985D01*
X655784Y145883D01*
X655742Y145783D01*
X655696Y145684D01*
X655647Y145587D01*
X655594Y145492D01*
X655537Y145399D01*
X655477Y145308D01*
X655414Y145219D01*
X655348Y145133D01*
X655279Y145049D01*
X655206Y144967D01*
X655131Y144888D01*
X655053Y144812D01*
X654972Y144739D01*
X654889Y144669D01*
X654803Y144602D01*
X654715Y144538D01*
X654624Y144478D01*
X654531Y144420D01*
X654437Y144366D01*
X654340Y144316D01*
X654242Y144269D01*
X654142Y144226D01*
X654040Y144186D01*
X653937Y144150D01*
X653833Y144118D01*
X653728Y144090D01*
X653622Y144065D01*
X653515Y144045D01*
X653407Y144028D01*
X653299Y144015D01*
X653191Y144006D01*
X653082Y144001D01*
X652973Y144000D01*
X652864Y144003D01*
X652755Y144010D01*
X652647Y144021D01*
X652539Y144036D01*
X652431Y144054D01*
X652325Y144077D01*
X652219Y144103D01*
X652114Y144134D01*
X652011Y144168D01*
X651909Y144205D01*
X651808Y144247D01*
X651709Y144292D01*
X651611Y144341D01*
X651516Y144393D01*
X651422Y144449D01*
X651330Y144507D01*
X651241Y144570D01*
X651154Y144635D01*
X651069Y144704D01*
X650987Y144775D01*
X650908Y144850D01*
X650831Y144927D01*
X650757Y145007D01*
X650686Y145090D01*
X650619Y145176D01*
X650554Y145263D01*
X650492Y145353D01*
X650434Y145445D01*
X650380Y145539D01*
X650328Y145636D01*
X650280Y145734D01*
X650236Y145833D01*
X650196Y145934D01*
X650159Y146037D01*
X650126Y146141D01*
X650096Y146245D01*
X650071Y146351D01*
X650049Y146458D01*
X650032Y146566D01*
X650018Y146674D01*
X650008Y146782D01*
X650002Y146891D01*
X650000Y147000D01*
D15*
X737000Y157000D02*
X863000Y157000D01*
X863000Y103000D02*
X737000Y103000D01*
X863000Y103000D02*
X863000Y157000D01*
X737000Y157000D02*
X737000Y103000D01*
D16*
X863500Y169000D02*
X863502Y169070D01*
X863508Y169140D01*
X863518Y169209D01*
X863531Y169278D01*
X863549Y169346D01*
X863570Y169413D01*
X863595Y169478D01*
X863624Y169542D01*
X863656Y169605D01*
X863692Y169665D01*
X863731Y169723D01*
X863773Y169779D01*
X863818Y169833D01*
X863866Y169884D01*
X863917Y169932D01*
X863971Y169977D01*
X864027Y170019D01*
X864085Y170058D01*
X864145Y170094D01*
X864208Y170126D01*
X864272Y170155D01*
X864337Y170180D01*
X864404Y170201D01*
X864472Y170219D01*
X864541Y170232D01*
X864610Y170242D01*
X864680Y170248D01*
X864750Y170250D01*
X864820Y170248D01*
X864890Y170242D01*
X864959Y170232D01*
X865028Y170219D01*
X865096Y170201D01*
X865163Y170180D01*
X865228Y170155D01*
X865292Y170126D01*
X865355Y170094D01*
X865415Y170058D01*
X865473Y170019D01*
X865529Y169977D01*
X865583Y169932D01*
X865634Y169884D01*
X865682Y169833D01*
X865727Y169779D01*
X865769Y169723D01*
X865808Y169665D01*
X865844Y169605D01*
X865876Y169542D01*
X865905Y169478D01*
X865930Y169413D01*
X865951Y169346D01*
X865969Y169278D01*
X865982Y169209D01*
X865992Y169140D01*
X865998Y169070D01*
X866000Y169000D01*
X865998Y168930D01*
X865992Y168860D01*
X865982Y168791D01*
X865969Y168722D01*
X865951Y168654D01*
X865930Y168587D01*
X865905Y168522D01*
X865876Y168458D01*
X865844Y168395D01*
X865808Y168335D01*
X865769Y168277D01*
X865727Y168221D01*
X865682Y168167D01*
X865634Y168116D01*
X865583Y168068D01*
X865529Y168023D01*
X865473Y167981D01*
X865415Y167942D01*
X865355Y167906D01*
X865292Y167874D01*
X865228Y167845D01*
X865163Y167820D01*
X865096Y167799D01*
X865028Y167781D01*
X864959Y167768D01*
X864890Y167758D01*
X864820Y167752D01*
X864750Y167750D01*
X864680Y167752D01*
X864610Y167758D01*
X864541Y167768D01*
X864472Y167781D01*
X864404Y167799D01*
X864337Y167820D01*
X864272Y167845D01*
X864208Y167874D01*
X864145Y167906D01*
X864085Y167942D01*
X864027Y167981D01*
X863971Y168023D01*
X863917Y168068D01*
X863866Y168116D01*
X863818Y168167D01*
X863773Y168221D01*
X863731Y168277D01*
X863692Y168335D01*
X863656Y168395D01*
X863624Y168458D01*
X863595Y168522D01*
X863570Y168587D01*
X863549Y168654D01*
X863531Y168722D01*
X863518Y168791D01*
X863508Y168860D01*
X863502Y168930D01*
X863500Y169000D01*
D17*
X850000Y147000D02*
X850002Y147109D01*
X850008Y147218D01*
X850018Y147326D01*
X850032Y147434D01*
X850049Y147542D01*
X850071Y147649D01*
X850096Y147755D01*
X850126Y147859D01*
X850159Y147963D01*
X850196Y148066D01*
X850236Y148167D01*
X850280Y148266D01*
X850328Y148364D01*
X850380Y148461D01*
X850434Y148555D01*
X850492Y148647D01*
X850554Y148737D01*
X850619Y148824D01*
X850686Y148910D01*
X850757Y148993D01*
X850831Y149073D01*
X850908Y149150D01*
X850987Y149225D01*
X851069Y149296D01*
X851154Y149365D01*
X851241Y149430D01*
X851330Y149493D01*
X851422Y149551D01*
X851516Y149607D01*
X851611Y149659D01*
X851709Y149708D01*
X851808Y149753D01*
X851909Y149795D01*
X852011Y149832D01*
X852114Y149866D01*
X852219Y149897D01*
X852325Y149923D01*
X852431Y149946D01*
X852539Y149964D01*
X852647Y149979D01*
X852755Y149990D01*
X852864Y149997D01*
X852973Y150000D01*
X853082Y149999D01*
X853191Y149994D01*
X853299Y149985D01*
X853407Y149972D01*
X853515Y149955D01*
X853622Y149935D01*
X853728Y149910D01*
X853833Y149882D01*
X853937Y149850D01*
X854040Y149814D01*
X854142Y149774D01*
X854242Y149731D01*
X854340Y149684D01*
X854437Y149634D01*
X854531Y149580D01*
X854624Y149522D01*
X854715Y149462D01*
X854803Y149398D01*
X854889Y149331D01*
X854972Y149261D01*
X855053Y149188D01*
X855131Y149112D01*
X855206Y149033D01*
X855279Y148951D01*
X855348Y148867D01*
X855414Y148781D01*
X855477Y148692D01*
X855537Y148601D01*
X855594Y148508D01*
X855647Y148413D01*
X855696Y148316D01*
X855742Y148217D01*
X855784Y148117D01*
X855823Y148015D01*
X855858Y147911D01*
X855889Y147807D01*
X855917Y147702D01*
X855940Y147595D01*
X855960Y147488D01*
X855976Y147380D01*
X855988Y147272D01*
X855996Y147163D01*
X856000Y147054D01*
X856000Y146946D01*
X855996Y146837D01*
X855988Y146728D01*
X855976Y146620D01*
X855960Y146512D01*
X855940Y146405D01*
X855917Y146298D01*
X855889Y146193D01*
X855858Y146089D01*
X855823Y145985D01*
X855784Y145883D01*
X855742Y145783D01*
X855696Y145684D01*
X855647Y145587D01*
X855594Y145492D01*
X855537Y145399D01*
X855477Y145308D01*
X855414Y145219D01*
X855348Y145133D01*
X855279Y145049D01*
X855206Y144967D01*
X855131Y144888D01*
X855053Y144812D01*
X854972Y144739D01*
X854889Y144669D01*
X854803Y144602D01*
X854715Y144538D01*
X854624Y144478D01*
X854531Y144420D01*
X854437Y144366D01*
X854340Y144316D01*
X854242Y144269D01*
X854142Y144226D01*
X854040Y144186D01*
X853937Y144150D01*
X853833Y144118D01*
X853728Y144090D01*
X853622Y144065D01*
X853515Y144045D01*
X853407Y144028D01*
X853299Y144015D01*
X853191Y144006D01*
X853082Y144001D01*
X852973Y144000D01*
X852864Y144003D01*
X852755Y144010D01*
X852647Y144021D01*
X852539Y144036D01*
X852431Y144054D01*
X852325Y144077D01*
X852219Y144103D01*
X852114Y144134D01*
X852011Y144168D01*
X851909Y144205D01*
X851808Y144247D01*
X851709Y144292D01*
X851611Y144341D01*
X851516Y144393D01*
X851422Y144449D01*
X851330Y144507D01*
X851241Y144570D01*
X851154Y144635D01*
X851069Y144704D01*
X850987Y144775D01*
X850908Y144850D01*
X850831Y144927D01*
X850757Y145007D01*
X850686Y145090D01*
X850619Y145176D01*
X850554Y145263D01*
X850492Y145353D01*
X850434Y145445D01*
X850380Y145539D01*
X850328Y145636D01*
X850280Y145734D01*
X850236Y145833D01*
X850196Y145934D01*
X850159Y146037D01*
X850126Y146141D01*
X850096Y146245D01*
X850071Y146351D01*
X850049Y146458D01*
X850032Y146566D01*
X850018Y146674D01*
X850008Y146782D01*
X850002Y146891D01*
X850000Y147000D01*
D15*
X937000Y157000D02*
X1063000Y157000D01*
X1063000Y103000D02*
X937000Y103000D01*
X1063000Y103000D02*
X1063000Y157000D01*
X937000Y157000D02*
X937000Y103000D01*
D16*
X1063500Y169000D02*
X1063502Y169070D01*
X1063508Y169140D01*
X1063518Y169209D01*
X1063531Y169278D01*
X1063549Y169346D01*
X1063570Y169413D01*
X1063595Y169478D01*
X1063624Y169542D01*
X1063656Y169605D01*
X1063692Y169665D01*
X1063731Y169723D01*
X1063773Y169779D01*
X1063818Y169833D01*
X1063866Y169884D01*
X1063917Y169932D01*
X1063971Y169977D01*
X1064027Y170019D01*
X1064085Y170058D01*
X1064145Y170094D01*
X1064208Y170126D01*
X1064272Y170155D01*
X1064337Y170180D01*
X1064404Y170201D01*
X1064472Y170219D01*
X1064541Y170232D01*
X1064610Y170242D01*
X1064680Y170248D01*
X1064750Y170250D01*
X1064820Y170248D01*
X1064890Y170242D01*
X1064959Y170232D01*
X1065028Y170219D01*
X1065096Y170201D01*
X1065163Y170180D01*
X1065228Y170155D01*
X1065292Y170126D01*
X1065355Y170094D01*
X1065415Y170058D01*
X1065473Y170019D01*
X1065529Y169977D01*
X1065583Y169932D01*
X1065634Y169884D01*
X1065682Y169833D01*
X1065727Y169779D01*
X1065769Y169723D01*
X1065808Y169665D01*
X1065844Y169605D01*
X1065876Y169542D01*
X1065905Y169478D01*
X1065930Y169413D01*
X1065951Y169346D01*
X1065969Y169278D01*
X1065982Y169209D01*
X1065992Y169140D01*
X1065998Y169070D01*
X1066000Y169000D01*
X1065998Y168930D01*
X1065992Y168860D01*
X1065982Y168791D01*
X1065969Y168722D01*
X1065951Y168654D01*
X1065930Y168587D01*
X1065905Y168522D01*
X1065876Y168458D01*
X1065844Y168395D01*
X1065808Y168335D01*
X1065769Y168277D01*
X1065727Y168221D01*
X1065682Y168167D01*
X1065634Y168116D01*
X1065583Y168068D01*
X1065529Y168023D01*
X1065473Y167981D01*
X1065415Y167942D01*
X1065355Y167906D01*
X1065292Y167874D01*
X1065228Y167845D01*
X1065163Y167820D01*
X1065096Y167799D01*
X1065028Y167781D01*
X1064959Y167768D01*
X1064890Y167758D01*
X1064820Y167752D01*
X1064750Y167750D01*
X1064680Y167752D01*
X1064610Y167758D01*
X1064541Y167768D01*
X1064472Y167781D01*
X1064404Y167799D01*
X1064337Y167820D01*
X1064272Y167845D01*
X1064208Y167874D01*
X1064145Y167906D01*
X1064085Y167942D01*
X1064027Y167981D01*
X1063971Y168023D01*
X1063917Y168068D01*
X1063866Y168116D01*
X1063818Y168167D01*
X1063773Y168221D01*
X1063731Y168277D01*
X1063692Y168335D01*
X1063656Y168395D01*
X1063624Y168458D01*
X1063595Y168522D01*
X1063570Y168587D01*
X1063549Y168654D01*
X1063531Y168722D01*
X1063518Y168791D01*
X1063508Y168860D01*
X1063502Y168930D01*
X1063500Y169000D01*
D17*
X1050000Y147000D02*
X1050002Y147109D01*
X1050008Y147218D01*
X1050018Y147326D01*
X1050032Y147434D01*
X1050049Y147542D01*
X1050071Y147649D01*
X1050096Y147755D01*
X1050126Y147859D01*
X1050159Y147963D01*
X1050196Y148066D01*
X1050236Y148167D01*
X1050280Y148266D01*
X1050328Y148364D01*
X1050380Y148461D01*
X1050434Y148555D01*
X1050492Y148647D01*
X1050554Y148737D01*
X1050619Y148824D01*
X1050686Y148910D01*
X1050757Y148993D01*
X1050831Y149073D01*
X1050908Y149150D01*
X1050987Y149225D01*
X1051069Y149296D01*
X1051154Y149365D01*
X1051241Y149430D01*
X1051330Y149493D01*
X1051422Y149551D01*
X1051516Y149607D01*
X1051611Y149659D01*
X1051709Y149708D01*
X1051808Y149753D01*
X1051909Y149795D01*
X1052011Y149832D01*
X1052114Y149866D01*
X1052219Y149897D01*
X1052325Y149923D01*
X1052431Y149946D01*
X1052539Y149964D01*
X1052647Y149979D01*
X1052755Y149990D01*
X1052864Y149997D01*
X1052973Y150000D01*
X1053082Y149999D01*
X1053191Y149994D01*
X1053299Y149985D01*
X1053407Y149972D01*
X1053515Y149955D01*
X1053622Y149935D01*
X1053728Y149910D01*
X1053833Y149882D01*
X1053937Y149850D01*
X1054040Y149814D01*
X1054142Y149774D01*
X1054242Y149731D01*
X1054340Y149684D01*
X1054437Y149634D01*
X1054531Y149580D01*
X1054624Y149522D01*
X1054715Y149462D01*
X1054803Y149398D01*
X1054889Y149331D01*
X1054972Y149261D01*
X1055053Y149188D01*
X1055131Y149112D01*
X1055206Y149033D01*
X1055279Y148951D01*
X1055348Y148867D01*
X1055414Y148781D01*
X1055477Y148692D01*
X1055537Y148601D01*
X1055594Y148508D01*
X1055647Y148413D01*
X1055696Y148316D01*
X1055742Y148217D01*
X1055784Y148117D01*
X1055823Y148015D01*
X1055858Y147911D01*
X1055889Y147807D01*
X1055917Y147702D01*
X1055940Y147595D01*
X1055960Y147488D01*
X1055976Y147380D01*
X1055988Y147272D01*
X1055996Y147163D01*
X1056000Y147054D01*
X1056000Y146946D01*
X1055996Y146837D01*
X1055988Y146728D01*
X1055976Y146620D01*
X1055960Y146512D01*
X1055940Y146405D01*
X1055917Y146298D01*
X1055889Y146193D01*
X1055858Y146089D01*
X1055823Y145985D01*
X1055784Y145883D01*
X1055742Y145783D01*
X1055696Y145684D01*
X1055647Y145587D01*
X1055594Y145492D01*
X1055537Y145399D01*
X1055477Y145308D01*
X1055414Y145219D01*
X1055348Y145133D01*
X1055279Y145049D01*
X1055206Y144967D01*
X1055131Y144888D01*
X1055053Y144812D01*
X1054972Y144739D01*
X1054889Y144669D01*
X1054803Y144602D01*
X1054715Y144538D01*
X1054624Y144478D01*
X1054531Y144420D01*
X1054437Y144366D01*
X1054340Y144316D01*
X1054242Y144269D01*
X1054142Y144226D01*
X1054040Y144186D01*
X1053937Y144150D01*
X1053833Y144118D01*
X1053728Y144090D01*
X1053622Y144065D01*
X1053515Y144045D01*
X1053407Y144028D01*
X1053299Y144015D01*
X1053191Y144006D01*
X1053082Y144001D01*
X1052973Y144000D01*
X1052864Y144003D01*
X1052755Y144010D01*
X1052647Y144021D01*
X1052539Y144036D01*
X1052431Y144054D01*
X1052325Y144077D01*
X1052219Y144103D01*
X1052114Y144134D01*
X1052011Y144168D01*
X1051909Y144205D01*
X1051808Y144247D01*
X1051709Y144292D01*
X1051611Y144341D01*
X1051516Y144393D01*
X1051422Y144449D01*
X1051330Y144507D01*
X1051241Y144570D01*
X1051154Y144635D01*
X1051069Y144704D01*
X1050987Y144775D01*
X1050908Y144850D01*
X1050831Y144927D01*
X1050757Y145007D01*
X1050686Y145090D01*
X1050619Y145176D01*
X1050554Y145263D01*
X1050492Y145353D01*
X1050434Y145445D01*
X1050380Y145539D01*
X1050328Y145636D01*
X1050280Y145734D01*
X1050236Y145833D01*
X1050196Y145934D01*
X1050159Y146037D01*
X1050126Y146141D01*
X1050096Y146245D01*
X1050071Y146351D01*
X1050049Y146458D01*
X1050032Y146566D01*
X1050018Y146674D01*
X1050008Y146782D01*
X1050002Y146891D01*
X1050000Y147000D01*
D18*
X264500Y289000D02*
X261500Y289000D01*
X261500Y292000D01*
X264500Y292000D01*
X264500Y299000D01*
X135500Y299000D02*
X135500Y292000D01*
X138500Y292000D01*
X138500Y289000D01*
X135500Y289000D01*
X138500Y289000D02*
X261500Y289000D01*
X264500Y299000D02*
X135500Y299000D01*
X264500Y255000D02*
X264500Y245000D01*
X252500Y245000D01*
X135500Y245000D02*
X135500Y255000D01*
X135500Y245000D02*
X147500Y245000D01*
X264500Y285000D02*
X264500Y289000D01*
X135500Y289000D02*
X135500Y285000D01*
X511500Y289000D02*
X514500Y289000D01*
X511500Y289000D02*
X511500Y292000D01*
X514500Y292000D01*
X514500Y299000D01*
X385500Y299000D02*
X385500Y292000D01*
X388500Y292000D01*
X388500Y289000D01*
X385500Y289000D01*
X388500Y289000D02*
X511500Y289000D01*
X514500Y299000D02*
X385500Y299000D01*
X514500Y255000D02*
X514500Y245000D01*
X502500Y245000D01*
X385500Y245000D02*
X385500Y255000D01*
X385500Y245000D02*
X397500Y245000D01*
X514500Y285000D02*
X514500Y289000D01*
X385500Y289000D02*
X385500Y285000D01*
X811500Y289000D02*
X814500Y289000D01*
X811500Y289000D02*
X811500Y292000D01*
X814500Y292000D01*
X814500Y299000D01*
X685500Y299000D02*
X685500Y292000D01*
X688500Y292000D01*
X688500Y289000D01*
X685500Y289000D01*
X688500Y289000D02*
X811500Y289000D01*
X814500Y299000D02*
X685500Y299000D01*
X814500Y255000D02*
X814500Y245000D01*
X802500Y245000D01*
X685500Y245000D02*
X685500Y255000D01*
X685500Y245000D02*
X697500Y245000D01*
X814500Y285000D02*
X814500Y289000D01*
X685500Y289000D02*
X685500Y285000D01*
X1061500Y289000D02*
X1064500Y289000D01*
X1061500Y289000D02*
X1061500Y292000D01*
X1064500Y292000D01*
X1064500Y299000D01*
X935500Y299000D02*
X935500Y292000D01*
X938500Y292000D01*
X938500Y289000D01*
X935500Y289000D01*
X938500Y289000D02*
X1061500Y289000D01*
X1064500Y299000D02*
X935500Y299000D01*
X1064500Y255000D02*
X1064500Y245000D01*
X1052500Y245000D01*
X935500Y245000D02*
X935500Y255000D01*
X935500Y245000D02*
X947500Y245000D01*
X1064500Y285000D02*
X1064500Y289000D01*
X935500Y289000D02*
X935500Y285000D01*
D19*
X616346Y0D03*
X616346Y508D03*
X616346Y1016D03*
X616346Y1524D03*
X616346Y2032D03*
X616346Y2540D03*
X616346Y3048D03*
X616346Y3556D03*
X616346Y4064D03*
X616346Y4572D03*
X616346Y5080D03*
X616346Y5588D03*
X616346Y6096D03*
X616346Y6604D03*
X616346Y7112D03*
X616346Y7620D03*
X616346Y8128D03*
X616346Y8636D03*
X616346Y9144D03*
D20*
X518556Y9652D03*
D21*
X709310Y9652D03*
D22*
X518048Y10160D03*
D23*
X710072Y10160D03*
D24*
X517794Y10668D03*
D25*
X710326Y10668D03*
D26*
X517540Y11176D03*
D27*
X710580Y11176D03*
D26*
X517540Y11684D03*
D27*
X710580Y11684D03*
D28*
X517286Y12192D03*
D27*
X710580Y12192D03*
D28*
X517286Y12700D03*
D29*
X639206Y12700D03*
D30*
X668924Y12700D03*
X679592Y12700D03*
D31*
X690514Y12700D03*
D32*
X710834Y12700D03*
D28*
X517286Y13208D03*
D33*
X531002Y13208D03*
X541162Y13208D03*
X550814Y13208D03*
X563006Y13208D03*
X583326Y13208D03*
D34*
X611520Y13208D03*
D29*
X639206Y13208D03*
D35*
X656478Y13208D03*
D34*
X668924Y13208D03*
X679084Y13208D03*
X689752Y13208D03*
X691784Y13208D03*
D32*
X710834Y13208D03*
D28*
X517286Y13716D03*
X531002Y13716D03*
X541162Y13716D03*
D26*
X551068Y13716D03*
D28*
X563006Y13716D03*
D36*
X574944Y13716D03*
D31*
X582818Y13716D03*
D33*
X586374Y13716D03*
D36*
X591708Y13716D03*
D33*
X599074Y13716D03*
D36*
X603900Y13716D03*
D31*
X611266Y13716D03*
D33*
X614822Y13716D03*
D36*
X620156Y13716D03*
X625236Y13716D03*
D29*
X639206Y13716D03*
D35*
X656478Y13716D03*
D33*
X669686Y13716D03*
D34*
X678576Y13716D03*
D29*
X692546Y13716D03*
D32*
X710834Y13716D03*
D28*
X517286Y14224D03*
D24*
X530494Y14224D03*
X540654Y14224D03*
D20*
X551068Y14224D03*
D33*
X560974Y14224D03*
D34*
X565292Y14224D03*
D36*
X574944Y14224D03*
D31*
X582818Y14224D03*
D33*
X586374Y14224D03*
D36*
X591708Y14224D03*
D31*
X599074Y14224D03*
D36*
X603900Y14224D03*
D37*
X611012Y14224D03*
D33*
X614822Y14224D03*
D36*
X620156Y14224D03*
X625236Y14224D03*
D29*
X639206Y14224D03*
X652922Y14224D03*
X656478Y14224D03*
D34*
X670448Y14224D03*
X678068Y14224D03*
D29*
X692546Y14224D03*
D32*
X710834Y14224D03*
D28*
X517286Y14732D03*
D22*
X530240Y14732D03*
D38*
X540654Y14732D03*
D20*
X551068Y14732D03*
D34*
X560212Y14732D03*
D36*
X574944Y14732D03*
X582056Y14732D03*
D33*
X586374Y14732D03*
D36*
X591708Y14732D03*
D31*
X599074Y14732D03*
D37*
X603900Y14732D03*
D36*
X610504Y14732D03*
D33*
X614822Y14732D03*
D36*
X620156Y14732D03*
X625236Y14732D03*
D29*
X639206Y14732D03*
X652922Y14732D03*
X656478Y14732D03*
D34*
X670956Y14732D03*
X677560Y14732D03*
X692292Y14732D03*
D32*
X710834Y14732D03*
D28*
X517286Y15240D03*
D31*
X528462Y15240D03*
X538622Y15240D03*
X548274Y15240D03*
D37*
X553608Y15240D03*
D34*
X559704Y15240D03*
D36*
X574944Y15240D03*
X582056Y15240D03*
D33*
X586374Y15240D03*
X591962Y15240D03*
D31*
X599074Y15240D03*
D37*
X603900Y15240D03*
D36*
X610504Y15240D03*
D33*
X614822Y15240D03*
D36*
X620156Y15240D03*
X625236Y15240D03*
D29*
X639206Y15240D03*
X652922Y15240D03*
X656478Y15240D03*
D34*
X671464Y15240D03*
X677052Y15240D03*
D39*
X691276Y15240D03*
D32*
X710834Y15240D03*
D28*
X517286Y15748D03*
D31*
X527954Y15748D03*
X538114Y15748D03*
X548274Y15748D03*
X553862Y15748D03*
D29*
X559450Y15748D03*
D34*
X562752Y15748D03*
D33*
X565546Y15748D03*
D36*
X574944Y15748D03*
X582056Y15748D03*
D33*
X586374Y15748D03*
X591962Y15748D03*
D40*
X599074Y15748D03*
D37*
X603900Y15748D03*
D36*
X610504Y15748D03*
D33*
X614822Y15748D03*
D36*
X620156Y15748D03*
X625236Y15748D03*
D29*
X634126Y15748D03*
X639206Y15748D03*
X644286Y15748D03*
X652922Y15748D03*
X656478Y15748D03*
D34*
X671972Y15748D03*
X676544Y15748D03*
D39*
X691276Y15748D03*
D32*
X710834Y15748D03*
D28*
X517286Y16256D03*
D36*
X527700Y16256D03*
X537860Y16256D03*
X548020Y16256D03*
X554116Y16256D03*
D29*
X559450Y16256D03*
D24*
X564530Y16256D03*
D36*
X574944Y16256D03*
D31*
X582818Y16256D03*
D36*
X586628Y16256D03*
D33*
X591962Y16256D03*
X598058Y16256D03*
D34*
X600344Y16256D03*
X602884Y16256D03*
D33*
X605170Y16256D03*
D31*
X611266Y16256D03*
D33*
X614822Y16256D03*
D36*
X620156Y16256D03*
X625236Y16256D03*
D41*
X639206Y16256D03*
D29*
X652922Y16256D03*
X656478Y16256D03*
X672226Y16256D03*
D34*
X676036Y16256D03*
D29*
X691530Y16256D03*
D32*
X710834Y16256D03*
D28*
X517286Y16764D03*
D36*
X527700Y16764D03*
X537860Y16764D03*
X548020Y16764D03*
X554116Y16764D03*
D29*
X558942Y16764D03*
D34*
X562244Y16764D03*
D33*
X565038Y16764D03*
D29*
X567578Y16764D03*
D36*
X574944Y16764D03*
D24*
X584850Y16764D03*
D33*
X591962Y16764D03*
X598058Y16764D03*
D34*
X600344Y16764D03*
D33*
X602630Y16764D03*
D34*
X605424Y16764D03*
D26*
X613044Y16764D03*
D36*
X620156Y16764D03*
X625236Y16764D03*
D41*
X639206Y16764D03*
D29*
X652922Y16764D03*
X656478Y16764D03*
X672734Y16764D03*
X675782Y16764D03*
D34*
X692292Y16764D03*
D32*
X710834Y16764D03*
D28*
X517286Y17272D03*
D36*
X527700Y17272D03*
X537860Y17272D03*
X548020Y17272D03*
X554116Y17272D03*
D29*
X558942Y17272D03*
X561990Y17272D03*
X565038Y17272D03*
X568086Y17272D03*
D36*
X574944Y17272D03*
D42*
X585612Y17272D03*
D33*
X591962Y17272D03*
X597550Y17272D03*
D40*
X601614Y17272D03*
D33*
X605678Y17272D03*
D42*
X614060Y17272D03*
D36*
X620156Y17272D03*
X625236Y17272D03*
D29*
X634126Y17272D03*
X639206Y17272D03*
X644286Y17272D03*
X652922Y17272D03*
X656478Y17272D03*
X672734Y17272D03*
X675274Y17272D03*
D33*
X693562Y17272D03*
D30*
X696864Y17272D03*
D32*
X710834Y17272D03*
D28*
X517286Y17780D03*
D36*
X527700Y17780D03*
X537860Y17780D03*
X548020Y17780D03*
X554116Y17780D03*
D30*
X559196Y17780D03*
D34*
X562244Y17780D03*
X565292Y17780D03*
D29*
X568086Y17780D03*
D36*
X574944Y17780D03*
D31*
X586374Y17780D03*
D33*
X591962Y17780D03*
X597550Y17780D03*
D37*
X601868Y17780D03*
D33*
X605678Y17780D03*
D31*
X614822Y17780D03*
X620410Y17780D03*
D36*
X625236Y17780D03*
D29*
X634126Y17780D03*
X639206Y17780D03*
X644286Y17780D03*
X652922Y17780D03*
X656478Y17780D03*
X673242Y17780D03*
X675274Y17780D03*
X685942Y17780D03*
D22*
X691276Y17780D03*
D29*
X696610Y17780D03*
D32*
X710834Y17780D03*
D28*
X517286Y18288D03*
D36*
X527700Y18288D03*
X537860Y18288D03*
D31*
X548274Y18288D03*
D36*
X554116Y18288D03*
D29*
X559450Y18288D03*
D34*
X562244Y18288D03*
X565292Y18288D03*
D29*
X568086Y18288D03*
D36*
X574944Y18288D03*
X586628Y18288D03*
X592216Y18288D03*
X597296Y18288D03*
D31*
X601614Y18288D03*
D36*
X605932Y18288D03*
X615076Y18288D03*
D20*
X622696Y18288D03*
D29*
X634126Y18288D03*
X639206Y18288D03*
X644286Y18288D03*
D34*
X652668Y18288D03*
D26*
X658764Y18288D03*
D29*
X673242Y18288D03*
X674766Y18288D03*
X685942Y18288D03*
D24*
X691022Y18288D03*
D34*
X696864Y18288D03*
D27*
X710580Y18288D03*
D28*
X517286Y18796D03*
D36*
X527700Y18796D03*
X537860Y18796D03*
D31*
X548274Y18796D03*
X554370Y18796D03*
D29*
X559450Y18796D03*
D40*
X564022Y18796D03*
D34*
X568340Y18796D03*
D36*
X574944Y18796D03*
D24*
X584850Y18796D03*
D36*
X592216Y18796D03*
X597296Y18796D03*
D31*
X601614Y18796D03*
D33*
X606186Y18796D03*
D24*
X613298Y18796D03*
D20*
X622696Y18796D03*
D29*
X634126Y18796D03*
X639206Y18796D03*
X644286Y18796D03*
D34*
X652668Y18796D03*
D24*
X659018Y18796D03*
D36*
X674004Y18796D03*
D29*
X685942Y18796D03*
X697118Y18796D03*
D27*
X710580Y18796D03*
D28*
X517286Y19304D03*
D31*
X527954Y19304D03*
X538114Y19304D03*
X548274Y19304D03*
X554370Y19304D03*
D34*
X559704Y19304D03*
D40*
X564530Y19304D03*
D29*
X568086Y19304D03*
D36*
X574944Y19304D03*
D26*
X584596Y19304D03*
D36*
X592216Y19304D03*
D33*
X597042Y19304D03*
D36*
X601868Y19304D03*
X606440Y19304D03*
D26*
X613044Y19304D03*
D36*
X620156Y19304D03*
D40*
X623966Y19304D03*
D29*
X634126Y19304D03*
X639206Y19304D03*
X644286Y19304D03*
X652922Y19304D03*
D34*
X656732Y19304D03*
D33*
X674258Y19304D03*
D35*
X691530Y19304D03*
D27*
X710580Y19304D03*
D28*
X517286Y19812D03*
D31*
X528462Y19812D03*
X538622Y19812D03*
X548274Y19812D03*
X554370Y19812D03*
D29*
X559958Y19812D03*
X568086Y19812D03*
D36*
X574944Y19812D03*
D42*
X584596Y19812D03*
X613044Y19812D03*
D36*
X624220Y19812D03*
D29*
X634126Y19812D03*
X639206Y19812D03*
X644286Y19812D03*
X652922Y19812D03*
D34*
X656732Y19812D03*
X674004Y19812D03*
D43*
X691276Y19812D03*
D27*
X710580Y19812D03*
D28*
X517286Y20320D03*
D40*
X528970Y20320D03*
D30*
X533796Y20320D03*
D40*
X539130Y20320D03*
D30*
X543956Y20320D03*
D36*
X548528Y20320D03*
D31*
X554370Y20320D03*
D34*
X560212Y20320D03*
X567832Y20320D03*
D20*
X574944Y20320D03*
D29*
X634126Y20320D03*
X639206Y20320D03*
X644286Y20320D03*
X652922Y20320D03*
D34*
X656732Y20320D03*
X674004Y20320D03*
D29*
X686450Y20320D03*
D30*
X690260Y20320D03*
X692292Y20320D03*
D29*
X696102Y20320D03*
D27*
X710580Y20320D03*
D28*
X517286Y20828D03*
D22*
X530748Y20828D03*
X540908Y20828D03*
D36*
X548528Y20828D03*
D31*
X554370Y20828D03*
D33*
X560974Y20828D03*
D34*
X567324Y20828D03*
D44*
X575198Y20828D03*
D29*
X634126Y20828D03*
X639206Y20828D03*
X644286Y20828D03*
D30*
X652668Y20828D03*
D34*
X656732Y20828D03*
D41*
X674258Y20828D03*
D31*
X687466Y20828D03*
X691530Y20828D03*
D34*
X695848Y20828D03*
D27*
X710580Y20828D03*
D28*
X517286Y21336D03*
D24*
X531002Y21336D03*
X541162Y21336D03*
D36*
X548528Y21336D03*
X554624Y21336D03*
X562244Y21336D03*
D30*
X564276Y21336D03*
D36*
X566308Y21336D03*
D44*
X575198Y21336D03*
D36*
X592216Y21336D03*
D41*
X639206Y21336D03*
D29*
X656478Y21336D03*
D43*
X674004Y21336D03*
D36*
X687720Y21336D03*
D33*
X691530Y21336D03*
D31*
X695086Y21336D03*
D32*
X710834Y21336D03*
D28*
X517286Y21844D03*
X531510Y21844D03*
X541670Y21844D03*
D36*
X548528Y21844D03*
X554624Y21844D03*
D28*
X564530Y21844D03*
D44*
X575198Y21844D03*
D36*
X592216Y21844D03*
D41*
X639206Y21844D03*
D29*
X656478Y21844D03*
X674258Y21844D03*
D30*
X686704Y21844D03*
D33*
X691530Y21844D03*
D29*
X696102Y21844D03*
D32*
X710834Y21844D03*
D28*
X517286Y22352D03*
D34*
X639460Y22352D03*
D29*
X656478Y22352D03*
X674258Y22352D03*
D36*
X687720Y22352D03*
D30*
X692292Y22352D03*
D31*
X695086Y22352D03*
D32*
X710834Y22352D03*
D28*
X517286Y22860D03*
D29*
X639206Y22860D03*
D34*
X656732Y22860D03*
D29*
X674258Y22860D03*
D36*
X687720Y22860D03*
D29*
X690514Y22860D03*
D30*
X692292Y22860D03*
D36*
X695340Y22860D03*
D32*
X710834Y22860D03*
D28*
X517286Y23368D03*
D29*
X639206Y23368D03*
D41*
X656478Y23368D03*
D29*
X674258Y23368D03*
D30*
X686704Y23368D03*
D33*
X691530Y23368D03*
D29*
X696102Y23368D03*
D32*
X710834Y23368D03*
D28*
X517286Y23876D03*
D29*
X639206Y23876D03*
D41*
X656478Y23876D03*
D29*
X674258Y23876D03*
D36*
X687720Y23876D03*
X691276Y23876D03*
D31*
X695086Y23876D03*
D32*
X710834Y23876D03*
D28*
X517286Y24384D03*
D29*
X639206Y24384D03*
X688482Y24384D03*
D30*
X692292Y24384D03*
D27*
X710580Y24384D03*
D26*
X517540Y24892D03*
D27*
X710580Y24892D03*
D26*
X517540Y25400D03*
D25*
X710326Y25400D03*
D24*
X517794Y25908D03*
D23*
X710072Y25908D03*
D38*
X518302Y26416D03*
D45*
X709818Y26416D03*
D19*
X616346Y26924D03*
X616346Y27432D03*
X616346Y27940D03*
X616346Y28448D03*
X616346Y28956D03*
X616346Y29464D03*
X616346Y29972D03*
X616346Y30480D03*
X616346Y30988D03*
D46*
X524398Y31496D03*
D47*
X629808Y31496D03*
D21*
X523382Y32004D03*
D48*
X630824Y32004D03*
D23*
X522620Y32512D03*
D49*
X631586Y32512D03*
D27*
X522112Y33020D03*
D50*
X632094Y33020D03*
D51*
X521604Y33528D03*
D52*
X632602Y33528D03*
D53*
X521096Y34036D03*
D54*
X633110Y34036D03*
D35*
X520842Y34544D03*
D55*
X617616Y34544D03*
D56*
X703214Y34544D03*
D43*
X520588Y35052D03*
D57*
X617616Y35052D03*
D58*
X703722Y35052D03*
D39*
X520080Y35560D03*
D59*
X617870Y35560D03*
D60*
X703976Y35560D03*
D61*
X519826Y36068D03*
D62*
X618124Y36068D03*
D63*
X704230Y36068D03*
D64*
X519572Y36576D03*
D26*
X537860Y36576D03*
D65*
X618632Y36576D03*
D66*
X704484Y36576D03*
D67*
X519318Y37084D03*
D64*
X537860Y37084D03*
D68*
X618632Y37084D03*
D66*
X704484Y37084D03*
D69*
X519064Y37592D03*
D43*
X537860Y37592D03*
D59*
X620410Y37592D03*
D70*
X704738Y37592D03*
D44*
X518810Y38100D03*
D32*
X538114Y38100D03*
D59*
X620918Y38100D03*
D70*
X704738Y38100D03*
D20*
X518556Y38608D03*
D23*
X537860Y38608D03*
D71*
X575198Y38608D03*
D53*
X605424Y38608D03*
D69*
X618632Y38608D03*
D72*
X634888Y38608D03*
D61*
X651398Y38608D03*
D22*
X663336Y38608D03*
D73*
X679084Y38608D03*
D70*
X704738Y38608D03*
D38*
X518302Y39116D03*
D21*
X538114Y39116D03*
D60*
X568848Y39116D03*
D31*
X593486Y39116D03*
D29*
X599582Y39116D03*
D31*
X605170Y39116D03*
D30*
X610504Y39116D03*
D22*
X618632Y39116D03*
D28*
X630570Y39116D03*
D26*
X639460Y39116D03*
D29*
X646826Y39116D03*
D28*
X653430Y39116D03*
D42*
X662828Y39116D03*
X674004Y39116D03*
D20*
X684164Y39116D03*
D74*
X704992Y39116D03*
D38*
X518302Y39624D03*
D75*
X538368Y39624D03*
D63*
X569102Y39624D03*
D31*
X593486Y39624D03*
D30*
X599836Y39624D03*
D37*
X605424Y39624D03*
D28*
X618378Y39624D03*
D42*
X630824Y39624D03*
D26*
X639460Y39624D03*
D30*
X647080Y39624D03*
D42*
X653176Y39624D03*
D40*
X662574Y39624D03*
D42*
X674512Y39624D03*
D38*
X683910Y39624D03*
D74*
X704992Y39624D03*
D22*
X518048Y40132D03*
D76*
X538368Y40132D03*
D66*
X569356Y40132D03*
D36*
X593232Y40132D03*
D30*
X599836Y40132D03*
D37*
X605424Y40132D03*
D40*
X618378Y40132D03*
X631078Y40132D03*
D28*
X639206Y40132D03*
D30*
X647080Y40132D03*
D42*
X653176Y40132D03*
D37*
X662320Y40132D03*
D40*
X674766Y40132D03*
D38*
X683910Y40132D03*
D77*
X705246Y40132D03*
D24*
X517794Y40640D03*
D78*
X538368Y40640D03*
D70*
X569610Y40640D03*
D36*
X593232Y40640D03*
D33*
X599074Y40640D03*
D37*
X605424Y40640D03*
D40*
X618378Y40640D03*
D37*
X631332Y40640D03*
D28*
X639206Y40640D03*
D33*
X646318Y40640D03*
D42*
X653176Y40640D03*
D36*
X662320Y40640D03*
D37*
X675020Y40640D03*
D38*
X683910Y40640D03*
D77*
X705246Y40640D03*
D24*
X517794Y41148D03*
D79*
X538368Y41148D03*
D66*
X569864Y41148D03*
D33*
X593486Y41148D03*
X599074Y41148D03*
D37*
X605424Y41148D03*
D34*
X612028Y41148D03*
D31*
X618378Y41148D03*
D30*
X624728Y41148D03*
D37*
X631332Y41148D03*
D28*
X639206Y41148D03*
D33*
X646318Y41148D03*
D42*
X653176Y41148D03*
D30*
X659780Y41148D03*
D36*
X662320Y41148D03*
D30*
X668416Y41148D03*
D37*
X675020Y41148D03*
D22*
X683656Y41148D03*
D80*
X705500Y41148D03*
D26*
X517540Y41656D03*
D81*
X538622Y41656D03*
D70*
X570118Y41656D03*
D20*
X590692Y41656D03*
D34*
X599328Y41656D03*
D37*
X605424Y41656D03*
D36*
X612028Y41656D03*
D31*
X618378Y41656D03*
D36*
X624728Y41656D03*
D31*
X631586Y41656D03*
D28*
X639206Y41656D03*
D34*
X646572Y41656D03*
D42*
X653176Y41656D03*
X661304Y41656D03*
D36*
X668416Y41656D03*
D37*
X675020Y41656D03*
D22*
X683656Y41656D03*
D80*
X705500Y41656D03*
D28*
X517286Y42164D03*
D82*
X538622Y42164D03*
D74*
X570372Y42164D03*
D20*
X590692Y42164D03*
D30*
X599836Y42164D03*
D37*
X605424Y42164D03*
D36*
X612028Y42164D03*
D31*
X618378Y42164D03*
X624982Y42164D03*
X631586Y42164D03*
D28*
X639206Y42164D03*
D42*
X653176Y42164D03*
X661304Y42164D03*
D36*
X668416Y42164D03*
D31*
X675274Y42164D03*
D22*
X683656Y42164D03*
D80*
X705500Y42164D03*
D28*
X517286Y42672D03*
D77*
X538622Y42672D03*
X570626Y42672D03*
D44*
X590946Y42672D03*
D37*
X605424Y42672D03*
D36*
X612028Y42672D03*
X618632Y42672D03*
D31*
X624982Y42672D03*
X631586Y42672D03*
D26*
X639460Y42672D03*
D42*
X653176Y42672D03*
D40*
X661050Y42672D03*
D31*
X668670Y42672D03*
X675274Y42672D03*
D24*
X683402Y42672D03*
D30*
X690260Y42672D03*
D82*
X705754Y42672D03*
D42*
X517032Y43180D03*
D74*
X538368Y43180D03*
D77*
X570626Y43180D03*
D69*
X591200Y43180D03*
D37*
X605424Y43180D03*
D31*
X612282Y43180D03*
D36*
X618632Y43180D03*
D31*
X624982Y43180D03*
X631586Y43180D03*
D24*
X639714Y43180D03*
D42*
X653176Y43180D03*
D40*
X661050Y43180D03*
D31*
X668670Y43180D03*
X675274Y43180D03*
D24*
X683402Y43180D03*
D30*
X690260Y43180D03*
D82*
X705754Y43180D03*
D42*
X517032Y43688D03*
D25*
X533034Y43688D03*
D64*
X547004Y43688D03*
D80*
X570880Y43688D03*
D64*
X591708Y43688D03*
D37*
X605424Y43688D03*
D36*
X612028Y43688D03*
X618632Y43688D03*
D31*
X624982Y43688D03*
X631586Y43688D03*
D22*
X640476Y43688D03*
D42*
X653176Y43688D03*
X661304Y43688D03*
D31*
X668670Y43688D03*
X675274Y43688D03*
D24*
X683402Y43688D03*
D29*
X690006Y43688D03*
D83*
X706008Y43688D03*
D40*
X516778Y44196D03*
D23*
X532780Y44196D03*
D69*
X548020Y44196D03*
D82*
X571134Y44196D03*
D43*
X593232Y44196D03*
D37*
X605424Y44196D03*
D36*
X612028Y44196D03*
X618632Y44196D03*
D31*
X624982Y44196D03*
X631586Y44196D03*
D69*
X642000Y44196D03*
D42*
X653176Y44196D03*
X661304Y44196D03*
D36*
X668416Y44196D03*
D31*
X675274Y44196D03*
D28*
X683402Y44196D03*
D34*
X690260Y44196D03*
D83*
X706008Y44196D03*
D40*
X516778Y44704D03*
D23*
X532272Y44704D03*
D69*
X548528Y44704D03*
D82*
X571134Y44704D03*
D53*
X593740Y44704D03*
D37*
X605424Y44704D03*
D36*
X612028Y44704D03*
D31*
X618378Y44704D03*
D33*
X624982Y44704D03*
D31*
X631586Y44704D03*
D20*
X643524Y44704D03*
D42*
X653176Y44704D03*
X661304Y44704D03*
D34*
X668416Y44704D03*
D37*
X675020Y44704D03*
D31*
X684418Y44704D03*
D34*
X690260Y44704D03*
D81*
X706262Y44704D03*
D40*
X516778Y45212D03*
D25*
X532018Y45212D03*
D44*
X549290Y45212D03*
D83*
X571388Y45212D03*
D44*
X591454Y45212D03*
D37*
X598312Y45212D03*
X605424Y45212D03*
D30*
X612028Y45212D03*
D37*
X618632Y45212D03*
X631332Y45212D03*
D31*
X641238Y45212D03*
D37*
X645556Y45212D03*
D31*
X652414Y45212D03*
X662574Y45212D03*
D37*
X675020Y45212D03*
D36*
X684672Y45212D03*
D34*
X690260Y45212D03*
D81*
X706262Y45212D03*
D37*
X516524Y45720D03*
D44*
X527954Y45720D03*
D22*
X535828Y45720D03*
X550052Y45720D03*
D81*
X571642Y45720D03*
D44*
X591454Y45720D03*
D29*
X599074Y45720D03*
D37*
X605424Y45720D03*
X618632Y45720D03*
X631332Y45720D03*
D31*
X641238Y45720D03*
D29*
X646318Y45720D03*
D37*
X652668Y45720D03*
D31*
X662574Y45720D03*
D40*
X674766Y45720D03*
D33*
X684418Y45720D03*
D36*
X690260Y45720D03*
D84*
X706516Y45720D03*
D37*
X516524Y46228D03*
D20*
X527700Y46228D03*
D26*
X536336Y46228D03*
D24*
X550814Y46228D03*
D81*
X571642Y46228D03*
D44*
X591454Y46228D03*
D37*
X605424Y46228D03*
D42*
X618632Y46228D03*
D40*
X631078Y46228D03*
D37*
X641492Y46228D03*
X652668Y46228D03*
X662828Y46228D03*
D40*
X674766Y46228D03*
D33*
X684418Y46228D03*
D36*
X690260Y46228D03*
D84*
X706516Y46228D03*
D37*
X516524Y46736D03*
D44*
X527446Y46736D03*
D40*
X536590Y46736D03*
D22*
X551068Y46736D03*
D81*
X571642Y46736D03*
D44*
X591454Y46736D03*
D40*
X605170Y46736D03*
D24*
X618886Y46736D03*
D42*
X630824Y46736D03*
D37*
X641492Y46736D03*
D40*
X652414Y46736D03*
X663082Y46736D03*
D28*
X674258Y46736D03*
D33*
X684418Y46736D03*
D36*
X690260Y46736D03*
D84*
X706516Y46736D03*
D31*
X516270Y47244D03*
D20*
X527192Y47244D03*
D31*
X536590Y47244D03*
D38*
X550814Y47244D03*
D84*
X571896Y47244D03*
D69*
X591708Y47244D03*
D42*
X604916Y47244D03*
D44*
X618886Y47244D03*
D24*
X630570Y47244D03*
D30*
X636920Y47244D03*
D37*
X641492Y47244D03*
D42*
X652160Y47244D03*
D28*
X663590Y47244D03*
D26*
X674004Y47244D03*
D30*
X680608Y47244D03*
D33*
X684418Y47244D03*
D37*
X690260Y47244D03*
D84*
X706516Y47244D03*
D31*
X516270Y47752D03*
D38*
X526938Y47752D03*
D34*
X536844Y47752D03*
D20*
X551068Y47752D03*
D85*
X572150Y47752D03*
D76*
X597296Y47752D03*
D86*
X633364Y47752D03*
D87*
X688482Y47752D03*
D31*
X516270Y48260D03*
D20*
X526684Y48260D03*
D30*
X536844Y48260D03*
D69*
X551068Y48260D03*
D85*
X572150Y48260D03*
D76*
X597296Y48260D03*
D86*
X633364Y48260D03*
D87*
X688482Y48260D03*
D36*
X516016Y48768D03*
D22*
X526684Y48768D03*
D29*
X542686Y48768D03*
D69*
X551068Y48768D03*
D85*
X572150Y48768D03*
D88*
X597550Y48768D03*
D86*
X633364Y48768D03*
D87*
X688482Y48768D03*
D36*
X516016Y49276D03*
D28*
X526938Y49276D03*
D36*
X542940Y49276D03*
D64*
X551068Y49276D03*
D79*
X572404Y49276D03*
D88*
X597550Y49276D03*
D89*
X634380Y49276D03*
D87*
X688482Y49276D03*
D36*
X516016Y49784D03*
D40*
X527446Y49784D03*
D37*
X543448Y49784D03*
D64*
X551068Y49784D03*
D79*
X572404Y49784D03*
D88*
X597550Y49784D03*
D90*
X664606Y49784D03*
D36*
X516016Y50292D03*
X527700Y50292D03*
D25*
X548782Y50292D03*
D91*
X572658Y50292D03*
D88*
X597550Y50292D03*
D90*
X664606Y50292D03*
D33*
X515762Y50800D03*
D29*
X527954Y50800D03*
D23*
X548528Y50800D03*
D92*
X639968Y50800D03*
D33*
X515762Y51308D03*
D30*
X533796Y51308D03*
D45*
X548274Y51308D03*
D92*
X639968Y51308D03*
D33*
X515762Y51816D03*
D34*
X533796Y51816D03*
D28*
X542686Y51816D03*
D41*
X551322Y51816D03*
D93*
X640222Y51816D03*
D33*
X515762Y52324D03*
D31*
X534050Y52324D03*
D28*
X542178Y52324D03*
D39*
X551576Y52324D03*
D93*
X640222Y52324D03*
D33*
X515762Y52832D03*
D37*
X534304Y52832D03*
D26*
X541924Y52832D03*
D41*
X551830Y52832D03*
D93*
X640222Y52832D03*
D33*
X515762Y53340D03*
D28*
X534558Y53340D03*
D26*
X541416Y53340D03*
D39*
X552084Y53340D03*
D94*
X640476Y53340D03*
D33*
X515762Y53848D03*
D22*
X534812Y53848D03*
D28*
X541162Y53848D03*
D39*
X552084Y53848D03*
D94*
X640476Y53848D03*
D34*
X515508Y54356D03*
D29*
X524906Y54356D03*
D35*
X537606Y54356D03*
D39*
X552592Y54356D03*
D94*
X640476Y54356D03*
D34*
X515508Y54864D03*
D33*
X525414Y54864D03*
D35*
X537098Y54864D03*
D61*
X552846Y54864D03*
D94*
X640476Y54864D03*
D34*
X515508Y55372D03*
D31*
X525922Y55372D03*
D53*
X536844Y55372D03*
D61*
X552846Y55372D03*
D45*
X571642Y55372D03*
D57*
X650636Y55372D03*
D34*
X515508Y55880D03*
D40*
X526430Y55880D03*
D35*
X536590Y55880D03*
D64*
X553100Y55880D03*
D25*
X571134Y55880D03*
D32*
X591454Y55880D03*
D95*
X617362Y55880D03*
D43*
X646064Y55880D03*
D24*
X663082Y55880D03*
D67*
X679846Y55880D03*
D85*
X706770Y55880D03*
D34*
X515508Y56388D03*
D28*
X526938Y56388D03*
D53*
X536336Y56388D03*
D67*
X553354Y56388D03*
D27*
X570880Y56388D03*
D53*
X591200Y56388D03*
D64*
X617108Y56388D03*
D69*
X646064Y56388D03*
D37*
X663336Y56388D03*
D24*
X679846Y56388D03*
D78*
X707532Y56388D03*
D34*
X515508Y56896D03*
D96*
X533034Y56896D03*
D64*
X553608Y56896D03*
D32*
X570626Y56896D03*
D41*
X590946Y56896D03*
D44*
X616854Y56896D03*
D22*
X646064Y56896D03*
D33*
X663590Y56896D03*
D28*
X679846Y56896D03*
D76*
X708040Y56896D03*
D34*
X515508Y57404D03*
D53*
X527700Y57404D03*
D24*
X538622Y57404D03*
D67*
X553862Y57404D03*
D32*
X570626Y57404D03*
D39*
X591200Y57404D03*
D22*
X616600Y57404D03*
D26*
X646064Y57404D03*
D29*
X663590Y57404D03*
D40*
X679846Y57404D03*
D46*
X708294Y57404D03*
D34*
X515508Y57912D03*
D53*
X527700Y57912D03*
D42*
X539384Y57912D03*
D69*
X554116Y57912D03*
D95*
X570626Y57912D03*
D64*
X591200Y57912D03*
D26*
X616600Y57912D03*
D28*
X645810Y57912D03*
D31*
X679846Y57912D03*
D75*
X708548Y57912D03*
D34*
X515508Y58420D03*
D43*
X527700Y58420D03*
D31*
X539638Y58420D03*
D69*
X554116Y58420D03*
D95*
X570626Y58420D03*
D67*
X590946Y58420D03*
D40*
X616346Y58420D03*
X645810Y58420D03*
D33*
X679846Y58420D03*
D75*
X708548Y58420D03*
D34*
X515508Y58928D03*
D43*
X527700Y58928D03*
D33*
X540146Y58928D03*
D44*
X554370Y58928D03*
D95*
X570626Y58928D03*
D69*
X591200Y58928D03*
D40*
X616346Y58928D03*
D37*
X645556Y58928D03*
D33*
X679846Y58928D03*
D96*
X708802Y58928D03*
D33*
X515762Y59436D03*
D41*
X527446Y59436D03*
D20*
X554624Y59436D03*
D51*
X570880Y59436D03*
D44*
X590946Y59436D03*
D37*
X616092Y59436D03*
X645556Y59436D03*
D33*
X679846Y59436D03*
D96*
X708802Y59436D03*
D33*
X515762Y59944D03*
D41*
X527446Y59944D03*
D30*
X545480Y59944D03*
D69*
X554624Y59944D03*
D51*
X570880Y59944D03*
D20*
X591200Y59944D03*
D31*
X615838Y59944D03*
D36*
X645556Y59944D03*
D33*
X679846Y59944D03*
D96*
X708802Y59944D03*
D33*
X515762Y60452D03*
D37*
X523636Y60452D03*
D28*
X529986Y60452D03*
D29*
X545734Y60452D03*
D67*
X554370Y60452D03*
D51*
X570880Y60452D03*
D20*
X591200Y60452D03*
D36*
X615584Y60452D03*
D33*
X645302Y60452D03*
X679846Y60452D03*
D96*
X708802Y60452D03*
D33*
X515762Y60960D03*
D31*
X523382Y60960D03*
D40*
X530494Y60960D03*
D33*
X545734Y60960D03*
D61*
X553862Y60960D03*
D51*
X570880Y60960D03*
D20*
X591200Y60960D03*
D36*
X615584Y60960D03*
D33*
X645302Y60960D03*
X679846Y60960D03*
D96*
X708802Y60960D03*
D33*
X515762Y61468D03*
D36*
X523128Y61468D03*
D34*
X531256Y61468D03*
D36*
X545480Y61468D03*
D39*
X553608Y61468D03*
D32*
X571134Y61468D03*
D38*
X591454Y61468D03*
D33*
X615330Y61468D03*
X644794Y61468D03*
X679846Y61468D03*
D96*
X708802Y61468D03*
D33*
X515762Y61976D03*
D36*
X523128Y61976D03*
D30*
X531764Y61976D03*
D27*
X551576Y61976D03*
D32*
X571134Y61976D03*
D20*
X591708Y61976D03*
D33*
X615330Y61976D03*
X644794Y61976D03*
X679846Y61976D03*
D75*
X708548Y61976D03*
D33*
X515762Y62484D03*
D34*
X523128Y62484D03*
D30*
X536844Y62484D03*
D25*
X551322Y62484D03*
D27*
X571388Y62484D03*
D38*
X591962Y62484D03*
D36*
X615076Y62484D03*
X644540Y62484D03*
X679592Y62484D03*
D75*
X708548Y62484D03*
D33*
X515762Y62992D03*
D34*
X523128Y62992D03*
D33*
X537098Y62992D03*
D25*
X551322Y62992D03*
D27*
X571388Y62992D03*
D38*
X591962Y62992D03*
D36*
X614568Y62992D03*
D31*
X644286Y62992D03*
D37*
X679592Y62992D03*
D46*
X708294Y62992D03*
D36*
X516016Y63500D03*
D29*
X522874Y63500D03*
D37*
X537352Y63500D03*
D23*
X551068Y63500D03*
D25*
X571642Y63500D03*
D20*
X592216Y63500D03*
D37*
X614060Y63500D03*
X643524Y63500D03*
D42*
X679084Y63500D03*
D78*
X707532Y63500D03*
D36*
X516016Y64008D03*
D30*
X522620Y64008D03*
D28*
X538114Y64008D03*
D23*
X551068Y64008D03*
D25*
X571642Y64008D03*
D38*
X592470Y64008D03*
D61*
X610758Y64008D03*
D75*
X635904Y64008D03*
D37*
X657748Y64008D03*
D39*
X676036Y64008D03*
D66*
X704484Y64008D03*
D36*
X516016Y64516D03*
D22*
X538876Y64516D03*
D28*
X545226Y64516D03*
D39*
X553608Y64516D03*
D25*
X571642Y64516D03*
D38*
X592470Y64516D03*
D61*
X610758Y64516D03*
D76*
X635396Y64516D03*
D26*
X657748Y64516D03*
D41*
X676290Y64516D03*
D70*
X704738Y64516D03*
D36*
X516016Y65024D03*
D35*
X541162Y65024D03*
D64*
X554116Y65024D03*
D23*
X571896Y65024D03*
D38*
X592978Y65024D03*
D64*
X611012Y65024D03*
D88*
X635142Y65024D03*
D24*
X658002Y65024D03*
D39*
X676544Y65024D03*
D70*
X704738Y65024D03*
D31*
X516270Y65532D03*
D33*
X527954Y65532D03*
D43*
X540908Y65532D03*
D69*
X554624Y65532D03*
D23*
X571896Y65532D03*
D38*
X592978Y65532D03*
D67*
X610758Y65532D03*
D88*
X635142Y65532D03*
D38*
X658002Y65532D03*
D41*
X676798Y65532D03*
D70*
X704738Y65532D03*
D31*
X516270Y66040D03*
D37*
X528716Y66040D03*
D43*
X540400Y66040D03*
D20*
X555132Y66040D03*
D45*
X572150Y66040D03*
D38*
X593486Y66040D03*
D69*
X611012Y66040D03*
D78*
X634888Y66040D03*
D38*
X658002Y66040D03*
D41*
X676798Y66040D03*
D74*
X704992Y66040D03*
D31*
X516270Y66548D03*
D26*
X529224Y66548D03*
D43*
X540400Y66548D03*
D24*
X555386Y66548D03*
D45*
X572150Y66548D03*
D38*
X593486Y66548D03*
D69*
X611012Y66548D03*
D61*
X640222Y66548D03*
D20*
X658256Y66548D03*
D39*
X677052Y66548D03*
D74*
X704992Y66548D03*
D31*
X516270Y67056D03*
D22*
X529732Y67056D03*
D42*
X536336Y67056D03*
D22*
X542432Y67056D03*
D28*
X555894Y67056D03*
D45*
X572150Y67056D03*
D38*
X593486Y67056D03*
D69*
X611012Y67056D03*
D44*
X641238Y67056D03*
D20*
X658256Y67056D03*
D41*
X677306Y67056D03*
D77*
X705246Y67056D03*
D37*
X516524Y67564D03*
D29*
X523890Y67564D03*
D35*
X532018Y67564D03*
D28*
X542686Y67564D03*
D40*
X556402Y67564D03*
D72*
X572404Y67564D03*
D38*
X593994Y67564D03*
D44*
X611266Y67564D03*
D38*
X641746Y67564D03*
D69*
X658256Y67564D03*
D39*
X677560Y67564D03*
D77*
X705246Y67564D03*
D37*
X516524Y68072D03*
D51*
X530748Y68072D03*
D37*
X542940Y68072D03*
D42*
X556148Y68072D03*
D21*
X572150Y68072D03*
D38*
X593994Y68072D03*
D44*
X611266Y68072D03*
D24*
X642254Y68072D03*
D44*
X658510Y68072D03*
D41*
X677814Y68072D03*
D77*
X705246Y68072D03*
D37*
X516524Y68580D03*
D36*
X525160Y68580D03*
D61*
X532526Y68580D03*
D31*
X543194Y68580D03*
D42*
X556148Y68580D03*
D73*
X572404Y68580D03*
D38*
X594502Y68580D03*
D44*
X611774Y68580D03*
D26*
X642508Y68580D03*
D44*
X658510Y68580D03*
D41*
X677814Y68580D03*
D80*
X705500Y68580D03*
D40*
X516778Y69088D03*
D33*
X525414Y69088D03*
D69*
X532780Y69088D03*
D34*
X543448Y69088D03*
D28*
X555894Y69088D03*
D73*
X572404Y69088D03*
D38*
X594502Y69088D03*
D44*
X611774Y69088D03*
D28*
X642762Y69088D03*
D69*
X658764Y69088D03*
D39*
X678068Y69088D03*
D80*
X705500Y69088D03*
D40*
X516778Y69596D03*
D33*
X525414Y69596D03*
D38*
X533034Y69596D03*
D42*
X555640Y69596D03*
D73*
X572404Y69596D03*
D20*
X594756Y69596D03*
D44*
X611774Y69596D03*
D28*
X643270Y69596D03*
D69*
X658764Y69596D03*
D41*
X678322Y69596D03*
D82*
X705754Y69596D03*
D40*
X516778Y70104D03*
D33*
X525414Y70104D03*
D24*
X533542Y70104D03*
D29*
X549290Y70104D03*
D28*
X555386Y70104D03*
D96*
X572658Y70104D03*
D38*
X595010Y70104D03*
D20*
X612028Y70104D03*
D42*
X643524Y70104D03*
D67*
X659018Y70104D03*
D39*
X678576Y70104D03*
D82*
X705754Y70104D03*
D42*
X517032Y70612D03*
D34*
X525668Y70612D03*
D28*
X533542Y70612D03*
D36*
X549544Y70612D03*
D28*
X555386Y70612D03*
D75*
X572404Y70612D03*
D38*
X595010Y70612D03*
D20*
X612028Y70612D03*
D42*
X643524Y70612D03*
D69*
X659272Y70612D03*
D41*
X678830Y70612D03*
D82*
X705754Y70612D03*
D42*
X517032Y71120D03*
D29*
X525922Y71120D03*
D31*
X534050Y71120D03*
D40*
X549798Y71120D03*
D26*
X555132Y71120D03*
D46*
X572658Y71120D03*
D38*
X595518Y71120D03*
X612282Y71120D03*
D40*
X643778Y71120D03*
D69*
X659272Y71120D03*
D41*
X678830Y71120D03*
D83*
X706008Y71120D03*
D28*
X517286Y71628D03*
D29*
X525922Y71628D03*
D36*
X534304Y71628D03*
D64*
X552592Y71628D03*
D46*
X572658Y71628D03*
D38*
X595518Y71628D03*
D20*
X612536Y71628D03*
D42*
X644032Y71628D03*
D69*
X659780Y71628D03*
D39*
X679084Y71628D03*
D83*
X706008Y71628D03*
D28*
X517286Y72136D03*
D30*
X526176Y72136D03*
D29*
X534558Y72136D03*
D61*
X552338Y72136D03*
D46*
X572658Y72136D03*
D38*
X596026Y72136D03*
D20*
X612536Y72136D03*
D40*
X644286Y72136D03*
D69*
X659780Y72136D03*
D41*
X679338Y72136D03*
D81*
X706262Y72136D03*
D26*
X517540Y72644D03*
D30*
X526176Y72644D03*
D29*
X540146Y72644D03*
D61*
X551830Y72644D03*
D88*
X572658Y72644D03*
D38*
X596026Y72644D03*
X612790Y72644D03*
D40*
X644286Y72644D03*
D69*
X660288Y72644D03*
D39*
X679592Y72644D03*
D81*
X706262Y72644D03*
D26*
X517540Y73152D03*
D34*
X540400Y73152D03*
D39*
X551576Y73152D03*
D88*
X572658Y73152D03*
D22*
X596280Y73152D03*
D20*
X613044Y73152D03*
D42*
X628792Y73152D03*
X644540Y73152D03*
D69*
X660288Y73152D03*
D41*
X679846Y73152D03*
D84*
X706516Y73152D03*
D24*
X517794Y73660D03*
D31*
X540654Y73660D03*
D39*
X551576Y73660D03*
D78*
X572912Y73660D03*
D22*
X596280Y73660D03*
D38*
X613298Y73660D03*
D22*
X629808Y73660D03*
D42*
X644540Y73660D03*
D44*
X660542Y73660D03*
D41*
X679846Y73660D03*
D84*
X706516Y73660D03*
D24*
X517794Y74168D03*
D42*
X540908Y74168D03*
D39*
X551068Y74168D03*
D91*
X572658Y74168D03*
D22*
X596788Y74168D03*
D38*
X613298Y74168D03*
D22*
X630316Y74168D03*
D42*
X645048Y74168D03*
D20*
X660796Y74168D03*
D41*
X680354Y74168D03*
D84*
X706516Y74168D03*
D22*
X518048Y74676D03*
D28*
X541162Y74676D03*
D41*
X550814Y74676D03*
D91*
X572658Y74676D03*
D24*
X597042Y74676D03*
D20*
X613552Y74676D03*
D24*
X630570Y74676D03*
D42*
X645048Y74676D03*
D38*
X661050Y74676D03*
D41*
X680354Y74676D03*
D85*
X706770Y74676D03*
D22*
X518048Y75184D03*
D73*
X547004Y75184D03*
D85*
X572658Y75184D03*
D28*
X597042Y75184D03*
D38*
X613806Y75184D03*
D26*
X630824Y75184D03*
X645048Y75184D03*
D22*
X661304Y75184D03*
D39*
X680608Y75184D03*
D85*
X706770Y75184D03*
D38*
X518302Y75692D03*
D29*
X531510Y75692D03*
D73*
X546496Y75692D03*
D85*
X572658Y75692D03*
D37*
X597296Y75692D03*
D20*
X614060Y75692D03*
D28*
X631078Y75692D03*
D26*
X645048Y75692D03*
X661304Y75692D03*
D44*
X679338Y75692D03*
D72*
X709564Y75692D03*
D20*
X518556Y76200D03*
D33*
X532018Y76200D03*
D73*
X546496Y76200D03*
D81*
X572658Y76200D03*
D30*
X597296Y76200D03*
D44*
X614314Y76200D03*
D37*
X631332Y76200D03*
D24*
X645302Y76200D03*
D40*
X661558Y76200D03*
D20*
X679084Y76200D03*
D23*
X710072Y76200D03*
D20*
X518556Y76708D03*
D31*
X532526Y76708D03*
D73*
X545988Y76708D03*
D81*
X572658Y76708D03*
D44*
X614314Y76708D03*
D22*
X645556Y76708D03*
D34*
X661812Y76708D03*
D22*
X679084Y76708D03*
D27*
X710580Y76708D03*
D44*
X518810Y77216D03*
D40*
X533034Y77216D03*
D73*
X545480Y77216D03*
D83*
X572404Y77216D03*
D69*
X614568Y77216D03*
D22*
X645556Y77216D03*
D24*
X678830Y77216D03*
D32*
X710834Y77216D03*
D69*
X519064Y77724D03*
D84*
X542432Y77724D03*
D82*
X572658Y77724D03*
D67*
X614822Y77724D03*
D38*
X645810Y77724D03*
D26*
X679084Y77724D03*
D32*
X710834Y77724D03*
D69*
X519064Y78232D03*
D81*
X542178Y78232D03*
D83*
X572912Y78232D03*
D67*
X614822Y78232D03*
D20*
X646064Y78232D03*
D26*
X679084Y78232D03*
D51*
X711088Y78232D03*
D67*
X519318Y78740D03*
D85*
X542178Y78740D03*
D83*
X573420Y78740D03*
D64*
X615076Y78740D03*
D69*
X646064Y78740D03*
D28*
X678830Y78740D03*
D51*
X711088Y78740D03*
D64*
X519572Y79248D03*
D78*
X542432Y79248D03*
D81*
X573674Y79248D03*
D39*
X615076Y79248D03*
D67*
X646318Y79248D03*
D28*
X679338Y79248D03*
D95*
X711342Y79248D03*
D61*
X519826Y79756D03*
D76*
X542432Y79756D03*
D81*
X573674Y79756D03*
D41*
X615330Y79756D03*
D61*
X646318Y79756D03*
D28*
X679338Y79756D03*
D95*
X711342Y79756D03*
D39*
X520080Y80264D03*
D75*
X542432Y80264D03*
D81*
X574182Y80264D03*
D43*
X615584Y80264D03*
D41*
X646318Y80264D03*
D28*
X679338Y80264D03*
D95*
X711342Y80264D03*
D41*
X520334Y80772D03*
D72*
X542432Y80772D03*
D84*
X574436Y80772D03*
D95*
X615838Y80772D03*
D43*
X646572Y80772D03*
D28*
X679338Y80772D03*
D95*
X711342Y80772D03*
D43*
X520588Y81280D03*
D25*
X542686Y81280D03*
D81*
X574690Y81280D03*
D32*
X615838Y81280D03*
D53*
X646572Y81280D03*
D26*
X679592Y81280D03*
D95*
X711342Y81280D03*
D35*
X520842Y81788D03*
D51*
X542432Y81788D03*
D84*
X574944Y81788D03*
D29*
X595010Y81788D03*
D25*
X615838Y81788D03*
D27*
X646572Y81788D03*
D29*
X668162Y81788D03*
D24*
X679338Y81788D03*
D51*
X711088Y81788D03*
D53*
X521096Y82296D03*
D41*
X542686Y82296D03*
D84*
X575452Y82296D03*
D34*
X595264Y82296D03*
D72*
X616092Y82296D03*
D23*
X646572Y82296D03*
D34*
X667908Y82296D03*
D38*
X679338Y82296D03*
D51*
X711088Y82296D03*
D95*
X521350Y82804D03*
D44*
X542686Y82804D03*
D84*
X575960Y82804D03*
D31*
X595518Y82804D03*
D96*
X616346Y82804D03*
D73*
X646572Y82804D03*
D37*
X667908Y82804D03*
D44*
X679846Y82804D03*
D32*
X710834Y82804D03*
D51*
X521604Y83312D03*
D37*
X542940Y83312D03*
D83*
X576468Y83312D03*
D28*
X595518Y83312D03*
D88*
X616346Y83312D03*
D76*
X646572Y83312D03*
D42*
X667908Y83312D03*
D64*
X679592Y83312D03*
D27*
X710580Y83312D03*
D32*
X521858Y83820D03*
D80*
X577484Y83820D03*
D44*
X595518Y83820D03*
D81*
X616854Y83820D03*
D84*
X646572Y83820D03*
D20*
X667908Y83820D03*
D53*
X680100Y83820D03*
D72*
X709564Y83820D03*
D25*
X522366Y84328D03*
D97*
X627522Y84328D03*
D75*
X708548Y84328D03*
D23*
X522620Y84836D03*
D98*
X627776Y84836D03*
D96*
X708802Y84836D03*
D72*
X523128Y85344D03*
D97*
X628030Y85344D03*
D96*
X708802Y85344D03*
D73*
X523636Y85852D03*
D97*
X628538Y85852D03*
D73*
X709056Y85852D03*
D96*
X523890Y86360D03*
D97*
X628538Y86360D03*
D73*
X709056Y86360D03*
D96*
X523890Y86868D03*
D99*
X628792Y86868D03*
D73*
X709056Y86868D03*
D96*
X523890Y87376D03*
D99*
X629300Y87376D03*
D21*
X709310Y87376D03*
D96*
X523890Y87884D03*
D100*
X629554Y87884D03*
D21*
X709310Y87884D03*
D96*
X523890Y88392D03*
D99*
X629808Y88392D03*
D21*
X709310Y88392D03*
D96*
X523890Y88900D03*
D100*
X630062Y88900D03*
D72*
X709564Y88900D03*
D96*
X523890Y89408D03*
D100*
X630570Y89408D03*
D72*
X709564Y89408D03*
D96*
X523890Y89916D03*
D100*
X630570Y89916D03*
D72*
X709564Y89916D03*
D96*
X523890Y90424D03*
D100*
X631078Y90424D03*
D72*
X709564Y90424D03*
D96*
X523890Y90932D03*
D29*
X557926Y90932D03*
D101*
X631332Y90932D03*
D72*
X709564Y90932D03*
D96*
X523890Y91440D03*
D37*
X559196Y91440D03*
D101*
X631840Y91440D03*
D21*
X709310Y91440D03*
D96*
X523890Y91948D03*
D24*
X560466Y91948D03*
D100*
X632094Y91948D03*
D21*
X709310Y91948D03*
D96*
X523890Y92456D03*
D67*
X561482Y92456D03*
D100*
X632602Y92456D03*
D73*
X709056Y92456D03*
D96*
X523890Y92964D03*
D41*
X562498Y92964D03*
D99*
X633364Y92964D03*
D96*
X708802Y92964D03*
X523890Y93472D03*
D51*
X563768Y93472D03*
D102*
X644794Y93472D03*
D96*
X523890Y93980D03*
D103*
X637428Y93980D03*
D73*
X523636Y94488D03*
D31*
X557926Y94488D03*
D92*
X639968Y94488D03*
D73*
X523636Y94996D03*
D30*
X542940Y94996D03*
D36*
X557672Y94996D03*
D94*
X640476Y94996D03*
D73*
X523636Y95504D03*
D34*
X542940Y95504D03*
D36*
X557672Y95504D03*
D104*
X640730Y95504D03*
D73*
X523636Y96012D03*
D36*
X542940Y96012D03*
X557672Y96012D03*
D105*
X640984Y96012D03*
D73*
X523636Y96520D03*
D37*
X542940Y96520D03*
X557672Y96520D03*
D106*
X641238Y96520D03*
D73*
X523636Y97028D03*
D42*
X542940Y97028D03*
D40*
X557926Y97028D03*
D107*
X641746Y97028D03*
D73*
X523636Y97536D03*
D26*
X542940Y97536D03*
D28*
X558434Y97536D03*
D61*
X571134Y97536D03*
D37*
X579516Y97536D03*
D28*
X585866Y97536D03*
D31*
X591962Y97536D03*
D26*
X598312Y97536D03*
D37*
X604408Y97536D03*
D26*
X611012Y97536D03*
D37*
X618124Y97536D03*
X623712Y97536D03*
D42*
X629808Y97536D03*
D26*
X637936Y97536D03*
D29*
X645810Y97536D03*
D40*
X649874Y97536D03*
D42*
X656224Y97536D03*
D40*
X662066Y97536D03*
D29*
X668670Y97536D03*
D33*
X672226Y97536D03*
D29*
X674766Y97536D03*
D22*
X681624Y97536D03*
D26*
X690768Y97536D03*
X698388Y97536D03*
D37*
X704484Y97536D03*
D64*
X713120Y97536D03*
D73*
X523636Y98044D03*
D22*
X542940Y98044D03*
D24*
X558434Y98044D03*
D64*
X570880Y98044D03*
D36*
X579516Y98044D03*
D42*
X586120Y98044D03*
D36*
X592216Y98044D03*
D42*
X598312Y98044D03*
D36*
X604408Y98044D03*
D42*
X611012Y98044D03*
D31*
X617870Y98044D03*
D37*
X623712Y98044D03*
D36*
X629300Y98044D03*
D37*
X638444Y98044D03*
D31*
X649874Y98044D03*
D40*
X655970Y98044D03*
D31*
X662066Y98044D03*
D29*
X672226Y98044D03*
D26*
X682132Y98044D03*
X690768Y98044D03*
D42*
X698388Y98044D03*
D36*
X704484Y98044D03*
D67*
X713374Y98044D03*
D73*
X523636Y98552D03*
D44*
X543194Y98552D03*
D38*
X558942Y98552D03*
D67*
X571134Y98552D03*
D33*
X579770Y98552D03*
D40*
X585866Y98552D03*
D33*
X591962Y98552D03*
D37*
X598312Y98552D03*
D36*
X604408Y98552D03*
D28*
X611266Y98552D03*
D31*
X617870Y98552D03*
X623966Y98552D03*
D33*
X629046Y98552D03*
D36*
X638444Y98552D03*
D31*
X649874Y98552D03*
D40*
X655970Y98552D03*
D36*
X661812Y98552D03*
D29*
X671718Y98552D03*
D42*
X682640Y98552D03*
D26*
X690768Y98552D03*
D42*
X698388Y98552D03*
D33*
X704738Y98552D03*
D67*
X713374Y98552D03*
D73*
X523636Y99060D03*
D69*
X542940Y99060D03*
D33*
X556402Y99060D03*
D31*
X561482Y99060D03*
D44*
X571134Y99060D03*
D34*
X579516Y99060D03*
D37*
X586120Y99060D03*
D33*
X591962Y99060D03*
D37*
X598312Y99060D03*
D34*
X604408Y99060D03*
D28*
X611774Y99060D03*
D37*
X617616Y99060D03*
D31*
X623966Y99060D03*
D34*
X628792Y99060D03*
D33*
X638698Y99060D03*
D37*
X649620Y99060D03*
X656224Y99060D03*
D33*
X661558Y99060D03*
D34*
X671972Y99060D03*
D28*
X683402Y99060D03*
D24*
X690514Y99060D03*
D40*
X698134Y99060D03*
D34*
X704484Y99060D03*
D69*
X713628Y99060D03*
D73*
X523636Y99568D03*
D61*
X543194Y99568D03*
D33*
X556402Y99568D03*
D36*
X562244Y99568D03*
D44*
X571134Y99568D03*
D34*
X579516Y99568D03*
D31*
X585866Y99568D03*
D34*
X592216Y99568D03*
D31*
X598566Y99568D03*
D34*
X604408Y99568D03*
D61*
X614314Y99568D03*
D36*
X623712Y99568D03*
D29*
X628538Y99568D03*
X638698Y99568D03*
D37*
X649620Y99568D03*
D40*
X655970Y99568D03*
D33*
X661558Y99568D03*
D34*
X671972Y99568D03*
D35*
X687466Y99568D03*
D40*
X698134Y99568D03*
D34*
X704484Y99568D03*
D69*
X713628Y99568D03*
D73*
X523636Y100076D03*
D43*
X542940Y100076D03*
D33*
X555894Y100076D03*
D36*
X562752Y100076D03*
D20*
X571388Y100076D03*
D29*
X579770Y100076D03*
D36*
X586120Y100076D03*
D29*
X591962Y100076D03*
D31*
X598566Y100076D03*
D29*
X604662Y100076D03*
D61*
X614314Y100076D03*
D36*
X623712Y100076D03*
D29*
X628538Y100076D03*
D31*
X633618Y100076D03*
D29*
X638698Y100076D03*
D36*
X643524Y100076D03*
D40*
X649366Y100076D03*
X655970Y100076D03*
D33*
X661558Y100076D03*
D31*
X666638Y100076D03*
D33*
X671718Y100076D03*
X676798Y100076D03*
D35*
X687466Y100076D03*
D40*
X698134Y100076D03*
D29*
X704738Y100076D03*
D44*
X713882Y100076D03*
D73*
X523636Y100584D03*
D53*
X542940Y100584D03*
D33*
X555894Y100584D03*
X563006Y100584D03*
D20*
X571388Y100584D03*
D29*
X579770Y100584D03*
D36*
X586120Y100584D03*
D30*
X592216Y100584D03*
D36*
X598312Y100584D03*
D30*
X604408Y100584D03*
D64*
X614568Y100584D03*
D36*
X623712Y100584D03*
D29*
X628030Y100584D03*
D42*
X633872Y100584D03*
D34*
X638444Y100584D03*
D31*
X643270Y100584D03*
D40*
X649366Y100584D03*
X655970Y100584D03*
D34*
X661304Y100584D03*
D31*
X666638Y100584D03*
D33*
X671718Y100584D03*
D40*
X676798Y100584D03*
D43*
X687720Y100584D03*
D40*
X698134Y100584D03*
D29*
X704738Y100584D03*
D44*
X713882Y100584D03*
D73*
X523636Y101092D03*
D42*
X538368Y101092D03*
D38*
X546242Y101092D03*
D36*
X556148Y101092D03*
D33*
X563514Y101092D03*
D22*
X571388Y101092D03*
D29*
X579770Y101092D03*
D36*
X586120Y101092D03*
D30*
X592216Y101092D03*
D33*
X598566Y101092D03*
D30*
X604408Y101092D03*
D64*
X614568Y101092D03*
D36*
X623712Y101092D03*
D29*
X628030Y101092D03*
D24*
X636158Y101092D03*
D31*
X643270Y101092D03*
D40*
X649366Y101092D03*
X655970Y101092D03*
D34*
X661304Y101092D03*
D37*
X666384Y101092D03*
D33*
X671718Y101092D03*
D42*
X677052Y101092D03*
D43*
X687720Y101092D03*
D37*
X697880Y101092D03*
D30*
X704992Y101092D03*
D44*
X713882Y101092D03*
D73*
X523636Y101600D03*
D42*
X537860Y101600D03*
D38*
X546750Y101600D03*
D31*
X556402Y101600D03*
D33*
X563514Y101600D03*
D22*
X571388Y101600D03*
D33*
X586374Y101600D03*
X598566Y101600D03*
D64*
X614568Y101600D03*
D36*
X623712Y101600D03*
D29*
X628030Y101600D03*
D42*
X636412Y101600D03*
D31*
X643270Y101600D03*
D40*
X649366Y101600D03*
X655970Y101600D03*
D34*
X661304Y101600D03*
D37*
X666384Y101600D03*
D33*
X671718Y101600D03*
D42*
X677052Y101600D03*
D43*
X687720Y101600D03*
D37*
X697880Y101600D03*
D20*
X714136Y101600D03*
D73*
X523636Y102108D03*
D28*
X537606Y102108D03*
D20*
X547004Y102108D03*
D42*
X556656Y102108D03*
D33*
X564022Y102108D03*
D24*
X571642Y102108D03*
D30*
X577484Y102108D03*
X582564Y102108D03*
D34*
X586120Y102108D03*
D30*
X594756Y102108D03*
D33*
X598566Y102108D03*
D67*
X614822Y102108D03*
D36*
X623712Y102108D03*
D29*
X628030Y102108D03*
D37*
X636920Y102108D03*
D31*
X643270Y102108D03*
D40*
X649366Y102108D03*
X655970Y102108D03*
D34*
X661304Y102108D03*
D37*
X666384Y102108D03*
D33*
X671718Y102108D03*
D42*
X677052Y102108D03*
D43*
X687720Y102108D03*
D37*
X697880Y102108D03*
D30*
X707532Y102108D03*
D20*
X714136Y102108D03*
D73*
X523636Y102616D03*
D28*
X537098Y102616D03*
D44*
X547258Y102616D03*
D28*
X556910Y102616D03*
D33*
X564022Y102616D03*
D24*
X571642Y102616D03*
D30*
X577484Y102616D03*
X582564Y102616D03*
D34*
X586120Y102616D03*
D30*
X589676Y102616D03*
X594756Y102616D03*
D33*
X598566Y102616D03*
D30*
X602376Y102616D03*
D29*
X607202Y102616D03*
D67*
X614822Y102616D03*
D33*
X623966Y102616D03*
D29*
X628030Y102616D03*
D31*
X637682Y102616D03*
X643270Y102616D03*
D40*
X649366Y102616D03*
X655970Y102616D03*
D34*
X661304Y102616D03*
D31*
X666638Y102616D03*
D33*
X671718Y102616D03*
D42*
X677052Y102616D03*
D43*
X687720Y102616D03*
D37*
X697880Y102616D03*
D30*
X702452Y102616D03*
X707532Y102616D03*
D20*
X714136Y102616D03*
D73*
X523636Y103124D03*
D26*
X536844Y103124D03*
D33*
X544210Y103124D03*
D42*
X549544Y103124D03*
X557672Y103124D03*
D33*
X564530Y103124D03*
D24*
X571642Y103124D03*
D30*
X577484Y103124D03*
X582564Y103124D03*
D34*
X586120Y103124D03*
D29*
X589930Y103124D03*
X595010Y103124D03*
X598566Y103124D03*
D30*
X602376Y103124D03*
D29*
X607202Y103124D03*
D67*
X614822Y103124D03*
D33*
X623966Y103124D03*
D29*
X628030Y103124D03*
D30*
X631840Y103124D03*
D36*
X637936Y103124D03*
D31*
X643270Y103124D03*
D40*
X649366Y103124D03*
X655970Y103124D03*
D33*
X661558Y103124D03*
D31*
X666638Y103124D03*
D33*
X671718Y103124D03*
D42*
X677052Y103124D03*
D43*
X687720Y103124D03*
D37*
X697880Y103124D03*
D30*
X702452Y103124D03*
X707532Y103124D03*
D20*
X714136Y103124D03*
D73*
X523636Y103632D03*
D24*
X536590Y103632D03*
D33*
X543702Y103632D03*
D40*
X549798Y103632D03*
D37*
X558180Y103632D03*
D33*
X564530Y103632D03*
D24*
X571642Y103632D03*
D29*
X577738Y103632D03*
X582310Y103632D03*
X586374Y103632D03*
X589930Y103632D03*
X595010Y103632D03*
X598566Y103632D03*
X602122Y103632D03*
X607202Y103632D03*
D67*
X614822Y103632D03*
D34*
X624220Y103632D03*
X628284Y103632D03*
D33*
X632602Y103632D03*
X638190Y103632D03*
D36*
X643524Y103632D03*
D40*
X649366Y103632D03*
X655970Y103632D03*
D33*
X661558Y103632D03*
D36*
X666892Y103632D03*
D33*
X671718Y103632D03*
D42*
X677052Y103632D03*
D43*
X687720Y103632D03*
D37*
X697880Y103632D03*
D29*
X702706Y103632D03*
X707786Y103632D03*
D38*
X714390Y103632D03*
D73*
X523636Y104140D03*
D22*
X536336Y104140D03*
D33*
X543702Y104140D03*
D37*
X549544Y104140D03*
X558688Y104140D03*
D33*
X564530Y104140D03*
D26*
X571388Y104140D03*
D29*
X577738Y104140D03*
D34*
X582564Y104140D03*
D29*
X586374Y104140D03*
X589930Y104140D03*
X595010Y104140D03*
X598566Y104140D03*
D34*
X602376Y104140D03*
D29*
X607202Y104140D03*
D69*
X615076Y104140D03*
D29*
X624474Y104140D03*
D34*
X628284Y104140D03*
D36*
X633364Y104140D03*
D33*
X638698Y104140D03*
X643778Y104140D03*
D40*
X649366Y104140D03*
X655970Y104140D03*
D33*
X661558Y104140D03*
X667146Y104140D03*
X671718Y104140D03*
D31*
X677306Y104140D03*
D43*
X687720Y104140D03*
D31*
X697626Y104140D03*
D29*
X702706Y104140D03*
D34*
X707532Y104140D03*
D38*
X714390Y104140D03*
D82*
X526938Y104648D03*
D33*
X543702Y104648D03*
D31*
X549290Y104648D03*
X558942Y104648D03*
D34*
X564784Y104648D03*
D28*
X571642Y104648D03*
D29*
X577738Y104648D03*
D34*
X582564Y104648D03*
D29*
X586374Y104648D03*
D34*
X590184Y104648D03*
X594756Y104648D03*
D30*
X598820Y104648D03*
D34*
X602376Y104648D03*
X607456Y104648D03*
D69*
X615076Y104648D03*
D33*
X628538Y104648D03*
X638698Y104648D03*
D36*
X648604Y104648D03*
D33*
X656986Y104648D03*
D36*
X661812Y104648D03*
D33*
X671718Y104648D03*
D39*
X686704Y104648D03*
D29*
X698642Y104648D03*
X702706Y104648D03*
D34*
X707532Y104648D03*
D38*
X714390Y104648D03*
D82*
X526938Y105156D03*
D33*
X543194Y105156D03*
D36*
X549036Y105156D03*
D31*
X558942Y105156D03*
D34*
X564784Y105156D03*
D28*
X571642Y105156D03*
D33*
X577738Y105156D03*
D34*
X582564Y105156D03*
D30*
X586120Y105156D03*
D34*
X590184Y105156D03*
D33*
X595010Y105156D03*
D30*
X598820Y105156D03*
D34*
X602376Y105156D03*
X607456Y105156D03*
D69*
X615076Y105156D03*
D33*
X628538Y105156D03*
D36*
X638952Y105156D03*
D29*
X648350Y105156D03*
D34*
X657240Y105156D03*
D31*
X662066Y105156D03*
D33*
X671718Y105156D03*
D61*
X685942Y105156D03*
D30*
X698896Y105156D03*
D34*
X702960Y105156D03*
X707532Y105156D03*
D22*
X714644Y105156D03*
D82*
X526938Y105664D03*
D33*
X543194Y105664D03*
D31*
X548782Y105664D03*
X559450Y105664D03*
D34*
X564784Y105664D03*
D28*
X571642Y105664D03*
D33*
X577738Y105664D03*
D34*
X582564Y105664D03*
X590184Y105664D03*
D33*
X595010Y105664D03*
D30*
X598820Y105664D03*
D33*
X602630Y105664D03*
X607202Y105664D03*
D69*
X615076Y105664D03*
D31*
X628538Y105664D03*
D37*
X638952Y105664D03*
D34*
X648096Y105664D03*
D29*
X657494Y105664D03*
D31*
X662066Y105664D03*
D33*
X671718Y105664D03*
D64*
X685688Y105664D03*
D33*
X702706Y105664D03*
X707786Y105664D03*
D22*
X714644Y105664D03*
D82*
X526938Y106172D03*
D33*
X543194Y106172D03*
D31*
X548782Y106172D03*
X559450Y106172D03*
D34*
X564784Y106172D03*
D28*
X571642Y106172D03*
D33*
X577738Y106172D03*
D36*
X582564Y106172D03*
X590184Y106172D03*
D33*
X595010Y106172D03*
D30*
X598820Y106172D03*
D33*
X602630Y106172D03*
X607202Y106172D03*
D44*
X615330Y106172D03*
D37*
X628792Y106172D03*
D42*
X638952Y106172D03*
D34*
X648096Y106172D03*
D29*
X657494Y106172D03*
D40*
X662574Y106172D03*
D36*
X671464Y106172D03*
D61*
X685434Y106172D03*
D30*
X698896Y106172D03*
D33*
X702706Y106172D03*
D36*
X707532Y106172D03*
D22*
X714644Y106172D03*
D82*
X526938Y106680D03*
D33*
X543194Y106680D03*
D31*
X548782Y106680D03*
X559450Y106680D03*
D34*
X564784Y106680D03*
D26*
X571896Y106680D03*
D36*
X577992Y106680D03*
X582564Y106680D03*
D29*
X586374Y106680D03*
D36*
X590184Y106680D03*
D31*
X595010Y106680D03*
D30*
X598820Y106680D03*
D31*
X602630Y106680D03*
X607202Y106680D03*
D67*
X615330Y106680D03*
D34*
X622696Y106680D03*
D28*
X629046Y106680D03*
D24*
X639206Y106680D03*
D36*
X647588Y106680D03*
D34*
X657240Y106680D03*
D28*
X663082Y106680D03*
D31*
X671210Y106680D03*
D30*
X675020Y106680D03*
D43*
X685180Y106680D03*
D29*
X699150Y106680D03*
D36*
X702960Y106680D03*
X707532Y106680D03*
D38*
X714390Y106680D03*
D82*
X526938Y107188D03*
D33*
X543194Y107188D03*
D31*
X548782Y107188D03*
D36*
X559196Y107188D03*
D34*
X564784Y107188D03*
D108*
X594502Y107188D03*
D56*
X636666Y107188D03*
D40*
X655970Y107188D03*
D35*
X666638Y107188D03*
D96*
X683910Y107188D03*
D79*
X707024Y107188D03*
D82*
X526938Y107696D03*
D33*
X543194Y107696D03*
D31*
X548782Y107696D03*
D36*
X559196Y107696D03*
D34*
X564784Y107696D03*
D109*
X609996Y107696D03*
D40*
X655970Y107696D03*
D35*
X666638Y107696D03*
D96*
X683910Y107696D03*
D79*
X707024Y107696D03*
D82*
X526938Y108204D03*
D33*
X543194Y108204D03*
D31*
X548782Y108204D03*
X558942Y108204D03*
D33*
X564530Y108204D03*
D109*
X609996Y108204D03*
D40*
X655970Y108204D03*
D35*
X666638Y108204D03*
D96*
X683910Y108204D03*
D79*
X707024Y108204D03*
D82*
X526938Y108712D03*
D34*
X543448Y108712D03*
D31*
X549290Y108712D03*
X558942Y108712D03*
D33*
X564530Y108712D03*
D109*
X609996Y108712D03*
D40*
X655970Y108712D03*
D35*
X666638Y108712D03*
D96*
X683910Y108712D03*
D79*
X707024Y108712D03*
D80*
X527192Y109220D03*
D33*
X543702Y109220D03*
D37*
X549544Y109220D03*
X558688Y109220D03*
D33*
X564022Y109220D03*
D109*
X609996Y109220D03*
D40*
X655970Y109220D03*
D35*
X666638Y109220D03*
D96*
X683910Y109220D03*
D85*
X706770Y109220D03*
D80*
X527192Y109728D03*
D33*
X543702Y109728D03*
D37*
X550052Y109728D03*
D42*
X558688Y109728D03*
D36*
X563768Y109728D03*
D109*
X609996Y109728D03*
D42*
X655716Y109728D03*
D35*
X666638Y109728D03*
D75*
X684164Y109728D03*
D85*
X706770Y109728D03*
D80*
X527192Y110236D03*
D34*
X543956Y110236D03*
D40*
X550814Y110236D03*
D64*
X560212Y110236D03*
D110*
X613044Y110236D03*
D35*
X666638Y110236D03*
D111*
X696356Y110236D03*
D80*
X527192Y110744D03*
D33*
X544210Y110744D03*
D23*
X557164Y110744D03*
D110*
X613044Y110744D03*
D35*
X666638Y110744D03*
D111*
X696356Y110744D03*
D77*
X527446Y111252D03*
D36*
X544464Y111252D03*
D27*
X557672Y111252D03*
D112*
X612790Y111252D03*
D35*
X666638Y111252D03*
D111*
X696356Y111252D03*
D77*
X527446Y111760D03*
D33*
X544718Y111760D03*
D27*
X558180Y111760D03*
D113*
X612790Y111760D03*
D95*
X666638Y111760D03*
D111*
X696356Y111760D03*
D77*
X527446Y112268D03*
D33*
X545226Y112268D03*
D114*
X634634Y112268D03*
D74*
X527700Y112776D03*
D36*
X545480Y112776D03*
D114*
X634634Y112776D03*
D70*
X527954Y113284D03*
D36*
X545988Y113284D03*
D115*
X634380Y113284D03*
D70*
X527954Y113792D03*
D31*
X546750Y113792D03*
D116*
X634126Y113792D03*
D66*
X528208Y114300D03*
D117*
X631840Y114300D03*
D63*
X528462Y114808D03*
D50*
X632094Y114808D03*
D63*
X528462Y115316D03*
D52*
X632602Y115316D03*
D60*
X528716Y115824D03*
D54*
X633110Y115824D03*
D58*
X528970Y116332D03*
D118*
X633364Y116332D03*
D119*
X529224Y116840D03*
D120*
X633618Y116840D03*
D121*
X529732Y117348D03*
D120*
X633618Y117348D03*
D122*
X529986Y117856D03*
D118*
X633364Y117856D03*
D123*
X530494Y118364D03*
D54*
X633110Y118364D03*
D19*
X616346Y118872D03*
M02*
