G04 EAGLE Gerber RS-274X export*
G75*
%MOMM*%
%FSLAX34Y34*%
%LPD*%
%INSolderpaste Top*%
%IPPOS*%
%AMOC8*
5,1,8,0,0,1.08239X$1,22.5*%
G01*
%ADD10R,1.200000X1.200000*%
%ADD11R,1.300000X1.500000*%
%ADD12C,0.198000*%
%ADD13R,0.250000X1.250000*%
%ADD14R,1.650000X2.050000*%


D10*
X16500Y280000D03*
X37500Y280000D03*
X16500Y245000D03*
X37500Y245000D03*
X16500Y210000D03*
X37500Y210000D03*
X16500Y175000D03*
X37500Y175000D03*
X16500Y140000D03*
X37500Y140000D03*
X16500Y105000D03*
X37500Y105000D03*
X16500Y70000D03*
X37500Y70000D03*
X16500Y35000D03*
X37500Y35000D03*
D11*
X86500Y280000D03*
X67500Y280000D03*
X86500Y245000D03*
X67500Y245000D03*
X86500Y210000D03*
X67500Y210000D03*
X86500Y175000D03*
X67500Y175000D03*
X86500Y140000D03*
X67500Y140000D03*
X86500Y105000D03*
X67500Y105000D03*
X86500Y70000D03*
X67500Y70000D03*
X86500Y35000D03*
X67500Y35000D03*
D12*
X256990Y161990D02*
X258010Y161990D01*
X256990Y161990D02*
X256990Y176010D01*
X258010Y176010D01*
X258010Y161990D01*
X258010Y163871D02*
X256990Y163871D01*
X256990Y165752D02*
X258010Y165752D01*
X258010Y167633D02*
X256990Y167633D01*
X256990Y169514D02*
X258010Y169514D01*
X258010Y171395D02*
X256990Y171395D01*
X256990Y173276D02*
X258010Y173276D01*
X258010Y175157D02*
X256990Y175157D01*
X256990Y83990D02*
X258010Y83990D01*
X256990Y83990D02*
X256990Y98010D01*
X258010Y98010D01*
X258010Y83990D01*
X258010Y85871D02*
X256990Y85871D01*
X256990Y87752D02*
X258010Y87752D01*
X258010Y89633D02*
X256990Y89633D01*
X256990Y91514D02*
X258010Y91514D01*
X258010Y93395D02*
X256990Y93395D01*
X256990Y95276D02*
X258010Y95276D01*
X258010Y97157D02*
X256990Y97157D01*
X253010Y161990D02*
X251990Y161990D01*
X251990Y176010D01*
X253010Y176010D01*
X253010Y161990D01*
X253010Y163871D02*
X251990Y163871D01*
X251990Y165752D02*
X253010Y165752D01*
X253010Y167633D02*
X251990Y167633D01*
X251990Y169514D02*
X253010Y169514D01*
X253010Y171395D02*
X251990Y171395D01*
X251990Y173276D02*
X253010Y173276D01*
X253010Y175157D02*
X251990Y175157D01*
X248010Y161990D02*
X246990Y161990D01*
X246990Y176010D01*
X248010Y176010D01*
X248010Y161990D01*
X248010Y163871D02*
X246990Y163871D01*
X246990Y165752D02*
X248010Y165752D01*
X248010Y167633D02*
X246990Y167633D01*
X246990Y169514D02*
X248010Y169514D01*
X248010Y171395D02*
X246990Y171395D01*
X246990Y173276D02*
X248010Y173276D01*
X248010Y175157D02*
X246990Y175157D01*
X243010Y161990D02*
X241990Y161990D01*
X241990Y176010D01*
X243010Y176010D01*
X243010Y161990D01*
X243010Y163871D02*
X241990Y163871D01*
X241990Y165752D02*
X243010Y165752D01*
X243010Y167633D02*
X241990Y167633D01*
X241990Y169514D02*
X243010Y169514D01*
X243010Y171395D02*
X241990Y171395D01*
X241990Y173276D02*
X243010Y173276D01*
X243010Y175157D02*
X241990Y175157D01*
X238010Y161990D02*
X236990Y161990D01*
X236990Y176010D01*
X238010Y176010D01*
X238010Y161990D01*
X238010Y163871D02*
X236990Y163871D01*
X236990Y165752D02*
X238010Y165752D01*
X238010Y167633D02*
X236990Y167633D01*
X236990Y169514D02*
X238010Y169514D01*
X238010Y171395D02*
X236990Y171395D01*
X236990Y173276D02*
X238010Y173276D01*
X238010Y175157D02*
X236990Y175157D01*
X233010Y161990D02*
X231990Y161990D01*
X231990Y176010D01*
X233010Y176010D01*
X233010Y161990D01*
X233010Y163871D02*
X231990Y163871D01*
X231990Y165752D02*
X233010Y165752D01*
X233010Y167633D02*
X231990Y167633D01*
X231990Y169514D02*
X233010Y169514D01*
X233010Y171395D02*
X231990Y171395D01*
X231990Y173276D02*
X233010Y173276D01*
X233010Y175157D02*
X231990Y175157D01*
X228010Y161990D02*
X226990Y161990D01*
X226990Y176010D01*
X228010Y176010D01*
X228010Y161990D01*
X228010Y163871D02*
X226990Y163871D01*
X226990Y165752D02*
X228010Y165752D01*
X228010Y167633D02*
X226990Y167633D01*
X226990Y169514D02*
X228010Y169514D01*
X228010Y171395D02*
X226990Y171395D01*
X226990Y173276D02*
X228010Y173276D01*
X228010Y175157D02*
X226990Y175157D01*
X223010Y161990D02*
X221990Y161990D01*
X221990Y176010D01*
X223010Y176010D01*
X223010Y161990D01*
X223010Y163871D02*
X221990Y163871D01*
X221990Y165752D02*
X223010Y165752D01*
X223010Y167633D02*
X221990Y167633D01*
X221990Y169514D02*
X223010Y169514D01*
X223010Y171395D02*
X221990Y171395D01*
X221990Y173276D02*
X223010Y173276D01*
X223010Y175157D02*
X221990Y175157D01*
X218010Y161990D02*
X216990Y161990D01*
X216990Y176010D01*
X218010Y176010D01*
X218010Y161990D01*
X218010Y163871D02*
X216990Y163871D01*
X216990Y165752D02*
X218010Y165752D01*
X218010Y167633D02*
X216990Y167633D01*
X216990Y169514D02*
X218010Y169514D01*
X218010Y171395D02*
X216990Y171395D01*
X216990Y173276D02*
X218010Y173276D01*
X218010Y175157D02*
X216990Y175157D01*
X213010Y161990D02*
X211990Y161990D01*
X211990Y176010D01*
X213010Y176010D01*
X213010Y161990D01*
X213010Y163871D02*
X211990Y163871D01*
X211990Y165752D02*
X213010Y165752D01*
X213010Y167633D02*
X211990Y167633D01*
X211990Y169514D02*
X213010Y169514D01*
X213010Y171395D02*
X211990Y171395D01*
X211990Y173276D02*
X213010Y173276D01*
X213010Y175157D02*
X211990Y175157D01*
X208010Y161990D02*
X206990Y161990D01*
X206990Y176010D01*
X208010Y176010D01*
X208010Y161990D01*
X208010Y163871D02*
X206990Y163871D01*
X206990Y165752D02*
X208010Y165752D01*
X208010Y167633D02*
X206990Y167633D01*
X206990Y169514D02*
X208010Y169514D01*
X208010Y171395D02*
X206990Y171395D01*
X206990Y173276D02*
X208010Y173276D01*
X208010Y175157D02*
X206990Y175157D01*
X203010Y161990D02*
X201990Y161990D01*
X201990Y176010D01*
X203010Y176010D01*
X203010Y161990D01*
X203010Y163871D02*
X201990Y163871D01*
X201990Y165752D02*
X203010Y165752D01*
X203010Y167633D02*
X201990Y167633D01*
X201990Y169514D02*
X203010Y169514D01*
X203010Y171395D02*
X201990Y171395D01*
X201990Y173276D02*
X203010Y173276D01*
X203010Y175157D02*
X201990Y175157D01*
X198010Y161990D02*
X196990Y161990D01*
X196990Y176010D01*
X198010Y176010D01*
X198010Y161990D01*
X198010Y163871D02*
X196990Y163871D01*
X196990Y165752D02*
X198010Y165752D01*
X198010Y167633D02*
X196990Y167633D01*
X196990Y169514D02*
X198010Y169514D01*
X198010Y171395D02*
X196990Y171395D01*
X196990Y173276D02*
X198010Y173276D01*
X198010Y175157D02*
X196990Y175157D01*
X193010Y161990D02*
X191990Y161990D01*
X191990Y176010D01*
X193010Y176010D01*
X193010Y161990D01*
X193010Y163871D02*
X191990Y163871D01*
X191990Y165752D02*
X193010Y165752D01*
X193010Y167633D02*
X191990Y167633D01*
X191990Y169514D02*
X193010Y169514D01*
X193010Y171395D02*
X191990Y171395D01*
X191990Y173276D02*
X193010Y173276D01*
X193010Y175157D02*
X191990Y175157D01*
X188010Y161990D02*
X186990Y161990D01*
X186990Y176010D01*
X188010Y176010D01*
X188010Y161990D01*
X188010Y163871D02*
X186990Y163871D01*
X186990Y165752D02*
X188010Y165752D01*
X188010Y167633D02*
X186990Y167633D01*
X186990Y169514D02*
X188010Y169514D01*
X188010Y171395D02*
X186990Y171395D01*
X186990Y173276D02*
X188010Y173276D01*
X188010Y175157D02*
X186990Y175157D01*
X183010Y161990D02*
X181990Y161990D01*
X181990Y176010D01*
X183010Y176010D01*
X183010Y161990D01*
X183010Y163871D02*
X181990Y163871D01*
X181990Y165752D02*
X183010Y165752D01*
X183010Y167633D02*
X181990Y167633D01*
X181990Y169514D02*
X183010Y169514D01*
X183010Y171395D02*
X181990Y171395D01*
X181990Y173276D02*
X183010Y173276D01*
X183010Y175157D02*
X181990Y175157D01*
X178010Y161990D02*
X176990Y161990D01*
X176990Y176010D01*
X178010Y176010D01*
X178010Y161990D01*
X178010Y163871D02*
X176990Y163871D01*
X176990Y165752D02*
X178010Y165752D01*
X178010Y167633D02*
X176990Y167633D01*
X176990Y169514D02*
X178010Y169514D01*
X178010Y171395D02*
X176990Y171395D01*
X176990Y173276D02*
X178010Y173276D01*
X178010Y175157D02*
X176990Y175157D01*
X173010Y161990D02*
X171990Y161990D01*
X171990Y176010D01*
X173010Y176010D01*
X173010Y161990D01*
X173010Y163871D02*
X171990Y163871D01*
X171990Y165752D02*
X173010Y165752D01*
X173010Y167633D02*
X171990Y167633D01*
X171990Y169514D02*
X173010Y169514D01*
X173010Y171395D02*
X171990Y171395D01*
X171990Y173276D02*
X173010Y173276D01*
X173010Y175157D02*
X171990Y175157D01*
X168010Y161990D02*
X166990Y161990D01*
X166990Y176010D01*
X168010Y176010D01*
X168010Y161990D01*
X168010Y163871D02*
X166990Y163871D01*
X166990Y165752D02*
X168010Y165752D01*
X168010Y167633D02*
X166990Y167633D01*
X166990Y169514D02*
X168010Y169514D01*
X168010Y171395D02*
X166990Y171395D01*
X166990Y173276D02*
X168010Y173276D01*
X168010Y175157D02*
X166990Y175157D01*
X163010Y161990D02*
X161990Y161990D01*
X161990Y176010D01*
X163010Y176010D01*
X163010Y161990D01*
X163010Y163871D02*
X161990Y163871D01*
X161990Y165752D02*
X163010Y165752D01*
X163010Y167633D02*
X161990Y167633D01*
X161990Y169514D02*
X163010Y169514D01*
X163010Y171395D02*
X161990Y171395D01*
X161990Y173276D02*
X163010Y173276D01*
X163010Y175157D02*
X161990Y175157D01*
X158010Y161990D02*
X156990Y161990D01*
X156990Y176010D01*
X158010Y176010D01*
X158010Y161990D01*
X158010Y163871D02*
X156990Y163871D01*
X156990Y165752D02*
X158010Y165752D01*
X158010Y167633D02*
X156990Y167633D01*
X156990Y169514D02*
X158010Y169514D01*
X158010Y171395D02*
X156990Y171395D01*
X156990Y173276D02*
X158010Y173276D01*
X158010Y175157D02*
X156990Y175157D01*
X153010Y161990D02*
X151990Y161990D01*
X151990Y176010D01*
X153010Y176010D01*
X153010Y161990D01*
X153010Y163871D02*
X151990Y163871D01*
X151990Y165752D02*
X153010Y165752D01*
X153010Y167633D02*
X151990Y167633D01*
X151990Y169514D02*
X153010Y169514D01*
X153010Y171395D02*
X151990Y171395D01*
X151990Y173276D02*
X153010Y173276D01*
X153010Y175157D02*
X151990Y175157D01*
X148010Y161990D02*
X146990Y161990D01*
X146990Y176010D01*
X148010Y176010D01*
X148010Y161990D01*
X148010Y163871D02*
X146990Y163871D01*
X146990Y165752D02*
X148010Y165752D01*
X148010Y167633D02*
X146990Y167633D01*
X146990Y169514D02*
X148010Y169514D01*
X148010Y171395D02*
X146990Y171395D01*
X146990Y173276D02*
X148010Y173276D01*
X148010Y175157D02*
X146990Y175157D01*
X143010Y161990D02*
X141990Y161990D01*
X141990Y176010D01*
X143010Y176010D01*
X143010Y161990D01*
X143010Y163871D02*
X141990Y163871D01*
X141990Y165752D02*
X143010Y165752D01*
X143010Y167633D02*
X141990Y167633D01*
X141990Y169514D02*
X143010Y169514D01*
X143010Y171395D02*
X141990Y171395D01*
X141990Y173276D02*
X143010Y173276D01*
X143010Y175157D02*
X141990Y175157D01*
X251990Y83990D02*
X253010Y83990D01*
X251990Y83990D02*
X251990Y98010D01*
X253010Y98010D01*
X253010Y83990D01*
X253010Y85871D02*
X251990Y85871D01*
X251990Y87752D02*
X253010Y87752D01*
X253010Y89633D02*
X251990Y89633D01*
X251990Y91514D02*
X253010Y91514D01*
X253010Y93395D02*
X251990Y93395D01*
X251990Y95276D02*
X253010Y95276D01*
X253010Y97157D02*
X251990Y97157D01*
X248010Y83990D02*
X246990Y83990D01*
X246990Y98010D01*
X248010Y98010D01*
X248010Y83990D01*
X248010Y85871D02*
X246990Y85871D01*
X246990Y87752D02*
X248010Y87752D01*
X248010Y89633D02*
X246990Y89633D01*
X246990Y91514D02*
X248010Y91514D01*
X248010Y93395D02*
X246990Y93395D01*
X246990Y95276D02*
X248010Y95276D01*
X248010Y97157D02*
X246990Y97157D01*
X243010Y83990D02*
X241990Y83990D01*
X241990Y98010D01*
X243010Y98010D01*
X243010Y83990D01*
X243010Y85871D02*
X241990Y85871D01*
X241990Y87752D02*
X243010Y87752D01*
X243010Y89633D02*
X241990Y89633D01*
X241990Y91514D02*
X243010Y91514D01*
X243010Y93395D02*
X241990Y93395D01*
X241990Y95276D02*
X243010Y95276D01*
X243010Y97157D02*
X241990Y97157D01*
X238010Y83990D02*
X236990Y83990D01*
X236990Y98010D01*
X238010Y98010D01*
X238010Y83990D01*
X238010Y85871D02*
X236990Y85871D01*
X236990Y87752D02*
X238010Y87752D01*
X238010Y89633D02*
X236990Y89633D01*
X236990Y91514D02*
X238010Y91514D01*
X238010Y93395D02*
X236990Y93395D01*
X236990Y95276D02*
X238010Y95276D01*
X238010Y97157D02*
X236990Y97157D01*
X233010Y83990D02*
X231990Y83990D01*
X231990Y98010D01*
X233010Y98010D01*
X233010Y83990D01*
X233010Y85871D02*
X231990Y85871D01*
X231990Y87752D02*
X233010Y87752D01*
X233010Y89633D02*
X231990Y89633D01*
X231990Y91514D02*
X233010Y91514D01*
X233010Y93395D02*
X231990Y93395D01*
X231990Y95276D02*
X233010Y95276D01*
X233010Y97157D02*
X231990Y97157D01*
X228010Y83990D02*
X226990Y83990D01*
X226990Y98010D01*
X228010Y98010D01*
X228010Y83990D01*
X228010Y85871D02*
X226990Y85871D01*
X226990Y87752D02*
X228010Y87752D01*
X228010Y89633D02*
X226990Y89633D01*
X226990Y91514D02*
X228010Y91514D01*
X228010Y93395D02*
X226990Y93395D01*
X226990Y95276D02*
X228010Y95276D01*
X228010Y97157D02*
X226990Y97157D01*
X223010Y83990D02*
X221990Y83990D01*
X221990Y98010D01*
X223010Y98010D01*
X223010Y83990D01*
X223010Y85871D02*
X221990Y85871D01*
X221990Y87752D02*
X223010Y87752D01*
X223010Y89633D02*
X221990Y89633D01*
X221990Y91514D02*
X223010Y91514D01*
X223010Y93395D02*
X221990Y93395D01*
X221990Y95276D02*
X223010Y95276D01*
X223010Y97157D02*
X221990Y97157D01*
X218010Y83990D02*
X216990Y83990D01*
X216990Y98010D01*
X218010Y98010D01*
X218010Y83990D01*
X218010Y85871D02*
X216990Y85871D01*
X216990Y87752D02*
X218010Y87752D01*
X218010Y89633D02*
X216990Y89633D01*
X216990Y91514D02*
X218010Y91514D01*
X218010Y93395D02*
X216990Y93395D01*
X216990Y95276D02*
X218010Y95276D01*
X218010Y97157D02*
X216990Y97157D01*
X213010Y83990D02*
X211990Y83990D01*
X211990Y98010D01*
X213010Y98010D01*
X213010Y83990D01*
X213010Y85871D02*
X211990Y85871D01*
X211990Y87752D02*
X213010Y87752D01*
X213010Y89633D02*
X211990Y89633D01*
X211990Y91514D02*
X213010Y91514D01*
X213010Y93395D02*
X211990Y93395D01*
X211990Y95276D02*
X213010Y95276D01*
X213010Y97157D02*
X211990Y97157D01*
X208010Y83990D02*
X206990Y83990D01*
X206990Y98010D01*
X208010Y98010D01*
X208010Y83990D01*
X208010Y85871D02*
X206990Y85871D01*
X206990Y87752D02*
X208010Y87752D01*
X208010Y89633D02*
X206990Y89633D01*
X206990Y91514D02*
X208010Y91514D01*
X208010Y93395D02*
X206990Y93395D01*
X206990Y95276D02*
X208010Y95276D01*
X208010Y97157D02*
X206990Y97157D01*
X203010Y83990D02*
X201990Y83990D01*
X201990Y98010D01*
X203010Y98010D01*
X203010Y83990D01*
X203010Y85871D02*
X201990Y85871D01*
X201990Y87752D02*
X203010Y87752D01*
X203010Y89633D02*
X201990Y89633D01*
X201990Y91514D02*
X203010Y91514D01*
X203010Y93395D02*
X201990Y93395D01*
X201990Y95276D02*
X203010Y95276D01*
X203010Y97157D02*
X201990Y97157D01*
X198010Y83990D02*
X196990Y83990D01*
X196990Y98010D01*
X198010Y98010D01*
X198010Y83990D01*
X198010Y85871D02*
X196990Y85871D01*
X196990Y87752D02*
X198010Y87752D01*
X198010Y89633D02*
X196990Y89633D01*
X196990Y91514D02*
X198010Y91514D01*
X198010Y93395D02*
X196990Y93395D01*
X196990Y95276D02*
X198010Y95276D01*
X198010Y97157D02*
X196990Y97157D01*
X193010Y83990D02*
X191990Y83990D01*
X191990Y98010D01*
X193010Y98010D01*
X193010Y83990D01*
X193010Y85871D02*
X191990Y85871D01*
X191990Y87752D02*
X193010Y87752D01*
X193010Y89633D02*
X191990Y89633D01*
X191990Y91514D02*
X193010Y91514D01*
X193010Y93395D02*
X191990Y93395D01*
X191990Y95276D02*
X193010Y95276D01*
X193010Y97157D02*
X191990Y97157D01*
X188010Y83990D02*
X186990Y83990D01*
X186990Y98010D01*
X188010Y98010D01*
X188010Y83990D01*
X188010Y85871D02*
X186990Y85871D01*
X186990Y87752D02*
X188010Y87752D01*
X188010Y89633D02*
X186990Y89633D01*
X186990Y91514D02*
X188010Y91514D01*
X188010Y93395D02*
X186990Y93395D01*
X186990Y95276D02*
X188010Y95276D01*
X188010Y97157D02*
X186990Y97157D01*
X183010Y83990D02*
X181990Y83990D01*
X181990Y98010D01*
X183010Y98010D01*
X183010Y83990D01*
X183010Y85871D02*
X181990Y85871D01*
X181990Y87752D02*
X183010Y87752D01*
X183010Y89633D02*
X181990Y89633D01*
X181990Y91514D02*
X183010Y91514D01*
X183010Y93395D02*
X181990Y93395D01*
X181990Y95276D02*
X183010Y95276D01*
X183010Y97157D02*
X181990Y97157D01*
X178010Y83990D02*
X176990Y83990D01*
X176990Y98010D01*
X178010Y98010D01*
X178010Y83990D01*
X178010Y85871D02*
X176990Y85871D01*
X176990Y87752D02*
X178010Y87752D01*
X178010Y89633D02*
X176990Y89633D01*
X176990Y91514D02*
X178010Y91514D01*
X178010Y93395D02*
X176990Y93395D01*
X176990Y95276D02*
X178010Y95276D01*
X178010Y97157D02*
X176990Y97157D01*
X173010Y83990D02*
X171990Y83990D01*
X171990Y98010D01*
X173010Y98010D01*
X173010Y83990D01*
X173010Y85871D02*
X171990Y85871D01*
X171990Y87752D02*
X173010Y87752D01*
X173010Y89633D02*
X171990Y89633D01*
X171990Y91514D02*
X173010Y91514D01*
X173010Y93395D02*
X171990Y93395D01*
X171990Y95276D02*
X173010Y95276D01*
X173010Y97157D02*
X171990Y97157D01*
X168010Y83990D02*
X166990Y83990D01*
X166990Y98010D01*
X168010Y98010D01*
X168010Y83990D01*
X168010Y85871D02*
X166990Y85871D01*
X166990Y87752D02*
X168010Y87752D01*
X168010Y89633D02*
X166990Y89633D01*
X166990Y91514D02*
X168010Y91514D01*
X168010Y93395D02*
X166990Y93395D01*
X166990Y95276D02*
X168010Y95276D01*
X168010Y97157D02*
X166990Y97157D01*
X163010Y83990D02*
X161990Y83990D01*
X161990Y98010D01*
X163010Y98010D01*
X163010Y83990D01*
X163010Y85871D02*
X161990Y85871D01*
X161990Y87752D02*
X163010Y87752D01*
X163010Y89633D02*
X161990Y89633D01*
X161990Y91514D02*
X163010Y91514D01*
X163010Y93395D02*
X161990Y93395D01*
X161990Y95276D02*
X163010Y95276D01*
X163010Y97157D02*
X161990Y97157D01*
X158010Y83990D02*
X156990Y83990D01*
X156990Y98010D01*
X158010Y98010D01*
X158010Y83990D01*
X158010Y85871D02*
X156990Y85871D01*
X156990Y87752D02*
X158010Y87752D01*
X158010Y89633D02*
X156990Y89633D01*
X156990Y91514D02*
X158010Y91514D01*
X158010Y93395D02*
X156990Y93395D01*
X156990Y95276D02*
X158010Y95276D01*
X158010Y97157D02*
X156990Y97157D01*
X153010Y83990D02*
X151990Y83990D01*
X151990Y98010D01*
X153010Y98010D01*
X153010Y83990D01*
X153010Y85871D02*
X151990Y85871D01*
X151990Y87752D02*
X153010Y87752D01*
X153010Y89633D02*
X151990Y89633D01*
X151990Y91514D02*
X153010Y91514D01*
X153010Y93395D02*
X151990Y93395D01*
X151990Y95276D02*
X153010Y95276D01*
X153010Y97157D02*
X151990Y97157D01*
X148010Y83990D02*
X146990Y83990D01*
X146990Y98010D01*
X148010Y98010D01*
X148010Y83990D01*
X148010Y85871D02*
X146990Y85871D01*
X146990Y87752D02*
X148010Y87752D01*
X148010Y89633D02*
X146990Y89633D01*
X146990Y91514D02*
X148010Y91514D01*
X148010Y93395D02*
X146990Y93395D01*
X146990Y95276D02*
X148010Y95276D01*
X148010Y97157D02*
X146990Y97157D01*
X143010Y83990D02*
X141990Y83990D01*
X141990Y98010D01*
X143010Y98010D01*
X143010Y83990D01*
X143010Y85871D02*
X141990Y85871D01*
X141990Y87752D02*
X143010Y87752D01*
X143010Y89633D02*
X141990Y89633D01*
X141990Y91514D02*
X143010Y91514D01*
X143010Y93395D02*
X141990Y93395D01*
X141990Y95276D02*
X143010Y95276D01*
X143010Y97157D02*
X141990Y97157D01*
X456990Y161990D02*
X458010Y161990D01*
X456990Y161990D02*
X456990Y176010D01*
X458010Y176010D01*
X458010Y161990D01*
X458010Y163871D02*
X456990Y163871D01*
X456990Y165752D02*
X458010Y165752D01*
X458010Y167633D02*
X456990Y167633D01*
X456990Y169514D02*
X458010Y169514D01*
X458010Y171395D02*
X456990Y171395D01*
X456990Y173276D02*
X458010Y173276D01*
X458010Y175157D02*
X456990Y175157D01*
X456990Y83990D02*
X458010Y83990D01*
X456990Y83990D02*
X456990Y98010D01*
X458010Y98010D01*
X458010Y83990D01*
X458010Y85871D02*
X456990Y85871D01*
X456990Y87752D02*
X458010Y87752D01*
X458010Y89633D02*
X456990Y89633D01*
X456990Y91514D02*
X458010Y91514D01*
X458010Y93395D02*
X456990Y93395D01*
X456990Y95276D02*
X458010Y95276D01*
X458010Y97157D02*
X456990Y97157D01*
X453010Y161990D02*
X451990Y161990D01*
X451990Y176010D01*
X453010Y176010D01*
X453010Y161990D01*
X453010Y163871D02*
X451990Y163871D01*
X451990Y165752D02*
X453010Y165752D01*
X453010Y167633D02*
X451990Y167633D01*
X451990Y169514D02*
X453010Y169514D01*
X453010Y171395D02*
X451990Y171395D01*
X451990Y173276D02*
X453010Y173276D01*
X453010Y175157D02*
X451990Y175157D01*
X448010Y161990D02*
X446990Y161990D01*
X446990Y176010D01*
X448010Y176010D01*
X448010Y161990D01*
X448010Y163871D02*
X446990Y163871D01*
X446990Y165752D02*
X448010Y165752D01*
X448010Y167633D02*
X446990Y167633D01*
X446990Y169514D02*
X448010Y169514D01*
X448010Y171395D02*
X446990Y171395D01*
X446990Y173276D02*
X448010Y173276D01*
X448010Y175157D02*
X446990Y175157D01*
X443010Y161990D02*
X441990Y161990D01*
X441990Y176010D01*
X443010Y176010D01*
X443010Y161990D01*
X443010Y163871D02*
X441990Y163871D01*
X441990Y165752D02*
X443010Y165752D01*
X443010Y167633D02*
X441990Y167633D01*
X441990Y169514D02*
X443010Y169514D01*
X443010Y171395D02*
X441990Y171395D01*
X441990Y173276D02*
X443010Y173276D01*
X443010Y175157D02*
X441990Y175157D01*
X438010Y161990D02*
X436990Y161990D01*
X436990Y176010D01*
X438010Y176010D01*
X438010Y161990D01*
X438010Y163871D02*
X436990Y163871D01*
X436990Y165752D02*
X438010Y165752D01*
X438010Y167633D02*
X436990Y167633D01*
X436990Y169514D02*
X438010Y169514D01*
X438010Y171395D02*
X436990Y171395D01*
X436990Y173276D02*
X438010Y173276D01*
X438010Y175157D02*
X436990Y175157D01*
X433010Y161990D02*
X431990Y161990D01*
X431990Y176010D01*
X433010Y176010D01*
X433010Y161990D01*
X433010Y163871D02*
X431990Y163871D01*
X431990Y165752D02*
X433010Y165752D01*
X433010Y167633D02*
X431990Y167633D01*
X431990Y169514D02*
X433010Y169514D01*
X433010Y171395D02*
X431990Y171395D01*
X431990Y173276D02*
X433010Y173276D01*
X433010Y175157D02*
X431990Y175157D01*
X428010Y161990D02*
X426990Y161990D01*
X426990Y176010D01*
X428010Y176010D01*
X428010Y161990D01*
X428010Y163871D02*
X426990Y163871D01*
X426990Y165752D02*
X428010Y165752D01*
X428010Y167633D02*
X426990Y167633D01*
X426990Y169514D02*
X428010Y169514D01*
X428010Y171395D02*
X426990Y171395D01*
X426990Y173276D02*
X428010Y173276D01*
X428010Y175157D02*
X426990Y175157D01*
X423010Y161990D02*
X421990Y161990D01*
X421990Y176010D01*
X423010Y176010D01*
X423010Y161990D01*
X423010Y163871D02*
X421990Y163871D01*
X421990Y165752D02*
X423010Y165752D01*
X423010Y167633D02*
X421990Y167633D01*
X421990Y169514D02*
X423010Y169514D01*
X423010Y171395D02*
X421990Y171395D01*
X421990Y173276D02*
X423010Y173276D01*
X423010Y175157D02*
X421990Y175157D01*
X418010Y161990D02*
X416990Y161990D01*
X416990Y176010D01*
X418010Y176010D01*
X418010Y161990D01*
X418010Y163871D02*
X416990Y163871D01*
X416990Y165752D02*
X418010Y165752D01*
X418010Y167633D02*
X416990Y167633D01*
X416990Y169514D02*
X418010Y169514D01*
X418010Y171395D02*
X416990Y171395D01*
X416990Y173276D02*
X418010Y173276D01*
X418010Y175157D02*
X416990Y175157D01*
X413010Y161990D02*
X411990Y161990D01*
X411990Y176010D01*
X413010Y176010D01*
X413010Y161990D01*
X413010Y163871D02*
X411990Y163871D01*
X411990Y165752D02*
X413010Y165752D01*
X413010Y167633D02*
X411990Y167633D01*
X411990Y169514D02*
X413010Y169514D01*
X413010Y171395D02*
X411990Y171395D01*
X411990Y173276D02*
X413010Y173276D01*
X413010Y175157D02*
X411990Y175157D01*
X408010Y161990D02*
X406990Y161990D01*
X406990Y176010D01*
X408010Y176010D01*
X408010Y161990D01*
X408010Y163871D02*
X406990Y163871D01*
X406990Y165752D02*
X408010Y165752D01*
X408010Y167633D02*
X406990Y167633D01*
X406990Y169514D02*
X408010Y169514D01*
X408010Y171395D02*
X406990Y171395D01*
X406990Y173276D02*
X408010Y173276D01*
X408010Y175157D02*
X406990Y175157D01*
X403010Y161990D02*
X401990Y161990D01*
X401990Y176010D01*
X403010Y176010D01*
X403010Y161990D01*
X403010Y163871D02*
X401990Y163871D01*
X401990Y165752D02*
X403010Y165752D01*
X403010Y167633D02*
X401990Y167633D01*
X401990Y169514D02*
X403010Y169514D01*
X403010Y171395D02*
X401990Y171395D01*
X401990Y173276D02*
X403010Y173276D01*
X403010Y175157D02*
X401990Y175157D01*
X398010Y161990D02*
X396990Y161990D01*
X396990Y176010D01*
X398010Y176010D01*
X398010Y161990D01*
X398010Y163871D02*
X396990Y163871D01*
X396990Y165752D02*
X398010Y165752D01*
X398010Y167633D02*
X396990Y167633D01*
X396990Y169514D02*
X398010Y169514D01*
X398010Y171395D02*
X396990Y171395D01*
X396990Y173276D02*
X398010Y173276D01*
X398010Y175157D02*
X396990Y175157D01*
X393010Y161990D02*
X391990Y161990D01*
X391990Y176010D01*
X393010Y176010D01*
X393010Y161990D01*
X393010Y163871D02*
X391990Y163871D01*
X391990Y165752D02*
X393010Y165752D01*
X393010Y167633D02*
X391990Y167633D01*
X391990Y169514D02*
X393010Y169514D01*
X393010Y171395D02*
X391990Y171395D01*
X391990Y173276D02*
X393010Y173276D01*
X393010Y175157D02*
X391990Y175157D01*
X388010Y161990D02*
X386990Y161990D01*
X386990Y176010D01*
X388010Y176010D01*
X388010Y161990D01*
X388010Y163871D02*
X386990Y163871D01*
X386990Y165752D02*
X388010Y165752D01*
X388010Y167633D02*
X386990Y167633D01*
X386990Y169514D02*
X388010Y169514D01*
X388010Y171395D02*
X386990Y171395D01*
X386990Y173276D02*
X388010Y173276D01*
X388010Y175157D02*
X386990Y175157D01*
X383010Y161990D02*
X381990Y161990D01*
X381990Y176010D01*
X383010Y176010D01*
X383010Y161990D01*
X383010Y163871D02*
X381990Y163871D01*
X381990Y165752D02*
X383010Y165752D01*
X383010Y167633D02*
X381990Y167633D01*
X381990Y169514D02*
X383010Y169514D01*
X383010Y171395D02*
X381990Y171395D01*
X381990Y173276D02*
X383010Y173276D01*
X383010Y175157D02*
X381990Y175157D01*
X378010Y161990D02*
X376990Y161990D01*
X376990Y176010D01*
X378010Y176010D01*
X378010Y161990D01*
X378010Y163871D02*
X376990Y163871D01*
X376990Y165752D02*
X378010Y165752D01*
X378010Y167633D02*
X376990Y167633D01*
X376990Y169514D02*
X378010Y169514D01*
X378010Y171395D02*
X376990Y171395D01*
X376990Y173276D02*
X378010Y173276D01*
X378010Y175157D02*
X376990Y175157D01*
X373010Y161990D02*
X371990Y161990D01*
X371990Y176010D01*
X373010Y176010D01*
X373010Y161990D01*
X373010Y163871D02*
X371990Y163871D01*
X371990Y165752D02*
X373010Y165752D01*
X373010Y167633D02*
X371990Y167633D01*
X371990Y169514D02*
X373010Y169514D01*
X373010Y171395D02*
X371990Y171395D01*
X371990Y173276D02*
X373010Y173276D01*
X373010Y175157D02*
X371990Y175157D01*
X368010Y161990D02*
X366990Y161990D01*
X366990Y176010D01*
X368010Y176010D01*
X368010Y161990D01*
X368010Y163871D02*
X366990Y163871D01*
X366990Y165752D02*
X368010Y165752D01*
X368010Y167633D02*
X366990Y167633D01*
X366990Y169514D02*
X368010Y169514D01*
X368010Y171395D02*
X366990Y171395D01*
X366990Y173276D02*
X368010Y173276D01*
X368010Y175157D02*
X366990Y175157D01*
X363010Y161990D02*
X361990Y161990D01*
X361990Y176010D01*
X363010Y176010D01*
X363010Y161990D01*
X363010Y163871D02*
X361990Y163871D01*
X361990Y165752D02*
X363010Y165752D01*
X363010Y167633D02*
X361990Y167633D01*
X361990Y169514D02*
X363010Y169514D01*
X363010Y171395D02*
X361990Y171395D01*
X361990Y173276D02*
X363010Y173276D01*
X363010Y175157D02*
X361990Y175157D01*
X358010Y161990D02*
X356990Y161990D01*
X356990Y176010D01*
X358010Y176010D01*
X358010Y161990D01*
X358010Y163871D02*
X356990Y163871D01*
X356990Y165752D02*
X358010Y165752D01*
X358010Y167633D02*
X356990Y167633D01*
X356990Y169514D02*
X358010Y169514D01*
X358010Y171395D02*
X356990Y171395D01*
X356990Y173276D02*
X358010Y173276D01*
X358010Y175157D02*
X356990Y175157D01*
X353010Y161990D02*
X351990Y161990D01*
X351990Y176010D01*
X353010Y176010D01*
X353010Y161990D01*
X353010Y163871D02*
X351990Y163871D01*
X351990Y165752D02*
X353010Y165752D01*
X353010Y167633D02*
X351990Y167633D01*
X351990Y169514D02*
X353010Y169514D01*
X353010Y171395D02*
X351990Y171395D01*
X351990Y173276D02*
X353010Y173276D01*
X353010Y175157D02*
X351990Y175157D01*
X348010Y161990D02*
X346990Y161990D01*
X346990Y176010D01*
X348010Y176010D01*
X348010Y161990D01*
X348010Y163871D02*
X346990Y163871D01*
X346990Y165752D02*
X348010Y165752D01*
X348010Y167633D02*
X346990Y167633D01*
X346990Y169514D02*
X348010Y169514D01*
X348010Y171395D02*
X346990Y171395D01*
X346990Y173276D02*
X348010Y173276D01*
X348010Y175157D02*
X346990Y175157D01*
X343010Y161990D02*
X341990Y161990D01*
X341990Y176010D01*
X343010Y176010D01*
X343010Y161990D01*
X343010Y163871D02*
X341990Y163871D01*
X341990Y165752D02*
X343010Y165752D01*
X343010Y167633D02*
X341990Y167633D01*
X341990Y169514D02*
X343010Y169514D01*
X343010Y171395D02*
X341990Y171395D01*
X341990Y173276D02*
X343010Y173276D01*
X343010Y175157D02*
X341990Y175157D01*
X451990Y83990D02*
X453010Y83990D01*
X451990Y83990D02*
X451990Y98010D01*
X453010Y98010D01*
X453010Y83990D01*
X453010Y85871D02*
X451990Y85871D01*
X451990Y87752D02*
X453010Y87752D01*
X453010Y89633D02*
X451990Y89633D01*
X451990Y91514D02*
X453010Y91514D01*
X453010Y93395D02*
X451990Y93395D01*
X451990Y95276D02*
X453010Y95276D01*
X453010Y97157D02*
X451990Y97157D01*
X448010Y83990D02*
X446990Y83990D01*
X446990Y98010D01*
X448010Y98010D01*
X448010Y83990D01*
X448010Y85871D02*
X446990Y85871D01*
X446990Y87752D02*
X448010Y87752D01*
X448010Y89633D02*
X446990Y89633D01*
X446990Y91514D02*
X448010Y91514D01*
X448010Y93395D02*
X446990Y93395D01*
X446990Y95276D02*
X448010Y95276D01*
X448010Y97157D02*
X446990Y97157D01*
X443010Y83990D02*
X441990Y83990D01*
X441990Y98010D01*
X443010Y98010D01*
X443010Y83990D01*
X443010Y85871D02*
X441990Y85871D01*
X441990Y87752D02*
X443010Y87752D01*
X443010Y89633D02*
X441990Y89633D01*
X441990Y91514D02*
X443010Y91514D01*
X443010Y93395D02*
X441990Y93395D01*
X441990Y95276D02*
X443010Y95276D01*
X443010Y97157D02*
X441990Y97157D01*
X438010Y83990D02*
X436990Y83990D01*
X436990Y98010D01*
X438010Y98010D01*
X438010Y83990D01*
X438010Y85871D02*
X436990Y85871D01*
X436990Y87752D02*
X438010Y87752D01*
X438010Y89633D02*
X436990Y89633D01*
X436990Y91514D02*
X438010Y91514D01*
X438010Y93395D02*
X436990Y93395D01*
X436990Y95276D02*
X438010Y95276D01*
X438010Y97157D02*
X436990Y97157D01*
X433010Y83990D02*
X431990Y83990D01*
X431990Y98010D01*
X433010Y98010D01*
X433010Y83990D01*
X433010Y85871D02*
X431990Y85871D01*
X431990Y87752D02*
X433010Y87752D01*
X433010Y89633D02*
X431990Y89633D01*
X431990Y91514D02*
X433010Y91514D01*
X433010Y93395D02*
X431990Y93395D01*
X431990Y95276D02*
X433010Y95276D01*
X433010Y97157D02*
X431990Y97157D01*
X428010Y83990D02*
X426990Y83990D01*
X426990Y98010D01*
X428010Y98010D01*
X428010Y83990D01*
X428010Y85871D02*
X426990Y85871D01*
X426990Y87752D02*
X428010Y87752D01*
X428010Y89633D02*
X426990Y89633D01*
X426990Y91514D02*
X428010Y91514D01*
X428010Y93395D02*
X426990Y93395D01*
X426990Y95276D02*
X428010Y95276D01*
X428010Y97157D02*
X426990Y97157D01*
X423010Y83990D02*
X421990Y83990D01*
X421990Y98010D01*
X423010Y98010D01*
X423010Y83990D01*
X423010Y85871D02*
X421990Y85871D01*
X421990Y87752D02*
X423010Y87752D01*
X423010Y89633D02*
X421990Y89633D01*
X421990Y91514D02*
X423010Y91514D01*
X423010Y93395D02*
X421990Y93395D01*
X421990Y95276D02*
X423010Y95276D01*
X423010Y97157D02*
X421990Y97157D01*
X418010Y83990D02*
X416990Y83990D01*
X416990Y98010D01*
X418010Y98010D01*
X418010Y83990D01*
X418010Y85871D02*
X416990Y85871D01*
X416990Y87752D02*
X418010Y87752D01*
X418010Y89633D02*
X416990Y89633D01*
X416990Y91514D02*
X418010Y91514D01*
X418010Y93395D02*
X416990Y93395D01*
X416990Y95276D02*
X418010Y95276D01*
X418010Y97157D02*
X416990Y97157D01*
X413010Y83990D02*
X411990Y83990D01*
X411990Y98010D01*
X413010Y98010D01*
X413010Y83990D01*
X413010Y85871D02*
X411990Y85871D01*
X411990Y87752D02*
X413010Y87752D01*
X413010Y89633D02*
X411990Y89633D01*
X411990Y91514D02*
X413010Y91514D01*
X413010Y93395D02*
X411990Y93395D01*
X411990Y95276D02*
X413010Y95276D01*
X413010Y97157D02*
X411990Y97157D01*
X408010Y83990D02*
X406990Y83990D01*
X406990Y98010D01*
X408010Y98010D01*
X408010Y83990D01*
X408010Y85871D02*
X406990Y85871D01*
X406990Y87752D02*
X408010Y87752D01*
X408010Y89633D02*
X406990Y89633D01*
X406990Y91514D02*
X408010Y91514D01*
X408010Y93395D02*
X406990Y93395D01*
X406990Y95276D02*
X408010Y95276D01*
X408010Y97157D02*
X406990Y97157D01*
X403010Y83990D02*
X401990Y83990D01*
X401990Y98010D01*
X403010Y98010D01*
X403010Y83990D01*
X403010Y85871D02*
X401990Y85871D01*
X401990Y87752D02*
X403010Y87752D01*
X403010Y89633D02*
X401990Y89633D01*
X401990Y91514D02*
X403010Y91514D01*
X403010Y93395D02*
X401990Y93395D01*
X401990Y95276D02*
X403010Y95276D01*
X403010Y97157D02*
X401990Y97157D01*
X398010Y83990D02*
X396990Y83990D01*
X396990Y98010D01*
X398010Y98010D01*
X398010Y83990D01*
X398010Y85871D02*
X396990Y85871D01*
X396990Y87752D02*
X398010Y87752D01*
X398010Y89633D02*
X396990Y89633D01*
X396990Y91514D02*
X398010Y91514D01*
X398010Y93395D02*
X396990Y93395D01*
X396990Y95276D02*
X398010Y95276D01*
X398010Y97157D02*
X396990Y97157D01*
X393010Y83990D02*
X391990Y83990D01*
X391990Y98010D01*
X393010Y98010D01*
X393010Y83990D01*
X393010Y85871D02*
X391990Y85871D01*
X391990Y87752D02*
X393010Y87752D01*
X393010Y89633D02*
X391990Y89633D01*
X391990Y91514D02*
X393010Y91514D01*
X393010Y93395D02*
X391990Y93395D01*
X391990Y95276D02*
X393010Y95276D01*
X393010Y97157D02*
X391990Y97157D01*
X388010Y83990D02*
X386990Y83990D01*
X386990Y98010D01*
X388010Y98010D01*
X388010Y83990D01*
X388010Y85871D02*
X386990Y85871D01*
X386990Y87752D02*
X388010Y87752D01*
X388010Y89633D02*
X386990Y89633D01*
X386990Y91514D02*
X388010Y91514D01*
X388010Y93395D02*
X386990Y93395D01*
X386990Y95276D02*
X388010Y95276D01*
X388010Y97157D02*
X386990Y97157D01*
X383010Y83990D02*
X381990Y83990D01*
X381990Y98010D01*
X383010Y98010D01*
X383010Y83990D01*
X383010Y85871D02*
X381990Y85871D01*
X381990Y87752D02*
X383010Y87752D01*
X383010Y89633D02*
X381990Y89633D01*
X381990Y91514D02*
X383010Y91514D01*
X383010Y93395D02*
X381990Y93395D01*
X381990Y95276D02*
X383010Y95276D01*
X383010Y97157D02*
X381990Y97157D01*
X378010Y83990D02*
X376990Y83990D01*
X376990Y98010D01*
X378010Y98010D01*
X378010Y83990D01*
X378010Y85871D02*
X376990Y85871D01*
X376990Y87752D02*
X378010Y87752D01*
X378010Y89633D02*
X376990Y89633D01*
X376990Y91514D02*
X378010Y91514D01*
X378010Y93395D02*
X376990Y93395D01*
X376990Y95276D02*
X378010Y95276D01*
X378010Y97157D02*
X376990Y97157D01*
X373010Y83990D02*
X371990Y83990D01*
X371990Y98010D01*
X373010Y98010D01*
X373010Y83990D01*
X373010Y85871D02*
X371990Y85871D01*
X371990Y87752D02*
X373010Y87752D01*
X373010Y89633D02*
X371990Y89633D01*
X371990Y91514D02*
X373010Y91514D01*
X373010Y93395D02*
X371990Y93395D01*
X371990Y95276D02*
X373010Y95276D01*
X373010Y97157D02*
X371990Y97157D01*
X368010Y83990D02*
X366990Y83990D01*
X366990Y98010D01*
X368010Y98010D01*
X368010Y83990D01*
X368010Y85871D02*
X366990Y85871D01*
X366990Y87752D02*
X368010Y87752D01*
X368010Y89633D02*
X366990Y89633D01*
X366990Y91514D02*
X368010Y91514D01*
X368010Y93395D02*
X366990Y93395D01*
X366990Y95276D02*
X368010Y95276D01*
X368010Y97157D02*
X366990Y97157D01*
X363010Y83990D02*
X361990Y83990D01*
X361990Y98010D01*
X363010Y98010D01*
X363010Y83990D01*
X363010Y85871D02*
X361990Y85871D01*
X361990Y87752D02*
X363010Y87752D01*
X363010Y89633D02*
X361990Y89633D01*
X361990Y91514D02*
X363010Y91514D01*
X363010Y93395D02*
X361990Y93395D01*
X361990Y95276D02*
X363010Y95276D01*
X363010Y97157D02*
X361990Y97157D01*
X358010Y83990D02*
X356990Y83990D01*
X356990Y98010D01*
X358010Y98010D01*
X358010Y83990D01*
X358010Y85871D02*
X356990Y85871D01*
X356990Y87752D02*
X358010Y87752D01*
X358010Y89633D02*
X356990Y89633D01*
X356990Y91514D02*
X358010Y91514D01*
X358010Y93395D02*
X356990Y93395D01*
X356990Y95276D02*
X358010Y95276D01*
X358010Y97157D02*
X356990Y97157D01*
X353010Y83990D02*
X351990Y83990D01*
X351990Y98010D01*
X353010Y98010D01*
X353010Y83990D01*
X353010Y85871D02*
X351990Y85871D01*
X351990Y87752D02*
X353010Y87752D01*
X353010Y89633D02*
X351990Y89633D01*
X351990Y91514D02*
X353010Y91514D01*
X353010Y93395D02*
X351990Y93395D01*
X351990Y95276D02*
X353010Y95276D01*
X353010Y97157D02*
X351990Y97157D01*
X348010Y83990D02*
X346990Y83990D01*
X346990Y98010D01*
X348010Y98010D01*
X348010Y83990D01*
X348010Y85871D02*
X346990Y85871D01*
X346990Y87752D02*
X348010Y87752D01*
X348010Y89633D02*
X346990Y89633D01*
X346990Y91514D02*
X348010Y91514D01*
X348010Y93395D02*
X346990Y93395D01*
X346990Y95276D02*
X348010Y95276D01*
X348010Y97157D02*
X346990Y97157D01*
X343010Y83990D02*
X341990Y83990D01*
X341990Y98010D01*
X343010Y98010D01*
X343010Y83990D01*
X343010Y85871D02*
X341990Y85871D01*
X341990Y87752D02*
X343010Y87752D01*
X343010Y89633D02*
X341990Y89633D01*
X341990Y91514D02*
X343010Y91514D01*
X343010Y93395D02*
X341990Y93395D01*
X341990Y95276D02*
X343010Y95276D01*
X343010Y97157D02*
X341990Y97157D01*
X656990Y161990D02*
X658010Y161990D01*
X656990Y161990D02*
X656990Y176010D01*
X658010Y176010D01*
X658010Y161990D01*
X658010Y163871D02*
X656990Y163871D01*
X656990Y165752D02*
X658010Y165752D01*
X658010Y167633D02*
X656990Y167633D01*
X656990Y169514D02*
X658010Y169514D01*
X658010Y171395D02*
X656990Y171395D01*
X656990Y173276D02*
X658010Y173276D01*
X658010Y175157D02*
X656990Y175157D01*
X656990Y83990D02*
X658010Y83990D01*
X656990Y83990D02*
X656990Y98010D01*
X658010Y98010D01*
X658010Y83990D01*
X658010Y85871D02*
X656990Y85871D01*
X656990Y87752D02*
X658010Y87752D01*
X658010Y89633D02*
X656990Y89633D01*
X656990Y91514D02*
X658010Y91514D01*
X658010Y93395D02*
X656990Y93395D01*
X656990Y95276D02*
X658010Y95276D01*
X658010Y97157D02*
X656990Y97157D01*
X653010Y161990D02*
X651990Y161990D01*
X651990Y176010D01*
X653010Y176010D01*
X653010Y161990D01*
X653010Y163871D02*
X651990Y163871D01*
X651990Y165752D02*
X653010Y165752D01*
X653010Y167633D02*
X651990Y167633D01*
X651990Y169514D02*
X653010Y169514D01*
X653010Y171395D02*
X651990Y171395D01*
X651990Y173276D02*
X653010Y173276D01*
X653010Y175157D02*
X651990Y175157D01*
X648010Y161990D02*
X646990Y161990D01*
X646990Y176010D01*
X648010Y176010D01*
X648010Y161990D01*
X648010Y163871D02*
X646990Y163871D01*
X646990Y165752D02*
X648010Y165752D01*
X648010Y167633D02*
X646990Y167633D01*
X646990Y169514D02*
X648010Y169514D01*
X648010Y171395D02*
X646990Y171395D01*
X646990Y173276D02*
X648010Y173276D01*
X648010Y175157D02*
X646990Y175157D01*
X643010Y161990D02*
X641990Y161990D01*
X641990Y176010D01*
X643010Y176010D01*
X643010Y161990D01*
X643010Y163871D02*
X641990Y163871D01*
X641990Y165752D02*
X643010Y165752D01*
X643010Y167633D02*
X641990Y167633D01*
X641990Y169514D02*
X643010Y169514D01*
X643010Y171395D02*
X641990Y171395D01*
X641990Y173276D02*
X643010Y173276D01*
X643010Y175157D02*
X641990Y175157D01*
X638010Y161990D02*
X636990Y161990D01*
X636990Y176010D01*
X638010Y176010D01*
X638010Y161990D01*
X638010Y163871D02*
X636990Y163871D01*
X636990Y165752D02*
X638010Y165752D01*
X638010Y167633D02*
X636990Y167633D01*
X636990Y169514D02*
X638010Y169514D01*
X638010Y171395D02*
X636990Y171395D01*
X636990Y173276D02*
X638010Y173276D01*
X638010Y175157D02*
X636990Y175157D01*
X633010Y161990D02*
X631990Y161990D01*
X631990Y176010D01*
X633010Y176010D01*
X633010Y161990D01*
X633010Y163871D02*
X631990Y163871D01*
X631990Y165752D02*
X633010Y165752D01*
X633010Y167633D02*
X631990Y167633D01*
X631990Y169514D02*
X633010Y169514D01*
X633010Y171395D02*
X631990Y171395D01*
X631990Y173276D02*
X633010Y173276D01*
X633010Y175157D02*
X631990Y175157D01*
X628010Y161990D02*
X626990Y161990D01*
X626990Y176010D01*
X628010Y176010D01*
X628010Y161990D01*
X628010Y163871D02*
X626990Y163871D01*
X626990Y165752D02*
X628010Y165752D01*
X628010Y167633D02*
X626990Y167633D01*
X626990Y169514D02*
X628010Y169514D01*
X628010Y171395D02*
X626990Y171395D01*
X626990Y173276D02*
X628010Y173276D01*
X628010Y175157D02*
X626990Y175157D01*
X623010Y161990D02*
X621990Y161990D01*
X621990Y176010D01*
X623010Y176010D01*
X623010Y161990D01*
X623010Y163871D02*
X621990Y163871D01*
X621990Y165752D02*
X623010Y165752D01*
X623010Y167633D02*
X621990Y167633D01*
X621990Y169514D02*
X623010Y169514D01*
X623010Y171395D02*
X621990Y171395D01*
X621990Y173276D02*
X623010Y173276D01*
X623010Y175157D02*
X621990Y175157D01*
X618010Y161990D02*
X616990Y161990D01*
X616990Y176010D01*
X618010Y176010D01*
X618010Y161990D01*
X618010Y163871D02*
X616990Y163871D01*
X616990Y165752D02*
X618010Y165752D01*
X618010Y167633D02*
X616990Y167633D01*
X616990Y169514D02*
X618010Y169514D01*
X618010Y171395D02*
X616990Y171395D01*
X616990Y173276D02*
X618010Y173276D01*
X618010Y175157D02*
X616990Y175157D01*
X613010Y161990D02*
X611990Y161990D01*
X611990Y176010D01*
X613010Y176010D01*
X613010Y161990D01*
X613010Y163871D02*
X611990Y163871D01*
X611990Y165752D02*
X613010Y165752D01*
X613010Y167633D02*
X611990Y167633D01*
X611990Y169514D02*
X613010Y169514D01*
X613010Y171395D02*
X611990Y171395D01*
X611990Y173276D02*
X613010Y173276D01*
X613010Y175157D02*
X611990Y175157D01*
X608010Y161990D02*
X606990Y161990D01*
X606990Y176010D01*
X608010Y176010D01*
X608010Y161990D01*
X608010Y163871D02*
X606990Y163871D01*
X606990Y165752D02*
X608010Y165752D01*
X608010Y167633D02*
X606990Y167633D01*
X606990Y169514D02*
X608010Y169514D01*
X608010Y171395D02*
X606990Y171395D01*
X606990Y173276D02*
X608010Y173276D01*
X608010Y175157D02*
X606990Y175157D01*
X603010Y161990D02*
X601990Y161990D01*
X601990Y176010D01*
X603010Y176010D01*
X603010Y161990D01*
X603010Y163871D02*
X601990Y163871D01*
X601990Y165752D02*
X603010Y165752D01*
X603010Y167633D02*
X601990Y167633D01*
X601990Y169514D02*
X603010Y169514D01*
X603010Y171395D02*
X601990Y171395D01*
X601990Y173276D02*
X603010Y173276D01*
X603010Y175157D02*
X601990Y175157D01*
X598010Y161990D02*
X596990Y161990D01*
X596990Y176010D01*
X598010Y176010D01*
X598010Y161990D01*
X598010Y163871D02*
X596990Y163871D01*
X596990Y165752D02*
X598010Y165752D01*
X598010Y167633D02*
X596990Y167633D01*
X596990Y169514D02*
X598010Y169514D01*
X598010Y171395D02*
X596990Y171395D01*
X596990Y173276D02*
X598010Y173276D01*
X598010Y175157D02*
X596990Y175157D01*
X593010Y161990D02*
X591990Y161990D01*
X591990Y176010D01*
X593010Y176010D01*
X593010Y161990D01*
X593010Y163871D02*
X591990Y163871D01*
X591990Y165752D02*
X593010Y165752D01*
X593010Y167633D02*
X591990Y167633D01*
X591990Y169514D02*
X593010Y169514D01*
X593010Y171395D02*
X591990Y171395D01*
X591990Y173276D02*
X593010Y173276D01*
X593010Y175157D02*
X591990Y175157D01*
X588010Y161990D02*
X586990Y161990D01*
X586990Y176010D01*
X588010Y176010D01*
X588010Y161990D01*
X588010Y163871D02*
X586990Y163871D01*
X586990Y165752D02*
X588010Y165752D01*
X588010Y167633D02*
X586990Y167633D01*
X586990Y169514D02*
X588010Y169514D01*
X588010Y171395D02*
X586990Y171395D01*
X586990Y173276D02*
X588010Y173276D01*
X588010Y175157D02*
X586990Y175157D01*
X583010Y161990D02*
X581990Y161990D01*
X581990Y176010D01*
X583010Y176010D01*
X583010Y161990D01*
X583010Y163871D02*
X581990Y163871D01*
X581990Y165752D02*
X583010Y165752D01*
X583010Y167633D02*
X581990Y167633D01*
X581990Y169514D02*
X583010Y169514D01*
X583010Y171395D02*
X581990Y171395D01*
X581990Y173276D02*
X583010Y173276D01*
X583010Y175157D02*
X581990Y175157D01*
X578010Y161990D02*
X576990Y161990D01*
X576990Y176010D01*
X578010Y176010D01*
X578010Y161990D01*
X578010Y163871D02*
X576990Y163871D01*
X576990Y165752D02*
X578010Y165752D01*
X578010Y167633D02*
X576990Y167633D01*
X576990Y169514D02*
X578010Y169514D01*
X578010Y171395D02*
X576990Y171395D01*
X576990Y173276D02*
X578010Y173276D01*
X578010Y175157D02*
X576990Y175157D01*
X573010Y161990D02*
X571990Y161990D01*
X571990Y176010D01*
X573010Y176010D01*
X573010Y161990D01*
X573010Y163871D02*
X571990Y163871D01*
X571990Y165752D02*
X573010Y165752D01*
X573010Y167633D02*
X571990Y167633D01*
X571990Y169514D02*
X573010Y169514D01*
X573010Y171395D02*
X571990Y171395D01*
X571990Y173276D02*
X573010Y173276D01*
X573010Y175157D02*
X571990Y175157D01*
X568010Y161990D02*
X566990Y161990D01*
X566990Y176010D01*
X568010Y176010D01*
X568010Y161990D01*
X568010Y163871D02*
X566990Y163871D01*
X566990Y165752D02*
X568010Y165752D01*
X568010Y167633D02*
X566990Y167633D01*
X566990Y169514D02*
X568010Y169514D01*
X568010Y171395D02*
X566990Y171395D01*
X566990Y173276D02*
X568010Y173276D01*
X568010Y175157D02*
X566990Y175157D01*
X563010Y161990D02*
X561990Y161990D01*
X561990Y176010D01*
X563010Y176010D01*
X563010Y161990D01*
X563010Y163871D02*
X561990Y163871D01*
X561990Y165752D02*
X563010Y165752D01*
X563010Y167633D02*
X561990Y167633D01*
X561990Y169514D02*
X563010Y169514D01*
X563010Y171395D02*
X561990Y171395D01*
X561990Y173276D02*
X563010Y173276D01*
X563010Y175157D02*
X561990Y175157D01*
X558010Y161990D02*
X556990Y161990D01*
X556990Y176010D01*
X558010Y176010D01*
X558010Y161990D01*
X558010Y163871D02*
X556990Y163871D01*
X556990Y165752D02*
X558010Y165752D01*
X558010Y167633D02*
X556990Y167633D01*
X556990Y169514D02*
X558010Y169514D01*
X558010Y171395D02*
X556990Y171395D01*
X556990Y173276D02*
X558010Y173276D01*
X558010Y175157D02*
X556990Y175157D01*
X553010Y161990D02*
X551990Y161990D01*
X551990Y176010D01*
X553010Y176010D01*
X553010Y161990D01*
X553010Y163871D02*
X551990Y163871D01*
X551990Y165752D02*
X553010Y165752D01*
X553010Y167633D02*
X551990Y167633D01*
X551990Y169514D02*
X553010Y169514D01*
X553010Y171395D02*
X551990Y171395D01*
X551990Y173276D02*
X553010Y173276D01*
X553010Y175157D02*
X551990Y175157D01*
X548010Y161990D02*
X546990Y161990D01*
X546990Y176010D01*
X548010Y176010D01*
X548010Y161990D01*
X548010Y163871D02*
X546990Y163871D01*
X546990Y165752D02*
X548010Y165752D01*
X548010Y167633D02*
X546990Y167633D01*
X546990Y169514D02*
X548010Y169514D01*
X548010Y171395D02*
X546990Y171395D01*
X546990Y173276D02*
X548010Y173276D01*
X548010Y175157D02*
X546990Y175157D01*
X543010Y161990D02*
X541990Y161990D01*
X541990Y176010D01*
X543010Y176010D01*
X543010Y161990D01*
X543010Y163871D02*
X541990Y163871D01*
X541990Y165752D02*
X543010Y165752D01*
X543010Y167633D02*
X541990Y167633D01*
X541990Y169514D02*
X543010Y169514D01*
X543010Y171395D02*
X541990Y171395D01*
X541990Y173276D02*
X543010Y173276D01*
X543010Y175157D02*
X541990Y175157D01*
X651990Y83990D02*
X653010Y83990D01*
X651990Y83990D02*
X651990Y98010D01*
X653010Y98010D01*
X653010Y83990D01*
X653010Y85871D02*
X651990Y85871D01*
X651990Y87752D02*
X653010Y87752D01*
X653010Y89633D02*
X651990Y89633D01*
X651990Y91514D02*
X653010Y91514D01*
X653010Y93395D02*
X651990Y93395D01*
X651990Y95276D02*
X653010Y95276D01*
X653010Y97157D02*
X651990Y97157D01*
X648010Y83990D02*
X646990Y83990D01*
X646990Y98010D01*
X648010Y98010D01*
X648010Y83990D01*
X648010Y85871D02*
X646990Y85871D01*
X646990Y87752D02*
X648010Y87752D01*
X648010Y89633D02*
X646990Y89633D01*
X646990Y91514D02*
X648010Y91514D01*
X648010Y93395D02*
X646990Y93395D01*
X646990Y95276D02*
X648010Y95276D01*
X648010Y97157D02*
X646990Y97157D01*
X643010Y83990D02*
X641990Y83990D01*
X641990Y98010D01*
X643010Y98010D01*
X643010Y83990D01*
X643010Y85871D02*
X641990Y85871D01*
X641990Y87752D02*
X643010Y87752D01*
X643010Y89633D02*
X641990Y89633D01*
X641990Y91514D02*
X643010Y91514D01*
X643010Y93395D02*
X641990Y93395D01*
X641990Y95276D02*
X643010Y95276D01*
X643010Y97157D02*
X641990Y97157D01*
X638010Y83990D02*
X636990Y83990D01*
X636990Y98010D01*
X638010Y98010D01*
X638010Y83990D01*
X638010Y85871D02*
X636990Y85871D01*
X636990Y87752D02*
X638010Y87752D01*
X638010Y89633D02*
X636990Y89633D01*
X636990Y91514D02*
X638010Y91514D01*
X638010Y93395D02*
X636990Y93395D01*
X636990Y95276D02*
X638010Y95276D01*
X638010Y97157D02*
X636990Y97157D01*
X633010Y83990D02*
X631990Y83990D01*
X631990Y98010D01*
X633010Y98010D01*
X633010Y83990D01*
X633010Y85871D02*
X631990Y85871D01*
X631990Y87752D02*
X633010Y87752D01*
X633010Y89633D02*
X631990Y89633D01*
X631990Y91514D02*
X633010Y91514D01*
X633010Y93395D02*
X631990Y93395D01*
X631990Y95276D02*
X633010Y95276D01*
X633010Y97157D02*
X631990Y97157D01*
X628010Y83990D02*
X626990Y83990D01*
X626990Y98010D01*
X628010Y98010D01*
X628010Y83990D01*
X628010Y85871D02*
X626990Y85871D01*
X626990Y87752D02*
X628010Y87752D01*
X628010Y89633D02*
X626990Y89633D01*
X626990Y91514D02*
X628010Y91514D01*
X628010Y93395D02*
X626990Y93395D01*
X626990Y95276D02*
X628010Y95276D01*
X628010Y97157D02*
X626990Y97157D01*
X623010Y83990D02*
X621990Y83990D01*
X621990Y98010D01*
X623010Y98010D01*
X623010Y83990D01*
X623010Y85871D02*
X621990Y85871D01*
X621990Y87752D02*
X623010Y87752D01*
X623010Y89633D02*
X621990Y89633D01*
X621990Y91514D02*
X623010Y91514D01*
X623010Y93395D02*
X621990Y93395D01*
X621990Y95276D02*
X623010Y95276D01*
X623010Y97157D02*
X621990Y97157D01*
X618010Y83990D02*
X616990Y83990D01*
X616990Y98010D01*
X618010Y98010D01*
X618010Y83990D01*
X618010Y85871D02*
X616990Y85871D01*
X616990Y87752D02*
X618010Y87752D01*
X618010Y89633D02*
X616990Y89633D01*
X616990Y91514D02*
X618010Y91514D01*
X618010Y93395D02*
X616990Y93395D01*
X616990Y95276D02*
X618010Y95276D01*
X618010Y97157D02*
X616990Y97157D01*
X613010Y83990D02*
X611990Y83990D01*
X611990Y98010D01*
X613010Y98010D01*
X613010Y83990D01*
X613010Y85871D02*
X611990Y85871D01*
X611990Y87752D02*
X613010Y87752D01*
X613010Y89633D02*
X611990Y89633D01*
X611990Y91514D02*
X613010Y91514D01*
X613010Y93395D02*
X611990Y93395D01*
X611990Y95276D02*
X613010Y95276D01*
X613010Y97157D02*
X611990Y97157D01*
X608010Y83990D02*
X606990Y83990D01*
X606990Y98010D01*
X608010Y98010D01*
X608010Y83990D01*
X608010Y85871D02*
X606990Y85871D01*
X606990Y87752D02*
X608010Y87752D01*
X608010Y89633D02*
X606990Y89633D01*
X606990Y91514D02*
X608010Y91514D01*
X608010Y93395D02*
X606990Y93395D01*
X606990Y95276D02*
X608010Y95276D01*
X608010Y97157D02*
X606990Y97157D01*
X603010Y83990D02*
X601990Y83990D01*
X601990Y98010D01*
X603010Y98010D01*
X603010Y83990D01*
X603010Y85871D02*
X601990Y85871D01*
X601990Y87752D02*
X603010Y87752D01*
X603010Y89633D02*
X601990Y89633D01*
X601990Y91514D02*
X603010Y91514D01*
X603010Y93395D02*
X601990Y93395D01*
X601990Y95276D02*
X603010Y95276D01*
X603010Y97157D02*
X601990Y97157D01*
X598010Y83990D02*
X596990Y83990D01*
X596990Y98010D01*
X598010Y98010D01*
X598010Y83990D01*
X598010Y85871D02*
X596990Y85871D01*
X596990Y87752D02*
X598010Y87752D01*
X598010Y89633D02*
X596990Y89633D01*
X596990Y91514D02*
X598010Y91514D01*
X598010Y93395D02*
X596990Y93395D01*
X596990Y95276D02*
X598010Y95276D01*
X598010Y97157D02*
X596990Y97157D01*
X593010Y83990D02*
X591990Y83990D01*
X591990Y98010D01*
X593010Y98010D01*
X593010Y83990D01*
X593010Y85871D02*
X591990Y85871D01*
X591990Y87752D02*
X593010Y87752D01*
X593010Y89633D02*
X591990Y89633D01*
X591990Y91514D02*
X593010Y91514D01*
X593010Y93395D02*
X591990Y93395D01*
X591990Y95276D02*
X593010Y95276D01*
X593010Y97157D02*
X591990Y97157D01*
X588010Y83990D02*
X586990Y83990D01*
X586990Y98010D01*
X588010Y98010D01*
X588010Y83990D01*
X588010Y85871D02*
X586990Y85871D01*
X586990Y87752D02*
X588010Y87752D01*
X588010Y89633D02*
X586990Y89633D01*
X586990Y91514D02*
X588010Y91514D01*
X588010Y93395D02*
X586990Y93395D01*
X586990Y95276D02*
X588010Y95276D01*
X588010Y97157D02*
X586990Y97157D01*
X583010Y83990D02*
X581990Y83990D01*
X581990Y98010D01*
X583010Y98010D01*
X583010Y83990D01*
X583010Y85871D02*
X581990Y85871D01*
X581990Y87752D02*
X583010Y87752D01*
X583010Y89633D02*
X581990Y89633D01*
X581990Y91514D02*
X583010Y91514D01*
X583010Y93395D02*
X581990Y93395D01*
X581990Y95276D02*
X583010Y95276D01*
X583010Y97157D02*
X581990Y97157D01*
X578010Y83990D02*
X576990Y83990D01*
X576990Y98010D01*
X578010Y98010D01*
X578010Y83990D01*
X578010Y85871D02*
X576990Y85871D01*
X576990Y87752D02*
X578010Y87752D01*
X578010Y89633D02*
X576990Y89633D01*
X576990Y91514D02*
X578010Y91514D01*
X578010Y93395D02*
X576990Y93395D01*
X576990Y95276D02*
X578010Y95276D01*
X578010Y97157D02*
X576990Y97157D01*
X573010Y83990D02*
X571990Y83990D01*
X571990Y98010D01*
X573010Y98010D01*
X573010Y83990D01*
X573010Y85871D02*
X571990Y85871D01*
X571990Y87752D02*
X573010Y87752D01*
X573010Y89633D02*
X571990Y89633D01*
X571990Y91514D02*
X573010Y91514D01*
X573010Y93395D02*
X571990Y93395D01*
X571990Y95276D02*
X573010Y95276D01*
X573010Y97157D02*
X571990Y97157D01*
X568010Y83990D02*
X566990Y83990D01*
X566990Y98010D01*
X568010Y98010D01*
X568010Y83990D01*
X568010Y85871D02*
X566990Y85871D01*
X566990Y87752D02*
X568010Y87752D01*
X568010Y89633D02*
X566990Y89633D01*
X566990Y91514D02*
X568010Y91514D01*
X568010Y93395D02*
X566990Y93395D01*
X566990Y95276D02*
X568010Y95276D01*
X568010Y97157D02*
X566990Y97157D01*
X563010Y83990D02*
X561990Y83990D01*
X561990Y98010D01*
X563010Y98010D01*
X563010Y83990D01*
X563010Y85871D02*
X561990Y85871D01*
X561990Y87752D02*
X563010Y87752D01*
X563010Y89633D02*
X561990Y89633D01*
X561990Y91514D02*
X563010Y91514D01*
X563010Y93395D02*
X561990Y93395D01*
X561990Y95276D02*
X563010Y95276D01*
X563010Y97157D02*
X561990Y97157D01*
X558010Y83990D02*
X556990Y83990D01*
X556990Y98010D01*
X558010Y98010D01*
X558010Y83990D01*
X558010Y85871D02*
X556990Y85871D01*
X556990Y87752D02*
X558010Y87752D01*
X558010Y89633D02*
X556990Y89633D01*
X556990Y91514D02*
X558010Y91514D01*
X558010Y93395D02*
X556990Y93395D01*
X556990Y95276D02*
X558010Y95276D01*
X558010Y97157D02*
X556990Y97157D01*
X553010Y83990D02*
X551990Y83990D01*
X551990Y98010D01*
X553010Y98010D01*
X553010Y83990D01*
X553010Y85871D02*
X551990Y85871D01*
X551990Y87752D02*
X553010Y87752D01*
X553010Y89633D02*
X551990Y89633D01*
X551990Y91514D02*
X553010Y91514D01*
X553010Y93395D02*
X551990Y93395D01*
X551990Y95276D02*
X553010Y95276D01*
X553010Y97157D02*
X551990Y97157D01*
X548010Y83990D02*
X546990Y83990D01*
X546990Y98010D01*
X548010Y98010D01*
X548010Y83990D01*
X548010Y85871D02*
X546990Y85871D01*
X546990Y87752D02*
X548010Y87752D01*
X548010Y89633D02*
X546990Y89633D01*
X546990Y91514D02*
X548010Y91514D01*
X548010Y93395D02*
X546990Y93395D01*
X546990Y95276D02*
X548010Y95276D01*
X548010Y97157D02*
X546990Y97157D01*
X543010Y83990D02*
X541990Y83990D01*
X541990Y98010D01*
X543010Y98010D01*
X543010Y83990D01*
X543010Y85871D02*
X541990Y85871D01*
X541990Y87752D02*
X543010Y87752D01*
X543010Y89633D02*
X541990Y89633D01*
X541990Y91514D02*
X543010Y91514D01*
X543010Y93395D02*
X541990Y93395D01*
X541990Y95276D02*
X543010Y95276D01*
X543010Y97157D02*
X541990Y97157D01*
X856990Y161990D02*
X858010Y161990D01*
X856990Y161990D02*
X856990Y176010D01*
X858010Y176010D01*
X858010Y161990D01*
X858010Y163871D02*
X856990Y163871D01*
X856990Y165752D02*
X858010Y165752D01*
X858010Y167633D02*
X856990Y167633D01*
X856990Y169514D02*
X858010Y169514D01*
X858010Y171395D02*
X856990Y171395D01*
X856990Y173276D02*
X858010Y173276D01*
X858010Y175157D02*
X856990Y175157D01*
X856990Y83990D02*
X858010Y83990D01*
X856990Y83990D02*
X856990Y98010D01*
X858010Y98010D01*
X858010Y83990D01*
X858010Y85871D02*
X856990Y85871D01*
X856990Y87752D02*
X858010Y87752D01*
X858010Y89633D02*
X856990Y89633D01*
X856990Y91514D02*
X858010Y91514D01*
X858010Y93395D02*
X856990Y93395D01*
X856990Y95276D02*
X858010Y95276D01*
X858010Y97157D02*
X856990Y97157D01*
X853010Y161990D02*
X851990Y161990D01*
X851990Y176010D01*
X853010Y176010D01*
X853010Y161990D01*
X853010Y163871D02*
X851990Y163871D01*
X851990Y165752D02*
X853010Y165752D01*
X853010Y167633D02*
X851990Y167633D01*
X851990Y169514D02*
X853010Y169514D01*
X853010Y171395D02*
X851990Y171395D01*
X851990Y173276D02*
X853010Y173276D01*
X853010Y175157D02*
X851990Y175157D01*
X848010Y161990D02*
X846990Y161990D01*
X846990Y176010D01*
X848010Y176010D01*
X848010Y161990D01*
X848010Y163871D02*
X846990Y163871D01*
X846990Y165752D02*
X848010Y165752D01*
X848010Y167633D02*
X846990Y167633D01*
X846990Y169514D02*
X848010Y169514D01*
X848010Y171395D02*
X846990Y171395D01*
X846990Y173276D02*
X848010Y173276D01*
X848010Y175157D02*
X846990Y175157D01*
X843010Y161990D02*
X841990Y161990D01*
X841990Y176010D01*
X843010Y176010D01*
X843010Y161990D01*
X843010Y163871D02*
X841990Y163871D01*
X841990Y165752D02*
X843010Y165752D01*
X843010Y167633D02*
X841990Y167633D01*
X841990Y169514D02*
X843010Y169514D01*
X843010Y171395D02*
X841990Y171395D01*
X841990Y173276D02*
X843010Y173276D01*
X843010Y175157D02*
X841990Y175157D01*
X838010Y161990D02*
X836990Y161990D01*
X836990Y176010D01*
X838010Y176010D01*
X838010Y161990D01*
X838010Y163871D02*
X836990Y163871D01*
X836990Y165752D02*
X838010Y165752D01*
X838010Y167633D02*
X836990Y167633D01*
X836990Y169514D02*
X838010Y169514D01*
X838010Y171395D02*
X836990Y171395D01*
X836990Y173276D02*
X838010Y173276D01*
X838010Y175157D02*
X836990Y175157D01*
X833010Y161990D02*
X831990Y161990D01*
X831990Y176010D01*
X833010Y176010D01*
X833010Y161990D01*
X833010Y163871D02*
X831990Y163871D01*
X831990Y165752D02*
X833010Y165752D01*
X833010Y167633D02*
X831990Y167633D01*
X831990Y169514D02*
X833010Y169514D01*
X833010Y171395D02*
X831990Y171395D01*
X831990Y173276D02*
X833010Y173276D01*
X833010Y175157D02*
X831990Y175157D01*
X828010Y161990D02*
X826990Y161990D01*
X826990Y176010D01*
X828010Y176010D01*
X828010Y161990D01*
X828010Y163871D02*
X826990Y163871D01*
X826990Y165752D02*
X828010Y165752D01*
X828010Y167633D02*
X826990Y167633D01*
X826990Y169514D02*
X828010Y169514D01*
X828010Y171395D02*
X826990Y171395D01*
X826990Y173276D02*
X828010Y173276D01*
X828010Y175157D02*
X826990Y175157D01*
X823010Y161990D02*
X821990Y161990D01*
X821990Y176010D01*
X823010Y176010D01*
X823010Y161990D01*
X823010Y163871D02*
X821990Y163871D01*
X821990Y165752D02*
X823010Y165752D01*
X823010Y167633D02*
X821990Y167633D01*
X821990Y169514D02*
X823010Y169514D01*
X823010Y171395D02*
X821990Y171395D01*
X821990Y173276D02*
X823010Y173276D01*
X823010Y175157D02*
X821990Y175157D01*
X818010Y161990D02*
X816990Y161990D01*
X816990Y176010D01*
X818010Y176010D01*
X818010Y161990D01*
X818010Y163871D02*
X816990Y163871D01*
X816990Y165752D02*
X818010Y165752D01*
X818010Y167633D02*
X816990Y167633D01*
X816990Y169514D02*
X818010Y169514D01*
X818010Y171395D02*
X816990Y171395D01*
X816990Y173276D02*
X818010Y173276D01*
X818010Y175157D02*
X816990Y175157D01*
X813010Y161990D02*
X811990Y161990D01*
X811990Y176010D01*
X813010Y176010D01*
X813010Y161990D01*
X813010Y163871D02*
X811990Y163871D01*
X811990Y165752D02*
X813010Y165752D01*
X813010Y167633D02*
X811990Y167633D01*
X811990Y169514D02*
X813010Y169514D01*
X813010Y171395D02*
X811990Y171395D01*
X811990Y173276D02*
X813010Y173276D01*
X813010Y175157D02*
X811990Y175157D01*
X808010Y161990D02*
X806990Y161990D01*
X806990Y176010D01*
X808010Y176010D01*
X808010Y161990D01*
X808010Y163871D02*
X806990Y163871D01*
X806990Y165752D02*
X808010Y165752D01*
X808010Y167633D02*
X806990Y167633D01*
X806990Y169514D02*
X808010Y169514D01*
X808010Y171395D02*
X806990Y171395D01*
X806990Y173276D02*
X808010Y173276D01*
X808010Y175157D02*
X806990Y175157D01*
X803010Y161990D02*
X801990Y161990D01*
X801990Y176010D01*
X803010Y176010D01*
X803010Y161990D01*
X803010Y163871D02*
X801990Y163871D01*
X801990Y165752D02*
X803010Y165752D01*
X803010Y167633D02*
X801990Y167633D01*
X801990Y169514D02*
X803010Y169514D01*
X803010Y171395D02*
X801990Y171395D01*
X801990Y173276D02*
X803010Y173276D01*
X803010Y175157D02*
X801990Y175157D01*
X798010Y161990D02*
X796990Y161990D01*
X796990Y176010D01*
X798010Y176010D01*
X798010Y161990D01*
X798010Y163871D02*
X796990Y163871D01*
X796990Y165752D02*
X798010Y165752D01*
X798010Y167633D02*
X796990Y167633D01*
X796990Y169514D02*
X798010Y169514D01*
X798010Y171395D02*
X796990Y171395D01*
X796990Y173276D02*
X798010Y173276D01*
X798010Y175157D02*
X796990Y175157D01*
X793010Y161990D02*
X791990Y161990D01*
X791990Y176010D01*
X793010Y176010D01*
X793010Y161990D01*
X793010Y163871D02*
X791990Y163871D01*
X791990Y165752D02*
X793010Y165752D01*
X793010Y167633D02*
X791990Y167633D01*
X791990Y169514D02*
X793010Y169514D01*
X793010Y171395D02*
X791990Y171395D01*
X791990Y173276D02*
X793010Y173276D01*
X793010Y175157D02*
X791990Y175157D01*
X788010Y161990D02*
X786990Y161990D01*
X786990Y176010D01*
X788010Y176010D01*
X788010Y161990D01*
X788010Y163871D02*
X786990Y163871D01*
X786990Y165752D02*
X788010Y165752D01*
X788010Y167633D02*
X786990Y167633D01*
X786990Y169514D02*
X788010Y169514D01*
X788010Y171395D02*
X786990Y171395D01*
X786990Y173276D02*
X788010Y173276D01*
X788010Y175157D02*
X786990Y175157D01*
X783010Y161990D02*
X781990Y161990D01*
X781990Y176010D01*
X783010Y176010D01*
X783010Y161990D01*
X783010Y163871D02*
X781990Y163871D01*
X781990Y165752D02*
X783010Y165752D01*
X783010Y167633D02*
X781990Y167633D01*
X781990Y169514D02*
X783010Y169514D01*
X783010Y171395D02*
X781990Y171395D01*
X781990Y173276D02*
X783010Y173276D01*
X783010Y175157D02*
X781990Y175157D01*
X778010Y161990D02*
X776990Y161990D01*
X776990Y176010D01*
X778010Y176010D01*
X778010Y161990D01*
X778010Y163871D02*
X776990Y163871D01*
X776990Y165752D02*
X778010Y165752D01*
X778010Y167633D02*
X776990Y167633D01*
X776990Y169514D02*
X778010Y169514D01*
X778010Y171395D02*
X776990Y171395D01*
X776990Y173276D02*
X778010Y173276D01*
X778010Y175157D02*
X776990Y175157D01*
X773010Y161990D02*
X771990Y161990D01*
X771990Y176010D01*
X773010Y176010D01*
X773010Y161990D01*
X773010Y163871D02*
X771990Y163871D01*
X771990Y165752D02*
X773010Y165752D01*
X773010Y167633D02*
X771990Y167633D01*
X771990Y169514D02*
X773010Y169514D01*
X773010Y171395D02*
X771990Y171395D01*
X771990Y173276D02*
X773010Y173276D01*
X773010Y175157D02*
X771990Y175157D01*
X768010Y161990D02*
X766990Y161990D01*
X766990Y176010D01*
X768010Y176010D01*
X768010Y161990D01*
X768010Y163871D02*
X766990Y163871D01*
X766990Y165752D02*
X768010Y165752D01*
X768010Y167633D02*
X766990Y167633D01*
X766990Y169514D02*
X768010Y169514D01*
X768010Y171395D02*
X766990Y171395D01*
X766990Y173276D02*
X768010Y173276D01*
X768010Y175157D02*
X766990Y175157D01*
X763010Y161990D02*
X761990Y161990D01*
X761990Y176010D01*
X763010Y176010D01*
X763010Y161990D01*
X763010Y163871D02*
X761990Y163871D01*
X761990Y165752D02*
X763010Y165752D01*
X763010Y167633D02*
X761990Y167633D01*
X761990Y169514D02*
X763010Y169514D01*
X763010Y171395D02*
X761990Y171395D01*
X761990Y173276D02*
X763010Y173276D01*
X763010Y175157D02*
X761990Y175157D01*
X758010Y161990D02*
X756990Y161990D01*
X756990Y176010D01*
X758010Y176010D01*
X758010Y161990D01*
X758010Y163871D02*
X756990Y163871D01*
X756990Y165752D02*
X758010Y165752D01*
X758010Y167633D02*
X756990Y167633D01*
X756990Y169514D02*
X758010Y169514D01*
X758010Y171395D02*
X756990Y171395D01*
X756990Y173276D02*
X758010Y173276D01*
X758010Y175157D02*
X756990Y175157D01*
X753010Y161990D02*
X751990Y161990D01*
X751990Y176010D01*
X753010Y176010D01*
X753010Y161990D01*
X753010Y163871D02*
X751990Y163871D01*
X751990Y165752D02*
X753010Y165752D01*
X753010Y167633D02*
X751990Y167633D01*
X751990Y169514D02*
X753010Y169514D01*
X753010Y171395D02*
X751990Y171395D01*
X751990Y173276D02*
X753010Y173276D01*
X753010Y175157D02*
X751990Y175157D01*
X748010Y161990D02*
X746990Y161990D01*
X746990Y176010D01*
X748010Y176010D01*
X748010Y161990D01*
X748010Y163871D02*
X746990Y163871D01*
X746990Y165752D02*
X748010Y165752D01*
X748010Y167633D02*
X746990Y167633D01*
X746990Y169514D02*
X748010Y169514D01*
X748010Y171395D02*
X746990Y171395D01*
X746990Y173276D02*
X748010Y173276D01*
X748010Y175157D02*
X746990Y175157D01*
X743010Y161990D02*
X741990Y161990D01*
X741990Y176010D01*
X743010Y176010D01*
X743010Y161990D01*
X743010Y163871D02*
X741990Y163871D01*
X741990Y165752D02*
X743010Y165752D01*
X743010Y167633D02*
X741990Y167633D01*
X741990Y169514D02*
X743010Y169514D01*
X743010Y171395D02*
X741990Y171395D01*
X741990Y173276D02*
X743010Y173276D01*
X743010Y175157D02*
X741990Y175157D01*
X851990Y83990D02*
X853010Y83990D01*
X851990Y83990D02*
X851990Y98010D01*
X853010Y98010D01*
X853010Y83990D01*
X853010Y85871D02*
X851990Y85871D01*
X851990Y87752D02*
X853010Y87752D01*
X853010Y89633D02*
X851990Y89633D01*
X851990Y91514D02*
X853010Y91514D01*
X853010Y93395D02*
X851990Y93395D01*
X851990Y95276D02*
X853010Y95276D01*
X853010Y97157D02*
X851990Y97157D01*
X848010Y83990D02*
X846990Y83990D01*
X846990Y98010D01*
X848010Y98010D01*
X848010Y83990D01*
X848010Y85871D02*
X846990Y85871D01*
X846990Y87752D02*
X848010Y87752D01*
X848010Y89633D02*
X846990Y89633D01*
X846990Y91514D02*
X848010Y91514D01*
X848010Y93395D02*
X846990Y93395D01*
X846990Y95276D02*
X848010Y95276D01*
X848010Y97157D02*
X846990Y97157D01*
X843010Y83990D02*
X841990Y83990D01*
X841990Y98010D01*
X843010Y98010D01*
X843010Y83990D01*
X843010Y85871D02*
X841990Y85871D01*
X841990Y87752D02*
X843010Y87752D01*
X843010Y89633D02*
X841990Y89633D01*
X841990Y91514D02*
X843010Y91514D01*
X843010Y93395D02*
X841990Y93395D01*
X841990Y95276D02*
X843010Y95276D01*
X843010Y97157D02*
X841990Y97157D01*
X838010Y83990D02*
X836990Y83990D01*
X836990Y98010D01*
X838010Y98010D01*
X838010Y83990D01*
X838010Y85871D02*
X836990Y85871D01*
X836990Y87752D02*
X838010Y87752D01*
X838010Y89633D02*
X836990Y89633D01*
X836990Y91514D02*
X838010Y91514D01*
X838010Y93395D02*
X836990Y93395D01*
X836990Y95276D02*
X838010Y95276D01*
X838010Y97157D02*
X836990Y97157D01*
X833010Y83990D02*
X831990Y83990D01*
X831990Y98010D01*
X833010Y98010D01*
X833010Y83990D01*
X833010Y85871D02*
X831990Y85871D01*
X831990Y87752D02*
X833010Y87752D01*
X833010Y89633D02*
X831990Y89633D01*
X831990Y91514D02*
X833010Y91514D01*
X833010Y93395D02*
X831990Y93395D01*
X831990Y95276D02*
X833010Y95276D01*
X833010Y97157D02*
X831990Y97157D01*
X828010Y83990D02*
X826990Y83990D01*
X826990Y98010D01*
X828010Y98010D01*
X828010Y83990D01*
X828010Y85871D02*
X826990Y85871D01*
X826990Y87752D02*
X828010Y87752D01*
X828010Y89633D02*
X826990Y89633D01*
X826990Y91514D02*
X828010Y91514D01*
X828010Y93395D02*
X826990Y93395D01*
X826990Y95276D02*
X828010Y95276D01*
X828010Y97157D02*
X826990Y97157D01*
X823010Y83990D02*
X821990Y83990D01*
X821990Y98010D01*
X823010Y98010D01*
X823010Y83990D01*
X823010Y85871D02*
X821990Y85871D01*
X821990Y87752D02*
X823010Y87752D01*
X823010Y89633D02*
X821990Y89633D01*
X821990Y91514D02*
X823010Y91514D01*
X823010Y93395D02*
X821990Y93395D01*
X821990Y95276D02*
X823010Y95276D01*
X823010Y97157D02*
X821990Y97157D01*
X818010Y83990D02*
X816990Y83990D01*
X816990Y98010D01*
X818010Y98010D01*
X818010Y83990D01*
X818010Y85871D02*
X816990Y85871D01*
X816990Y87752D02*
X818010Y87752D01*
X818010Y89633D02*
X816990Y89633D01*
X816990Y91514D02*
X818010Y91514D01*
X818010Y93395D02*
X816990Y93395D01*
X816990Y95276D02*
X818010Y95276D01*
X818010Y97157D02*
X816990Y97157D01*
X813010Y83990D02*
X811990Y83990D01*
X811990Y98010D01*
X813010Y98010D01*
X813010Y83990D01*
X813010Y85871D02*
X811990Y85871D01*
X811990Y87752D02*
X813010Y87752D01*
X813010Y89633D02*
X811990Y89633D01*
X811990Y91514D02*
X813010Y91514D01*
X813010Y93395D02*
X811990Y93395D01*
X811990Y95276D02*
X813010Y95276D01*
X813010Y97157D02*
X811990Y97157D01*
X808010Y83990D02*
X806990Y83990D01*
X806990Y98010D01*
X808010Y98010D01*
X808010Y83990D01*
X808010Y85871D02*
X806990Y85871D01*
X806990Y87752D02*
X808010Y87752D01*
X808010Y89633D02*
X806990Y89633D01*
X806990Y91514D02*
X808010Y91514D01*
X808010Y93395D02*
X806990Y93395D01*
X806990Y95276D02*
X808010Y95276D01*
X808010Y97157D02*
X806990Y97157D01*
X803010Y83990D02*
X801990Y83990D01*
X801990Y98010D01*
X803010Y98010D01*
X803010Y83990D01*
X803010Y85871D02*
X801990Y85871D01*
X801990Y87752D02*
X803010Y87752D01*
X803010Y89633D02*
X801990Y89633D01*
X801990Y91514D02*
X803010Y91514D01*
X803010Y93395D02*
X801990Y93395D01*
X801990Y95276D02*
X803010Y95276D01*
X803010Y97157D02*
X801990Y97157D01*
X798010Y83990D02*
X796990Y83990D01*
X796990Y98010D01*
X798010Y98010D01*
X798010Y83990D01*
X798010Y85871D02*
X796990Y85871D01*
X796990Y87752D02*
X798010Y87752D01*
X798010Y89633D02*
X796990Y89633D01*
X796990Y91514D02*
X798010Y91514D01*
X798010Y93395D02*
X796990Y93395D01*
X796990Y95276D02*
X798010Y95276D01*
X798010Y97157D02*
X796990Y97157D01*
X793010Y83990D02*
X791990Y83990D01*
X791990Y98010D01*
X793010Y98010D01*
X793010Y83990D01*
X793010Y85871D02*
X791990Y85871D01*
X791990Y87752D02*
X793010Y87752D01*
X793010Y89633D02*
X791990Y89633D01*
X791990Y91514D02*
X793010Y91514D01*
X793010Y93395D02*
X791990Y93395D01*
X791990Y95276D02*
X793010Y95276D01*
X793010Y97157D02*
X791990Y97157D01*
X788010Y83990D02*
X786990Y83990D01*
X786990Y98010D01*
X788010Y98010D01*
X788010Y83990D01*
X788010Y85871D02*
X786990Y85871D01*
X786990Y87752D02*
X788010Y87752D01*
X788010Y89633D02*
X786990Y89633D01*
X786990Y91514D02*
X788010Y91514D01*
X788010Y93395D02*
X786990Y93395D01*
X786990Y95276D02*
X788010Y95276D01*
X788010Y97157D02*
X786990Y97157D01*
X783010Y83990D02*
X781990Y83990D01*
X781990Y98010D01*
X783010Y98010D01*
X783010Y83990D01*
X783010Y85871D02*
X781990Y85871D01*
X781990Y87752D02*
X783010Y87752D01*
X783010Y89633D02*
X781990Y89633D01*
X781990Y91514D02*
X783010Y91514D01*
X783010Y93395D02*
X781990Y93395D01*
X781990Y95276D02*
X783010Y95276D01*
X783010Y97157D02*
X781990Y97157D01*
X778010Y83990D02*
X776990Y83990D01*
X776990Y98010D01*
X778010Y98010D01*
X778010Y83990D01*
X778010Y85871D02*
X776990Y85871D01*
X776990Y87752D02*
X778010Y87752D01*
X778010Y89633D02*
X776990Y89633D01*
X776990Y91514D02*
X778010Y91514D01*
X778010Y93395D02*
X776990Y93395D01*
X776990Y95276D02*
X778010Y95276D01*
X778010Y97157D02*
X776990Y97157D01*
X773010Y83990D02*
X771990Y83990D01*
X771990Y98010D01*
X773010Y98010D01*
X773010Y83990D01*
X773010Y85871D02*
X771990Y85871D01*
X771990Y87752D02*
X773010Y87752D01*
X773010Y89633D02*
X771990Y89633D01*
X771990Y91514D02*
X773010Y91514D01*
X773010Y93395D02*
X771990Y93395D01*
X771990Y95276D02*
X773010Y95276D01*
X773010Y97157D02*
X771990Y97157D01*
X768010Y83990D02*
X766990Y83990D01*
X766990Y98010D01*
X768010Y98010D01*
X768010Y83990D01*
X768010Y85871D02*
X766990Y85871D01*
X766990Y87752D02*
X768010Y87752D01*
X768010Y89633D02*
X766990Y89633D01*
X766990Y91514D02*
X768010Y91514D01*
X768010Y93395D02*
X766990Y93395D01*
X766990Y95276D02*
X768010Y95276D01*
X768010Y97157D02*
X766990Y97157D01*
X763010Y83990D02*
X761990Y83990D01*
X761990Y98010D01*
X763010Y98010D01*
X763010Y83990D01*
X763010Y85871D02*
X761990Y85871D01*
X761990Y87752D02*
X763010Y87752D01*
X763010Y89633D02*
X761990Y89633D01*
X761990Y91514D02*
X763010Y91514D01*
X763010Y93395D02*
X761990Y93395D01*
X761990Y95276D02*
X763010Y95276D01*
X763010Y97157D02*
X761990Y97157D01*
X758010Y83990D02*
X756990Y83990D01*
X756990Y98010D01*
X758010Y98010D01*
X758010Y83990D01*
X758010Y85871D02*
X756990Y85871D01*
X756990Y87752D02*
X758010Y87752D01*
X758010Y89633D02*
X756990Y89633D01*
X756990Y91514D02*
X758010Y91514D01*
X758010Y93395D02*
X756990Y93395D01*
X756990Y95276D02*
X758010Y95276D01*
X758010Y97157D02*
X756990Y97157D01*
X753010Y83990D02*
X751990Y83990D01*
X751990Y98010D01*
X753010Y98010D01*
X753010Y83990D01*
X753010Y85871D02*
X751990Y85871D01*
X751990Y87752D02*
X753010Y87752D01*
X753010Y89633D02*
X751990Y89633D01*
X751990Y91514D02*
X753010Y91514D01*
X753010Y93395D02*
X751990Y93395D01*
X751990Y95276D02*
X753010Y95276D01*
X753010Y97157D02*
X751990Y97157D01*
X748010Y83990D02*
X746990Y83990D01*
X746990Y98010D01*
X748010Y98010D01*
X748010Y83990D01*
X748010Y85871D02*
X746990Y85871D01*
X746990Y87752D02*
X748010Y87752D01*
X748010Y89633D02*
X746990Y89633D01*
X746990Y91514D02*
X748010Y91514D01*
X748010Y93395D02*
X746990Y93395D01*
X746990Y95276D02*
X748010Y95276D01*
X748010Y97157D02*
X746990Y97157D01*
X743010Y83990D02*
X741990Y83990D01*
X741990Y98010D01*
X743010Y98010D01*
X743010Y83990D01*
X743010Y85871D02*
X741990Y85871D01*
X741990Y87752D02*
X743010Y87752D01*
X743010Y89633D02*
X741990Y89633D01*
X741990Y91514D02*
X743010Y91514D01*
X743010Y93395D02*
X741990Y93395D01*
X741990Y95276D02*
X743010Y95276D01*
X743010Y97157D02*
X741990Y97157D01*
X1056990Y161990D02*
X1058010Y161990D01*
X1056990Y161990D02*
X1056990Y176010D01*
X1058010Y176010D01*
X1058010Y161990D01*
X1058010Y163871D02*
X1056990Y163871D01*
X1056990Y165752D02*
X1058010Y165752D01*
X1058010Y167633D02*
X1056990Y167633D01*
X1056990Y169514D02*
X1058010Y169514D01*
X1058010Y171395D02*
X1056990Y171395D01*
X1056990Y173276D02*
X1058010Y173276D01*
X1058010Y175157D02*
X1056990Y175157D01*
X1056990Y83990D02*
X1058010Y83990D01*
X1056990Y83990D02*
X1056990Y98010D01*
X1058010Y98010D01*
X1058010Y83990D01*
X1058010Y85871D02*
X1056990Y85871D01*
X1056990Y87752D02*
X1058010Y87752D01*
X1058010Y89633D02*
X1056990Y89633D01*
X1056990Y91514D02*
X1058010Y91514D01*
X1058010Y93395D02*
X1056990Y93395D01*
X1056990Y95276D02*
X1058010Y95276D01*
X1058010Y97157D02*
X1056990Y97157D01*
X1053010Y161990D02*
X1051990Y161990D01*
X1051990Y176010D01*
X1053010Y176010D01*
X1053010Y161990D01*
X1053010Y163871D02*
X1051990Y163871D01*
X1051990Y165752D02*
X1053010Y165752D01*
X1053010Y167633D02*
X1051990Y167633D01*
X1051990Y169514D02*
X1053010Y169514D01*
X1053010Y171395D02*
X1051990Y171395D01*
X1051990Y173276D02*
X1053010Y173276D01*
X1053010Y175157D02*
X1051990Y175157D01*
X1048010Y161990D02*
X1046990Y161990D01*
X1046990Y176010D01*
X1048010Y176010D01*
X1048010Y161990D01*
X1048010Y163871D02*
X1046990Y163871D01*
X1046990Y165752D02*
X1048010Y165752D01*
X1048010Y167633D02*
X1046990Y167633D01*
X1046990Y169514D02*
X1048010Y169514D01*
X1048010Y171395D02*
X1046990Y171395D01*
X1046990Y173276D02*
X1048010Y173276D01*
X1048010Y175157D02*
X1046990Y175157D01*
X1043010Y161990D02*
X1041990Y161990D01*
X1041990Y176010D01*
X1043010Y176010D01*
X1043010Y161990D01*
X1043010Y163871D02*
X1041990Y163871D01*
X1041990Y165752D02*
X1043010Y165752D01*
X1043010Y167633D02*
X1041990Y167633D01*
X1041990Y169514D02*
X1043010Y169514D01*
X1043010Y171395D02*
X1041990Y171395D01*
X1041990Y173276D02*
X1043010Y173276D01*
X1043010Y175157D02*
X1041990Y175157D01*
X1038010Y161990D02*
X1036990Y161990D01*
X1036990Y176010D01*
X1038010Y176010D01*
X1038010Y161990D01*
X1038010Y163871D02*
X1036990Y163871D01*
X1036990Y165752D02*
X1038010Y165752D01*
X1038010Y167633D02*
X1036990Y167633D01*
X1036990Y169514D02*
X1038010Y169514D01*
X1038010Y171395D02*
X1036990Y171395D01*
X1036990Y173276D02*
X1038010Y173276D01*
X1038010Y175157D02*
X1036990Y175157D01*
X1033010Y161990D02*
X1031990Y161990D01*
X1031990Y176010D01*
X1033010Y176010D01*
X1033010Y161990D01*
X1033010Y163871D02*
X1031990Y163871D01*
X1031990Y165752D02*
X1033010Y165752D01*
X1033010Y167633D02*
X1031990Y167633D01*
X1031990Y169514D02*
X1033010Y169514D01*
X1033010Y171395D02*
X1031990Y171395D01*
X1031990Y173276D02*
X1033010Y173276D01*
X1033010Y175157D02*
X1031990Y175157D01*
X1028010Y161990D02*
X1026990Y161990D01*
X1026990Y176010D01*
X1028010Y176010D01*
X1028010Y161990D01*
X1028010Y163871D02*
X1026990Y163871D01*
X1026990Y165752D02*
X1028010Y165752D01*
X1028010Y167633D02*
X1026990Y167633D01*
X1026990Y169514D02*
X1028010Y169514D01*
X1028010Y171395D02*
X1026990Y171395D01*
X1026990Y173276D02*
X1028010Y173276D01*
X1028010Y175157D02*
X1026990Y175157D01*
X1023010Y161990D02*
X1021990Y161990D01*
X1021990Y176010D01*
X1023010Y176010D01*
X1023010Y161990D01*
X1023010Y163871D02*
X1021990Y163871D01*
X1021990Y165752D02*
X1023010Y165752D01*
X1023010Y167633D02*
X1021990Y167633D01*
X1021990Y169514D02*
X1023010Y169514D01*
X1023010Y171395D02*
X1021990Y171395D01*
X1021990Y173276D02*
X1023010Y173276D01*
X1023010Y175157D02*
X1021990Y175157D01*
X1018010Y161990D02*
X1016990Y161990D01*
X1016990Y176010D01*
X1018010Y176010D01*
X1018010Y161990D01*
X1018010Y163871D02*
X1016990Y163871D01*
X1016990Y165752D02*
X1018010Y165752D01*
X1018010Y167633D02*
X1016990Y167633D01*
X1016990Y169514D02*
X1018010Y169514D01*
X1018010Y171395D02*
X1016990Y171395D01*
X1016990Y173276D02*
X1018010Y173276D01*
X1018010Y175157D02*
X1016990Y175157D01*
X1013010Y161990D02*
X1011990Y161990D01*
X1011990Y176010D01*
X1013010Y176010D01*
X1013010Y161990D01*
X1013010Y163871D02*
X1011990Y163871D01*
X1011990Y165752D02*
X1013010Y165752D01*
X1013010Y167633D02*
X1011990Y167633D01*
X1011990Y169514D02*
X1013010Y169514D01*
X1013010Y171395D02*
X1011990Y171395D01*
X1011990Y173276D02*
X1013010Y173276D01*
X1013010Y175157D02*
X1011990Y175157D01*
X1008010Y161990D02*
X1006990Y161990D01*
X1006990Y176010D01*
X1008010Y176010D01*
X1008010Y161990D01*
X1008010Y163871D02*
X1006990Y163871D01*
X1006990Y165752D02*
X1008010Y165752D01*
X1008010Y167633D02*
X1006990Y167633D01*
X1006990Y169514D02*
X1008010Y169514D01*
X1008010Y171395D02*
X1006990Y171395D01*
X1006990Y173276D02*
X1008010Y173276D01*
X1008010Y175157D02*
X1006990Y175157D01*
X1003010Y161990D02*
X1001990Y161990D01*
X1001990Y176010D01*
X1003010Y176010D01*
X1003010Y161990D01*
X1003010Y163871D02*
X1001990Y163871D01*
X1001990Y165752D02*
X1003010Y165752D01*
X1003010Y167633D02*
X1001990Y167633D01*
X1001990Y169514D02*
X1003010Y169514D01*
X1003010Y171395D02*
X1001990Y171395D01*
X1001990Y173276D02*
X1003010Y173276D01*
X1003010Y175157D02*
X1001990Y175157D01*
X998010Y161990D02*
X996990Y161990D01*
X996990Y176010D01*
X998010Y176010D01*
X998010Y161990D01*
X998010Y163871D02*
X996990Y163871D01*
X996990Y165752D02*
X998010Y165752D01*
X998010Y167633D02*
X996990Y167633D01*
X996990Y169514D02*
X998010Y169514D01*
X998010Y171395D02*
X996990Y171395D01*
X996990Y173276D02*
X998010Y173276D01*
X998010Y175157D02*
X996990Y175157D01*
X993010Y161990D02*
X991990Y161990D01*
X991990Y176010D01*
X993010Y176010D01*
X993010Y161990D01*
X993010Y163871D02*
X991990Y163871D01*
X991990Y165752D02*
X993010Y165752D01*
X993010Y167633D02*
X991990Y167633D01*
X991990Y169514D02*
X993010Y169514D01*
X993010Y171395D02*
X991990Y171395D01*
X991990Y173276D02*
X993010Y173276D01*
X993010Y175157D02*
X991990Y175157D01*
X988010Y161990D02*
X986990Y161990D01*
X986990Y176010D01*
X988010Y176010D01*
X988010Y161990D01*
X988010Y163871D02*
X986990Y163871D01*
X986990Y165752D02*
X988010Y165752D01*
X988010Y167633D02*
X986990Y167633D01*
X986990Y169514D02*
X988010Y169514D01*
X988010Y171395D02*
X986990Y171395D01*
X986990Y173276D02*
X988010Y173276D01*
X988010Y175157D02*
X986990Y175157D01*
X983010Y161990D02*
X981990Y161990D01*
X981990Y176010D01*
X983010Y176010D01*
X983010Y161990D01*
X983010Y163871D02*
X981990Y163871D01*
X981990Y165752D02*
X983010Y165752D01*
X983010Y167633D02*
X981990Y167633D01*
X981990Y169514D02*
X983010Y169514D01*
X983010Y171395D02*
X981990Y171395D01*
X981990Y173276D02*
X983010Y173276D01*
X983010Y175157D02*
X981990Y175157D01*
X978010Y161990D02*
X976990Y161990D01*
X976990Y176010D01*
X978010Y176010D01*
X978010Y161990D01*
X978010Y163871D02*
X976990Y163871D01*
X976990Y165752D02*
X978010Y165752D01*
X978010Y167633D02*
X976990Y167633D01*
X976990Y169514D02*
X978010Y169514D01*
X978010Y171395D02*
X976990Y171395D01*
X976990Y173276D02*
X978010Y173276D01*
X978010Y175157D02*
X976990Y175157D01*
X973010Y161990D02*
X971990Y161990D01*
X971990Y176010D01*
X973010Y176010D01*
X973010Y161990D01*
X973010Y163871D02*
X971990Y163871D01*
X971990Y165752D02*
X973010Y165752D01*
X973010Y167633D02*
X971990Y167633D01*
X971990Y169514D02*
X973010Y169514D01*
X973010Y171395D02*
X971990Y171395D01*
X971990Y173276D02*
X973010Y173276D01*
X973010Y175157D02*
X971990Y175157D01*
X968010Y161990D02*
X966990Y161990D01*
X966990Y176010D01*
X968010Y176010D01*
X968010Y161990D01*
X968010Y163871D02*
X966990Y163871D01*
X966990Y165752D02*
X968010Y165752D01*
X968010Y167633D02*
X966990Y167633D01*
X966990Y169514D02*
X968010Y169514D01*
X968010Y171395D02*
X966990Y171395D01*
X966990Y173276D02*
X968010Y173276D01*
X968010Y175157D02*
X966990Y175157D01*
X963010Y161990D02*
X961990Y161990D01*
X961990Y176010D01*
X963010Y176010D01*
X963010Y161990D01*
X963010Y163871D02*
X961990Y163871D01*
X961990Y165752D02*
X963010Y165752D01*
X963010Y167633D02*
X961990Y167633D01*
X961990Y169514D02*
X963010Y169514D01*
X963010Y171395D02*
X961990Y171395D01*
X961990Y173276D02*
X963010Y173276D01*
X963010Y175157D02*
X961990Y175157D01*
X958010Y161990D02*
X956990Y161990D01*
X956990Y176010D01*
X958010Y176010D01*
X958010Y161990D01*
X958010Y163871D02*
X956990Y163871D01*
X956990Y165752D02*
X958010Y165752D01*
X958010Y167633D02*
X956990Y167633D01*
X956990Y169514D02*
X958010Y169514D01*
X958010Y171395D02*
X956990Y171395D01*
X956990Y173276D02*
X958010Y173276D01*
X958010Y175157D02*
X956990Y175157D01*
X953010Y161990D02*
X951990Y161990D01*
X951990Y176010D01*
X953010Y176010D01*
X953010Y161990D01*
X953010Y163871D02*
X951990Y163871D01*
X951990Y165752D02*
X953010Y165752D01*
X953010Y167633D02*
X951990Y167633D01*
X951990Y169514D02*
X953010Y169514D01*
X953010Y171395D02*
X951990Y171395D01*
X951990Y173276D02*
X953010Y173276D01*
X953010Y175157D02*
X951990Y175157D01*
X948010Y161990D02*
X946990Y161990D01*
X946990Y176010D01*
X948010Y176010D01*
X948010Y161990D01*
X948010Y163871D02*
X946990Y163871D01*
X946990Y165752D02*
X948010Y165752D01*
X948010Y167633D02*
X946990Y167633D01*
X946990Y169514D02*
X948010Y169514D01*
X948010Y171395D02*
X946990Y171395D01*
X946990Y173276D02*
X948010Y173276D01*
X948010Y175157D02*
X946990Y175157D01*
X943010Y161990D02*
X941990Y161990D01*
X941990Y176010D01*
X943010Y176010D01*
X943010Y161990D01*
X943010Y163871D02*
X941990Y163871D01*
X941990Y165752D02*
X943010Y165752D01*
X943010Y167633D02*
X941990Y167633D01*
X941990Y169514D02*
X943010Y169514D01*
X943010Y171395D02*
X941990Y171395D01*
X941990Y173276D02*
X943010Y173276D01*
X943010Y175157D02*
X941990Y175157D01*
X1051990Y83990D02*
X1053010Y83990D01*
X1051990Y83990D02*
X1051990Y98010D01*
X1053010Y98010D01*
X1053010Y83990D01*
X1053010Y85871D02*
X1051990Y85871D01*
X1051990Y87752D02*
X1053010Y87752D01*
X1053010Y89633D02*
X1051990Y89633D01*
X1051990Y91514D02*
X1053010Y91514D01*
X1053010Y93395D02*
X1051990Y93395D01*
X1051990Y95276D02*
X1053010Y95276D01*
X1053010Y97157D02*
X1051990Y97157D01*
X1048010Y83990D02*
X1046990Y83990D01*
X1046990Y98010D01*
X1048010Y98010D01*
X1048010Y83990D01*
X1048010Y85871D02*
X1046990Y85871D01*
X1046990Y87752D02*
X1048010Y87752D01*
X1048010Y89633D02*
X1046990Y89633D01*
X1046990Y91514D02*
X1048010Y91514D01*
X1048010Y93395D02*
X1046990Y93395D01*
X1046990Y95276D02*
X1048010Y95276D01*
X1048010Y97157D02*
X1046990Y97157D01*
X1043010Y83990D02*
X1041990Y83990D01*
X1041990Y98010D01*
X1043010Y98010D01*
X1043010Y83990D01*
X1043010Y85871D02*
X1041990Y85871D01*
X1041990Y87752D02*
X1043010Y87752D01*
X1043010Y89633D02*
X1041990Y89633D01*
X1041990Y91514D02*
X1043010Y91514D01*
X1043010Y93395D02*
X1041990Y93395D01*
X1041990Y95276D02*
X1043010Y95276D01*
X1043010Y97157D02*
X1041990Y97157D01*
X1038010Y83990D02*
X1036990Y83990D01*
X1036990Y98010D01*
X1038010Y98010D01*
X1038010Y83990D01*
X1038010Y85871D02*
X1036990Y85871D01*
X1036990Y87752D02*
X1038010Y87752D01*
X1038010Y89633D02*
X1036990Y89633D01*
X1036990Y91514D02*
X1038010Y91514D01*
X1038010Y93395D02*
X1036990Y93395D01*
X1036990Y95276D02*
X1038010Y95276D01*
X1038010Y97157D02*
X1036990Y97157D01*
X1033010Y83990D02*
X1031990Y83990D01*
X1031990Y98010D01*
X1033010Y98010D01*
X1033010Y83990D01*
X1033010Y85871D02*
X1031990Y85871D01*
X1031990Y87752D02*
X1033010Y87752D01*
X1033010Y89633D02*
X1031990Y89633D01*
X1031990Y91514D02*
X1033010Y91514D01*
X1033010Y93395D02*
X1031990Y93395D01*
X1031990Y95276D02*
X1033010Y95276D01*
X1033010Y97157D02*
X1031990Y97157D01*
X1028010Y83990D02*
X1026990Y83990D01*
X1026990Y98010D01*
X1028010Y98010D01*
X1028010Y83990D01*
X1028010Y85871D02*
X1026990Y85871D01*
X1026990Y87752D02*
X1028010Y87752D01*
X1028010Y89633D02*
X1026990Y89633D01*
X1026990Y91514D02*
X1028010Y91514D01*
X1028010Y93395D02*
X1026990Y93395D01*
X1026990Y95276D02*
X1028010Y95276D01*
X1028010Y97157D02*
X1026990Y97157D01*
X1023010Y83990D02*
X1021990Y83990D01*
X1021990Y98010D01*
X1023010Y98010D01*
X1023010Y83990D01*
X1023010Y85871D02*
X1021990Y85871D01*
X1021990Y87752D02*
X1023010Y87752D01*
X1023010Y89633D02*
X1021990Y89633D01*
X1021990Y91514D02*
X1023010Y91514D01*
X1023010Y93395D02*
X1021990Y93395D01*
X1021990Y95276D02*
X1023010Y95276D01*
X1023010Y97157D02*
X1021990Y97157D01*
X1018010Y83990D02*
X1016990Y83990D01*
X1016990Y98010D01*
X1018010Y98010D01*
X1018010Y83990D01*
X1018010Y85871D02*
X1016990Y85871D01*
X1016990Y87752D02*
X1018010Y87752D01*
X1018010Y89633D02*
X1016990Y89633D01*
X1016990Y91514D02*
X1018010Y91514D01*
X1018010Y93395D02*
X1016990Y93395D01*
X1016990Y95276D02*
X1018010Y95276D01*
X1018010Y97157D02*
X1016990Y97157D01*
X1013010Y83990D02*
X1011990Y83990D01*
X1011990Y98010D01*
X1013010Y98010D01*
X1013010Y83990D01*
X1013010Y85871D02*
X1011990Y85871D01*
X1011990Y87752D02*
X1013010Y87752D01*
X1013010Y89633D02*
X1011990Y89633D01*
X1011990Y91514D02*
X1013010Y91514D01*
X1013010Y93395D02*
X1011990Y93395D01*
X1011990Y95276D02*
X1013010Y95276D01*
X1013010Y97157D02*
X1011990Y97157D01*
X1008010Y83990D02*
X1006990Y83990D01*
X1006990Y98010D01*
X1008010Y98010D01*
X1008010Y83990D01*
X1008010Y85871D02*
X1006990Y85871D01*
X1006990Y87752D02*
X1008010Y87752D01*
X1008010Y89633D02*
X1006990Y89633D01*
X1006990Y91514D02*
X1008010Y91514D01*
X1008010Y93395D02*
X1006990Y93395D01*
X1006990Y95276D02*
X1008010Y95276D01*
X1008010Y97157D02*
X1006990Y97157D01*
X1003010Y83990D02*
X1001990Y83990D01*
X1001990Y98010D01*
X1003010Y98010D01*
X1003010Y83990D01*
X1003010Y85871D02*
X1001990Y85871D01*
X1001990Y87752D02*
X1003010Y87752D01*
X1003010Y89633D02*
X1001990Y89633D01*
X1001990Y91514D02*
X1003010Y91514D01*
X1003010Y93395D02*
X1001990Y93395D01*
X1001990Y95276D02*
X1003010Y95276D01*
X1003010Y97157D02*
X1001990Y97157D01*
X998010Y83990D02*
X996990Y83990D01*
X996990Y98010D01*
X998010Y98010D01*
X998010Y83990D01*
X998010Y85871D02*
X996990Y85871D01*
X996990Y87752D02*
X998010Y87752D01*
X998010Y89633D02*
X996990Y89633D01*
X996990Y91514D02*
X998010Y91514D01*
X998010Y93395D02*
X996990Y93395D01*
X996990Y95276D02*
X998010Y95276D01*
X998010Y97157D02*
X996990Y97157D01*
X993010Y83990D02*
X991990Y83990D01*
X991990Y98010D01*
X993010Y98010D01*
X993010Y83990D01*
X993010Y85871D02*
X991990Y85871D01*
X991990Y87752D02*
X993010Y87752D01*
X993010Y89633D02*
X991990Y89633D01*
X991990Y91514D02*
X993010Y91514D01*
X993010Y93395D02*
X991990Y93395D01*
X991990Y95276D02*
X993010Y95276D01*
X993010Y97157D02*
X991990Y97157D01*
X988010Y83990D02*
X986990Y83990D01*
X986990Y98010D01*
X988010Y98010D01*
X988010Y83990D01*
X988010Y85871D02*
X986990Y85871D01*
X986990Y87752D02*
X988010Y87752D01*
X988010Y89633D02*
X986990Y89633D01*
X986990Y91514D02*
X988010Y91514D01*
X988010Y93395D02*
X986990Y93395D01*
X986990Y95276D02*
X988010Y95276D01*
X988010Y97157D02*
X986990Y97157D01*
X983010Y83990D02*
X981990Y83990D01*
X981990Y98010D01*
X983010Y98010D01*
X983010Y83990D01*
X983010Y85871D02*
X981990Y85871D01*
X981990Y87752D02*
X983010Y87752D01*
X983010Y89633D02*
X981990Y89633D01*
X981990Y91514D02*
X983010Y91514D01*
X983010Y93395D02*
X981990Y93395D01*
X981990Y95276D02*
X983010Y95276D01*
X983010Y97157D02*
X981990Y97157D01*
X978010Y83990D02*
X976990Y83990D01*
X976990Y98010D01*
X978010Y98010D01*
X978010Y83990D01*
X978010Y85871D02*
X976990Y85871D01*
X976990Y87752D02*
X978010Y87752D01*
X978010Y89633D02*
X976990Y89633D01*
X976990Y91514D02*
X978010Y91514D01*
X978010Y93395D02*
X976990Y93395D01*
X976990Y95276D02*
X978010Y95276D01*
X978010Y97157D02*
X976990Y97157D01*
X973010Y83990D02*
X971990Y83990D01*
X971990Y98010D01*
X973010Y98010D01*
X973010Y83990D01*
X973010Y85871D02*
X971990Y85871D01*
X971990Y87752D02*
X973010Y87752D01*
X973010Y89633D02*
X971990Y89633D01*
X971990Y91514D02*
X973010Y91514D01*
X973010Y93395D02*
X971990Y93395D01*
X971990Y95276D02*
X973010Y95276D01*
X973010Y97157D02*
X971990Y97157D01*
X968010Y83990D02*
X966990Y83990D01*
X966990Y98010D01*
X968010Y98010D01*
X968010Y83990D01*
X968010Y85871D02*
X966990Y85871D01*
X966990Y87752D02*
X968010Y87752D01*
X968010Y89633D02*
X966990Y89633D01*
X966990Y91514D02*
X968010Y91514D01*
X968010Y93395D02*
X966990Y93395D01*
X966990Y95276D02*
X968010Y95276D01*
X968010Y97157D02*
X966990Y97157D01*
X963010Y83990D02*
X961990Y83990D01*
X961990Y98010D01*
X963010Y98010D01*
X963010Y83990D01*
X963010Y85871D02*
X961990Y85871D01*
X961990Y87752D02*
X963010Y87752D01*
X963010Y89633D02*
X961990Y89633D01*
X961990Y91514D02*
X963010Y91514D01*
X963010Y93395D02*
X961990Y93395D01*
X961990Y95276D02*
X963010Y95276D01*
X963010Y97157D02*
X961990Y97157D01*
X958010Y83990D02*
X956990Y83990D01*
X956990Y98010D01*
X958010Y98010D01*
X958010Y83990D01*
X958010Y85871D02*
X956990Y85871D01*
X956990Y87752D02*
X958010Y87752D01*
X958010Y89633D02*
X956990Y89633D01*
X956990Y91514D02*
X958010Y91514D01*
X958010Y93395D02*
X956990Y93395D01*
X956990Y95276D02*
X958010Y95276D01*
X958010Y97157D02*
X956990Y97157D01*
X953010Y83990D02*
X951990Y83990D01*
X951990Y98010D01*
X953010Y98010D01*
X953010Y83990D01*
X953010Y85871D02*
X951990Y85871D01*
X951990Y87752D02*
X953010Y87752D01*
X953010Y89633D02*
X951990Y89633D01*
X951990Y91514D02*
X953010Y91514D01*
X953010Y93395D02*
X951990Y93395D01*
X951990Y95276D02*
X953010Y95276D01*
X953010Y97157D02*
X951990Y97157D01*
X948010Y83990D02*
X946990Y83990D01*
X946990Y98010D01*
X948010Y98010D01*
X948010Y83990D01*
X948010Y85871D02*
X946990Y85871D01*
X946990Y87752D02*
X948010Y87752D01*
X948010Y89633D02*
X946990Y89633D01*
X946990Y91514D02*
X948010Y91514D01*
X948010Y93395D02*
X946990Y93395D01*
X946990Y95276D02*
X948010Y95276D01*
X948010Y97157D02*
X946990Y97157D01*
X943010Y83990D02*
X941990Y83990D01*
X941990Y98010D01*
X943010Y98010D01*
X943010Y83990D01*
X943010Y85871D02*
X941990Y85871D01*
X941990Y87752D02*
X943010Y87752D01*
X943010Y89633D02*
X941990Y89633D01*
X941990Y91514D02*
X943010Y91514D01*
X943010Y93395D02*
X941990Y93395D01*
X941990Y95276D02*
X943010Y95276D01*
X943010Y97157D02*
X941990Y97157D01*
D13*
X247500Y237500D03*
X242500Y237500D03*
X237500Y237500D03*
X232500Y237500D03*
X227500Y237500D03*
X222500Y237500D03*
X217500Y237500D03*
X212500Y237500D03*
X207500Y237500D03*
X202500Y237500D03*
X197500Y237500D03*
X192500Y237500D03*
X187500Y237500D03*
X182500Y237500D03*
X177500Y237500D03*
X172500Y237500D03*
X167500Y237500D03*
X162500Y237500D03*
X157500Y237500D03*
X152500Y237500D03*
D14*
X133500Y270000D03*
X266500Y270000D03*
D13*
X497500Y237500D03*
X492500Y237500D03*
X487500Y237500D03*
X482500Y237500D03*
X477500Y237500D03*
X472500Y237500D03*
X467500Y237500D03*
X462500Y237500D03*
X457500Y237500D03*
X452500Y237500D03*
X447500Y237500D03*
X442500Y237500D03*
X437500Y237500D03*
X432500Y237500D03*
X427500Y237500D03*
X422500Y237500D03*
X417500Y237500D03*
X412500Y237500D03*
X407500Y237500D03*
X402500Y237500D03*
D14*
X383500Y270000D03*
X516500Y270000D03*
D13*
X797500Y237500D03*
X792500Y237500D03*
X787500Y237500D03*
X782500Y237500D03*
X777500Y237500D03*
X772500Y237500D03*
X767500Y237500D03*
X762500Y237500D03*
X757500Y237500D03*
X752500Y237500D03*
X747500Y237500D03*
X742500Y237500D03*
X737500Y237500D03*
X732500Y237500D03*
X727500Y237500D03*
X722500Y237500D03*
X717500Y237500D03*
X712500Y237500D03*
X707500Y237500D03*
X702500Y237500D03*
D14*
X683500Y270000D03*
X816500Y270000D03*
D13*
X1047500Y237500D03*
X1042500Y237500D03*
X1037500Y237500D03*
X1032500Y237500D03*
X1027500Y237500D03*
X1022500Y237500D03*
X1017500Y237500D03*
X1012500Y237500D03*
X1007500Y237500D03*
X1002500Y237500D03*
X997500Y237500D03*
X992500Y237500D03*
X987500Y237500D03*
X982500Y237500D03*
X977500Y237500D03*
X972500Y237500D03*
X967500Y237500D03*
X962500Y237500D03*
X957500Y237500D03*
X952500Y237500D03*
D14*
X933500Y270000D03*
X1066500Y270000D03*
M02*
