G04 EAGLE Gerber RS-274X export*
G75*
%MOMM*%
%FSLAX34Y34*%
%LPD*%
%INSoldermask Top*%
%IPPOS*%
%AMOC8*
5,1,8,0,0,1.08239X$1,22.5*%
G01*
%ADD10C,1.727200*%
%ADD11R,1.403200X1.403200*%
%ADD12R,1.503200X1.703200*%
%ADD13C,0.402559*%
%ADD14R,0.400000X1.400000*%
%ADD15R,1.900000X2.350000*%
%ADD16C,0.959600*%


D10*
X936500Y32380D02*
X936500Y47620D01*
X961900Y47620D02*
X961900Y32380D01*
X987300Y32380D02*
X987300Y47620D01*
X1012700Y47620D02*
X1012700Y32380D01*
X1038100Y32380D02*
X1038100Y47620D01*
X1063500Y47620D02*
X1063500Y32380D01*
X587300Y222380D02*
X587300Y237620D01*
X612700Y237620D02*
X612700Y222380D01*
X587300Y262380D02*
X587300Y277620D01*
X612700Y277620D02*
X612700Y262380D01*
X336500Y47620D02*
X336500Y32380D01*
X361900Y32380D02*
X361900Y47620D01*
X387300Y47620D02*
X387300Y32380D01*
X412700Y32380D02*
X412700Y47620D01*
X438100Y47620D02*
X438100Y32380D01*
X463500Y32380D02*
X463500Y47620D01*
X136500Y47620D02*
X136500Y32380D01*
X161900Y32380D02*
X161900Y47620D01*
X187300Y47620D02*
X187300Y32380D01*
X212700Y32380D02*
X212700Y47620D01*
X238100Y47620D02*
X238100Y32380D01*
X263500Y32380D02*
X263500Y47620D01*
X736500Y47620D02*
X736500Y32380D01*
X761900Y32380D02*
X761900Y47620D01*
X787300Y47620D02*
X787300Y32380D01*
X812700Y32380D02*
X812700Y47620D01*
X838100Y47620D02*
X838100Y32380D01*
X863500Y32380D02*
X863500Y47620D01*
D11*
X16500Y280000D03*
X37500Y280000D03*
X16500Y245000D03*
X37500Y245000D03*
X16500Y210000D03*
X37500Y210000D03*
X16500Y175000D03*
X37500Y175000D03*
X16500Y140000D03*
X37500Y140000D03*
X16500Y105000D03*
X37500Y105000D03*
X16500Y70000D03*
X37500Y70000D03*
X16500Y35000D03*
X37500Y35000D03*
D12*
X86500Y280000D03*
X67500Y280000D03*
X86500Y245000D03*
X67500Y245000D03*
X86500Y210000D03*
X67500Y210000D03*
X86500Y175000D03*
X67500Y175000D03*
X86500Y140000D03*
X67500Y140000D03*
X86500Y105000D03*
X67500Y105000D03*
X86500Y70000D03*
X67500Y70000D03*
X86500Y35000D03*
X67500Y35000D03*
D13*
X256997Y161997D02*
X258003Y161997D01*
X256997Y161997D02*
X256997Y176003D01*
X258003Y176003D01*
X258003Y161997D01*
X258003Y165822D02*
X256997Y165822D01*
X256997Y169647D02*
X258003Y169647D01*
X258003Y173472D02*
X256997Y173472D01*
X256997Y83997D02*
X258003Y83997D01*
X256997Y83997D02*
X256997Y98003D01*
X258003Y98003D01*
X258003Y83997D01*
X258003Y87822D02*
X256997Y87822D01*
X256997Y91647D02*
X258003Y91647D01*
X258003Y95472D02*
X256997Y95472D01*
X253003Y161997D02*
X251997Y161997D01*
X251997Y176003D01*
X253003Y176003D01*
X253003Y161997D01*
X253003Y165822D02*
X251997Y165822D01*
X251997Y169647D02*
X253003Y169647D01*
X253003Y173472D02*
X251997Y173472D01*
X248003Y161997D02*
X246997Y161997D01*
X246997Y176003D01*
X248003Y176003D01*
X248003Y161997D01*
X248003Y165822D02*
X246997Y165822D01*
X246997Y169647D02*
X248003Y169647D01*
X248003Y173472D02*
X246997Y173472D01*
X243003Y161997D02*
X241997Y161997D01*
X241997Y176003D01*
X243003Y176003D01*
X243003Y161997D01*
X243003Y165822D02*
X241997Y165822D01*
X241997Y169647D02*
X243003Y169647D01*
X243003Y173472D02*
X241997Y173472D01*
X238003Y161997D02*
X236997Y161997D01*
X236997Y176003D01*
X238003Y176003D01*
X238003Y161997D01*
X238003Y165822D02*
X236997Y165822D01*
X236997Y169647D02*
X238003Y169647D01*
X238003Y173472D02*
X236997Y173472D01*
X233003Y161997D02*
X231997Y161997D01*
X231997Y176003D01*
X233003Y176003D01*
X233003Y161997D01*
X233003Y165822D02*
X231997Y165822D01*
X231997Y169647D02*
X233003Y169647D01*
X233003Y173472D02*
X231997Y173472D01*
X228003Y161997D02*
X226997Y161997D01*
X226997Y176003D01*
X228003Y176003D01*
X228003Y161997D01*
X228003Y165822D02*
X226997Y165822D01*
X226997Y169647D02*
X228003Y169647D01*
X228003Y173472D02*
X226997Y173472D01*
X223003Y161997D02*
X221997Y161997D01*
X221997Y176003D01*
X223003Y176003D01*
X223003Y161997D01*
X223003Y165822D02*
X221997Y165822D01*
X221997Y169647D02*
X223003Y169647D01*
X223003Y173472D02*
X221997Y173472D01*
X218003Y161997D02*
X216997Y161997D01*
X216997Y176003D01*
X218003Y176003D01*
X218003Y161997D01*
X218003Y165822D02*
X216997Y165822D01*
X216997Y169647D02*
X218003Y169647D01*
X218003Y173472D02*
X216997Y173472D01*
X213003Y161997D02*
X211997Y161997D01*
X211997Y176003D01*
X213003Y176003D01*
X213003Y161997D01*
X213003Y165822D02*
X211997Y165822D01*
X211997Y169647D02*
X213003Y169647D01*
X213003Y173472D02*
X211997Y173472D01*
X208003Y161997D02*
X206997Y161997D01*
X206997Y176003D01*
X208003Y176003D01*
X208003Y161997D01*
X208003Y165822D02*
X206997Y165822D01*
X206997Y169647D02*
X208003Y169647D01*
X208003Y173472D02*
X206997Y173472D01*
X203003Y161997D02*
X201997Y161997D01*
X201997Y176003D01*
X203003Y176003D01*
X203003Y161997D01*
X203003Y165822D02*
X201997Y165822D01*
X201997Y169647D02*
X203003Y169647D01*
X203003Y173472D02*
X201997Y173472D01*
X198003Y161997D02*
X196997Y161997D01*
X196997Y176003D01*
X198003Y176003D01*
X198003Y161997D01*
X198003Y165822D02*
X196997Y165822D01*
X196997Y169647D02*
X198003Y169647D01*
X198003Y173472D02*
X196997Y173472D01*
X193003Y161997D02*
X191997Y161997D01*
X191997Y176003D01*
X193003Y176003D01*
X193003Y161997D01*
X193003Y165822D02*
X191997Y165822D01*
X191997Y169647D02*
X193003Y169647D01*
X193003Y173472D02*
X191997Y173472D01*
X188003Y161997D02*
X186997Y161997D01*
X186997Y176003D01*
X188003Y176003D01*
X188003Y161997D01*
X188003Y165822D02*
X186997Y165822D01*
X186997Y169647D02*
X188003Y169647D01*
X188003Y173472D02*
X186997Y173472D01*
X183003Y161997D02*
X181997Y161997D01*
X181997Y176003D01*
X183003Y176003D01*
X183003Y161997D01*
X183003Y165822D02*
X181997Y165822D01*
X181997Y169647D02*
X183003Y169647D01*
X183003Y173472D02*
X181997Y173472D01*
X178003Y161997D02*
X176997Y161997D01*
X176997Y176003D01*
X178003Y176003D01*
X178003Y161997D01*
X178003Y165822D02*
X176997Y165822D01*
X176997Y169647D02*
X178003Y169647D01*
X178003Y173472D02*
X176997Y173472D01*
X173003Y161997D02*
X171997Y161997D01*
X171997Y176003D01*
X173003Y176003D01*
X173003Y161997D01*
X173003Y165822D02*
X171997Y165822D01*
X171997Y169647D02*
X173003Y169647D01*
X173003Y173472D02*
X171997Y173472D01*
X168003Y161997D02*
X166997Y161997D01*
X166997Y176003D01*
X168003Y176003D01*
X168003Y161997D01*
X168003Y165822D02*
X166997Y165822D01*
X166997Y169647D02*
X168003Y169647D01*
X168003Y173472D02*
X166997Y173472D01*
X163003Y161997D02*
X161997Y161997D01*
X161997Y176003D01*
X163003Y176003D01*
X163003Y161997D01*
X163003Y165822D02*
X161997Y165822D01*
X161997Y169647D02*
X163003Y169647D01*
X163003Y173472D02*
X161997Y173472D01*
X158003Y161997D02*
X156997Y161997D01*
X156997Y176003D01*
X158003Y176003D01*
X158003Y161997D01*
X158003Y165822D02*
X156997Y165822D01*
X156997Y169647D02*
X158003Y169647D01*
X158003Y173472D02*
X156997Y173472D01*
X153003Y161997D02*
X151997Y161997D01*
X151997Y176003D01*
X153003Y176003D01*
X153003Y161997D01*
X153003Y165822D02*
X151997Y165822D01*
X151997Y169647D02*
X153003Y169647D01*
X153003Y173472D02*
X151997Y173472D01*
X148003Y161997D02*
X146997Y161997D01*
X146997Y176003D01*
X148003Y176003D01*
X148003Y161997D01*
X148003Y165822D02*
X146997Y165822D01*
X146997Y169647D02*
X148003Y169647D01*
X148003Y173472D02*
X146997Y173472D01*
X143003Y161997D02*
X141997Y161997D01*
X141997Y176003D01*
X143003Y176003D01*
X143003Y161997D01*
X143003Y165822D02*
X141997Y165822D01*
X141997Y169647D02*
X143003Y169647D01*
X143003Y173472D02*
X141997Y173472D01*
X251997Y83997D02*
X253003Y83997D01*
X251997Y83997D02*
X251997Y98003D01*
X253003Y98003D01*
X253003Y83997D01*
X253003Y87822D02*
X251997Y87822D01*
X251997Y91647D02*
X253003Y91647D01*
X253003Y95472D02*
X251997Y95472D01*
X248003Y83997D02*
X246997Y83997D01*
X246997Y98003D01*
X248003Y98003D01*
X248003Y83997D01*
X248003Y87822D02*
X246997Y87822D01*
X246997Y91647D02*
X248003Y91647D01*
X248003Y95472D02*
X246997Y95472D01*
X243003Y83997D02*
X241997Y83997D01*
X241997Y98003D01*
X243003Y98003D01*
X243003Y83997D01*
X243003Y87822D02*
X241997Y87822D01*
X241997Y91647D02*
X243003Y91647D01*
X243003Y95472D02*
X241997Y95472D01*
X238003Y83997D02*
X236997Y83997D01*
X236997Y98003D01*
X238003Y98003D01*
X238003Y83997D01*
X238003Y87822D02*
X236997Y87822D01*
X236997Y91647D02*
X238003Y91647D01*
X238003Y95472D02*
X236997Y95472D01*
X233003Y83997D02*
X231997Y83997D01*
X231997Y98003D01*
X233003Y98003D01*
X233003Y83997D01*
X233003Y87822D02*
X231997Y87822D01*
X231997Y91647D02*
X233003Y91647D01*
X233003Y95472D02*
X231997Y95472D01*
X228003Y83997D02*
X226997Y83997D01*
X226997Y98003D01*
X228003Y98003D01*
X228003Y83997D01*
X228003Y87822D02*
X226997Y87822D01*
X226997Y91647D02*
X228003Y91647D01*
X228003Y95472D02*
X226997Y95472D01*
X223003Y83997D02*
X221997Y83997D01*
X221997Y98003D01*
X223003Y98003D01*
X223003Y83997D01*
X223003Y87822D02*
X221997Y87822D01*
X221997Y91647D02*
X223003Y91647D01*
X223003Y95472D02*
X221997Y95472D01*
X218003Y83997D02*
X216997Y83997D01*
X216997Y98003D01*
X218003Y98003D01*
X218003Y83997D01*
X218003Y87822D02*
X216997Y87822D01*
X216997Y91647D02*
X218003Y91647D01*
X218003Y95472D02*
X216997Y95472D01*
X213003Y83997D02*
X211997Y83997D01*
X211997Y98003D01*
X213003Y98003D01*
X213003Y83997D01*
X213003Y87822D02*
X211997Y87822D01*
X211997Y91647D02*
X213003Y91647D01*
X213003Y95472D02*
X211997Y95472D01*
X208003Y83997D02*
X206997Y83997D01*
X206997Y98003D01*
X208003Y98003D01*
X208003Y83997D01*
X208003Y87822D02*
X206997Y87822D01*
X206997Y91647D02*
X208003Y91647D01*
X208003Y95472D02*
X206997Y95472D01*
X203003Y83997D02*
X201997Y83997D01*
X201997Y98003D01*
X203003Y98003D01*
X203003Y83997D01*
X203003Y87822D02*
X201997Y87822D01*
X201997Y91647D02*
X203003Y91647D01*
X203003Y95472D02*
X201997Y95472D01*
X198003Y83997D02*
X196997Y83997D01*
X196997Y98003D01*
X198003Y98003D01*
X198003Y83997D01*
X198003Y87822D02*
X196997Y87822D01*
X196997Y91647D02*
X198003Y91647D01*
X198003Y95472D02*
X196997Y95472D01*
X193003Y83997D02*
X191997Y83997D01*
X191997Y98003D01*
X193003Y98003D01*
X193003Y83997D01*
X193003Y87822D02*
X191997Y87822D01*
X191997Y91647D02*
X193003Y91647D01*
X193003Y95472D02*
X191997Y95472D01*
X188003Y83997D02*
X186997Y83997D01*
X186997Y98003D01*
X188003Y98003D01*
X188003Y83997D01*
X188003Y87822D02*
X186997Y87822D01*
X186997Y91647D02*
X188003Y91647D01*
X188003Y95472D02*
X186997Y95472D01*
X183003Y83997D02*
X181997Y83997D01*
X181997Y98003D01*
X183003Y98003D01*
X183003Y83997D01*
X183003Y87822D02*
X181997Y87822D01*
X181997Y91647D02*
X183003Y91647D01*
X183003Y95472D02*
X181997Y95472D01*
X178003Y83997D02*
X176997Y83997D01*
X176997Y98003D01*
X178003Y98003D01*
X178003Y83997D01*
X178003Y87822D02*
X176997Y87822D01*
X176997Y91647D02*
X178003Y91647D01*
X178003Y95472D02*
X176997Y95472D01*
X173003Y83997D02*
X171997Y83997D01*
X171997Y98003D01*
X173003Y98003D01*
X173003Y83997D01*
X173003Y87822D02*
X171997Y87822D01*
X171997Y91647D02*
X173003Y91647D01*
X173003Y95472D02*
X171997Y95472D01*
X168003Y83997D02*
X166997Y83997D01*
X166997Y98003D01*
X168003Y98003D01*
X168003Y83997D01*
X168003Y87822D02*
X166997Y87822D01*
X166997Y91647D02*
X168003Y91647D01*
X168003Y95472D02*
X166997Y95472D01*
X163003Y83997D02*
X161997Y83997D01*
X161997Y98003D01*
X163003Y98003D01*
X163003Y83997D01*
X163003Y87822D02*
X161997Y87822D01*
X161997Y91647D02*
X163003Y91647D01*
X163003Y95472D02*
X161997Y95472D01*
X158003Y83997D02*
X156997Y83997D01*
X156997Y98003D01*
X158003Y98003D01*
X158003Y83997D01*
X158003Y87822D02*
X156997Y87822D01*
X156997Y91647D02*
X158003Y91647D01*
X158003Y95472D02*
X156997Y95472D01*
X153003Y83997D02*
X151997Y83997D01*
X151997Y98003D01*
X153003Y98003D01*
X153003Y83997D01*
X153003Y87822D02*
X151997Y87822D01*
X151997Y91647D02*
X153003Y91647D01*
X153003Y95472D02*
X151997Y95472D01*
X148003Y83997D02*
X146997Y83997D01*
X146997Y98003D01*
X148003Y98003D01*
X148003Y83997D01*
X148003Y87822D02*
X146997Y87822D01*
X146997Y91647D02*
X148003Y91647D01*
X148003Y95472D02*
X146997Y95472D01*
X143003Y83997D02*
X141997Y83997D01*
X141997Y98003D01*
X143003Y98003D01*
X143003Y83997D01*
X143003Y87822D02*
X141997Y87822D01*
X141997Y91647D02*
X143003Y91647D01*
X143003Y95472D02*
X141997Y95472D01*
X456997Y161997D02*
X458003Y161997D01*
X456997Y161997D02*
X456997Y176003D01*
X458003Y176003D01*
X458003Y161997D01*
X458003Y165822D02*
X456997Y165822D01*
X456997Y169647D02*
X458003Y169647D01*
X458003Y173472D02*
X456997Y173472D01*
X456997Y83997D02*
X458003Y83997D01*
X456997Y83997D02*
X456997Y98003D01*
X458003Y98003D01*
X458003Y83997D01*
X458003Y87822D02*
X456997Y87822D01*
X456997Y91647D02*
X458003Y91647D01*
X458003Y95472D02*
X456997Y95472D01*
X453003Y161997D02*
X451997Y161997D01*
X451997Y176003D01*
X453003Y176003D01*
X453003Y161997D01*
X453003Y165822D02*
X451997Y165822D01*
X451997Y169647D02*
X453003Y169647D01*
X453003Y173472D02*
X451997Y173472D01*
X448003Y161997D02*
X446997Y161997D01*
X446997Y176003D01*
X448003Y176003D01*
X448003Y161997D01*
X448003Y165822D02*
X446997Y165822D01*
X446997Y169647D02*
X448003Y169647D01*
X448003Y173472D02*
X446997Y173472D01*
X443003Y161997D02*
X441997Y161997D01*
X441997Y176003D01*
X443003Y176003D01*
X443003Y161997D01*
X443003Y165822D02*
X441997Y165822D01*
X441997Y169647D02*
X443003Y169647D01*
X443003Y173472D02*
X441997Y173472D01*
X438003Y161997D02*
X436997Y161997D01*
X436997Y176003D01*
X438003Y176003D01*
X438003Y161997D01*
X438003Y165822D02*
X436997Y165822D01*
X436997Y169647D02*
X438003Y169647D01*
X438003Y173472D02*
X436997Y173472D01*
X433003Y161997D02*
X431997Y161997D01*
X431997Y176003D01*
X433003Y176003D01*
X433003Y161997D01*
X433003Y165822D02*
X431997Y165822D01*
X431997Y169647D02*
X433003Y169647D01*
X433003Y173472D02*
X431997Y173472D01*
X428003Y161997D02*
X426997Y161997D01*
X426997Y176003D01*
X428003Y176003D01*
X428003Y161997D01*
X428003Y165822D02*
X426997Y165822D01*
X426997Y169647D02*
X428003Y169647D01*
X428003Y173472D02*
X426997Y173472D01*
X423003Y161997D02*
X421997Y161997D01*
X421997Y176003D01*
X423003Y176003D01*
X423003Y161997D01*
X423003Y165822D02*
X421997Y165822D01*
X421997Y169647D02*
X423003Y169647D01*
X423003Y173472D02*
X421997Y173472D01*
X418003Y161997D02*
X416997Y161997D01*
X416997Y176003D01*
X418003Y176003D01*
X418003Y161997D01*
X418003Y165822D02*
X416997Y165822D01*
X416997Y169647D02*
X418003Y169647D01*
X418003Y173472D02*
X416997Y173472D01*
X413003Y161997D02*
X411997Y161997D01*
X411997Y176003D01*
X413003Y176003D01*
X413003Y161997D01*
X413003Y165822D02*
X411997Y165822D01*
X411997Y169647D02*
X413003Y169647D01*
X413003Y173472D02*
X411997Y173472D01*
X408003Y161997D02*
X406997Y161997D01*
X406997Y176003D01*
X408003Y176003D01*
X408003Y161997D01*
X408003Y165822D02*
X406997Y165822D01*
X406997Y169647D02*
X408003Y169647D01*
X408003Y173472D02*
X406997Y173472D01*
X403003Y161997D02*
X401997Y161997D01*
X401997Y176003D01*
X403003Y176003D01*
X403003Y161997D01*
X403003Y165822D02*
X401997Y165822D01*
X401997Y169647D02*
X403003Y169647D01*
X403003Y173472D02*
X401997Y173472D01*
X398003Y161997D02*
X396997Y161997D01*
X396997Y176003D01*
X398003Y176003D01*
X398003Y161997D01*
X398003Y165822D02*
X396997Y165822D01*
X396997Y169647D02*
X398003Y169647D01*
X398003Y173472D02*
X396997Y173472D01*
X393003Y161997D02*
X391997Y161997D01*
X391997Y176003D01*
X393003Y176003D01*
X393003Y161997D01*
X393003Y165822D02*
X391997Y165822D01*
X391997Y169647D02*
X393003Y169647D01*
X393003Y173472D02*
X391997Y173472D01*
X388003Y161997D02*
X386997Y161997D01*
X386997Y176003D01*
X388003Y176003D01*
X388003Y161997D01*
X388003Y165822D02*
X386997Y165822D01*
X386997Y169647D02*
X388003Y169647D01*
X388003Y173472D02*
X386997Y173472D01*
X383003Y161997D02*
X381997Y161997D01*
X381997Y176003D01*
X383003Y176003D01*
X383003Y161997D01*
X383003Y165822D02*
X381997Y165822D01*
X381997Y169647D02*
X383003Y169647D01*
X383003Y173472D02*
X381997Y173472D01*
X378003Y161997D02*
X376997Y161997D01*
X376997Y176003D01*
X378003Y176003D01*
X378003Y161997D01*
X378003Y165822D02*
X376997Y165822D01*
X376997Y169647D02*
X378003Y169647D01*
X378003Y173472D02*
X376997Y173472D01*
X373003Y161997D02*
X371997Y161997D01*
X371997Y176003D01*
X373003Y176003D01*
X373003Y161997D01*
X373003Y165822D02*
X371997Y165822D01*
X371997Y169647D02*
X373003Y169647D01*
X373003Y173472D02*
X371997Y173472D01*
X368003Y161997D02*
X366997Y161997D01*
X366997Y176003D01*
X368003Y176003D01*
X368003Y161997D01*
X368003Y165822D02*
X366997Y165822D01*
X366997Y169647D02*
X368003Y169647D01*
X368003Y173472D02*
X366997Y173472D01*
X363003Y161997D02*
X361997Y161997D01*
X361997Y176003D01*
X363003Y176003D01*
X363003Y161997D01*
X363003Y165822D02*
X361997Y165822D01*
X361997Y169647D02*
X363003Y169647D01*
X363003Y173472D02*
X361997Y173472D01*
X358003Y161997D02*
X356997Y161997D01*
X356997Y176003D01*
X358003Y176003D01*
X358003Y161997D01*
X358003Y165822D02*
X356997Y165822D01*
X356997Y169647D02*
X358003Y169647D01*
X358003Y173472D02*
X356997Y173472D01*
X353003Y161997D02*
X351997Y161997D01*
X351997Y176003D01*
X353003Y176003D01*
X353003Y161997D01*
X353003Y165822D02*
X351997Y165822D01*
X351997Y169647D02*
X353003Y169647D01*
X353003Y173472D02*
X351997Y173472D01*
X348003Y161997D02*
X346997Y161997D01*
X346997Y176003D01*
X348003Y176003D01*
X348003Y161997D01*
X348003Y165822D02*
X346997Y165822D01*
X346997Y169647D02*
X348003Y169647D01*
X348003Y173472D02*
X346997Y173472D01*
X343003Y161997D02*
X341997Y161997D01*
X341997Y176003D01*
X343003Y176003D01*
X343003Y161997D01*
X343003Y165822D02*
X341997Y165822D01*
X341997Y169647D02*
X343003Y169647D01*
X343003Y173472D02*
X341997Y173472D01*
X451997Y83997D02*
X453003Y83997D01*
X451997Y83997D02*
X451997Y98003D01*
X453003Y98003D01*
X453003Y83997D01*
X453003Y87822D02*
X451997Y87822D01*
X451997Y91647D02*
X453003Y91647D01*
X453003Y95472D02*
X451997Y95472D01*
X448003Y83997D02*
X446997Y83997D01*
X446997Y98003D01*
X448003Y98003D01*
X448003Y83997D01*
X448003Y87822D02*
X446997Y87822D01*
X446997Y91647D02*
X448003Y91647D01*
X448003Y95472D02*
X446997Y95472D01*
X443003Y83997D02*
X441997Y83997D01*
X441997Y98003D01*
X443003Y98003D01*
X443003Y83997D01*
X443003Y87822D02*
X441997Y87822D01*
X441997Y91647D02*
X443003Y91647D01*
X443003Y95472D02*
X441997Y95472D01*
X438003Y83997D02*
X436997Y83997D01*
X436997Y98003D01*
X438003Y98003D01*
X438003Y83997D01*
X438003Y87822D02*
X436997Y87822D01*
X436997Y91647D02*
X438003Y91647D01*
X438003Y95472D02*
X436997Y95472D01*
X433003Y83997D02*
X431997Y83997D01*
X431997Y98003D01*
X433003Y98003D01*
X433003Y83997D01*
X433003Y87822D02*
X431997Y87822D01*
X431997Y91647D02*
X433003Y91647D01*
X433003Y95472D02*
X431997Y95472D01*
X428003Y83997D02*
X426997Y83997D01*
X426997Y98003D01*
X428003Y98003D01*
X428003Y83997D01*
X428003Y87822D02*
X426997Y87822D01*
X426997Y91647D02*
X428003Y91647D01*
X428003Y95472D02*
X426997Y95472D01*
X423003Y83997D02*
X421997Y83997D01*
X421997Y98003D01*
X423003Y98003D01*
X423003Y83997D01*
X423003Y87822D02*
X421997Y87822D01*
X421997Y91647D02*
X423003Y91647D01*
X423003Y95472D02*
X421997Y95472D01*
X418003Y83997D02*
X416997Y83997D01*
X416997Y98003D01*
X418003Y98003D01*
X418003Y83997D01*
X418003Y87822D02*
X416997Y87822D01*
X416997Y91647D02*
X418003Y91647D01*
X418003Y95472D02*
X416997Y95472D01*
X413003Y83997D02*
X411997Y83997D01*
X411997Y98003D01*
X413003Y98003D01*
X413003Y83997D01*
X413003Y87822D02*
X411997Y87822D01*
X411997Y91647D02*
X413003Y91647D01*
X413003Y95472D02*
X411997Y95472D01*
X408003Y83997D02*
X406997Y83997D01*
X406997Y98003D01*
X408003Y98003D01*
X408003Y83997D01*
X408003Y87822D02*
X406997Y87822D01*
X406997Y91647D02*
X408003Y91647D01*
X408003Y95472D02*
X406997Y95472D01*
X403003Y83997D02*
X401997Y83997D01*
X401997Y98003D01*
X403003Y98003D01*
X403003Y83997D01*
X403003Y87822D02*
X401997Y87822D01*
X401997Y91647D02*
X403003Y91647D01*
X403003Y95472D02*
X401997Y95472D01*
X398003Y83997D02*
X396997Y83997D01*
X396997Y98003D01*
X398003Y98003D01*
X398003Y83997D01*
X398003Y87822D02*
X396997Y87822D01*
X396997Y91647D02*
X398003Y91647D01*
X398003Y95472D02*
X396997Y95472D01*
X393003Y83997D02*
X391997Y83997D01*
X391997Y98003D01*
X393003Y98003D01*
X393003Y83997D01*
X393003Y87822D02*
X391997Y87822D01*
X391997Y91647D02*
X393003Y91647D01*
X393003Y95472D02*
X391997Y95472D01*
X388003Y83997D02*
X386997Y83997D01*
X386997Y98003D01*
X388003Y98003D01*
X388003Y83997D01*
X388003Y87822D02*
X386997Y87822D01*
X386997Y91647D02*
X388003Y91647D01*
X388003Y95472D02*
X386997Y95472D01*
X383003Y83997D02*
X381997Y83997D01*
X381997Y98003D01*
X383003Y98003D01*
X383003Y83997D01*
X383003Y87822D02*
X381997Y87822D01*
X381997Y91647D02*
X383003Y91647D01*
X383003Y95472D02*
X381997Y95472D01*
X378003Y83997D02*
X376997Y83997D01*
X376997Y98003D01*
X378003Y98003D01*
X378003Y83997D01*
X378003Y87822D02*
X376997Y87822D01*
X376997Y91647D02*
X378003Y91647D01*
X378003Y95472D02*
X376997Y95472D01*
X373003Y83997D02*
X371997Y83997D01*
X371997Y98003D01*
X373003Y98003D01*
X373003Y83997D01*
X373003Y87822D02*
X371997Y87822D01*
X371997Y91647D02*
X373003Y91647D01*
X373003Y95472D02*
X371997Y95472D01*
X368003Y83997D02*
X366997Y83997D01*
X366997Y98003D01*
X368003Y98003D01*
X368003Y83997D01*
X368003Y87822D02*
X366997Y87822D01*
X366997Y91647D02*
X368003Y91647D01*
X368003Y95472D02*
X366997Y95472D01*
X363003Y83997D02*
X361997Y83997D01*
X361997Y98003D01*
X363003Y98003D01*
X363003Y83997D01*
X363003Y87822D02*
X361997Y87822D01*
X361997Y91647D02*
X363003Y91647D01*
X363003Y95472D02*
X361997Y95472D01*
X358003Y83997D02*
X356997Y83997D01*
X356997Y98003D01*
X358003Y98003D01*
X358003Y83997D01*
X358003Y87822D02*
X356997Y87822D01*
X356997Y91647D02*
X358003Y91647D01*
X358003Y95472D02*
X356997Y95472D01*
X353003Y83997D02*
X351997Y83997D01*
X351997Y98003D01*
X353003Y98003D01*
X353003Y83997D01*
X353003Y87822D02*
X351997Y87822D01*
X351997Y91647D02*
X353003Y91647D01*
X353003Y95472D02*
X351997Y95472D01*
X348003Y83997D02*
X346997Y83997D01*
X346997Y98003D01*
X348003Y98003D01*
X348003Y83997D01*
X348003Y87822D02*
X346997Y87822D01*
X346997Y91647D02*
X348003Y91647D01*
X348003Y95472D02*
X346997Y95472D01*
X343003Y83997D02*
X341997Y83997D01*
X341997Y98003D01*
X343003Y98003D01*
X343003Y83997D01*
X343003Y87822D02*
X341997Y87822D01*
X341997Y91647D02*
X343003Y91647D01*
X343003Y95472D02*
X341997Y95472D01*
X656997Y161997D02*
X658003Y161997D01*
X656997Y161997D02*
X656997Y176003D01*
X658003Y176003D01*
X658003Y161997D01*
X658003Y165822D02*
X656997Y165822D01*
X656997Y169647D02*
X658003Y169647D01*
X658003Y173472D02*
X656997Y173472D01*
X656997Y83997D02*
X658003Y83997D01*
X656997Y83997D02*
X656997Y98003D01*
X658003Y98003D01*
X658003Y83997D01*
X658003Y87822D02*
X656997Y87822D01*
X656997Y91647D02*
X658003Y91647D01*
X658003Y95472D02*
X656997Y95472D01*
X653003Y161997D02*
X651997Y161997D01*
X651997Y176003D01*
X653003Y176003D01*
X653003Y161997D01*
X653003Y165822D02*
X651997Y165822D01*
X651997Y169647D02*
X653003Y169647D01*
X653003Y173472D02*
X651997Y173472D01*
X648003Y161997D02*
X646997Y161997D01*
X646997Y176003D01*
X648003Y176003D01*
X648003Y161997D01*
X648003Y165822D02*
X646997Y165822D01*
X646997Y169647D02*
X648003Y169647D01*
X648003Y173472D02*
X646997Y173472D01*
X643003Y161997D02*
X641997Y161997D01*
X641997Y176003D01*
X643003Y176003D01*
X643003Y161997D01*
X643003Y165822D02*
X641997Y165822D01*
X641997Y169647D02*
X643003Y169647D01*
X643003Y173472D02*
X641997Y173472D01*
X638003Y161997D02*
X636997Y161997D01*
X636997Y176003D01*
X638003Y176003D01*
X638003Y161997D01*
X638003Y165822D02*
X636997Y165822D01*
X636997Y169647D02*
X638003Y169647D01*
X638003Y173472D02*
X636997Y173472D01*
X633003Y161997D02*
X631997Y161997D01*
X631997Y176003D01*
X633003Y176003D01*
X633003Y161997D01*
X633003Y165822D02*
X631997Y165822D01*
X631997Y169647D02*
X633003Y169647D01*
X633003Y173472D02*
X631997Y173472D01*
X628003Y161997D02*
X626997Y161997D01*
X626997Y176003D01*
X628003Y176003D01*
X628003Y161997D01*
X628003Y165822D02*
X626997Y165822D01*
X626997Y169647D02*
X628003Y169647D01*
X628003Y173472D02*
X626997Y173472D01*
X623003Y161997D02*
X621997Y161997D01*
X621997Y176003D01*
X623003Y176003D01*
X623003Y161997D01*
X623003Y165822D02*
X621997Y165822D01*
X621997Y169647D02*
X623003Y169647D01*
X623003Y173472D02*
X621997Y173472D01*
X618003Y161997D02*
X616997Y161997D01*
X616997Y176003D01*
X618003Y176003D01*
X618003Y161997D01*
X618003Y165822D02*
X616997Y165822D01*
X616997Y169647D02*
X618003Y169647D01*
X618003Y173472D02*
X616997Y173472D01*
X613003Y161997D02*
X611997Y161997D01*
X611997Y176003D01*
X613003Y176003D01*
X613003Y161997D01*
X613003Y165822D02*
X611997Y165822D01*
X611997Y169647D02*
X613003Y169647D01*
X613003Y173472D02*
X611997Y173472D01*
X608003Y161997D02*
X606997Y161997D01*
X606997Y176003D01*
X608003Y176003D01*
X608003Y161997D01*
X608003Y165822D02*
X606997Y165822D01*
X606997Y169647D02*
X608003Y169647D01*
X608003Y173472D02*
X606997Y173472D01*
X603003Y161997D02*
X601997Y161997D01*
X601997Y176003D01*
X603003Y176003D01*
X603003Y161997D01*
X603003Y165822D02*
X601997Y165822D01*
X601997Y169647D02*
X603003Y169647D01*
X603003Y173472D02*
X601997Y173472D01*
X598003Y161997D02*
X596997Y161997D01*
X596997Y176003D01*
X598003Y176003D01*
X598003Y161997D01*
X598003Y165822D02*
X596997Y165822D01*
X596997Y169647D02*
X598003Y169647D01*
X598003Y173472D02*
X596997Y173472D01*
X593003Y161997D02*
X591997Y161997D01*
X591997Y176003D01*
X593003Y176003D01*
X593003Y161997D01*
X593003Y165822D02*
X591997Y165822D01*
X591997Y169647D02*
X593003Y169647D01*
X593003Y173472D02*
X591997Y173472D01*
X588003Y161997D02*
X586997Y161997D01*
X586997Y176003D01*
X588003Y176003D01*
X588003Y161997D01*
X588003Y165822D02*
X586997Y165822D01*
X586997Y169647D02*
X588003Y169647D01*
X588003Y173472D02*
X586997Y173472D01*
X583003Y161997D02*
X581997Y161997D01*
X581997Y176003D01*
X583003Y176003D01*
X583003Y161997D01*
X583003Y165822D02*
X581997Y165822D01*
X581997Y169647D02*
X583003Y169647D01*
X583003Y173472D02*
X581997Y173472D01*
X578003Y161997D02*
X576997Y161997D01*
X576997Y176003D01*
X578003Y176003D01*
X578003Y161997D01*
X578003Y165822D02*
X576997Y165822D01*
X576997Y169647D02*
X578003Y169647D01*
X578003Y173472D02*
X576997Y173472D01*
X573003Y161997D02*
X571997Y161997D01*
X571997Y176003D01*
X573003Y176003D01*
X573003Y161997D01*
X573003Y165822D02*
X571997Y165822D01*
X571997Y169647D02*
X573003Y169647D01*
X573003Y173472D02*
X571997Y173472D01*
X568003Y161997D02*
X566997Y161997D01*
X566997Y176003D01*
X568003Y176003D01*
X568003Y161997D01*
X568003Y165822D02*
X566997Y165822D01*
X566997Y169647D02*
X568003Y169647D01*
X568003Y173472D02*
X566997Y173472D01*
X563003Y161997D02*
X561997Y161997D01*
X561997Y176003D01*
X563003Y176003D01*
X563003Y161997D01*
X563003Y165822D02*
X561997Y165822D01*
X561997Y169647D02*
X563003Y169647D01*
X563003Y173472D02*
X561997Y173472D01*
X558003Y161997D02*
X556997Y161997D01*
X556997Y176003D01*
X558003Y176003D01*
X558003Y161997D01*
X558003Y165822D02*
X556997Y165822D01*
X556997Y169647D02*
X558003Y169647D01*
X558003Y173472D02*
X556997Y173472D01*
X553003Y161997D02*
X551997Y161997D01*
X551997Y176003D01*
X553003Y176003D01*
X553003Y161997D01*
X553003Y165822D02*
X551997Y165822D01*
X551997Y169647D02*
X553003Y169647D01*
X553003Y173472D02*
X551997Y173472D01*
X548003Y161997D02*
X546997Y161997D01*
X546997Y176003D01*
X548003Y176003D01*
X548003Y161997D01*
X548003Y165822D02*
X546997Y165822D01*
X546997Y169647D02*
X548003Y169647D01*
X548003Y173472D02*
X546997Y173472D01*
X543003Y161997D02*
X541997Y161997D01*
X541997Y176003D01*
X543003Y176003D01*
X543003Y161997D01*
X543003Y165822D02*
X541997Y165822D01*
X541997Y169647D02*
X543003Y169647D01*
X543003Y173472D02*
X541997Y173472D01*
X651997Y83997D02*
X653003Y83997D01*
X651997Y83997D02*
X651997Y98003D01*
X653003Y98003D01*
X653003Y83997D01*
X653003Y87822D02*
X651997Y87822D01*
X651997Y91647D02*
X653003Y91647D01*
X653003Y95472D02*
X651997Y95472D01*
X648003Y83997D02*
X646997Y83997D01*
X646997Y98003D01*
X648003Y98003D01*
X648003Y83997D01*
X648003Y87822D02*
X646997Y87822D01*
X646997Y91647D02*
X648003Y91647D01*
X648003Y95472D02*
X646997Y95472D01*
X643003Y83997D02*
X641997Y83997D01*
X641997Y98003D01*
X643003Y98003D01*
X643003Y83997D01*
X643003Y87822D02*
X641997Y87822D01*
X641997Y91647D02*
X643003Y91647D01*
X643003Y95472D02*
X641997Y95472D01*
X638003Y83997D02*
X636997Y83997D01*
X636997Y98003D01*
X638003Y98003D01*
X638003Y83997D01*
X638003Y87822D02*
X636997Y87822D01*
X636997Y91647D02*
X638003Y91647D01*
X638003Y95472D02*
X636997Y95472D01*
X633003Y83997D02*
X631997Y83997D01*
X631997Y98003D01*
X633003Y98003D01*
X633003Y83997D01*
X633003Y87822D02*
X631997Y87822D01*
X631997Y91647D02*
X633003Y91647D01*
X633003Y95472D02*
X631997Y95472D01*
X628003Y83997D02*
X626997Y83997D01*
X626997Y98003D01*
X628003Y98003D01*
X628003Y83997D01*
X628003Y87822D02*
X626997Y87822D01*
X626997Y91647D02*
X628003Y91647D01*
X628003Y95472D02*
X626997Y95472D01*
X623003Y83997D02*
X621997Y83997D01*
X621997Y98003D01*
X623003Y98003D01*
X623003Y83997D01*
X623003Y87822D02*
X621997Y87822D01*
X621997Y91647D02*
X623003Y91647D01*
X623003Y95472D02*
X621997Y95472D01*
X618003Y83997D02*
X616997Y83997D01*
X616997Y98003D01*
X618003Y98003D01*
X618003Y83997D01*
X618003Y87822D02*
X616997Y87822D01*
X616997Y91647D02*
X618003Y91647D01*
X618003Y95472D02*
X616997Y95472D01*
X613003Y83997D02*
X611997Y83997D01*
X611997Y98003D01*
X613003Y98003D01*
X613003Y83997D01*
X613003Y87822D02*
X611997Y87822D01*
X611997Y91647D02*
X613003Y91647D01*
X613003Y95472D02*
X611997Y95472D01*
X608003Y83997D02*
X606997Y83997D01*
X606997Y98003D01*
X608003Y98003D01*
X608003Y83997D01*
X608003Y87822D02*
X606997Y87822D01*
X606997Y91647D02*
X608003Y91647D01*
X608003Y95472D02*
X606997Y95472D01*
X603003Y83997D02*
X601997Y83997D01*
X601997Y98003D01*
X603003Y98003D01*
X603003Y83997D01*
X603003Y87822D02*
X601997Y87822D01*
X601997Y91647D02*
X603003Y91647D01*
X603003Y95472D02*
X601997Y95472D01*
X598003Y83997D02*
X596997Y83997D01*
X596997Y98003D01*
X598003Y98003D01*
X598003Y83997D01*
X598003Y87822D02*
X596997Y87822D01*
X596997Y91647D02*
X598003Y91647D01*
X598003Y95472D02*
X596997Y95472D01*
X593003Y83997D02*
X591997Y83997D01*
X591997Y98003D01*
X593003Y98003D01*
X593003Y83997D01*
X593003Y87822D02*
X591997Y87822D01*
X591997Y91647D02*
X593003Y91647D01*
X593003Y95472D02*
X591997Y95472D01*
X588003Y83997D02*
X586997Y83997D01*
X586997Y98003D01*
X588003Y98003D01*
X588003Y83997D01*
X588003Y87822D02*
X586997Y87822D01*
X586997Y91647D02*
X588003Y91647D01*
X588003Y95472D02*
X586997Y95472D01*
X583003Y83997D02*
X581997Y83997D01*
X581997Y98003D01*
X583003Y98003D01*
X583003Y83997D01*
X583003Y87822D02*
X581997Y87822D01*
X581997Y91647D02*
X583003Y91647D01*
X583003Y95472D02*
X581997Y95472D01*
X578003Y83997D02*
X576997Y83997D01*
X576997Y98003D01*
X578003Y98003D01*
X578003Y83997D01*
X578003Y87822D02*
X576997Y87822D01*
X576997Y91647D02*
X578003Y91647D01*
X578003Y95472D02*
X576997Y95472D01*
X573003Y83997D02*
X571997Y83997D01*
X571997Y98003D01*
X573003Y98003D01*
X573003Y83997D01*
X573003Y87822D02*
X571997Y87822D01*
X571997Y91647D02*
X573003Y91647D01*
X573003Y95472D02*
X571997Y95472D01*
X568003Y83997D02*
X566997Y83997D01*
X566997Y98003D01*
X568003Y98003D01*
X568003Y83997D01*
X568003Y87822D02*
X566997Y87822D01*
X566997Y91647D02*
X568003Y91647D01*
X568003Y95472D02*
X566997Y95472D01*
X563003Y83997D02*
X561997Y83997D01*
X561997Y98003D01*
X563003Y98003D01*
X563003Y83997D01*
X563003Y87822D02*
X561997Y87822D01*
X561997Y91647D02*
X563003Y91647D01*
X563003Y95472D02*
X561997Y95472D01*
X558003Y83997D02*
X556997Y83997D01*
X556997Y98003D01*
X558003Y98003D01*
X558003Y83997D01*
X558003Y87822D02*
X556997Y87822D01*
X556997Y91647D02*
X558003Y91647D01*
X558003Y95472D02*
X556997Y95472D01*
X553003Y83997D02*
X551997Y83997D01*
X551997Y98003D01*
X553003Y98003D01*
X553003Y83997D01*
X553003Y87822D02*
X551997Y87822D01*
X551997Y91647D02*
X553003Y91647D01*
X553003Y95472D02*
X551997Y95472D01*
X548003Y83997D02*
X546997Y83997D01*
X546997Y98003D01*
X548003Y98003D01*
X548003Y83997D01*
X548003Y87822D02*
X546997Y87822D01*
X546997Y91647D02*
X548003Y91647D01*
X548003Y95472D02*
X546997Y95472D01*
X543003Y83997D02*
X541997Y83997D01*
X541997Y98003D01*
X543003Y98003D01*
X543003Y83997D01*
X543003Y87822D02*
X541997Y87822D01*
X541997Y91647D02*
X543003Y91647D01*
X543003Y95472D02*
X541997Y95472D01*
X856997Y161997D02*
X858003Y161997D01*
X856997Y161997D02*
X856997Y176003D01*
X858003Y176003D01*
X858003Y161997D01*
X858003Y165822D02*
X856997Y165822D01*
X856997Y169647D02*
X858003Y169647D01*
X858003Y173472D02*
X856997Y173472D01*
X856997Y83997D02*
X858003Y83997D01*
X856997Y83997D02*
X856997Y98003D01*
X858003Y98003D01*
X858003Y83997D01*
X858003Y87822D02*
X856997Y87822D01*
X856997Y91647D02*
X858003Y91647D01*
X858003Y95472D02*
X856997Y95472D01*
X853003Y161997D02*
X851997Y161997D01*
X851997Y176003D01*
X853003Y176003D01*
X853003Y161997D01*
X853003Y165822D02*
X851997Y165822D01*
X851997Y169647D02*
X853003Y169647D01*
X853003Y173472D02*
X851997Y173472D01*
X848003Y161997D02*
X846997Y161997D01*
X846997Y176003D01*
X848003Y176003D01*
X848003Y161997D01*
X848003Y165822D02*
X846997Y165822D01*
X846997Y169647D02*
X848003Y169647D01*
X848003Y173472D02*
X846997Y173472D01*
X843003Y161997D02*
X841997Y161997D01*
X841997Y176003D01*
X843003Y176003D01*
X843003Y161997D01*
X843003Y165822D02*
X841997Y165822D01*
X841997Y169647D02*
X843003Y169647D01*
X843003Y173472D02*
X841997Y173472D01*
X838003Y161997D02*
X836997Y161997D01*
X836997Y176003D01*
X838003Y176003D01*
X838003Y161997D01*
X838003Y165822D02*
X836997Y165822D01*
X836997Y169647D02*
X838003Y169647D01*
X838003Y173472D02*
X836997Y173472D01*
X833003Y161997D02*
X831997Y161997D01*
X831997Y176003D01*
X833003Y176003D01*
X833003Y161997D01*
X833003Y165822D02*
X831997Y165822D01*
X831997Y169647D02*
X833003Y169647D01*
X833003Y173472D02*
X831997Y173472D01*
X828003Y161997D02*
X826997Y161997D01*
X826997Y176003D01*
X828003Y176003D01*
X828003Y161997D01*
X828003Y165822D02*
X826997Y165822D01*
X826997Y169647D02*
X828003Y169647D01*
X828003Y173472D02*
X826997Y173472D01*
X823003Y161997D02*
X821997Y161997D01*
X821997Y176003D01*
X823003Y176003D01*
X823003Y161997D01*
X823003Y165822D02*
X821997Y165822D01*
X821997Y169647D02*
X823003Y169647D01*
X823003Y173472D02*
X821997Y173472D01*
X818003Y161997D02*
X816997Y161997D01*
X816997Y176003D01*
X818003Y176003D01*
X818003Y161997D01*
X818003Y165822D02*
X816997Y165822D01*
X816997Y169647D02*
X818003Y169647D01*
X818003Y173472D02*
X816997Y173472D01*
X813003Y161997D02*
X811997Y161997D01*
X811997Y176003D01*
X813003Y176003D01*
X813003Y161997D01*
X813003Y165822D02*
X811997Y165822D01*
X811997Y169647D02*
X813003Y169647D01*
X813003Y173472D02*
X811997Y173472D01*
X808003Y161997D02*
X806997Y161997D01*
X806997Y176003D01*
X808003Y176003D01*
X808003Y161997D01*
X808003Y165822D02*
X806997Y165822D01*
X806997Y169647D02*
X808003Y169647D01*
X808003Y173472D02*
X806997Y173472D01*
X803003Y161997D02*
X801997Y161997D01*
X801997Y176003D01*
X803003Y176003D01*
X803003Y161997D01*
X803003Y165822D02*
X801997Y165822D01*
X801997Y169647D02*
X803003Y169647D01*
X803003Y173472D02*
X801997Y173472D01*
X798003Y161997D02*
X796997Y161997D01*
X796997Y176003D01*
X798003Y176003D01*
X798003Y161997D01*
X798003Y165822D02*
X796997Y165822D01*
X796997Y169647D02*
X798003Y169647D01*
X798003Y173472D02*
X796997Y173472D01*
X793003Y161997D02*
X791997Y161997D01*
X791997Y176003D01*
X793003Y176003D01*
X793003Y161997D01*
X793003Y165822D02*
X791997Y165822D01*
X791997Y169647D02*
X793003Y169647D01*
X793003Y173472D02*
X791997Y173472D01*
X788003Y161997D02*
X786997Y161997D01*
X786997Y176003D01*
X788003Y176003D01*
X788003Y161997D01*
X788003Y165822D02*
X786997Y165822D01*
X786997Y169647D02*
X788003Y169647D01*
X788003Y173472D02*
X786997Y173472D01*
X783003Y161997D02*
X781997Y161997D01*
X781997Y176003D01*
X783003Y176003D01*
X783003Y161997D01*
X783003Y165822D02*
X781997Y165822D01*
X781997Y169647D02*
X783003Y169647D01*
X783003Y173472D02*
X781997Y173472D01*
X778003Y161997D02*
X776997Y161997D01*
X776997Y176003D01*
X778003Y176003D01*
X778003Y161997D01*
X778003Y165822D02*
X776997Y165822D01*
X776997Y169647D02*
X778003Y169647D01*
X778003Y173472D02*
X776997Y173472D01*
X773003Y161997D02*
X771997Y161997D01*
X771997Y176003D01*
X773003Y176003D01*
X773003Y161997D01*
X773003Y165822D02*
X771997Y165822D01*
X771997Y169647D02*
X773003Y169647D01*
X773003Y173472D02*
X771997Y173472D01*
X768003Y161997D02*
X766997Y161997D01*
X766997Y176003D01*
X768003Y176003D01*
X768003Y161997D01*
X768003Y165822D02*
X766997Y165822D01*
X766997Y169647D02*
X768003Y169647D01*
X768003Y173472D02*
X766997Y173472D01*
X763003Y161997D02*
X761997Y161997D01*
X761997Y176003D01*
X763003Y176003D01*
X763003Y161997D01*
X763003Y165822D02*
X761997Y165822D01*
X761997Y169647D02*
X763003Y169647D01*
X763003Y173472D02*
X761997Y173472D01*
X758003Y161997D02*
X756997Y161997D01*
X756997Y176003D01*
X758003Y176003D01*
X758003Y161997D01*
X758003Y165822D02*
X756997Y165822D01*
X756997Y169647D02*
X758003Y169647D01*
X758003Y173472D02*
X756997Y173472D01*
X753003Y161997D02*
X751997Y161997D01*
X751997Y176003D01*
X753003Y176003D01*
X753003Y161997D01*
X753003Y165822D02*
X751997Y165822D01*
X751997Y169647D02*
X753003Y169647D01*
X753003Y173472D02*
X751997Y173472D01*
X748003Y161997D02*
X746997Y161997D01*
X746997Y176003D01*
X748003Y176003D01*
X748003Y161997D01*
X748003Y165822D02*
X746997Y165822D01*
X746997Y169647D02*
X748003Y169647D01*
X748003Y173472D02*
X746997Y173472D01*
X743003Y161997D02*
X741997Y161997D01*
X741997Y176003D01*
X743003Y176003D01*
X743003Y161997D01*
X743003Y165822D02*
X741997Y165822D01*
X741997Y169647D02*
X743003Y169647D01*
X743003Y173472D02*
X741997Y173472D01*
X851997Y83997D02*
X853003Y83997D01*
X851997Y83997D02*
X851997Y98003D01*
X853003Y98003D01*
X853003Y83997D01*
X853003Y87822D02*
X851997Y87822D01*
X851997Y91647D02*
X853003Y91647D01*
X853003Y95472D02*
X851997Y95472D01*
X848003Y83997D02*
X846997Y83997D01*
X846997Y98003D01*
X848003Y98003D01*
X848003Y83997D01*
X848003Y87822D02*
X846997Y87822D01*
X846997Y91647D02*
X848003Y91647D01*
X848003Y95472D02*
X846997Y95472D01*
X843003Y83997D02*
X841997Y83997D01*
X841997Y98003D01*
X843003Y98003D01*
X843003Y83997D01*
X843003Y87822D02*
X841997Y87822D01*
X841997Y91647D02*
X843003Y91647D01*
X843003Y95472D02*
X841997Y95472D01*
X838003Y83997D02*
X836997Y83997D01*
X836997Y98003D01*
X838003Y98003D01*
X838003Y83997D01*
X838003Y87822D02*
X836997Y87822D01*
X836997Y91647D02*
X838003Y91647D01*
X838003Y95472D02*
X836997Y95472D01*
X833003Y83997D02*
X831997Y83997D01*
X831997Y98003D01*
X833003Y98003D01*
X833003Y83997D01*
X833003Y87822D02*
X831997Y87822D01*
X831997Y91647D02*
X833003Y91647D01*
X833003Y95472D02*
X831997Y95472D01*
X828003Y83997D02*
X826997Y83997D01*
X826997Y98003D01*
X828003Y98003D01*
X828003Y83997D01*
X828003Y87822D02*
X826997Y87822D01*
X826997Y91647D02*
X828003Y91647D01*
X828003Y95472D02*
X826997Y95472D01*
X823003Y83997D02*
X821997Y83997D01*
X821997Y98003D01*
X823003Y98003D01*
X823003Y83997D01*
X823003Y87822D02*
X821997Y87822D01*
X821997Y91647D02*
X823003Y91647D01*
X823003Y95472D02*
X821997Y95472D01*
X818003Y83997D02*
X816997Y83997D01*
X816997Y98003D01*
X818003Y98003D01*
X818003Y83997D01*
X818003Y87822D02*
X816997Y87822D01*
X816997Y91647D02*
X818003Y91647D01*
X818003Y95472D02*
X816997Y95472D01*
X813003Y83997D02*
X811997Y83997D01*
X811997Y98003D01*
X813003Y98003D01*
X813003Y83997D01*
X813003Y87822D02*
X811997Y87822D01*
X811997Y91647D02*
X813003Y91647D01*
X813003Y95472D02*
X811997Y95472D01*
X808003Y83997D02*
X806997Y83997D01*
X806997Y98003D01*
X808003Y98003D01*
X808003Y83997D01*
X808003Y87822D02*
X806997Y87822D01*
X806997Y91647D02*
X808003Y91647D01*
X808003Y95472D02*
X806997Y95472D01*
X803003Y83997D02*
X801997Y83997D01*
X801997Y98003D01*
X803003Y98003D01*
X803003Y83997D01*
X803003Y87822D02*
X801997Y87822D01*
X801997Y91647D02*
X803003Y91647D01*
X803003Y95472D02*
X801997Y95472D01*
X798003Y83997D02*
X796997Y83997D01*
X796997Y98003D01*
X798003Y98003D01*
X798003Y83997D01*
X798003Y87822D02*
X796997Y87822D01*
X796997Y91647D02*
X798003Y91647D01*
X798003Y95472D02*
X796997Y95472D01*
X793003Y83997D02*
X791997Y83997D01*
X791997Y98003D01*
X793003Y98003D01*
X793003Y83997D01*
X793003Y87822D02*
X791997Y87822D01*
X791997Y91647D02*
X793003Y91647D01*
X793003Y95472D02*
X791997Y95472D01*
X788003Y83997D02*
X786997Y83997D01*
X786997Y98003D01*
X788003Y98003D01*
X788003Y83997D01*
X788003Y87822D02*
X786997Y87822D01*
X786997Y91647D02*
X788003Y91647D01*
X788003Y95472D02*
X786997Y95472D01*
X783003Y83997D02*
X781997Y83997D01*
X781997Y98003D01*
X783003Y98003D01*
X783003Y83997D01*
X783003Y87822D02*
X781997Y87822D01*
X781997Y91647D02*
X783003Y91647D01*
X783003Y95472D02*
X781997Y95472D01*
X778003Y83997D02*
X776997Y83997D01*
X776997Y98003D01*
X778003Y98003D01*
X778003Y83997D01*
X778003Y87822D02*
X776997Y87822D01*
X776997Y91647D02*
X778003Y91647D01*
X778003Y95472D02*
X776997Y95472D01*
X773003Y83997D02*
X771997Y83997D01*
X771997Y98003D01*
X773003Y98003D01*
X773003Y83997D01*
X773003Y87822D02*
X771997Y87822D01*
X771997Y91647D02*
X773003Y91647D01*
X773003Y95472D02*
X771997Y95472D01*
X768003Y83997D02*
X766997Y83997D01*
X766997Y98003D01*
X768003Y98003D01*
X768003Y83997D01*
X768003Y87822D02*
X766997Y87822D01*
X766997Y91647D02*
X768003Y91647D01*
X768003Y95472D02*
X766997Y95472D01*
X763003Y83997D02*
X761997Y83997D01*
X761997Y98003D01*
X763003Y98003D01*
X763003Y83997D01*
X763003Y87822D02*
X761997Y87822D01*
X761997Y91647D02*
X763003Y91647D01*
X763003Y95472D02*
X761997Y95472D01*
X758003Y83997D02*
X756997Y83997D01*
X756997Y98003D01*
X758003Y98003D01*
X758003Y83997D01*
X758003Y87822D02*
X756997Y87822D01*
X756997Y91647D02*
X758003Y91647D01*
X758003Y95472D02*
X756997Y95472D01*
X753003Y83997D02*
X751997Y83997D01*
X751997Y98003D01*
X753003Y98003D01*
X753003Y83997D01*
X753003Y87822D02*
X751997Y87822D01*
X751997Y91647D02*
X753003Y91647D01*
X753003Y95472D02*
X751997Y95472D01*
X748003Y83997D02*
X746997Y83997D01*
X746997Y98003D01*
X748003Y98003D01*
X748003Y83997D01*
X748003Y87822D02*
X746997Y87822D01*
X746997Y91647D02*
X748003Y91647D01*
X748003Y95472D02*
X746997Y95472D01*
X743003Y83997D02*
X741997Y83997D01*
X741997Y98003D01*
X743003Y98003D01*
X743003Y83997D01*
X743003Y87822D02*
X741997Y87822D01*
X741997Y91647D02*
X743003Y91647D01*
X743003Y95472D02*
X741997Y95472D01*
X1056997Y161997D02*
X1058003Y161997D01*
X1056997Y161997D02*
X1056997Y176003D01*
X1058003Y176003D01*
X1058003Y161997D01*
X1058003Y165822D02*
X1056997Y165822D01*
X1056997Y169647D02*
X1058003Y169647D01*
X1058003Y173472D02*
X1056997Y173472D01*
X1056997Y83997D02*
X1058003Y83997D01*
X1056997Y83997D02*
X1056997Y98003D01*
X1058003Y98003D01*
X1058003Y83997D01*
X1058003Y87822D02*
X1056997Y87822D01*
X1056997Y91647D02*
X1058003Y91647D01*
X1058003Y95472D02*
X1056997Y95472D01*
X1053003Y161997D02*
X1051997Y161997D01*
X1051997Y176003D01*
X1053003Y176003D01*
X1053003Y161997D01*
X1053003Y165822D02*
X1051997Y165822D01*
X1051997Y169647D02*
X1053003Y169647D01*
X1053003Y173472D02*
X1051997Y173472D01*
X1048003Y161997D02*
X1046997Y161997D01*
X1046997Y176003D01*
X1048003Y176003D01*
X1048003Y161997D01*
X1048003Y165822D02*
X1046997Y165822D01*
X1046997Y169647D02*
X1048003Y169647D01*
X1048003Y173472D02*
X1046997Y173472D01*
X1043003Y161997D02*
X1041997Y161997D01*
X1041997Y176003D01*
X1043003Y176003D01*
X1043003Y161997D01*
X1043003Y165822D02*
X1041997Y165822D01*
X1041997Y169647D02*
X1043003Y169647D01*
X1043003Y173472D02*
X1041997Y173472D01*
X1038003Y161997D02*
X1036997Y161997D01*
X1036997Y176003D01*
X1038003Y176003D01*
X1038003Y161997D01*
X1038003Y165822D02*
X1036997Y165822D01*
X1036997Y169647D02*
X1038003Y169647D01*
X1038003Y173472D02*
X1036997Y173472D01*
X1033003Y161997D02*
X1031997Y161997D01*
X1031997Y176003D01*
X1033003Y176003D01*
X1033003Y161997D01*
X1033003Y165822D02*
X1031997Y165822D01*
X1031997Y169647D02*
X1033003Y169647D01*
X1033003Y173472D02*
X1031997Y173472D01*
X1028003Y161997D02*
X1026997Y161997D01*
X1026997Y176003D01*
X1028003Y176003D01*
X1028003Y161997D01*
X1028003Y165822D02*
X1026997Y165822D01*
X1026997Y169647D02*
X1028003Y169647D01*
X1028003Y173472D02*
X1026997Y173472D01*
X1023003Y161997D02*
X1021997Y161997D01*
X1021997Y176003D01*
X1023003Y176003D01*
X1023003Y161997D01*
X1023003Y165822D02*
X1021997Y165822D01*
X1021997Y169647D02*
X1023003Y169647D01*
X1023003Y173472D02*
X1021997Y173472D01*
X1018003Y161997D02*
X1016997Y161997D01*
X1016997Y176003D01*
X1018003Y176003D01*
X1018003Y161997D01*
X1018003Y165822D02*
X1016997Y165822D01*
X1016997Y169647D02*
X1018003Y169647D01*
X1018003Y173472D02*
X1016997Y173472D01*
X1013003Y161997D02*
X1011997Y161997D01*
X1011997Y176003D01*
X1013003Y176003D01*
X1013003Y161997D01*
X1013003Y165822D02*
X1011997Y165822D01*
X1011997Y169647D02*
X1013003Y169647D01*
X1013003Y173472D02*
X1011997Y173472D01*
X1008003Y161997D02*
X1006997Y161997D01*
X1006997Y176003D01*
X1008003Y176003D01*
X1008003Y161997D01*
X1008003Y165822D02*
X1006997Y165822D01*
X1006997Y169647D02*
X1008003Y169647D01*
X1008003Y173472D02*
X1006997Y173472D01*
X1003003Y161997D02*
X1001997Y161997D01*
X1001997Y176003D01*
X1003003Y176003D01*
X1003003Y161997D01*
X1003003Y165822D02*
X1001997Y165822D01*
X1001997Y169647D02*
X1003003Y169647D01*
X1003003Y173472D02*
X1001997Y173472D01*
X998003Y161997D02*
X996997Y161997D01*
X996997Y176003D01*
X998003Y176003D01*
X998003Y161997D01*
X998003Y165822D02*
X996997Y165822D01*
X996997Y169647D02*
X998003Y169647D01*
X998003Y173472D02*
X996997Y173472D01*
X993003Y161997D02*
X991997Y161997D01*
X991997Y176003D01*
X993003Y176003D01*
X993003Y161997D01*
X993003Y165822D02*
X991997Y165822D01*
X991997Y169647D02*
X993003Y169647D01*
X993003Y173472D02*
X991997Y173472D01*
X988003Y161997D02*
X986997Y161997D01*
X986997Y176003D01*
X988003Y176003D01*
X988003Y161997D01*
X988003Y165822D02*
X986997Y165822D01*
X986997Y169647D02*
X988003Y169647D01*
X988003Y173472D02*
X986997Y173472D01*
X983003Y161997D02*
X981997Y161997D01*
X981997Y176003D01*
X983003Y176003D01*
X983003Y161997D01*
X983003Y165822D02*
X981997Y165822D01*
X981997Y169647D02*
X983003Y169647D01*
X983003Y173472D02*
X981997Y173472D01*
X978003Y161997D02*
X976997Y161997D01*
X976997Y176003D01*
X978003Y176003D01*
X978003Y161997D01*
X978003Y165822D02*
X976997Y165822D01*
X976997Y169647D02*
X978003Y169647D01*
X978003Y173472D02*
X976997Y173472D01*
X973003Y161997D02*
X971997Y161997D01*
X971997Y176003D01*
X973003Y176003D01*
X973003Y161997D01*
X973003Y165822D02*
X971997Y165822D01*
X971997Y169647D02*
X973003Y169647D01*
X973003Y173472D02*
X971997Y173472D01*
X968003Y161997D02*
X966997Y161997D01*
X966997Y176003D01*
X968003Y176003D01*
X968003Y161997D01*
X968003Y165822D02*
X966997Y165822D01*
X966997Y169647D02*
X968003Y169647D01*
X968003Y173472D02*
X966997Y173472D01*
X963003Y161997D02*
X961997Y161997D01*
X961997Y176003D01*
X963003Y176003D01*
X963003Y161997D01*
X963003Y165822D02*
X961997Y165822D01*
X961997Y169647D02*
X963003Y169647D01*
X963003Y173472D02*
X961997Y173472D01*
X958003Y161997D02*
X956997Y161997D01*
X956997Y176003D01*
X958003Y176003D01*
X958003Y161997D01*
X958003Y165822D02*
X956997Y165822D01*
X956997Y169647D02*
X958003Y169647D01*
X958003Y173472D02*
X956997Y173472D01*
X953003Y161997D02*
X951997Y161997D01*
X951997Y176003D01*
X953003Y176003D01*
X953003Y161997D01*
X953003Y165822D02*
X951997Y165822D01*
X951997Y169647D02*
X953003Y169647D01*
X953003Y173472D02*
X951997Y173472D01*
X948003Y161997D02*
X946997Y161997D01*
X946997Y176003D01*
X948003Y176003D01*
X948003Y161997D01*
X948003Y165822D02*
X946997Y165822D01*
X946997Y169647D02*
X948003Y169647D01*
X948003Y173472D02*
X946997Y173472D01*
X943003Y161997D02*
X941997Y161997D01*
X941997Y176003D01*
X943003Y176003D01*
X943003Y161997D01*
X943003Y165822D02*
X941997Y165822D01*
X941997Y169647D02*
X943003Y169647D01*
X943003Y173472D02*
X941997Y173472D01*
X1051997Y83997D02*
X1053003Y83997D01*
X1051997Y83997D02*
X1051997Y98003D01*
X1053003Y98003D01*
X1053003Y83997D01*
X1053003Y87822D02*
X1051997Y87822D01*
X1051997Y91647D02*
X1053003Y91647D01*
X1053003Y95472D02*
X1051997Y95472D01*
X1048003Y83997D02*
X1046997Y83997D01*
X1046997Y98003D01*
X1048003Y98003D01*
X1048003Y83997D01*
X1048003Y87822D02*
X1046997Y87822D01*
X1046997Y91647D02*
X1048003Y91647D01*
X1048003Y95472D02*
X1046997Y95472D01*
X1043003Y83997D02*
X1041997Y83997D01*
X1041997Y98003D01*
X1043003Y98003D01*
X1043003Y83997D01*
X1043003Y87822D02*
X1041997Y87822D01*
X1041997Y91647D02*
X1043003Y91647D01*
X1043003Y95472D02*
X1041997Y95472D01*
X1038003Y83997D02*
X1036997Y83997D01*
X1036997Y98003D01*
X1038003Y98003D01*
X1038003Y83997D01*
X1038003Y87822D02*
X1036997Y87822D01*
X1036997Y91647D02*
X1038003Y91647D01*
X1038003Y95472D02*
X1036997Y95472D01*
X1033003Y83997D02*
X1031997Y83997D01*
X1031997Y98003D01*
X1033003Y98003D01*
X1033003Y83997D01*
X1033003Y87822D02*
X1031997Y87822D01*
X1031997Y91647D02*
X1033003Y91647D01*
X1033003Y95472D02*
X1031997Y95472D01*
X1028003Y83997D02*
X1026997Y83997D01*
X1026997Y98003D01*
X1028003Y98003D01*
X1028003Y83997D01*
X1028003Y87822D02*
X1026997Y87822D01*
X1026997Y91647D02*
X1028003Y91647D01*
X1028003Y95472D02*
X1026997Y95472D01*
X1023003Y83997D02*
X1021997Y83997D01*
X1021997Y98003D01*
X1023003Y98003D01*
X1023003Y83997D01*
X1023003Y87822D02*
X1021997Y87822D01*
X1021997Y91647D02*
X1023003Y91647D01*
X1023003Y95472D02*
X1021997Y95472D01*
X1018003Y83997D02*
X1016997Y83997D01*
X1016997Y98003D01*
X1018003Y98003D01*
X1018003Y83997D01*
X1018003Y87822D02*
X1016997Y87822D01*
X1016997Y91647D02*
X1018003Y91647D01*
X1018003Y95472D02*
X1016997Y95472D01*
X1013003Y83997D02*
X1011997Y83997D01*
X1011997Y98003D01*
X1013003Y98003D01*
X1013003Y83997D01*
X1013003Y87822D02*
X1011997Y87822D01*
X1011997Y91647D02*
X1013003Y91647D01*
X1013003Y95472D02*
X1011997Y95472D01*
X1008003Y83997D02*
X1006997Y83997D01*
X1006997Y98003D01*
X1008003Y98003D01*
X1008003Y83997D01*
X1008003Y87822D02*
X1006997Y87822D01*
X1006997Y91647D02*
X1008003Y91647D01*
X1008003Y95472D02*
X1006997Y95472D01*
X1003003Y83997D02*
X1001997Y83997D01*
X1001997Y98003D01*
X1003003Y98003D01*
X1003003Y83997D01*
X1003003Y87822D02*
X1001997Y87822D01*
X1001997Y91647D02*
X1003003Y91647D01*
X1003003Y95472D02*
X1001997Y95472D01*
X998003Y83997D02*
X996997Y83997D01*
X996997Y98003D01*
X998003Y98003D01*
X998003Y83997D01*
X998003Y87822D02*
X996997Y87822D01*
X996997Y91647D02*
X998003Y91647D01*
X998003Y95472D02*
X996997Y95472D01*
X993003Y83997D02*
X991997Y83997D01*
X991997Y98003D01*
X993003Y98003D01*
X993003Y83997D01*
X993003Y87822D02*
X991997Y87822D01*
X991997Y91647D02*
X993003Y91647D01*
X993003Y95472D02*
X991997Y95472D01*
X988003Y83997D02*
X986997Y83997D01*
X986997Y98003D01*
X988003Y98003D01*
X988003Y83997D01*
X988003Y87822D02*
X986997Y87822D01*
X986997Y91647D02*
X988003Y91647D01*
X988003Y95472D02*
X986997Y95472D01*
X983003Y83997D02*
X981997Y83997D01*
X981997Y98003D01*
X983003Y98003D01*
X983003Y83997D01*
X983003Y87822D02*
X981997Y87822D01*
X981997Y91647D02*
X983003Y91647D01*
X983003Y95472D02*
X981997Y95472D01*
X978003Y83997D02*
X976997Y83997D01*
X976997Y98003D01*
X978003Y98003D01*
X978003Y83997D01*
X978003Y87822D02*
X976997Y87822D01*
X976997Y91647D02*
X978003Y91647D01*
X978003Y95472D02*
X976997Y95472D01*
X973003Y83997D02*
X971997Y83997D01*
X971997Y98003D01*
X973003Y98003D01*
X973003Y83997D01*
X973003Y87822D02*
X971997Y87822D01*
X971997Y91647D02*
X973003Y91647D01*
X973003Y95472D02*
X971997Y95472D01*
X968003Y83997D02*
X966997Y83997D01*
X966997Y98003D01*
X968003Y98003D01*
X968003Y83997D01*
X968003Y87822D02*
X966997Y87822D01*
X966997Y91647D02*
X968003Y91647D01*
X968003Y95472D02*
X966997Y95472D01*
X963003Y83997D02*
X961997Y83997D01*
X961997Y98003D01*
X963003Y98003D01*
X963003Y83997D01*
X963003Y87822D02*
X961997Y87822D01*
X961997Y91647D02*
X963003Y91647D01*
X963003Y95472D02*
X961997Y95472D01*
X958003Y83997D02*
X956997Y83997D01*
X956997Y98003D01*
X958003Y98003D01*
X958003Y83997D01*
X958003Y87822D02*
X956997Y87822D01*
X956997Y91647D02*
X958003Y91647D01*
X958003Y95472D02*
X956997Y95472D01*
X953003Y83997D02*
X951997Y83997D01*
X951997Y98003D01*
X953003Y98003D01*
X953003Y83997D01*
X953003Y87822D02*
X951997Y87822D01*
X951997Y91647D02*
X953003Y91647D01*
X953003Y95472D02*
X951997Y95472D01*
X948003Y83997D02*
X946997Y83997D01*
X946997Y98003D01*
X948003Y98003D01*
X948003Y83997D01*
X948003Y87822D02*
X946997Y87822D01*
X946997Y91647D02*
X948003Y91647D01*
X948003Y95472D02*
X946997Y95472D01*
X943003Y83997D02*
X941997Y83997D01*
X941997Y98003D01*
X943003Y98003D01*
X943003Y83997D01*
X943003Y87822D02*
X941997Y87822D01*
X941997Y91647D02*
X943003Y91647D01*
X943003Y95472D02*
X941997Y95472D01*
D14*
X247500Y237500D03*
X242500Y237500D03*
X237500Y237500D03*
X232500Y237500D03*
X227500Y237500D03*
X222500Y237500D03*
X217500Y237500D03*
X212500Y237500D03*
X207500Y237500D03*
X202500Y237500D03*
X197500Y237500D03*
X192500Y237500D03*
X187500Y237500D03*
X182500Y237500D03*
X177500Y237500D03*
X172500Y237500D03*
X167500Y237500D03*
X162500Y237500D03*
X157500Y237500D03*
X152500Y237500D03*
D15*
X133500Y270000D03*
X266500Y270000D03*
D14*
X497500Y237500D03*
X492500Y237500D03*
X487500Y237500D03*
X482500Y237500D03*
X477500Y237500D03*
X472500Y237500D03*
X467500Y237500D03*
X462500Y237500D03*
X457500Y237500D03*
X452500Y237500D03*
X447500Y237500D03*
X442500Y237500D03*
X437500Y237500D03*
X432500Y237500D03*
X427500Y237500D03*
X422500Y237500D03*
X417500Y237500D03*
X412500Y237500D03*
X407500Y237500D03*
X402500Y237500D03*
D15*
X383500Y270000D03*
X516500Y270000D03*
D14*
X797500Y237500D03*
X792500Y237500D03*
X787500Y237500D03*
X782500Y237500D03*
X777500Y237500D03*
X772500Y237500D03*
X767500Y237500D03*
X762500Y237500D03*
X757500Y237500D03*
X752500Y237500D03*
X747500Y237500D03*
X742500Y237500D03*
X737500Y237500D03*
X732500Y237500D03*
X727500Y237500D03*
X722500Y237500D03*
X717500Y237500D03*
X712500Y237500D03*
X707500Y237500D03*
X702500Y237500D03*
D15*
X683500Y270000D03*
X816500Y270000D03*
D14*
X1047500Y237500D03*
X1042500Y237500D03*
X1037500Y237500D03*
X1032500Y237500D03*
X1027500Y237500D03*
X1022500Y237500D03*
X1017500Y237500D03*
X1012500Y237500D03*
X1007500Y237500D03*
X1002500Y237500D03*
X997500Y237500D03*
X992500Y237500D03*
X987500Y237500D03*
X982500Y237500D03*
X977500Y237500D03*
X972500Y237500D03*
X967500Y237500D03*
X962500Y237500D03*
X957500Y237500D03*
X952500Y237500D03*
D15*
X933500Y270000D03*
X1066500Y270000D03*
D16*
X840000Y77500D03*
X1062500Y75000D03*
X265000Y80000D03*
X467500Y117500D03*
X657500Y77500D03*
X647500Y35000D03*
X870000Y85000D03*
X257500Y72500D03*
X202500Y145000D03*
X357500Y117500D03*
X157500Y117500D03*
X237500Y65000D03*
X20000Y117500D03*
X255000Y155000D03*
X457500Y155000D03*
X535000Y175000D03*
X657500Y155000D03*
X587500Y112500D03*
X620000Y140000D03*
X742500Y155000D03*
X555000Y77500D03*
X1055000Y150000D03*
X1060000Y182500D03*
X1042500Y117500D03*
X857500Y152500D03*
X812500Y77500D03*
X1010000Y117500D03*
X755000Y70000D03*
X442500Y77500D03*
X665000Y105000D03*
X680000Y122500D03*
X195000Y77500D03*
X110000Y90000D03*
X187500Y142500D03*
X102500Y165000D03*
X250000Y120000D03*
X120000Y167500D03*
X180000Y77500D03*
X112500Y70000D03*
X230000Y72500D03*
X92500Y160000D03*
X180000Y135000D03*
X235000Y125000D03*
X82500Y160000D03*
X165000Y130000D03*
X220000Y117500D03*
X212500Y145000D03*
X197500Y130000D03*
X102500Y150000D03*
X162500Y77500D03*
X100000Y90000D03*
X282500Y112500D03*
X137500Y195000D03*
X195000Y62500D03*
X127500Y62500D03*
X395000Y77500D03*
X452500Y77500D03*
X380000Y142500D03*
X450000Y125000D03*
X340000Y127500D03*
X380000Y62500D03*
X435000Y62500D03*
X380000Y132500D03*
X425000Y55000D03*
X420000Y127500D03*
X365000Y75000D03*
X335000Y177500D03*
X417500Y77500D03*
X420000Y142500D03*
X405000Y127500D03*
X350000Y125000D03*
X397500Y135000D03*
X347500Y77500D03*
X595000Y120000D03*
X652500Y120000D03*
X550000Y145000D03*
X592500Y77500D03*
X647500Y77500D03*
X547500Y182500D03*
X580000Y132500D03*
X635000Y132500D03*
X600000Y147500D03*
X585000Y70000D03*
X637500Y70000D03*
X565000Y130000D03*
X622500Y50000D03*
X622500Y27500D03*
X670000Y122500D03*
X615000Y57500D03*
X560000Y67500D03*
X540000Y190000D03*
X607500Y50000D03*
X535000Y52500D03*
X687500Y172500D03*
X575000Y45000D03*
X597500Y45000D03*
X852500Y65000D03*
X795000Y135000D03*
X787500Y120000D03*
X855000Y120000D03*
X780000Y145000D03*
X850000Y145000D03*
X885000Y160000D03*
X827500Y57500D03*
X780000Y67500D03*
X865000Y167500D03*
X825000Y120000D03*
X767500Y127500D03*
X817500Y137500D03*
X762500Y77500D03*
X835000Y145000D03*
X805000Y115000D03*
X750000Y115000D03*
X862500Y137500D03*
X755000Y60000D03*
X802500Y77500D03*
X1055000Y105000D03*
X1005000Y142500D03*
X947500Y125000D03*
X1000000Y125000D03*
X1045000Y182500D03*
X1007500Y70000D03*
X952500Y77500D03*
X965000Y142500D03*
X1020000Y125000D03*
X935000Y180000D03*
X970000Y132500D03*
X927500Y172500D03*
X977500Y62500D03*
X1032500Y62500D03*
X937500Y127500D03*
X985000Y77500D03*
X1040000Y70000D03*
X1070000Y192500D03*
X992500Y135000D03*
X995000Y77500D03*
X1052500Y75000D03*
X805000Y237500D03*
X637500Y230000D03*
X597500Y182500D03*
X795000Y250000D03*
X630000Y212500D03*
X787500Y270000D03*
X627500Y265000D03*
X582500Y182500D03*
X775000Y270000D03*
X605000Y250000D03*
X805000Y227500D03*
X575000Y255000D03*
X775000Y250000D03*
X557500Y237500D03*
X765000Y270000D03*
X567500Y265000D03*
X745000Y192500D03*
X545000Y155000D03*
X872500Y227500D03*
X142500Y107500D03*
X330000Y112500D03*
X492500Y45000D03*
X472500Y132500D03*
X657500Y145000D03*
X855000Y105000D03*
X1062500Y112500D03*
X1027500Y195000D03*
X975000Y190000D03*
X640000Y27500D03*
X455000Y20000D03*
X135000Y100000D03*
X335000Y102500D03*
X1055000Y65000D03*
X935000Y90000D03*
X460000Y110000D03*
X245000Y192500D03*
X257500Y182500D03*
X170000Y250000D03*
X450000Y145000D03*
X160000Y250000D03*
X440000Y182500D03*
X165000Y222500D03*
X435000Y145000D03*
X152500Y225000D03*
X427500Y195000D03*
X497500Y212500D03*
X455000Y182500D03*
X487500Y250000D03*
X412500Y210000D03*
X482500Y197500D03*
X402500Y210000D03*
X482500Y212500D03*
X400000Y200000D03*
X477500Y250000D03*
X395000Y250000D03*
X470000Y257500D03*
X382500Y242500D03*
X467500Y202500D03*
X382500Y182500D03*
X470000Y192500D03*
X375000Y190000D03*
X460000Y265000D03*
X372500Y252500D03*
X452500Y257500D03*
X367500Y212500D03*
X445000Y265000D03*
X367500Y235000D03*
X512500Y212500D03*
X652500Y190000D03*
X497500Y265000D03*
X637500Y220000D03*
X467500Y175000D03*
X640000Y182500D03*
X427500Y272500D03*
X630000Y182500D03*
X420000Y217500D03*
X630000Y197500D03*
X410000Y225000D03*
X622500Y205000D03*
X415000Y257500D03*
X607500Y182500D03*
X520000Y160000D03*
X607500Y140000D03*
X757500Y262500D03*
X845000Y237500D03*
X750000Y255000D03*
X845000Y227500D03*
X750000Y202500D03*
X825000Y197500D03*
X735000Y175000D03*
X822500Y207500D03*
X740000Y265000D03*
X787500Y280000D03*
X727500Y250000D03*
X797500Y215000D03*
X730000Y222500D03*
X787500Y215000D03*
X717500Y250000D03*
X795000Y195000D03*
X720000Y222500D03*
X790000Y185000D03*
X707500Y215000D03*
X777500Y215000D03*
X700000Y207500D03*
X770000Y207500D03*
X1047500Y225000D03*
X770000Y182500D03*
X1042500Y250000D03*
X757500Y132500D03*
X1032500Y250000D03*
X762500Y190000D03*
X1032500Y215000D03*
X742500Y182500D03*
X1017500Y202500D03*
X1040000Y145000D03*
M02*
