G04 EAGLE Gerber RS-274X export*
G75*
%MOMM*%
%FSLAX34Y34*%
%LPD*%
%INSolderpaste Bottom*%
%IPPOS*%
%AMOC8*
5,1,8,0,0,1.08239X$1,22.5*%
G01*
%ADD10R,0.600000X1.200000*%


D10*
X155550Y158000D03*
X168250Y158000D03*
X180950Y158000D03*
X193650Y158000D03*
X206350Y158000D03*
X219050Y158000D03*
X231750Y158000D03*
X244450Y158000D03*
X244450Y102000D03*
X231750Y102000D03*
X219050Y102000D03*
X206350Y102000D03*
X193650Y102000D03*
X180950Y102000D03*
X168250Y102000D03*
X155550Y102000D03*
X355550Y158000D03*
X368250Y158000D03*
X380950Y158000D03*
X393650Y158000D03*
X406350Y158000D03*
X419050Y158000D03*
X431750Y158000D03*
X444450Y158000D03*
X444450Y102000D03*
X431750Y102000D03*
X419050Y102000D03*
X406350Y102000D03*
X393650Y102000D03*
X380950Y102000D03*
X368250Y102000D03*
X355550Y102000D03*
X555550Y158000D03*
X568250Y158000D03*
X580950Y158000D03*
X593650Y158000D03*
X606350Y158000D03*
X619050Y158000D03*
X631750Y158000D03*
X644450Y158000D03*
X644450Y102000D03*
X631750Y102000D03*
X619050Y102000D03*
X606350Y102000D03*
X593650Y102000D03*
X580950Y102000D03*
X568250Y102000D03*
X555550Y102000D03*
X755550Y158000D03*
X768250Y158000D03*
X780950Y158000D03*
X793650Y158000D03*
X806350Y158000D03*
X819050Y158000D03*
X831750Y158000D03*
X844450Y158000D03*
X844450Y102000D03*
X831750Y102000D03*
X819050Y102000D03*
X806350Y102000D03*
X793650Y102000D03*
X780950Y102000D03*
X768250Y102000D03*
X755550Y102000D03*
X955550Y158000D03*
X968250Y158000D03*
X980950Y158000D03*
X993650Y158000D03*
X1006350Y158000D03*
X1019050Y158000D03*
X1031750Y158000D03*
X1044450Y158000D03*
X1044450Y102000D03*
X1031750Y102000D03*
X1019050Y102000D03*
X1006350Y102000D03*
X993650Y102000D03*
X980950Y102000D03*
X968250Y102000D03*
X955550Y102000D03*
M02*
