M48
;GenerationSoftware,Autodesk,EAGLE,9.6.2*%
;CreationDate,2023-08-11T06:53:57Z*%
FMAT,2
ICI,OFF
METRIC,TZ,000.000
T2C0.350
T1C1.016
%
G90
M71
T1
X86350Y4000
X93650Y4000
X96190Y4000
X98730Y4000
X101270Y4000
X103810Y4000
X106350Y4000
X58730Y23000
X61270Y23000
X58730Y27000
X61270Y27000
X33650Y4000
X36190Y4000
X38730Y4000
X41270Y4000
X43810Y4000
X46350Y4000
X13650Y4000
X16190Y4000
X18730Y4000
X21270Y4000
X23810Y4000
X26350Y4000
X73650Y4000
X76190Y4000
X78730Y4000
X81270Y4000
X83810Y4000
T2
X44250Y7750
X66500Y10500
X68000Y12250
X19500Y7750
X11000Y9000
X18750Y14250
X10250Y16500
X25000Y12000
X12000Y16750
X18000Y7750
X11250Y7000
X23000Y7250
X9250Y16000
X18000Y13500
X23500Y12500
X8250Y16000
X16500Y13000
X22000Y11750
X21250Y14500
X19750Y13000
X10250Y15000
X16250Y7750
X10000Y9000
X28250Y11250
X13750Y19500
X19500Y6250
X12750Y6250
X39500Y7750
X45250Y7750
X38000Y14250
X45000Y12500
X34000Y12750
X38000Y6250
X43500Y6250
X38000Y13250
X42500Y5500
X42000Y12750
X36500Y7500
X33500Y17750
X41750Y7750
X42000Y14250
X40500Y12750
X35000Y12500
X39750Y13500
X34750Y7750
X59500Y12000
X65250Y12000
X55000Y14500
X59250Y7750
X64750Y7750
X54750Y18250
X58000Y13250
X63500Y13250
X60000Y14750
X58500Y7000
X63750Y7000
X56500Y13000
X62250Y5000
X62250Y2750
X67000Y12250
X61500Y5750
X56000Y6750
X54000Y19000
X60750Y5000
X53500Y5250
X68750Y17250
X57500Y4500
X59750Y4500
X85250Y6500
X79500Y13500
X78750Y12000
X85500Y12000
X78000Y14500
X85000Y14500
X88500Y16000
X82750Y5750
X78000Y6750
X86500Y16750
X82500Y12000
X76750Y12750
X81750Y13750
X76250Y7750
X83500Y14500
X80500Y11500
X75000Y11500
X86250Y13750
X75500Y6000
X80250Y7750
X105500Y10500
X100500Y14250
X94750Y12500
X100000Y12500
X104500Y18250
X100750Y7000
X95250Y7750
X96500Y14250
X102000Y12500
X93500Y18000
X97000Y13250
X92750Y17250
X97750Y6250
X103250Y6250
X93750Y12750
X98500Y7750
X104000Y7000
X107000Y19250
X99250Y13500
X99500Y7750
X105250Y7500
X80500Y23750
X63750Y23000
X59750Y18250
X79500Y25000
X63000Y21250
X78750Y27000
X62750Y26500
X58250Y18250
X77500Y27000
X60500Y25000
X80500Y22750
X57500Y25500
X77500Y25000
X55750Y23750
X76500Y27000
X56750Y26500
X74500Y19250
X54500Y15500
X87250Y22750
X14250Y10750
X33000Y11250
X49250Y4500
X47250Y13250
X65750Y14500
X85500Y10500
X106250Y11250
X102750Y19500
X97500Y19000
X64000Y2750
X45500Y2000
X13500Y10000
X33500Y10250
X105500Y6500
X93500Y9000
X46000Y11000
X24500Y19250
X25750Y18250
X17000Y25000
X45000Y14500
X16000Y25000
X44000Y18250
X16500Y22250
X43500Y14500
X15250Y22500
X42750Y19500
X49750Y21250
X45500Y18250
X48750Y25000
X41250Y21000
X48250Y19750
X40250Y21000
X48250Y21250
X40000Y20000
X47750Y25000
X39500Y25000
X47000Y25750
X38250Y24250
X46750Y20250
X38250Y18250
X47000Y19250
X37500Y19000
X46000Y26500
X37250Y25250
X45250Y25750
X36750Y21250
X44500Y26500
X36750Y23500
X51250Y21250
X65250Y19000
X49750Y26500
X63750Y22000
X46750Y17500
X84000Y7750
X42750Y27250
X63000Y18250
X42000Y21750
X63000Y19750
X41000Y22500
X62250Y20500
X41500Y25750
X60750Y18250
X52000Y16000
X60750Y14000
X75750Y26250
X84500Y23750
X75000Y25500
X84500Y22750
X75000Y20250
X82500Y19750
X73500Y17500
X82250Y20750
X74000Y26500
X78750Y28000
X72750Y25000
X79750Y21500
X73000Y22250
X78750Y21500
X71750Y25000
X79500Y19500
X72000Y22250
X79000Y18500
X70750Y21500
X77750Y21500
X70000Y20750
X77000Y20750
X104750Y22500
X77000Y18250
X64000Y18250
X75750Y13250
X103250Y25000
X76250Y19000
X103250Y21500
X74250Y18250
X101750Y20250
X104000Y14500
X106250Y7500
X26500Y8000
X46750Y11750
X65750Y7750
X64750Y3500
X87000Y8500
X25750Y7250
X20250Y14500
X35750Y11750
X15750Y11750
X23750Y6500
X2000Y11750
X25500Y15500
X45750Y15500
X53500Y17500
X65750Y15500
X58750Y11250
X62000Y14000
X74250Y15500
X55500Y7750
X105500Y15000
X106000Y18250
X104250Y11750
X85750Y15250
X81250Y7750
X101000Y11750
X75500Y7000
X104250Y25000
M30